<?xml version="1.0" encoding="UTF-8" standalone="no"?>
<!-- Created with Inkscape (http://www.inkscape.org/) -->

<svg
   width="61.709999mm"
   height="47.396mm"
   viewBox="0 0 61.709999 47.396"
   version="1.1"
   id="svg1"
   inkscape:version="1.3 (0e150ed6c4, 2023-07-21)"
   sodipodi:docname="cena.avg.svg"
   xmlns:inkscape="http://www.inkscape.org/namespaces/inkscape"
   xmlns:sodipodi="http://sodipodi.sourceforge.net/DTD/sodipodi-0.dtd"
   xmlns="http://www.w3.org/2000/svg"
   xmlns:svg="http://www.w3.org/2000/svg">
  <sodipodi:namedview
     id="namedview1"
     pagecolor="#ffffff"
     bordercolor="#000000"
     borderopacity="0.25"
     inkscape:showpageshadow="2"
     inkscape:pageopacity="0.0"
     inkscape:pagecheckerboard="0"
     inkscape:deskcolor="#d1d1d1"
     inkscape:document-units="mm"
     inkscape:zoom="3.9660278"
     inkscape:cx="85.980234"
     inkscape:cy="82.324183"
     inkscape:window-width="1920"
     inkscape:window-height="1001"
     inkscape:window-x="-9"
     inkscape:window-y="-9"
     inkscape:window-maximized="1"
     inkscape:current-layer="layer1" />
  <defs
     id="defs1">
    <clipPath
       clipPathUnits="userSpaceOnUse"
       id="clipPath9492">
      <path
         d="M 0,500 H 750 V 0 H 0 Z"
         transform="translate(-170.1987,-107.94041)"
         id="path9492" />
    </clipPath>
    <clipPath
       clipPathUnits="userSpaceOnUse"
       id="clipPath9470">
      <path
         d="M 0,500 H 750 V 0 H 0 Z"
         transform="translate(-171.57861,-138.7187)"
         id="path9470" />
    </clipPath>
    <clipPath
       clipPathUnits="userSpaceOnUse"
       id="clipPath451">
      <path
         d="M 0,500 H 500 V 0 H 0 Z"
         transform="translate(-132.37701,-197.4209)"
         id="path451" />
    </clipPath>
    <clipPath
       clipPathUnits="userSpaceOnUse"
       id="clipPath455">
      <path
         d="M 0,500 H 500 V 0 H 0 Z"
         transform="translate(-134.3242,-224.06351)"
         id="path455" />
    </clipPath>
    <clipPath
       clipPathUnits="userSpaceOnUse"
       id="clipPath459">
      <path
         d="M 0,500 H 500 V 0 H 0 Z"
         transform="translate(-120.5308,-211.51071)"
         id="path459" />
    </clipPath>
    <clipPath
       clipPathUnits="userSpaceOnUse"
       id="clipPath463">
      <path
         d="M 0,500 H 500 V 0 H 0 Z"
         transform="translate(-124.6455,-191.5967)"
         id="path463" />
    </clipPath>
    <clipPath
       clipPathUnits="userSpaceOnUse"
       id="clipPath467">
      <path
         d="M 0,500 H 500 V 0 H 0 Z"
         transform="translate(-139.0786,-208.04591)"
         id="path467" />
    </clipPath>
    <clipPath
       clipPathUnits="userSpaceOnUse"
       id="clipPath469">
      <path
         d="M 0,500 H 500 V 0 H 0 Z"
         transform="translate(-128.4082,-185.2139)"
         id="path469" />
    </clipPath>
    <clipPath
       clipPathUnits="userSpaceOnUse"
       id="clipPath451-1">
      <path
         d="M 0,500 H 500 V 0 H 0 Z"
         transform="translate(-132.37701,-197.4209)"
         id="path451-1" />
    </clipPath>
    <clipPath
       clipPathUnits="userSpaceOnUse"
       id="clipPath455-1">
      <path
         d="M 0,500 H 500 V 0 H 0 Z"
         transform="translate(-134.3242,-224.06351)"
         id="path455-0" />
    </clipPath>
    <clipPath
       clipPathUnits="userSpaceOnUse"
       id="clipPath459-2">
      <path
         d="M 0,500 H 500 V 0 H 0 Z"
         transform="translate(-120.5308,-211.51071)"
         id="path459-1" />
    </clipPath>
    <clipPath
       clipPathUnits="userSpaceOnUse"
       id="clipPath463-6">
      <path
         d="M 0,500 H 500 V 0 H 0 Z"
         transform="translate(-124.6455,-191.5967)"
         id="path463-4" />
    </clipPath>
    <clipPath
       clipPathUnits="userSpaceOnUse"
       id="clipPath467-7">
      <path
         d="M 0,500 H 500 V 0 H 0 Z"
         transform="translate(-139.0786,-208.04591)"
         id="path467-3" />
    </clipPath>
    <clipPath
       clipPathUnits="userSpaceOnUse"
       id="clipPath469-5">
      <path
         d="M 0,500 H 500 V 0 H 0 Z"
         transform="translate(-128.4082,-185.2139)"
         id="path469-9" />
    </clipPath>
    <clipPath
       clipPathUnits="userSpaceOnUse"
       id="clipPath451-9">
      <path
         d="M 0,500 H 500 V 0 H 0 Z"
         transform="translate(-132.37701,-197.4209)"
         id="path451-6" />
    </clipPath>
    <clipPath
       clipPathUnits="userSpaceOnUse"
       id="clipPath455-7">
      <path
         d="M 0,500 H 500 V 0 H 0 Z"
         transform="translate(-134.3242,-224.06351)"
         id="path455-9" />
    </clipPath>
    <clipPath
       clipPathUnits="userSpaceOnUse"
       id="clipPath459-0">
      <path
         d="M 0,500 H 500 V 0 H 0 Z"
         transform="translate(-120.5308,-211.51071)"
         id="path459-5" />
    </clipPath>
    <clipPath
       clipPathUnits="userSpaceOnUse"
       id="clipPath463-3">
      <path
         d="M 0,500 H 500 V 0 H 0 Z"
         transform="translate(-124.6455,-191.5967)"
         id="path463-7" />
    </clipPath>
    <clipPath
       clipPathUnits="userSpaceOnUse"
       id="clipPath467-3">
      <path
         d="M 0,500 H 500 V 0 H 0 Z"
         transform="translate(-139.0786,-208.04591)"
         id="path467-1" />
    </clipPath>
    <clipPath
       clipPathUnits="userSpaceOnUse"
       id="clipPath469-7">
      <path
         d="M 0,500 H 500 V 0 H 0 Z"
         transform="translate(-128.4082,-185.2139)"
         id="path469-8" />
    </clipPath>
    <clipPath
       clipPathUnits="userSpaceOnUse"
       id="clipPath451-5">
      <path
         d="M 0,500 H 500 V 0 H 0 Z"
         transform="translate(-132.37701,-197.4209)"
         id="path451-0" />
    </clipPath>
    <clipPath
       clipPathUnits="userSpaceOnUse"
       id="clipPath455-4">
      <path
         d="M 0,500 H 500 V 0 H 0 Z"
         transform="translate(-134.3242,-224.06351)"
         id="path455-5" />
    </clipPath>
    <clipPath
       clipPathUnits="userSpaceOnUse"
       id="clipPath459-06">
      <path
         d="M 0,500 H 500 V 0 H 0 Z"
         transform="translate(-120.5308,-211.51071)"
         id="path459-10" />
    </clipPath>
    <clipPath
       clipPathUnits="userSpaceOnUse"
       id="clipPath463-7">
      <path
         d="M 0,500 H 500 V 0 H 0 Z"
         transform="translate(-124.6455,-191.5967)"
         id="path463-72" />
    </clipPath>
    <clipPath
       clipPathUnits="userSpaceOnUse"
       id="clipPath467-5">
      <path
         d="M 0,500 H 500 V 0 H 0 Z"
         transform="translate(-139.0786,-208.04591)"
         id="path467-4" />
    </clipPath>
    <clipPath
       clipPathUnits="userSpaceOnUse"
       id="clipPath469-4">
      <path
         d="M 0,500 H 500 V 0 H 0 Z"
         transform="translate(-128.4082,-185.2139)"
         id="path469-91" />
    </clipPath>
    <clipPath
       clipPathUnits="userSpaceOnUse"
       id="clipPath455-14">
      <path
         d="M 0,500 H 500 V 0 H 0 Z"
         transform="translate(-134.3242,-224.06351)"
         id="path455-8" />
    </clipPath>
    <clipPath
       clipPathUnits="userSpaceOnUse"
       id="clipPath451-53">
      <path
         d="M 0,500 H 500 V 0 H 0 Z"
         transform="translate(-132.37701,-197.4209)"
         id="path451-08" />
    </clipPath>
    <clipPath
       clipPathUnits="userSpaceOnUse"
       id="clipPath459-8">
      <path
         d="M 0,500 H 500 V 0 H 0 Z"
         transform="translate(-120.5308,-211.51071)"
         id="path459-6" />
    </clipPath>
    <clipPath
       clipPathUnits="userSpaceOnUse"
       id="clipPath463-5">
      <path
         d="M 0,500 H 500 V 0 H 0 Z"
         transform="translate(-124.6455,-191.5967)"
         id="path463-0" />
    </clipPath>
    <clipPath
       clipPathUnits="userSpaceOnUse"
       id="clipPath467-6">
      <path
         d="M 0,500 H 500 V 0 H 0 Z"
         transform="translate(-139.0786,-208.04591)"
         id="path467-46" />
    </clipPath>
    <clipPath
       clipPathUnits="userSpaceOnUse"
       id="clipPath469-0">
      <path
         d="M 0,500 H 500 V 0 H 0 Z"
         transform="translate(-128.4082,-185.2139)"
         id="path469-7" />
    </clipPath>
    <clipPath
       clipPathUnits="userSpaceOnUse"
       id="clipPath261">
      <path
         d="M 0,500 H 500 V 0 H 0 Z"
         transform="translate(-364.15921,-340.33111)"
         id="path261" />
    </clipPath>
    <clipPath
       clipPathUnits="userSpaceOnUse"
       id="clipPath263">
      <path
         d="M 0,500 H 500 V 0 H 0 Z"
         transform="translate(-411.53221,-366.42821)"
         id="path263" />
    </clipPath>
    <clipPath
       clipPathUnits="userSpaceOnUse"
       id="clipPath265">
      <path
         d="M 0,500 H 500 V 0 H 0 Z"
         transform="translate(-411.22071,-359.43511)"
         id="path265" />
    </clipPath>
    <clipPath
       clipPathUnits="userSpaceOnUse"
       id="clipPath267">
      <path
         d="M 0,500 H 500 V 0 H 0 Z"
         transform="translate(-366.62991,-360.85061)"
         id="path267" />
    </clipPath>
    <clipPath
       clipPathUnits="userSpaceOnUse"
       id="clipPath269">
      <path
         d="M 0,500 H 500 V 0 H 0 Z"
         transform="translate(-379.46191,-345.76951)"
         id="path269" />
    </clipPath>
    <clipPath
       clipPathUnits="userSpaceOnUse"
       id="clipPath271">
      <path
         d="M 0,500 H 500 V 0 H 0 Z"
         transform="translate(-402.37011,-346.79591)"
         id="path271" />
    </clipPath>
    <clipPath
       clipPathUnits="userSpaceOnUse"
       id="clipPath273">
      <path
         d="M 0,500 H 500 V 0 H 0 Z"
         transform="translate(-406.86231,-356.97271)"
         id="path273" />
    </clipPath>
    <clipPath
       clipPathUnits="userSpaceOnUse"
       id="clipPath275">
      <path
         d="M 0,500 H 500 V 0 H 0 Z"
         transform="translate(-407.42581,-363.01371)"
         id="path275" />
    </clipPath>
    <clipPath
       clipPathUnits="userSpaceOnUse"
       id="clipPath277">
      <path
         d="M 0,500 H 500 V 0 H 0 Z"
         transform="translate(-411.21871,-359.43951)"
         id="path277" />
    </clipPath>
    <clipPath
       clipPathUnits="userSpaceOnUse"
       id="clipPath279">
      <path
         d="M 0,500 H 500 V 0 H 0 Z"
         transform="translate(-408.49121,-354.62741)"
         id="path279" />
    </clipPath>
    <clipPath
       clipPathUnits="userSpaceOnUse"
       id="clipPath281">
      <path
         d="M 0,500 H 500 V 0 H 0 Z"
         transform="translate(-408.18551,-369.92721)"
         id="path281" />
    </clipPath>
    <clipPath
       clipPathUnits="userSpaceOnUse"
       id="clipPath283">
      <path
         d="M 0,500 H 500 V 0 H 0 Z"
         transform="translate(-374.12501,-352.08251)"
         id="path283" />
    </clipPath>
    <clipPath
       clipPathUnits="userSpaceOnUse"
       id="clipPath285">
      <path
         d="M 0,500 H 500 V 0 H 0 Z"
         transform="translate(-375.82521,-361.69041)"
         id="path285" />
    </clipPath>
    <clipPath
       clipPathUnits="userSpaceOnUse"
       id="clipPath287">
      <path
         d="M 0,500 H 500 V 0 H 0 Z"
         transform="translate(-371.84281,-359.94871)"
         id="path287" />
    </clipPath>
    <clipPath
       clipPathUnits="userSpaceOnUse"
       id="clipPath289">
      <path
         d="M 0,500 H 500 V 0 H 0 Z"
         transform="translate(-380.79591,-363.42821)"
         id="path289" />
    </clipPath>
    <clipPath
       clipPathUnits="userSpaceOnUse"
       id="clipPath291">
      <path
         d="M 0,500 H 500 V 0 H 0 Z"
         transform="translate(-382.23141,-360.11431)"
         id="path291" />
    </clipPath>
    <clipPath
       clipPathUnits="userSpaceOnUse"
       id="clipPath293">
      <path
         d="M 0,500 H 500 V 0 H 0 Z"
         transform="translate(-361.54591,-341.19631)"
         id="path293" />
    </clipPath>
    <clipPath
       clipPathUnits="userSpaceOnUse"
       id="clipPath295">
      <path
         d="M 0,500 H 500 V 0 H 0 Z"
         transform="translate(-385.49221,-388.32321)"
         id="path295" />
    </clipPath>
    <clipPath
       clipPathUnits="userSpaceOnUse"
       id="clipPath297">
      <path
         d="M 0,500 H 500 V 0 H 0 Z"
         transform="translate(-393.78521,-381.25001)"
         id="path297" />
    </clipPath>
    <clipPath
       clipPathUnits="userSpaceOnUse"
       id="clipPath299">
      <path
         d="M 0,500 H 500 V 0 H 0 Z"
         transform="translate(-414.32911,-351.28661)"
         id="path299" />
    </clipPath>
    <clipPath
       clipPathUnits="userSpaceOnUse"
       id="clipPath301">
      <path
         d="M 0,500 H 500 V 0 H 0 Z"
         transform="translate(-414.47561,-349.33351)"
         id="path301" />
    </clipPath>
    <clipPath
       clipPathUnits="userSpaceOnUse"
       id="clipPath303">
      <path
         d="M 0,500 H 500 V 0 H 0 Z"
         transform="translate(-414.27541,-369.88431)"
         id="path303" />
    </clipPath>
    <clipPath
       clipPathUnits="userSpaceOnUse"
       id="clipPath305">
      <path
         d="M 0,500 H 500 V 0 H 0 Z"
         transform="translate(-359.72461,-378.10161)"
         id="path305" />
    </clipPath>
    <clipPath
       clipPathUnits="userSpaceOnUse"
       id="clipPath451-9-1">
      <path
         d="M 0,500 H 500 V 0 H 0 Z"
         transform="translate(-132.37701,-197.4209)"
         id="path451-6-1" />
    </clipPath>
    <clipPath
       clipPathUnits="userSpaceOnUse"
       id="clipPath455-7-5">
      <path
         d="M 0,500 H 500 V 0 H 0 Z"
         transform="translate(-134.3242,-224.06351)"
         id="path455-9-6" />
    </clipPath>
    <clipPath
       clipPathUnits="userSpaceOnUse"
       id="clipPath459-0-7">
      <path
         d="M 0,500 H 500 V 0 H 0 Z"
         transform="translate(-120.5308,-211.51071)"
         id="path459-5-3" />
    </clipPath>
    <clipPath
       clipPathUnits="userSpaceOnUse"
       id="clipPath463-3-6">
      <path
         d="M 0,500 H 500 V 0 H 0 Z"
         transform="translate(-124.6455,-191.5967)"
         id="path463-7-0" />
    </clipPath>
    <clipPath
       clipPathUnits="userSpaceOnUse"
       id="clipPath467-3-1">
      <path
         d="M 0,500 H 500 V 0 H 0 Z"
         transform="translate(-139.0786,-208.04591)"
         id="path467-1-3" />
    </clipPath>
    <clipPath
       clipPathUnits="userSpaceOnUse"
       id="clipPath469-7-8">
      <path
         d="M 0,500 H 500 V 0 H 0 Z"
         transform="translate(-128.4082,-185.2139)"
         id="path469-8-5" />
    </clipPath>
    <clipPath
       clipPathUnits="userSpaceOnUse"
       id="clipPath169">
      <path
         d="M 0,500 H 500 V 0 H 0 Z"
         transform="translate(-289.22271,-394.23001)"
         id="path169" />
    </clipPath>
    <clipPath
       clipPathUnits="userSpaceOnUse"
       id="clipPath171">
      <path
         d="M 0,500 H 500 V 0 H 0 Z"
         transform="translate(-270.26461,-415.48731)"
         id="path171" />
    </clipPath>
    <clipPath
       clipPathUnits="userSpaceOnUse"
       id="clipPath175">
      <path
         d="M 0,500 H 500 V 0 H 0 Z"
         transform="translate(-275.9053,-397.17241)"
         id="path175" />
    </clipPath>
    <clipPath
       clipPathUnits="userSpaceOnUse"
       id="clipPath177">
      <path
         d="M 0,500 H 500 V 0 H 0 Z"
         transform="translate(-262.09671,-419.63331)"
         id="path177" />
    </clipPath>
    <clipPath
       clipPathUnits="userSpaceOnUse"
       id="clipPath181">
      <path
         d="M 0,500 H 500 V 0 H 0 Z"
         transform="translate(-281.6074,-388.07031)"
         id="path181" />
    </clipPath>
    <clipPath
       clipPathUnits="userSpaceOnUse"
       id="clipPath183">
      <path
         d="M 0,500 H 500 V 0 H 0 Z"
         transform="translate(-294.7471,-397.62651)"
         id="path183" />
    </clipPath>
    <clipPath
       clipPathUnits="userSpaceOnUse"
       id="clipPath187">
      <path
         d="M 0,500 H 500 V 0 H 0 Z"
         transform="translate(-281.6377,-404.52981)"
         id="path187" />
    </clipPath>
    <clipPath
       clipPathUnits="userSpaceOnUse"
       id="clipPath189">
      <path
         d="M 0,500 H 500 V 0 H 0 Z"
         transform="translate(-255.9883,-395.75731)"
         id="path189" />
    </clipPath>
    <clipPath
       clipPathUnits="userSpaceOnUse"
       id="clipPath199">
      <path
         d="M 0,500 H 500 V 0 H 0 Z"
         transform="translate(-257.22951,-400.86621)"
         id="path199" />
    </clipPath>
    <clipPath
       clipPathUnits="userSpaceOnUse"
       id="clipPath203">
      <path
         d="M 0,500 H 500 V 0 H 0 Z"
         transform="translate(-261.457,-395.69871)"
         id="path203" />
    </clipPath>
    <clipPath
       clipPathUnits="userSpaceOnUse"
       id="clipPath205">
      <path
         d="M 0,500 H 500 V 0 H 0 Z"
         transform="translate(-256.8232,-399.21001)"
         id="path205" />
    </clipPath>
    <clipPath
       clipPathUnits="userSpaceOnUse"
       id="clipPath207">
      <path
         d="M 0,500 H 500 V 0 H 0 Z"
         transform="translate(-265.65141,-398.76511)"
         id="path207" />
    </clipPath>
    <clipPath
       clipPathUnits="userSpaceOnUse"
       id="clipPath9769">
      <path
         d="M 0,500 H 750 V 0 H 0 Z"
         transform="translate(-664.25392,-109.68071)"
         id="path9769" />
    </clipPath>
    <clipPath
       clipPathUnits="userSpaceOnUse"
       id="clipPath9771">
      <path
         d="M 0,500 H 750 V 0 H 0 Z"
         transform="translate(-649.07032,-118.54391)"
         id="path9771" />
    </clipPath>
    <clipPath
       clipPathUnits="userSpaceOnUse"
       id="clipPath9773">
      <path
         d="M 0,500 H 750 V 0 H 0 Z"
         transform="translate(-620.48051,-123.9102)"
         id="path9773" />
    </clipPath>
    <clipPath
       clipPathUnits="userSpaceOnUse"
       id="clipPath9775">
      <path
         d="M 0,500 H 750 V 0 H 0 Z"
         transform="translate(-679.33792,-137.01071)"
         id="path9775" />
    </clipPath>
    <clipPath
       clipPathUnits="userSpaceOnUse"
       id="clipPath9777">
      <path
         d="M 0,500 H 750 V 0 H 0 Z"
         transform="translate(-652.36132,-142.583)"
         id="path9777" />
    </clipPath>
    <clipPath
       clipPathUnits="userSpaceOnUse"
       id="clipPath9801">
      <path
         d="M 0,500 H 750 V 0 H 0 Z"
         transform="translate(-628.40141,-160.58591)"
         id="path9801" />
    </clipPath>
    <clipPath
       clipPathUnits="userSpaceOnUse"
       id="clipPath9801-3">
      <path
         d="M 0,500 H 750 V 0 H 0 Z"
         transform="translate(-628.40141,-160.58591)"
         id="path9801-6" />
    </clipPath>
    <clipPath
       clipPathUnits="userSpaceOnUse"
       id="clipPath9781">
      <path
         d="M 0,500 H 750 V 0 H 0 Z"
         transform="translate(-690.85451,-141.17771)"
         id="path9781" />
    </clipPath>
    <clipPath
       clipPathUnits="userSpaceOnUse"
       id="clipPath9781-4">
      <path
         d="M 0,500 H 750 V 0 H 0 Z"
         transform="translate(-690.85451,-141.17771)"
         id="path9781-2" />
    </clipPath>
    <clipPath
       clipPathUnits="userSpaceOnUse"
       id="clipPath9781-6">
      <path
         d="M 0,500 H 750 V 0 H 0 Z"
         transform="translate(-690.85451,-141.17771)"
         id="path9781-8" />
    </clipPath>
    <clipPath
       clipPathUnits="userSpaceOnUse"
       id="clipPath9789">
      <path
         d="M 0,500 H 750 V 0 H 0 Z"
         transform="translate(-672.73342,-107.3105)"
         id="path9789" />
    </clipPath>
    <clipPath
       clipPathUnits="userSpaceOnUse"
       id="clipPath9789-9">
      <path
         d="M 0,500 H 750 V 0 H 0 Z"
         transform="translate(-672.73342,-107.3105)"
         id="path9789-2" />
    </clipPath>
    <clipPath
       clipPathUnits="userSpaceOnUse"
       id="clipPath9805">
      <path
         d="M 0,500 H 750 V 0 H 0 Z"
         transform="translate(-620.24222,-111.5381)"
         id="path9805" />
    </clipPath>
    <clipPath
       clipPathUnits="userSpaceOnUse"
       id="clipPath9803">
      <path
         d="M 0,500 H 750 V 0 H 0 Z"
         transform="translate(-618.98932,-113.8301)"
         id="path9803" />
    </clipPath>
    <clipPath
       clipPathUnits="userSpaceOnUse"
       id="clipPath9797">
      <path
         d="M 0,500 H 750 V 0 H 0 Z"
         transform="translate(-596.87992,-142.9385)"
         id="path9797" />
    </clipPath>
    <clipPath
       clipPathUnits="userSpaceOnUse"
       id="clipPath9793">
      <path
         d="M 0,500 H 750 V 0 H 0 Z"
         transform="translate(-601.00882,-137.7627)"
         id="path9793" />
    </clipPath>
    <clipPath
       clipPathUnits="userSpaceOnUse"
       id="clipPath9793-4">
      <path
         d="M 0,500 H 750 V 0 H 0 Z"
         transform="translate(-601.00882,-137.7627)"
         id="path9793-7" />
    </clipPath>
    <clipPath
       clipPathUnits="userSpaceOnUse"
       id="clipPath9795">
      <path
         d="M 0,500 H 750 V 0 H 0 Z"
         transform="translate(-603.33112,-135.75)"
         id="path9795" />
    </clipPath>
    <clipPath
       clipPathUnits="userSpaceOnUse"
       id="clipPath9444">
      <path
         d="M 0,500 H 750 V 0 H 0 Z"
         transform="translate(-242.311,-164.1299)"
         id="path9444" />
    </clipPath>
    <clipPath
       clipPathUnits="userSpaceOnUse"
       id="clipPath9438">
      <path
         d="M 0,500 H 750 V 0 H 0 Z"
         transform="translate(-317.23581,-114.92681)"
         id="path9438" />
    </clipPath>
    <clipPath
       clipPathUnits="userSpaceOnUse"
       id="clipPath9418">
      <path
         d="M 0,500 H 750 V 0 H 0 Z"
         transform="translate(-266.1787,-152.748)"
         id="path9418" />
    </clipPath>
    <clipPath
       clipPathUnits="userSpaceOnUse"
       id="clipPath9420">
      <path
         d="M 0,500 H 750 V 0 H 0 Z"
         transform="translate(-275.24121,-144.6641)"
         id="path9420" />
    </clipPath>
    <clipPath
       clipPathUnits="userSpaceOnUse"
       id="clipPath9426">
      <path
         d="M 0,500 H 750 V 0 H 0 Z"
         transform="translate(-292.31691,-141.4023)"
         id="path9426" />
    </clipPath>
    <clipPath
       clipPathUnits="userSpaceOnUse"
       id="clipPath9426-5">
      <path
         d="M 0,500 H 750 V 0 H 0 Z"
         transform="translate(-292.31691,-141.4023)"
         id="path9426-4" />
    </clipPath>
    <clipPath
       clipPathUnits="userSpaceOnUse"
       id="clipPath9426-4">
      <path
         d="M 0,500 H 750 V 0 H 0 Z"
         transform="translate(-292.31691,-141.4023)"
         id="path9426-6" />
    </clipPath>
    <clipPath
       clipPathUnits="userSpaceOnUse"
       id="clipPath9446">
      <path
         d="M 0,500 H 750 V 0 H 0 Z"
         transform="translate(-338.97751,-109.81151)"
         id="path9446" />
    </clipPath>
    <clipPath
       clipPathUnits="userSpaceOnUse"
       id="clipPath9428">
      <path
         d="M 0,500 H 750 V 0 H 0 Z"
         transform="translate(-298.0684,-118.32911)"
         id="path9428" />
    </clipPath>
    <clipPath
       clipPathUnits="userSpaceOnUse"
       id="clipPath9432">
      <path
         d="M 0,500 H 750 V 0 H 0 Z"
         transform="translate(-309.80761,-133.74611)"
         id="path9432" />
    </clipPath>
    <clipPath
       clipPathUnits="userSpaceOnUse"
       id="clipPath9442">
      <path
         d="M 0,500 H 750 V 0 H 0 Z"
         transform="translate(-320.45461,-116.0762)"
         id="path9442" />
    </clipPath>
    <clipPath
       clipPathUnits="userSpaceOnUse"
       id="clipPath9440">
      <path
         d="M 0,500 H 750 V 0 H 0 Z"
         transform="translate(-252.9565,-159.99221)"
         id="path9440" />
    </clipPath>
    <clipPath
       clipPathUnits="userSpaceOnUse"
       id="clipPath239">
      <path
         d="M 0,500 H 500 V 0 H 0 Z"
         transform="translate(-340.82421,-215.44821)"
         id="path239" />
    </clipPath>
    <clipPath
       clipPathUnits="userSpaceOnUse"
       id="clipPath251">
      <path
         d="M 0,500 H 500 V 0 H 0 Z"
         transform="translate(-346.76271,-203.5908)"
         id="path251" />
    </clipPath>
    <clipPath
       clipPathUnits="userSpaceOnUse"
       id="clipPath253">
      <path
         d="M 0,500 H 500 V 0 H 0 Z"
         transform="translate(-334.77931,-222.94241)"
         id="path253" />
    </clipPath>
    <clipPath
       clipPathUnits="userSpaceOnUse"
       id="clipPath451-0">
      <path
         d="M 0,500 H 500 V 0 H 0 Z"
         transform="translate(-132.37701,-197.4209)"
         id="path451-14" />
    </clipPath>
    <clipPath
       clipPathUnits="userSpaceOnUse"
       id="clipPath467-65">
      <path
         d="M 0,500 H 500 V 0 H 0 Z"
         transform="translate(-139.0786,-208.04591)"
         id="path467-7" />
    </clipPath>
    <clipPath
       clipPathUnits="userSpaceOnUse"
       id="clipPath469-8">
      <path
         d="M 0,500 H 500 V 0 H 0 Z"
         transform="translate(-128.4082,-185.2139)"
         id="path469-78" />
    </clipPath>
    <clipPath
       clipPathUnits="userSpaceOnUse"
       id="clipPath451-1-6">
      <path
         d="M 0,500 H 500 V 0 H 0 Z"
         transform="translate(-132.37701,-197.4209)"
         id="path451-1-2" />
    </clipPath>
    <clipPath
       clipPathUnits="userSpaceOnUse"
       id="clipPath459-2-7">
      <path
         d="M 0,500 H 500 V 0 H 0 Z"
         transform="translate(-120.5308,-211.51071)"
         id="path459-1-0" />
    </clipPath>
    <clipPath
       clipPathUnits="userSpaceOnUse"
       id="clipPath467-7-7">
      <path
         d="M 0,500 H 500 V 0 H 0 Z"
         transform="translate(-139.0786,-208.04591)"
         id="path467-3-1" />
    </clipPath>
    <clipPath
       clipPathUnits="userSpaceOnUse"
       id="clipPath455-7-7">
      <path
         d="M 0,500 H 500 V 0 H 0 Z"
         transform="translate(-134.3242,-224.06351)"
         id="path455-9-1" />
    </clipPath>
    <clipPath
       clipPathUnits="userSpaceOnUse"
       id="clipPath239-7">
      <path
         d="M 0,500 H 500 V 0 H 0 Z"
         transform="translate(-340.82421,-215.44821)"
         id="path239-8" />
    </clipPath>
    <clipPath
       clipPathUnits="userSpaceOnUse"
       id="clipPath251-8">
      <path
         d="M 0,500 H 500 V 0 H 0 Z"
         transform="translate(-346.76271,-203.5908)"
         id="path251-4" />
    </clipPath>
    <clipPath
       clipPathUnits="userSpaceOnUse"
       id="clipPath253-8">
      <path
         d="M 0,500 H 500 V 0 H 0 Z"
         transform="translate(-334.77931,-222.94241)"
         id="path253-6" />
    </clipPath>
    <clipPath
       clipPathUnits="userSpaceOnUse"
       id="clipPath455-7-0">
      <path
         d="M 0,500 H 500 V 0 H 0 Z"
         transform="translate(-134.3242,-224.06351)"
         id="path455-9-4" />
    </clipPath>
    <clipPath
       clipPathUnits="userSpaceOnUse"
       id="clipPath239-5">
      <path
         d="M 0,500 H 500 V 0 H 0 Z"
         transform="translate(-340.82421,-215.44821)"
         id="path239-4" />
    </clipPath>
    <clipPath
       clipPathUnits="userSpaceOnUse"
       id="clipPath251-2">
      <path
         d="M 0,500 H 500 V 0 H 0 Z"
         transform="translate(-346.76271,-203.5908)"
         id="path251-0" />
    </clipPath>
    <clipPath
       clipPathUnits="userSpaceOnUse"
       id="clipPath253-3">
      <path
         d="M 0,500 H 500 V 0 H 0 Z"
         transform="translate(-334.77931,-222.94241)"
         id="path253-5" />
    </clipPath>
    <clipPath
       clipPathUnits="userSpaceOnUse"
       id="clipPath239-5-8">
      <path
         d="M 0,500 H 500 V 0 H 0 Z"
         transform="translate(-340.82421,-215.44821)"
         id="path239-4-7" />
    </clipPath>
    <clipPath
       clipPathUnits="userSpaceOnUse"
       id="clipPath251-2-8">
      <path
         d="M 0,500 H 500 V 0 H 0 Z"
         transform="translate(-346.76271,-203.5908)"
         id="path251-0-0" />
    </clipPath>
    <clipPath
       clipPathUnits="userSpaceOnUse"
       id="clipPath253-3-6">
      <path
         d="M 0,500 H 500 V 0 H 0 Z"
         transform="translate(-334.77931,-222.94241)"
         id="path253-5-1" />
    </clipPath>
    <clipPath
       clipPathUnits="userSpaceOnUse"
       id="clipPath455-7-07">
      <path
         d="M 0,500 H 500 V 0 H 0 Z"
         transform="translate(-134.3242,-224.06351)"
         id="path455-9-9" />
    </clipPath>
    <clipPath
       clipPathUnits="userSpaceOnUse"
       id="clipPath253-36">
      <path
         d="M 0,500 H 500 V 0 H 0 Z"
         transform="translate(-334.77931,-222.94241)"
         id="path253-4" />
    </clipPath>
    <clipPath
       clipPathUnits="userSpaceOnUse"
       id="clipPath177-4">
      <path
         d="M 0,500 H 500 V 0 H 0 Z"
         transform="translate(-262.09671,-419.63331)"
         id="path177-5" />
    </clipPath>
    <clipPath
       clipPathUnits="userSpaceOnUse"
       id="clipPath455-7-02">
      <path
         d="M 0,500 H 500 V 0 H 0 Z"
         transform="translate(-134.3242,-224.06351)"
         id="path455-9-49" />
    </clipPath>
    <clipPath
       clipPathUnits="userSpaceOnUse"
       id="clipPath455-7-56">
      <path
         d="M 0,500 H 500 V 0 H 0 Z"
         transform="translate(-134.3242,-224.06351)"
         id="path455-9-48" />
    </clipPath>
    <clipPath
       clipPathUnits="userSpaceOnUse"
       id="clipPath171-5">
      <path
         d="M 0,500 H 500 V 0 H 0 Z"
         transform="translate(-270.26461,-415.48731)"
         id="path171-1" />
    </clipPath>
    <clipPath
       clipPathUnits="userSpaceOnUse"
       id="clipPath171-7">
      <path
         d="M 0,500 H 500 V 0 H 0 Z"
         transform="translate(-270.26461,-415.48731)"
         id="path171-7" />
    </clipPath>
    <clipPath
       clipPathUnits="userSpaceOnUse"
       id="clipPath171-2">
      <path
         d="M 0,500 H 500 V 0 H 0 Z"
         transform="translate(-270.26461,-415.48731)"
         id="path171-2" />
    </clipPath>
  </defs>
  <g
     inkscape:label="Capa 1"
     inkscape:groupmode="layer"
     id="layer1"
     transform="translate(-80.890763,-73.579595)">
    <path
       id="path450"
       d="m 0,0 c -0.886,0.166 -1.312,0.775 -1.829,1.197 -0.622,0.508 -1.339,0.953 -1.781,1.739 0.589,0.195 1.021,-0.065 1.476,-0.17 0.598,-0.137 0.922,0.17 0.836,0.795 C -1.333,3.818 -1.449,4.064 -1.489,4.322 -1.688,5.607 -1.59,6.838 -0.756,8.037 -0.625,7.846 -0.485,7.73 -0.454,7.59 -0.331,7.037 -0.212,6.48 -0.146,5.918 0.086,4.004 0.068,2.082 0,0 M 1.448,-2.574 C 1.447,-2.23 1.368,-1.885 1.313,-1.543 1.273,-1.287 1.137,-1.023 1.18,-0.787 1.512,1.088 1.391,2.979 1.412,4.865 1.424,5.973 1.266,7.057 1.021,8.131 0.934,8.512 0.819,8.896 0.659,9.254 0.328,9.998 -0.462,10.164 -1.067,9.631 -1.262,9.459 -1.458,9.254 -1.568,9.025 -1.906,8.316 -2.274,7.609 -2.499,6.861 -2.709,6.158 -2.75,5.406 -2.892,4.508 -3.276,4.629 -3.562,4.721 -3.848,4.807 -4.183,4.906 -4.516,5.031 -4.859,5.092 -5.284,5.166 -5.627,5.012 -5.862,4.625 -6.377,3.773 -6.332,3.158 -5.671,2.346 c 0.138,-0.17 0.274,-0.344 0.428,-0.5 1.204,-1.219 2.488,-2.348 3.851,-3.389 0.522,-0.396 1.045,-0.793 1.569,-1.187 0.138,-0.106 0.273,-0.223 0.425,-0.303 0.402,-0.213 0.847,0.017 0.846,0.459"
       style="fill:#bd9500;fill-opacity:0.854902;fill-rule:nonzero;stroke:none"
       transform="matrix(0.42076362,0,0,-0.35687265,86.645542,98.623606)"
       clip-path="url(#clipPath451)" />
    <path
       id="path454"
       d="m 0,0 c 0.301,-0.18 0.576,-0.4 0.88,-0.574 0.369,-0.207 0.844,0.025 0.903,0.447 0.096,0.689 0.164,1.383 0.244,2.074 0.03,0.262 0.049,0.524 0.094,0.783 0.045,0.266 0.136,0.518 0.44,0.584 C 2.748,3.354 2.957,3.078 2.981,2.74 3.055,1.73 3.075,0.721 2.792,-0.266 2.54,-1.148 2.281,-2.031 1.991,-3.031 0.883,-2.279 -0.106,-1.002 -0.468,0.057 -0.292,0.219 -0.137,0.084 0,0 m -2.337,-0.543 c 0.661,-1.248 1.479,-2.387 2.52,-3.342 0.513,-0.474 1.083,-0.892 1.662,-1.283 0.474,-0.322 0.859,-0.146 1.009,0.377 0.155,0.545 0.271,1.107 0.48,1.629 0.543,1.351 0.893,2.756 1.101,4.185 C 4.542,1.754 4.514,2.512 4.49,3.252 4.474,3.736 4.321,4.199 3.979,4.576 3.554,5.045 3.125,5.152 2.567,4.865 1.696,4.42 1.154,3.701 0.938,2.748 0.853,2.369 0.813,1.979 0.738,1.5 0.46,1.67 0.243,1.801 0.031,1.934 -0.263,2.121 -0.539,2.348 -0.851,2.494 -1.226,2.668 -1.633,2.658 -1.978,2.396 -2.71,1.84 -2.937,1.066 -2.64,0.186 c 0.083,-0.25 0.18,-0.498 0.303,-0.729"
       style="fill:#bd9500;fill-opacity:0.854902;fill-rule:nonzero;stroke:none"
       transform="matrix(0.42076362,0,0,-0.35687265,87.464851,89.115593)"
       clip-path="url(#clipPath455)" />
    <path
       id="path458"
       d="M 0,0 C -0.362,0.037 -0.588,0.387 -0.582,0.896 -0.577,1.227 -0.325,1.418 0.052,1.379 0.428,1.34 0.677,1.049 0.659,0.67 0.642,0.285 0.329,-0.033 0,0 M -0.136,2.287 C -0.288,2.203 -0.458,2.154 -0.613,2.072 c -0.889,-0.459 -1.349,-1.394 -1.185,-2.4 0.127,-0.785 0.761,-1.305 1.651,-1.276 0.08,0.018 0.256,0.036 0.419,0.09 0.85,0.289 1.716,1.567 1.673,2.465 -0.052,1.07 -1.006,1.934 -2.081,1.336"
       style="fill:#bd9500;fill-opacity:0.854902;fill-rule:nonzero;stroke:none"
       transform="matrix(0.42076362,0,0,-0.35687265,81.66109,93.595349)"
       clip-path="url(#clipPath459)" />
    <path
       id="path462"
       d="m 0,0 c -0.399,0.215 -0.851,0.305 -1.241,0.02 -0.628,-0.457 -1.01,-1.081 -0.967,-1.889 0.039,-0.77 0.61,-1.268 1.411,-1.246 0.333,0.027 0.724,0.088 0.877,0.427 0.227,0.508 0.431,1.051 0.506,1.598 C 0.646,-0.658 0.421,-0.227 0,0"
       style="fill:#bd9500;fill-opacity:0.854902;fill-rule:nonzero;stroke:none"
       transform="matrix(0.42076362,0,0,-0.35687265,83.392407,100.70211)"
       clip-path="url(#clipPath463)" />
    <path
       id="path466"
       d="M 0,0 C 0.391,-0.178 1.095,-0.049 1.285,0.309 1.528,0.762 1.686,1.258 1.825,1.602 1.769,2.189 1.579,2.51 1.185,2.689 0.791,2.871 0.422,2.832 0.095,2.541 -0.305,2.182 -0.577,1.734 -0.724,1.227 -0.874,0.711 -0.593,0.268 0,0"
       style="fill:#bd9500;fill-opacity:0.854902;fill-rule:nonzero;stroke:none"
       transform="matrix(0.42076362,0,0,-0.35687265,89.46533,94.831837)"
       clip-path="url(#clipPath467)" />
    <path
       id="path468"
       d="m 0,0 c -0.318,-0.027 -0.589,-0.166 -0.702,-0.492 -0.087,-0.246 -0.199,-0.496 -0.209,-0.748 -0.008,-0.194 0.075,-0.44 0.205,-0.578 0.314,-0.338 0.733,-0.496 1.183,-0.309 0.392,0.162 0.338,0.565 0.392,0.992 -0.02,0.127 -0.03,0.348 -0.088,0.553 C 0.688,-0.25 0.322,0.025 0,0"
       style="fill:#bd9500;fill-opacity:0.854902;fill-rule:nonzero;stroke:none"
       transform="matrix(0.42076362,0,0,-0.35687265,84.975613,102.97995)"
       clip-path="url(#clipPath469)" />
    <path
       id="path450-72"
       d="m 0,0 c -0.886,0.166 -1.312,0.775 -1.829,1.197 -0.622,0.508 -1.339,0.953 -1.781,1.739 0.589,0.195 1.021,-0.065 1.476,-0.17 0.598,-0.137 0.922,0.17 0.836,0.795 C -1.333,3.818 -1.449,4.064 -1.489,4.322 -1.688,5.607 -1.59,6.838 -0.756,8.037 -0.625,7.846 -0.485,7.73 -0.454,7.59 -0.331,7.037 -0.212,6.48 -0.146,5.918 0.086,4.004 0.068,2.082 0,0 M 1.448,-2.574 C 1.447,-2.23 1.368,-1.885 1.313,-1.543 1.273,-1.287 1.137,-1.023 1.18,-0.787 1.512,1.088 1.391,2.979 1.412,4.865 1.424,5.973 1.266,7.057 1.021,8.131 0.934,8.512 0.819,8.896 0.659,9.254 0.328,9.998 -0.462,10.164 -1.067,9.631 -1.262,9.459 -1.458,9.254 -1.568,9.025 -1.906,8.316 -2.274,7.609 -2.499,6.861 -2.709,6.158 -2.75,5.406 -2.892,4.508 -3.276,4.629 -3.562,4.721 -3.848,4.807 -4.183,4.906 -4.516,5.031 -4.859,5.092 -5.284,5.166 -5.627,5.012 -5.862,4.625 -6.377,3.773 -6.332,3.158 -5.671,2.346 c 0.138,-0.17 0.274,-0.344 0.428,-0.5 1.204,-1.219 2.488,-2.348 3.851,-3.389 0.522,-0.396 1.045,-0.793 1.569,-1.187 0.138,-0.106 0.273,-0.223 0.425,-0.303 0.402,-0.213 0.847,0.017 0.846,0.459"
       style="fill:#be9500;fill-opacity:1;fill-rule:nonzero;stroke:none"
       transform="matrix(0.42076362,0,0,-0.35687265,107.7379,80.404153)"
       clip-path="url(#clipPath451-53)" />
    <path
       id="path458-3"
       d="M 0,0 C -0.362,0.037 -0.588,0.387 -0.582,0.896 -0.577,1.227 -0.325,1.418 0.052,1.379 0.428,1.34 0.677,1.049 0.659,0.67 0.642,0.285 0.329,-0.033 0,0 M -0.136,2.287 C -0.288,2.203 -0.458,2.154 -0.613,2.072 c -0.889,-0.459 -1.349,-1.394 -1.185,-2.4 0.127,-0.785 0.761,-1.305 1.651,-1.276 0.08,0.018 0.256,0.036 0.419,0.09 0.85,0.289 1.716,1.567 1.673,2.465 -0.052,1.07 -1.006,1.934 -2.081,1.336"
       style="fill:#be9500;fill-opacity:1;fill-rule:nonzero;stroke:none"
       transform="matrix(0.42076362,0,0,-0.35687265,102.75344,75.375896)"
       clip-path="url(#clipPath459-8)" />
    <path
       id="path450-7"
       d="m 0,0 c -0.886,0.166 -1.312,0.775 -1.829,1.197 -0.622,0.508 -1.339,0.953 -1.781,1.739 0.589,0.195 1.021,-0.065 1.476,-0.17 0.598,-0.137 0.922,0.17 0.836,0.795 C -1.333,3.818 -1.449,4.064 -1.489,4.322 -1.688,5.607 -1.59,6.838 -0.756,8.037 -0.625,7.846 -0.485,7.73 -0.454,7.59 -0.331,7.037 -0.212,6.48 -0.146,5.918 0.086,4.004 0.068,2.082 0,0 M 1.448,-2.574 C 1.447,-2.23 1.368,-1.885 1.313,-1.543 1.273,-1.287 1.137,-1.023 1.18,-0.787 1.512,1.088 1.391,2.979 1.412,4.865 1.424,5.973 1.266,7.057 1.021,8.131 0.934,8.512 0.819,8.896 0.659,9.254 0.328,9.998 -0.462,10.164 -1.067,9.631 -1.262,9.459 -1.458,9.254 -1.568,9.025 -1.906,8.316 -2.274,7.609 -2.499,6.861 -2.709,6.158 -2.75,5.406 -2.892,4.508 -3.276,4.629 -3.562,4.721 -3.848,4.807 -4.183,4.906 -4.516,5.031 -4.859,5.092 -5.284,5.166 -5.627,5.012 -5.862,4.625 -6.377,3.773 -6.332,3.158 -5.671,2.346 c 0.138,-0.17 0.274,-0.344 0.428,-0.5 1.204,-1.219 2.488,-2.348 3.851,-3.389 0.522,-0.396 1.045,-0.793 1.569,-1.187 0.138,-0.106 0.273,-0.223 0.425,-0.303 0.402,-0.213 0.847,0.017 0.846,0.459"
       style="fill:#bd9500;fill-opacity:0.854902;fill-rule:nonzero;stroke:none"
       transform="matrix(0.35277776,0,0,-0.35277776,89.917795,104.02235)"
       clip-path="url(#clipPath451-1)" />
    <path
       id="path458-8"
       d="M 0,0 C -0.362,0.037 -0.588,0.387 -0.582,0.896 -0.577,1.227 -0.325,1.418 0.052,1.379 0.428,1.34 0.677,1.049 0.659,0.67 0.642,0.285 0.329,-0.033 0,0 M -0.136,2.287 C -0.288,2.203 -0.458,2.154 -0.613,2.072 c -0.889,-0.459 -1.349,-1.394 -1.185,-2.4 0.127,-0.785 0.761,-1.305 1.651,-1.276 0.08,0.018 0.256,0.036 0.419,0.09 0.85,0.289 1.716,1.567 1.673,2.465 -0.052,1.07 -1.006,1.934 -2.081,1.336"
       style="fill:#bd9500;fill-opacity:0.854902;fill-rule:nonzero;stroke:none"
       transform="matrix(0.35277776,0,0,-0.35277776,90.075025,97.984383)"
       clip-path="url(#clipPath459-2)" />
    <path
       id="path466-5"
       d="M 0,0 C 0.391,-0.178 1.095,-0.049 1.285,0.309 1.528,0.762 1.686,1.258 1.825,1.602 1.769,2.189 1.579,2.51 1.185,2.689 0.791,2.871 0.422,2.832 0.095,2.541 -0.305,2.182 -0.577,1.734 -0.724,1.227 -0.874,0.711 -0.593,0.268 0,0"
       style="fill:#be9500;fill-opacity:1;fill-rule:nonzero;stroke:none"
       transform="matrix(0.35277776,0,0,-0.35277776,84.076341,106.2782)"
       clip-path="url(#clipPath467-7)" />
    <path
       id="path450-6"
       d="m 0,0 c -0.886,0.166 -1.312,0.775 -1.829,1.197 -0.622,0.508 -1.339,0.953 -1.781,1.739 0.589,0.195 1.021,-0.065 1.476,-0.17 0.598,-0.137 0.922,0.17 0.836,0.795 C -1.333,3.818 -1.449,4.064 -1.489,4.322 -1.688,5.607 -1.59,6.838 -0.756,8.037 -0.625,7.846 -0.485,7.73 -0.454,7.59 -0.331,7.037 -0.212,6.48 -0.146,5.918 0.086,4.004 0.068,2.082 0,0 M 1.448,-2.574 C 1.447,-2.23 1.368,-1.885 1.313,-1.543 1.273,-1.287 1.137,-1.023 1.18,-0.787 1.512,1.088 1.391,2.979 1.412,4.865 1.424,5.973 1.266,7.057 1.021,8.131 0.934,8.512 0.819,8.896 0.659,9.254 0.328,9.998 -0.462,10.164 -1.067,9.631 -1.262,9.459 -1.458,9.254 -1.568,9.025 -1.906,8.316 -2.274,7.609 -2.499,6.861 -2.709,6.158 -2.75,5.406 -2.892,4.508 -3.276,4.629 -3.562,4.721 -3.848,4.807 -4.183,4.906 -4.516,5.031 -4.859,5.092 -5.284,5.166 -5.627,5.012 -5.862,4.625 -6.377,3.773 -6.332,3.158 -5.671,2.346 c 0.138,-0.17 0.274,-0.344 0.428,-0.5 1.204,-1.219 2.488,-2.348 3.851,-3.389 0.522,-0.396 1.045,-0.793 1.569,-1.187 0.138,-0.106 0.273,-0.223 0.425,-0.303 0.402,-0.213 0.847,0.017 0.846,0.459"
       style="fill:#be9500;fill-opacity:1;fill-rule:nonzero;stroke:none"
       transform="matrix(0.42076362,0,0,-0.35687265,132.35284,81.30641)"
       clip-path="url(#clipPath451-0)" />
    <path
       id="path466-0"
       d="M 0,0 C 0.391,-0.178 1.095,-0.049 1.285,0.309 1.528,0.762 1.686,1.258 1.825,1.602 1.769,2.189 1.579,2.51 1.185,2.689 0.791,2.871 0.422,2.832 0.095,2.541 -0.305,2.182 -0.577,1.734 -0.724,1.227 -0.874,0.711 -0.593,0.268 0,0"
       style="fill:#be9500;fill-opacity:1;fill-rule:nonzero;stroke:none"
       transform="matrix(0.42076362,0,0,-0.35687265,135.17263,77.514644)"
       clip-path="url(#clipPath467-65)" />
    <path
       id="path468-4"
       d="m 0,0 c -0.318,-0.027 -0.589,-0.166 -0.702,-0.492 -0.087,-0.246 -0.199,-0.496 -0.209,-0.748 -0.008,-0.194 0.075,-0.44 0.205,-0.578 0.314,-0.338 0.733,-0.496 1.183,-0.309 0.392,0.162 0.338,0.565 0.392,0.992 -0.02,0.127 -0.03,0.348 -0.088,0.553 C 0.688,-0.25 0.322,0.025 0,0"
       style="fill:#be9500;fill-opacity:1;fill-rule:nonzero;stroke:none"
       transform="matrix(0.42076362,0,0,-0.35687265,130.68291,85.66276)"
       clip-path="url(#clipPath469-8)" />
    <path
       id="path450-7-1"
       d="m 0,0 c -0.886,0.166 -1.312,0.775 -1.829,1.197 -0.622,0.508 -1.339,0.953 -1.781,1.739 0.589,0.195 1.021,-0.065 1.476,-0.17 0.598,-0.137 0.922,0.17 0.836,0.795 C -1.333,3.818 -1.449,4.064 -1.489,4.322 -1.688,5.607 -1.59,6.838 -0.756,8.037 -0.625,7.846 -0.485,7.73 -0.454,7.59 -0.331,7.037 -0.212,6.48 -0.146,5.918 0.086,4.004 0.068,2.082 0,0 M 1.448,-2.574 C 1.447,-2.23 1.368,-1.885 1.313,-1.543 1.273,-1.287 1.137,-1.023 1.18,-0.787 1.512,1.088 1.391,2.979 1.412,4.865 1.424,5.973 1.266,7.057 1.021,8.131 0.934,8.512 0.819,8.896 0.659,9.254 0.328,9.998 -0.462,10.164 -1.067,9.631 -1.262,9.459 -1.458,9.254 -1.568,9.025 -1.906,8.316 -2.274,7.609 -2.499,6.861 -2.709,6.158 -2.75,5.406 -2.892,4.508 -3.276,4.629 -3.562,4.721 -3.848,4.807 -4.183,4.906 -4.516,5.031 -4.859,5.092 -5.284,5.166 -5.627,5.012 -5.862,4.625 -6.377,3.773 -6.332,3.158 -5.671,2.346 c 0.138,-0.17 0.274,-0.344 0.428,-0.5 1.204,-1.219 2.488,-2.348 3.851,-3.389 0.522,-0.396 1.045,-0.793 1.569,-1.187 0.138,-0.106 0.273,-0.223 0.425,-0.303 0.402,-0.213 0.847,0.017 0.846,0.459"
       style="fill:#be9500;fill-opacity:1;fill-rule:nonzero;stroke:none"
       transform="matrix(0.35277776,0,0,-0.35277776,135.62509,86.70516)"
       clip-path="url(#clipPath451-1-6)" />
    <path
       id="path458-8-6"
       d="M 0,0 C -0.362,0.037 -0.588,0.387 -0.582,0.896 -0.577,1.227 -0.325,1.418 0.052,1.379 0.428,1.34 0.677,1.049 0.659,0.67 0.642,0.285 0.329,-0.033 0,0 M -0.136,2.287 C -0.288,2.203 -0.458,2.154 -0.613,2.072 c -0.889,-0.459 -1.349,-1.394 -1.185,-2.4 0.127,-0.785 0.761,-1.305 1.651,-1.276 0.08,0.018 0.256,0.036 0.419,0.09 0.85,0.289 1.716,1.567 1.673,2.465 -0.052,1.07 -1.006,1.934 -2.081,1.336"
       style="fill:#be9500;fill-opacity:1;fill-rule:nonzero;stroke:none"
       transform="matrix(0.35277776,0,0,-0.35277776,135.78232,80.66719)"
       clip-path="url(#clipPath459-2-7)" />
    <path
       id="path466-5-3"
       d="M 0,0 C 0.391,-0.178 1.095,-0.049 1.285,0.309 1.528,0.762 1.686,1.258 1.825,1.602 1.769,2.189 1.579,2.51 1.185,2.689 0.791,2.871 0.422,2.832 0.095,2.541 -0.305,2.182 -0.577,1.734 -0.724,1.227 -0.874,0.711 -0.593,0.268 0,0"
       style="fill:#be9500;fill-opacity:1;fill-rule:nonzero;stroke:none"
       transform="matrix(0.35277776,0,0,-0.35277776,129.78364,88.96101)"
       clip-path="url(#clipPath467-7-7)" />
    <path
       id="path170"
       d="m 0,0 c -0.506,-0.151 -0.776,-0.232 -1.069,-0.319 -0.125,0.928 -0.24,1.786 -0.357,2.644 h -0.38 c -0.921,-0.819 -0.275,-2.134 -0.771,-3.11 -0.294,0.251 -0.535,0.457 -0.967,0.827 v -1.834 c -0.906,0.004 -1.397,-0.355 -1.317,-1.357 0.513,-0.113 1.036,-0.227 1.544,-0.337 -0.064,-0.711 -0.916,-1.164 -0.381,-2.104 0.4,0.376 0.735,0.692 1.199,1.128 0.074,-1.035 0.136,-1.972 0.214,-2.908 0.051,-0.602 0.245,-1.041 1.111,-0.744 v 2.583 c 0.434,0.061 0.741,0.104 1.183,0.165 -0.363,0.701 -0.668,1.287 -0.962,1.853 0.663,0.625 2.065,-0.06 2.14,1.5 -0.609,0.156 -1.202,0.308 -1.804,0.462 C -0.414,-1.042 -0.241,-0.609 0,0"
       style="fill:#be9500;fill-opacity:1;fill-rule:nonzero;stroke:none"
       transform="matrix(0.35277776,0,0,-0.35277776,86.456291,77.688044)"
       clip-path="url(#clipPath171)" />
    <path
       id="path170-1"
       d="m 0,0 c -0.506,-0.151 -0.776,-0.232 -1.069,-0.319 -0.125,0.928 -0.24,1.786 -0.357,2.644 h -0.38 c -0.921,-0.819 -0.275,-2.134 -0.771,-3.11 -0.294,0.251 -0.535,0.457 -0.967,0.827 v -1.834 c -0.906,0.004 -1.397,-0.355 -1.317,-1.357 0.513,-0.113 1.036,-0.227 1.544,-0.337 -0.064,-0.711 -0.916,-1.164 -0.381,-2.104 0.4,0.376 0.735,0.692 1.199,1.128 0.074,-1.035 0.136,-1.972 0.214,-2.908 0.051,-0.602 0.245,-1.041 1.111,-0.744 v 2.583 c 0.434,0.061 0.741,0.104 1.183,0.165 -0.363,0.701 -0.668,1.287 -0.962,1.853 0.663,0.625 2.065,-0.06 2.14,1.5 -0.609,0.156 -1.202,0.308 -1.804,0.462 C -0.414,-1.042 -0.241,-0.609 0,0"
       style="fill:#be9500;fill-opacity:1;fill-rule:nonzero;stroke:none"
       transform="matrix(0.35277776,0,0,-0.35277776,111.71277,74.664385)"
       clip-path="url(#clipPath171-5)" />
    <path
       id="path170-5"
       d="m 0,0 c -0.506,-0.151 -0.776,-0.232 -1.069,-0.319 -0.125,0.928 -0.24,1.786 -0.357,2.644 h -0.38 c -0.921,-0.819 -0.275,-2.134 -0.771,-3.11 -0.294,0.251 -0.535,0.457 -0.967,0.827 v -1.834 c -0.906,0.004 -1.397,-0.355 -1.317,-1.357 0.513,-0.113 1.036,-0.227 1.544,-0.337 -0.064,-0.711 -0.916,-1.164 -0.381,-2.104 0.4,0.376 0.735,0.692 1.199,1.128 0.074,-1.035 0.136,-1.972 0.214,-2.908 0.051,-0.602 0.245,-1.041 1.111,-0.744 v 2.583 c 0.434,0.061 0.741,0.104 1.183,0.165 -0.363,0.701 -0.668,1.287 -0.962,1.853 0.663,0.625 2.065,-0.06 2.14,1.5 -0.609,0.156 -1.202,0.308 -1.804,0.462 C -0.414,-1.042 -0.241,-0.609 0,0"
       style="fill:#be9500;fill-opacity:1;fill-rule:nonzero;stroke:none"
       transform="matrix(0.35277776,0,0,-0.35277776,129.43985,75.987302)"
       clip-path="url(#clipPath171-7)" />
    <path
       id="path170-19"
       d="m 0,0 c -0.506,-0.151 -0.776,-0.232 -1.069,-0.319 -0.125,0.928 -0.24,1.786 -0.357,2.644 h -0.38 c -0.921,-0.819 -0.275,-2.134 -0.771,-3.11 -0.294,0.251 -0.535,0.457 -0.967,0.827 v -1.834 c -0.906,0.004 -1.397,-0.355 -1.317,-1.357 0.513,-0.113 1.036,-0.227 1.544,-0.337 -0.064,-0.711 -0.916,-1.164 -0.381,-2.104 0.4,0.376 0.735,0.692 1.199,1.128 0.074,-1.035 0.136,-1.972 0.214,-2.908 0.051,-0.602 0.245,-1.041 1.111,-0.744 v 2.583 c 0.434,0.061 0.741,0.104 1.183,0.165 -0.363,0.701 -0.668,1.287 -0.962,1.853 0.663,0.625 2.065,-0.06 2.14,1.5 -0.609,0.156 -1.202,0.308 -1.804,0.462 C -0.414,-1.042 -0.241,-0.609 0,0"
       style="fill:#be9500;fill-opacity:1;fill-rule:nonzero;stroke:none"
       transform="matrix(0.35277776,0,0,-0.35277776,84.196101,89.481052)"
       clip-path="url(#clipPath171-2)" />
    <path
       id="path174"
       d="m 0,0 c -0.47,0 -0.85,-0.38 -0.85,-0.85 0,-0.469 0.38,-0.85 0.85,-0.85 0.47,0 0.85,0.381 0.85,0.85 C 0.85,-0.38 0.47,0 0,0"
       style="fill:#bd9500;fill-opacity:0.85490197;fill-rule:nonzero;stroke:none"
       transform="matrix(0.35277776,0,0,-0.35277776,88.446204,84.149135)"
       clip-path="url(#clipPath175)" />
    <path
       id="path176"
       d="m 0,0 c -0.588,0 -1.062,-0.475 -1.062,-1.062 0,-0.586 0.474,-1.062 1.062,-1.062 0.585,0 1.062,0.476 1.062,1.062 C 1.062,-0.475 0.585,0 0,0"
       style="fill:#be9500;fill-opacity:1;fill-rule:nonzero;stroke:none"
       transform="matrix(0.35277776,0,0,-0.35277776,83.574838,76.225427)"
       clip-path="url(#clipPath177)" />
    <path
       id="path176-6"
       d="m 0,0 c -0.588,0 -1.062,-0.475 -1.062,-1.062 0,-0.586 0.474,-1.062 1.062,-1.062 0.585,0 1.062,0.476 1.062,1.062 C 1.062,-0.475 0.585,0 0,0"
       style="fill:#be9500;fill-opacity:1;fill-rule:nonzero;stroke:none"
       transform="matrix(0.35277776,0,0,-0.35277776,132.06541,92.894176)"
       clip-path="url(#clipPath177-4)" />
    <path
       id="path188"
       d="M 0,0 C 0.018,0.009 0.032,0.014 0.049,0.022 0.057,0.043 0.063,0.063 0.063,0.063 Z"
       style="fill:#514527 icc-color(Adobe-RGB-1998, 0.30999756, 0.27799988, 0.17599487);fill-opacity:1;fill-rule:evenodd;stroke:none"
       transform="matrix(0.35277776,0,0,-0.35277776,81.419929,84.64835)"
       clip-path="url(#clipPath189)" />
    <path
       id="path454-4"
       d="m 0,0 c 0.301,-0.18 0.576,-0.4 0.88,-0.574 0.369,-0.207 0.844,0.025 0.903,0.447 0.096,0.689 0.164,1.383 0.244,2.074 0.03,0.262 0.049,0.524 0.094,0.783 0.045,0.266 0.136,0.518 0.44,0.584 C 2.748,3.354 2.957,3.078 2.981,2.74 3.055,1.73 3.075,0.721 2.792,-0.266 2.54,-1.148 2.281,-2.031 1.991,-3.031 0.883,-2.279 -0.106,-1.002 -0.468,0.057 -0.292,0.219 -0.137,0.084 0,0 m -2.337,-0.543 c 0.661,-1.248 1.479,-2.387 2.52,-3.342 0.513,-0.474 1.083,-0.892 1.662,-1.283 0.474,-0.322 0.859,-0.146 1.009,0.377 0.155,0.545 0.271,1.107 0.48,1.629 0.543,1.351 0.893,2.756 1.101,4.185 C 4.542,1.754 4.514,2.512 4.49,3.252 4.474,3.736 4.321,4.199 3.979,4.576 3.554,5.045 3.125,5.152 2.567,4.865 1.696,4.42 1.154,3.701 0.938,2.748 0.853,2.369 0.813,1.979 0.738,1.5 0.46,1.67 0.243,1.801 0.031,1.934 -0.263,2.121 -0.539,2.348 -0.851,2.494 -1.226,2.668 -1.633,2.658 -1.978,2.396 -2.71,1.84 -2.937,1.066 -2.64,0.186 c 0.083,-0.25 0.18,-0.498 0.303,-0.729"
       style="fill:#be9500;fill-opacity:1;fill-rule:nonzero;stroke:none"
       transform="matrix(0.35277776,0,0,-0.35277776,116.90073,77.809091)"
       clip-path="url(#clipPath455-7)" />
    <path
       id="path454-4-1"
       d="m 0,0 c 0.301,-0.18 0.576,-0.4 0.88,-0.574 0.369,-0.207 0.844,0.025 0.903,0.447 0.096,0.689 0.164,1.383 0.244,2.074 0.03,0.262 0.049,0.524 0.094,0.783 0.045,0.266 0.136,0.518 0.44,0.584 C 2.748,3.354 2.957,3.078 2.981,2.74 3.055,1.73 3.075,0.721 2.792,-0.266 2.54,-1.148 2.281,-2.031 1.991,-3.031 0.883,-2.279 -0.106,-1.002 -0.468,0.057 -0.292,0.219 -0.137,0.084 0,0 m -2.337,-0.543 c 0.661,-1.248 1.479,-2.387 2.52,-3.342 0.513,-0.474 1.083,-0.892 1.662,-1.283 0.474,-0.322 0.859,-0.146 1.009,0.377 0.155,0.545 0.271,1.107 0.48,1.629 0.543,1.351 0.893,2.756 1.101,4.185 C 4.542,1.754 4.514,2.512 4.49,3.252 4.474,3.736 4.321,4.199 3.979,4.576 3.554,5.045 3.125,5.152 2.567,4.865 1.696,4.42 1.154,3.701 0.938,2.748 0.853,2.369 0.813,1.979 0.738,1.5 0.46,1.67 0.243,1.801 0.031,1.934 -0.263,2.121 -0.539,2.348 -0.851,2.494 -1.226,2.668 -1.633,2.658 -1.978,2.396 -2.71,1.84 -2.937,1.066 -2.64,0.186 c 0.083,-0.25 0.18,-0.498 0.303,-0.729"
       style="fill:#be9500;fill-opacity:1;fill-rule:nonzero;stroke:none"
       transform="matrix(0.35277776,0,0,-0.35277776,139.01679,94.666314)"
       clip-path="url(#clipPath455-7-02)" />
    <text
       xml:space="preserve"
       style="font-size:7.76111px;font-family:'Great Vibes';-inkscape-font-specification:'Great Vibes';fill:#be9500;fill-opacity:1;stroke-width:0.264583"
       x="102.33685"
       y="115.74605"
       id="text1"><tspan
         sodipodi:role="line"
         style="font-size:7.76111px;fill:#be9500;fill-opacity:1;stroke-width:0.264583"
         x="102.33685"
         y="115.74605"
         id="tspan2">Cena</tspan></text>
    <path
       id="path9443"
       d="m 0,0 c -0.879,-3.734 -2.884,-7.031 -3.498,-10.859 -0.007,-0.042 0.017,-0.071 0.023,-0.107 -0.341,-1.916 -0.565,-3.848 -0.69,-5.796 -0.065,2.647 -0.306,5.277 -0.96,7.788 -0.894,3.423 -2.719,6.259 -2.896,10.106 -0.199,4.319 -0.73,8.565 -0.546,12.889 1.71,-2.365 0.702,-14.033 1.703,-16.013 0.128,-0.252 0.394,-0.227 0.572,-0.083 1.872,0.512 1.596,10.106 1.641,11.182 0.049,1.181 0.094,2.358 0.216,3.533 0.157,-5.151 -0.546,-10.801 0.874,-15.781 0.041,-0.142 0.128,-0.212 0.227,-0.246 -0.05,-0.104 -0.087,-0.212 -0.138,-0.317 -0.143,-0.296 0.147,-0.603 0.448,-0.447 2.325,1.209 2.369,5.717 2.603,7.945 0.208,1.988 0.293,3.991 0.414,5.984 0.062,1.021 -0.032,2.517 0.364,3.603 C 1.007,9.021 1,4.252 0,0 m -2.236,-49.358 c 0.123,-3.295 -0.18,-6.589 -0.105,-9.884 0.028,-1.182 0.216,-10.783 -1.566,-6.505 -1.664,3.993 -1.278,9.251 -1.277,13.491 0.003,8.74 0.701,17.482 0.898,26.222 0.047,-0.012 0.095,-0.019 0.143,-0.028 0.417,-7.825 1.624,-15.708 1.907,-23.296 M 0.898,14.535 C 0.819,14.88 0.42,14.844 0.269,14.61 0.26,14.609 0.251,14.614 0.243,14.613 -1.243,14.334 -0.959,10.041 -1.019,9.09 -1.268,5.098 -1.452,1.314 -2.884,-2.344 c -0.67,5.549 -0.312,11.248 -1.299,16.648 -0.052,0.289 -0.423,0.213 -0.511,0 -0.662,-1.589 -0.494,-13.514 -1.52,-15.489 -0.4,3.408 0.408,16.179 -3.01,16.04 -0.267,-0.01 -0.266,-0.4 0,-0.414 0.056,-0.003 0.107,-0.021 0.159,-0.037 -0.837,-5.147 0.046,-10.33 0.308,-15.508 0.239,-4.733 3.314,-8.055 3.656,-12.85 0.202,-2.811 0.265,-5.654 0.255,-8.509 -0.097,0.192 -0.169,0.4 -0.216,0.607 -0.127,0.551 -0.917,0.307 -0.833,-0.23 0.114,-0.718 0.422,-1.344 1.037,-1.755 l 0.008,-0.004 c -0.004,-0.336 -0.018,-0.671 -0.025,-1.006 -0.115,0.073 -0.226,0.152 -0.329,0.241 -0.375,0.322 -0.903,-0.189 -0.548,-0.549 0.247,-0.251 0.537,-0.478 0.854,-0.647 -0.122,-4.986 -0.433,-9.981 -0.73,-14.879 -0.389,-6.417 -0.633,-12.864 -0.161,-19.285 0.18,-2.452 0.243,-7.382 3.12,-8.36 0.199,-0.066 0.427,0.075 0.478,0.272 1.949,7.502 1.2,17.467 0.198,25.071 -0.709,5.379 -1.275,11.128 -1.437,16.877 0.548,0.034 1.126,0.214 1.32,0.741 0.046,0.126 -0.051,0.288 -0.179,0.315 -0.39,0.083 -0.778,-0.08 -1.17,-0.132 -0.007,0.349 -0.03,0.699 -0.033,1.047 0.236,0.043 0.44,0.147 0.557,0.354 0.065,0.115 0.049,0.263 -0.046,0.357 -0.146,0.145 -0.329,0.19 -0.521,0.217 -0.006,4.645 0.295,9.251 1.121,13.615 0.018,0.094 0,0.174 -0.032,0.245 2.339,8.102 5.33,15.06 3.311,23.886"
       style="fill:#39180e icc-color(Adobe-RGB-1998, 0.20799255, 0.11799622, 0.08599854);fill-opacity:1;fill-rule:evenodd;stroke:none"
       transform="matrix(0.35277776,0,0,-0.35277776,94.770155,86.700358)"
       clip-path="url(#clipPath9444)" />
    <path
       id="path9437"
       d="m 0,0 c -11.633,-14.71 -32.761,-16.545 -48.655,-8.454 0.362,-0.082 0.596,0.372 0.265,0.619 -0.169,0.127 -0.337,0.252 -0.506,0.379 1.287,-0.74 2.611,-1.401 3.971,-1.974 0.046,-0.248 0.317,-0.379 0.515,-0.211 13.16,-5.298 29.19,-2.754 39.712,6.713 0.244,-0.193 0.501,-0.367 0.789,-0.487 0.186,-0.076 0.419,0.156 0.342,0.343 -0.114,0.277 -0.277,0.53 -0.463,0.771 1.88,1.786 3.592,3.775 5.038,6.019 C 1.872,5.057 2.574,6.484 3.16,7.964 3.395,7.912 3.63,7.875 3.864,7.887 4.042,7.896 4.13,8.1 4.007,8.231 3.845,8.406 3.655,8.555 3.454,8.69 6.215,16.27 5.777,25.263 4.746,32.896 3.46,42.41 -1.334,49.292 -9.543,54.177 c -1.89,1.125 -3.911,2.1 -6.014,2.925 -0.07,0.196 -0.31,0.298 -0.511,0.198 -15.526,5.854 -35.458,3.212 -43.13,-13.082 -0.141,-0.302 0.271,-0.555 0.451,-0.264 0.851,1.371 1.767,2.635 2.728,3.81 0.425,-0.358 0.851,-0.715 1.261,-1.086 0.528,-0.477 1.035,-1.059 1.671,-1.392 0.265,-0.139 0.543,0.138 0.403,0.403 -0.331,0.633 -0.917,1.149 -1.436,1.628 -0.435,0.4 -0.895,0.746 -1.375,1.066 3.053,3.555 6.595,6.183 10.455,7.953 0.679,-1.684 1.259,-3.841 2.63,-5.052 0.088,-0.076 0.224,-0.004 0.196,0.115 -0.421,1.747 -1.254,3.627 -2.122,5.239 4.037,1.727 8.398,2.539 12.878,2.56 -0.08,-0.847 -0.073,-1.699 -0.076,-2.552 -0.004,-1.016 -0.071,-2.068 0.241,-3.046 0.064,-0.2 0.34,-0.2 0.404,0 0.271,0.852 0.246,1.746 0.242,2.632 -0.003,0.99 0.015,1.982 -0.079,2.967 4.654,-0.068 9.425,-1.003 14.088,-2.675 -0.941,-1.473 -1.731,-3.268 -2.188,-4.888 -0.063,-0.222 0.217,-0.374 0.379,-0.221 1.272,1.213 1.881,3.181 2.606,4.821 1.53,-0.579 3.049,-1.232 4.546,-1.968 2.681,-1.321 4.991,-2.994 6.968,-4.933 -0.524,-0.338 -0.961,-0.844 -1.417,-1.272 -0.698,-0.653 -1.783,-1.341 -2.23,-2.206 -0.067,-0.128 0.013,-0.341 0.186,-0.322 0.902,0.101 1.75,1.027 2.38,1.607 0.54,0.498 1.205,1.02 1.613,1.65 2.535,-2.633 4.464,-5.729 5.87,-9.096 -0.197,0.372 -0.402,0.743 -0.617,1.113 -0.058,0.099 -0.236,0.032 -0.192,-0.08 0.542,-1.367 0.987,-2.775 1.391,-4.198 -1.727,-0.329 -3.492,-1.119 -5.102,-1.774 -0.292,-0.12 -0.188,-0.568 0.134,-0.486 1.677,0.425 3.635,0.731 5.121,1.698 C 3.16,34.698 3.485,33.42 3.811,32.154 3.875,31.904 4.21,31.92 4.304,32.116 4.839,29.197 5.067,26.188 5.013,23.181 4.143,23.271 3.231,23.115 2.367,23.03 1.539,22.948 0.738,22.82 -0.031,22.496 -0.3,22.382 -0.167,21.907 0.119,21.94 c 0.863,0.098 1.724,0.211 2.59,0.283 0.763,0.063 1.561,0.057 2.296,0.286 C 4.858,17.91 4.067,13.333 2.72,9.108 2.236,9.34 1.725,9.533 1.269,9.752 0.177,10.276 -0.926,10.75 -2.037,11.23 -2.34,11.361 -2.605,10.95 -2.303,10.774 -1.263,10.171 -0.252,9.534 0.82,8.986 1.316,8.733 1.863,8.426 2.426,8.196 0.985,4.035 -1.291,0.599 -4.143,-2.171 c -0.485,0.586 -1.11,1.093 -1.648,1.586 -0.877,0.801 -1.846,1.497 -2.849,2.13 -0.415,0.262 -0.756,-0.366 -0.377,-0.644 0.996,-0.729 1.905,-1.553 2.807,-2.392 0.455,-0.421 0.887,-0.91 1.37,-1.318 -6.59,-5.966 -15.953,-8.61 -25.221,-8.478 0.1,1.651 -0.006,3.379 -0.099,5.019 -0.022,0.398 -0.587,0.395 -0.614,0 -0.113,-1.59 -0.473,-3.472 0.136,-5.011 -4.618,0.123 -9.192,0.925 -13.364,2.343 0.27,0.514 0.543,1.026 0.775,1.56 0.264,0.605 0.579,1.269 0.51,1.941 -0.019,0.19 -0.246,0.327 -0.4,0.165 -0.407,-0.428 -0.572,-0.984 -0.793,-1.521 -0.259,-0.634 -0.522,-1.268 -0.789,-1.897 -0.755,0.271 -1.502,0.556 -2.226,0.868 -3.052,1.315 -5.822,3.224 -8.269,5.558 1.089,1.007 2.235,2.078 2.931,3.334 0.133,0.241 -0.158,0.603 -0.411,0.409 -1.149,-0.878 -2.146,-2.042 -3.139,-3.14 -3.142,3.158 -5.716,7.029 -7.604,11.259 -10e-4,0.006 -0.003,0.013 -0.005,0.02 0.53,0.151 1.061,0.303 1.589,0.466 0.777,0.243 1.559,0.433 2.187,0.966 0.154,0.13 0.026,0.382 -0.158,0.382 -0.785,0.002 -1.512,-0.307 -2.252,-0.541 -0.528,-0.167 -1.037,-0.374 -1.551,-0.569 -1.112,4.254 -1.892,8.341 -2.212,12.496 0.248,0.061 0.497,0.125 0.747,0.192 0.94,0.249 1.983,0.327 2.871,0.719 0.173,0.079 0.093,0.309 -0.048,0.362 -0.761,0.287 -1.567,0.087 -2.338,-0.093 -0.434,-0.103 -0.868,-0.219 -1.302,-0.333 -0.065,1.062 -0.1,2.13 -0.101,3.208 0.763,3.358 1.478,6.604 2.425,9.83 l 0.01,-0.004 c 0.055,-0.101 0.19,-0.15 0.299,-0.11 0.395,-0.142 0.791,-0.278 1.182,-0.425 0.809,-0.307 1.601,-0.67 2.477,-0.704 0.295,-0.011 0.415,0.421 0.152,0.559 -0.763,0.4 -1.604,0.645 -2.408,0.95 -0.317,0.12 -0.647,0.237 -0.981,0.333 1.396,2.783 2.596,5.704 4.227,8.352 0.127,0.206 -0.179,0.371 -0.315,0.187 -1.912,-2.599 -3.304,-5.336 -4.399,-8.338 0.574,1.873 1.226,3.746 2.037,5.64 0.108,0.25 -0.211,0.449 -0.371,0.215 -1.854,-2.71 -3.21,-6.016 -4.078,-9.443 -0.142,0.047 -0.324,0.007 -0.369,-0.162 -0.273,-1.043 -0.494,-2.103 -0.664,-3.174 0.645,5.249 2.472,10.222 5.734,14.315 0.258,0.324 -0.2,0.787 -0.459,0.458 -0.989,-1.255 -1.839,-2.585 -2.575,-3.966 0.588,1.333 1.231,2.642 1.943,3.921 0.115,-0.014 0.237,0.017 0.345,0.126 8.35,8.237 15.786,14.408 27.883,15.547 9.301,0.875 18.601,-2.278 26.168,-7.535 C 9.504,41.478 12.881,16.29 0,0 m -52.102,-6.498 c -2.884,1.831 -5.336,3.962 -7.402,6.31 0.938,-0.863 1.89,-1.74 2.862,-2.603 0.037,-0.171 0.188,-0.314 0.365,-0.326 1.698,-1.493 3.473,-2.914 5.365,-4.101 -0.399,0.236 -0.798,0.471 -1.19,0.72 m -8.086,7.11 c -5.191,6.296 -7.66,14.07 -7.776,22.074 0.053,-0.085 0.13,-0.154 0.253,-0.153 0.122,0.002 0.242,0.016 0.363,0.026 0.144,-1.359 0.384,-2.709 0.666,-4.055 0.36,-2.216 0.904,-4.4 1.612,-6.508 -0.246,0.476 -0.493,0.95 -0.739,1.434 -0.14,0.275 -0.615,0.081 -0.503,-0.212 0.43,-1.121 0.889,-2.269 1.374,-3.417 -0.272,-0.197 -0.149,-0.681 0.225,-0.563 0.003,0.001 0.007,0.002 0.01,0.003 1.275,-2.944 2.805,-5.849 4.81,-8.301 -0.155,-0.045 -0.28,-0.176 -0.295,-0.328 m -7.181,29.801 c -0.254,-2.348 -0.252,-4.742 -0.042,-7.135 -0.129,-0.034 -0.259,-0.064 -0.388,-0.098 -0.076,-0.02 -0.121,-0.068 -0.16,-0.119 -0.013,2.445 0.179,4.907 0.59,7.352 m 61.404,22.909 c -7.421,6.025 -16.976,8.822 -26.438,8.687 -12.704,-0.182 -21.702,-7.063 -30.006,-15.944 -0.168,-0.18 -0.147,-0.392 -0.039,-0.549 -11.63,-16.798 -7.794,-39.547 8.532,-51.916 16.938,-12.832 42.4,-9.728 55.494,6.861 12.835,16.263 7.845,40.372 -7.543,52.861"
       style="fill:#39180e icc-color(Adobe-RGB-1998, 0.20799255, 0.11799622, 0.08599854);fill-opacity:1;fill-rule:evenodd;stroke:none"
       transform="matrix(0.35277776,0,0,-0.35277776,120.29749,103.46311)"
       clip-path="url(#clipPath9438)" />
    <path
       id="path9417"
       d="m 0,0 c -5.846,-10.772 -5.194,-23.84 4.094,-32.136 -1.661,1.396 -3.149,2.982 -4.396,4.739 C -5.514,-20.058 -5.82,-7.316 0,0 m 0.544,-0.024 c 0.107,-0.173 0.353,-0.275 0.519,-0.09 10.567,11.794 26.928,11.521 38.769,1.372 10.347,-8.869 6.718,-26.196 -2.399,-34.396 -0.511,-0.459 -1.042,-0.879 -1.58,-1.279 -8.636,-3.824 -17.184,-4.477 -26.436,-0.16 -13.788,6.431 -14.486,22.382 -8.873,34.553 m 34.315,-36.157 c 1.751,0.817 3.403,1.807 4.881,3.008 0.278,0.228 -0.077,0.637 -0.37,0.479 -0.059,-0.032 -0.119,-0.059 -0.179,-0.092 9.164,9.089 11.016,25.348 1.35,34.754 C 31.2,11.058 14.24,13.101 4.292,4.565 4.216,4.575 4.136,4.573 4.051,4.534 -7.436,-0.689 -7.031,-18.687 -1.171,-27.904 6.14,-39.409 23.241,-43.203 34.859,-36.181"
       style="fill:#39180e icc-color(Adobe-RGB-1998, 0.20799255, 0.11799622, 0.08599854);fill-opacity:1;fill-rule:evenodd;stroke:none"
       transform="matrix(0.35277776,0,0,-0.35277776,102.20013,89.541447)"
       clip-path="url(#clipPath9418)" />
    <path
       id="path9419"
       d="M 0,0 C -0.01,-0.032 -0.021,-0.065 -0.032,-0.099 -0.064,1.063 0.304,1.987 0.947,2.641 0.623,1.763 0.289,0.891 0,0 m 5.212,3.608 c 2.4,-0.477 4.336,-2.021 5.591,-4.032 -0.769,-1.961 -1.569,-3.949 -2.295,-5.96 0.48,1.962 0.831,3.969 1.334,5.774 0.106,0.379 -0.466,0.531 -0.583,0.161 -1.127,-3.546 -2.37,-7.163 -3.371,-10.757 -0.254,0.307 -0.513,0.612 -0.762,0.921 C 7.224,-6.969 7.76,-2.557 8.343,1.246 8.413,1.703 7.725,1.909 7.637,1.441 6.918,-2.395 5.705,-6.017 4.716,-9.767 4.47,-9.455 4.224,-9.142 3.988,-8.826 5.678,-5.604 6.049,-1.531 7.109,1.867 7.255,2.337 6.527,2.532 6.375,2.069 5.301,-1.196 4.265,-4.533 3.289,-7.849 3.082,-7.551 2.869,-7.259 2.673,-6.955 4.163,-4.223 4.677,-0.78 5.508,2.189 5.626,2.613 4.987,2.784 4.854,2.37 3.971,-0.387 2.634,-3.332 2.255,-6.248 2.062,-5.922 1.854,-5.604 1.678,-5.27 2.379,-4.412 2.726,-3.205 3.04,-2.181 3.574,-0.435 3.799,1.37 4.156,3.155 4.214,3.445 3.78,3.57 3.71,3.277 3.374,1.875 2.975,0.489 2.578,-0.897 2.243,-2.064 1.626,-3.177 1.209,-4.32 c -0.105,0.232 -0.215,0.463 -0.312,0.701 0.042,0.014 0.084,0.024 0.122,0.074 1.371,1.773 1.708,4.51 2,6.669 C 3.076,3.555 2.427,3.754 2.35,3.309 2.162,2.204 1.888,1.127 1.566,0.054 1.277,-0.913 0.824,-1.878 0.614,-2.868 c -0.093,0.264 -0.19,0.524 -0.269,0.795 0.248,0.576 0.336,1.244 0.504,1.84 0.288,1.02 0.629,2.026 0.942,3.04 0.055,0.174 -0.013,0.307 -0.127,0.382 0.925,0.532 2.16,0.697 3.548,0.419 m 6.125,-4.994 c 0.075,-0.155 0.211,-0.201 0.351,-0.207 -0.98,-3.878 -2.236,-7.599 -3.609,-11.359 -0.093,-0.253 0.291,-0.395 0.423,-0.178 0.771,1.265 1.351,2.618 1.826,4.013 -0.495,-1.693 -0.951,-3.39 -1.304,-5.086 -0.047,-0.234 0.296,-0.411 0.406,-0.171 2.09,4.584 3.049,9.662 4.864,14.365 0.181,0.469 -0.567,0.666 -0.748,0.207 -0.899,-2.29 -1.767,-4.65 -2.539,-7.04 0.491,1.864 0.863,3.768 1.266,5.627 0.004,0.016 -0.008,0.025 -0.007,0.04 0.156,0.104 0.207,0.251 0.178,0.387 0.188,0.251 0.462,0.605 0.886,1.132 0.558,0.696 1.17,1.349 1.782,2 1.488,1.58 5.278,3.918 6.889,-0.385 0.696,-1.86 -0.151,-4.233 -0.757,-6.007 -0.662,-1.944 -1.584,-3.858 -2.661,-5.716 0.673,2.236 1.412,4.447 2.211,6.651 0.146,0.401 -0.495,0.573 -0.64,0.175 -1.04,-2.863 -2.129,-5.733 -2.73,-8.722 -0.51,-0.785 -1.044,-1.56 -1.595,-2.317 1.581,3.538 2.47,7.482 3.449,11.163 0.126,0.47 -0.602,0.67 -0.729,0.2 -1.2,-4.445 -2.85,-8.747 -4.088,-13.169 -0.853,-1.085 -1.73,-2.133 -2.609,-3.132 -0.091,0.103 -0.185,0.207 -0.278,0.311 -1.455,2.387 -3.317,4.562 -5.15,6.751 0.319,0.515 0.586,1.064 0.834,1.627 -0.168,-0.593 -0.324,-1.185 -0.462,-1.78 -0.067,-0.288 0.341,-0.483 0.49,-0.206 1.841,3.417 2.688,7.383 3.903,11.097 0.048,-0.092 0.103,-0.179 0.148,-0.271 M -0.199,3.148 c -0.645,-0.794 -0.895,-1.75 -0.906,-2.755 -1.234,-7.922 6.852,-14.492 11.902,-19.736 0.09,-0.152 0.194,-0.298 0.281,-0.453 -0.008,-0.008 -0.015,-0.017 -0.023,-0.025 -0.451,-0.499 0.288,-1.242 0.737,-0.74 0.095,0.106 0.199,0.225 0.297,0.334 0.019,0.02 0.036,0.04 0.053,0.06 4.883,5.49 13.371,15.588 10.492,23.3 -1.866,5.001 -9.34,0.483 -10.923,-3.144 -0.027,0.049 -0.063,0.095 -0.091,0.144 0.024,0.065 0.045,0.135 0.069,0.201 0.095,0.256 -0.19,0.393 -0.387,0.299 C 8.836,4.164 2.813,6.864 -0.199,3.148"
       style="fill:#39180e icc-color(Adobe-RGB-1998, 0.20799255, 0.11799622, 0.08599854);fill-opacity:1;fill-rule:evenodd;stroke:none"
       transform="matrix(0.35277776,0,0,-0.35277776,105.48029,92.658395)"
       clip-path="url(#clipPath9420)" />
    <path
       id="path9425"
       d="m 0,0 c -1.33,-4.907 -3.395,-9.538 -4.859,-14.395 -0.048,-0.159 0.195,-0.264 0.272,-0.114 2.283,4.527 3.92,9.447 5.142,14.357 C 0.645,0.207 0.097,0.359 0,0"
       style="fill:#39180e icc-color(Adobe-RGB-1998, 0.20799255, 0.11799622, 0.08599854);fill-opacity:1;fill-rule:evenodd;stroke:none"
       transform="matrix(0.35277776,0,0,-0.35277776,111.65136,93.352176)"
       clip-path="url(#clipPath9426)" />
    <path
       id="path9425-6"
       d="m 0,0 c -1.33,-4.907 -3.395,-9.538 -4.859,-14.395 -0.048,-0.159 0.195,-0.264 0.272,-0.114 2.283,4.527 3.92,9.447 5.142,14.357 C 0.645,0.207 0.097,0.359 0,0"
       style="fill:#39180e icc-color(Adobe-RGB-1998, 0.20799255, 0.11799622, 0.08599854);fill-opacity:1;fill-rule:evenodd;stroke:none"
       transform="matrix(0.35277776,0,0,-0.35277776,111.03508,93.506986)"
       clip-path="url(#clipPath9426-5)" />
    <path
       id="path9425-1"
       d="m 0,0 c -1.33,-4.907 -3.395,-9.538 -4.859,-14.395 -0.048,-0.159 0.195,-0.264 0.272,-0.114 2.283,4.527 3.92,9.447 5.142,14.357 C 0.645,0.207 0.097,0.359 0,0"
       style="fill:#39180e icc-color(Adobe-RGB-1998, 0.20799255, 0.11799622, 0.08599854);fill-opacity:1;fill-rule:evenodd;stroke:none"
       transform="matrix(0.35277776,0,0,-0.35277776,110.56681,93.240136)"
       clip-path="url(#clipPath9426-4)" />
    <path
       id="path9445"
       d="m 0,0 c -0.001,-2.262 -0.112,-4.514 -0.255,-6.771 0.601,-3.42 -0.914,-4.338 -4.546,-2.755 -0.446,1.854 -0.671,3.732 -0.678,5.632 -0.436,9.05 3.548,17.561 4.254,26.451 0.201,0.017 0.397,0.051 0.583,0.114 0.124,-3.023 0.268,-6.05 0.459,-9.103 C 0.098,9.064 0.001,4.512 0,0 m -2.833,27.953 c -0.985,1.172 -2.022,2.277 -3.069,3.395 -1.771,1.889 -2.438,4.241 -2.583,6.685 0.41,-0.474 0.758,-1.096 1.373,-1.302 0.147,-0.049 0.286,0.105 0.246,0.247 -0.18,0.639 -0.729,1.195 -1.185,1.658 -0.147,0.148 -0.325,0.126 -0.452,0.03 -0.016,0.624 -0.009,1.253 0.027,1.88 0.046,-0.071 0.095,-0.138 0.14,-0.209 0.28,-0.449 0.505,-1.019 0.959,-1.312 0.114,-0.075 0.295,-0.005 0.322,0.129 0.188,0.924 -0.682,1.938 -1.318,2.693 0.092,0.923 0.216,1.834 0.341,2.708 0.067,0.46 0.159,0.913 0.24,1.369 0.263,-0.889 0.321,-1.853 0.436,-2.758 0.009,-0.076 0.127,-0.139 0.168,-0.046 0.552,1.261 0.23,2.443 -0.475,3.548 0.219,1.145 0.461,2.28 0.743,3.407 0.1,-0.467 0.246,-0.914 0.521,-1.255 0.12,-0.149 0.361,-0.054 0.408,0.108 0.252,0.866 -0.24,1.941 -0.506,2.785 0.205,0.743 0.419,1.483 0.643,2.221 0.038,-0.637 0.148,-1.258 0.554,-1.725 0.086,-0.1 0.231,-0.034 0.27,0.07 0.359,0.989 0.001,2.26 -0.271,3.246 -0.006,0.021 -0.026,0.029 -0.036,0.046 0.108,0.339 0.21,0.678 0.321,1.017 0.184,0.558 0.32,1.242 0.44,2.004 0.051,-0.161 0.085,-0.326 0.139,-0.487 0.223,-0.668 0.334,-1.408 0.776,-1.971 0.1,-0.126 0.286,-0.035 0.33,0.088 0.438,1.22 -0.522,2.829 -1.016,4.024 0.098,0.774 0.199,1.58 0.325,2.386 0.153,-0.665 0.419,-1.29 0.98,-1.612 0.233,-0.134 0.467,0.084 0.422,0.325 -0.085,0.458 -0.342,0.882 -0.511,1.316 -0.203,0.522 -0.351,1.067 -0.496,1.606 -0.012,0.044 -0.049,0.063 -0.075,0.094 0.501,2.285 1.345,4.303 3.099,5.072 0.105,0.046 0.161,0.116 0.191,0.196 -0.524,-3.203 -0.309,-6.314 -0.102,-9.564 0.304,-4.785 -0.2,-9.645 -0.341,-14.43 -0.208,-7.026 -0.125,-13.931 0.13,-20.864 -0.128,-0.043 -0.257,-0.084 -0.39,-0.114 0.003,0.136 0.013,0.271 0.013,0.407 0.001,0.24 -0.173,0.333 -0.346,0.316 -0.24,0.891 -0.64,1.688 -1.385,2.573 M 0.03,23.054 c 0.116,0.104 0.223,0.223 0.31,0.365 0.167,0.271 -0.075,0.56 -0.359,0.547 -0.008,0.167 -0.018,0.333 -0.026,0.5 0.017,0.043 0.054,0.076 0.064,0.124 0.02,0.089 -0.019,0.158 -0.078,0.211 -0.106,2.325 -0.184,4.653 -0.204,6.985 -0.056,6.655 0.31,13.388 0.591,20.038 0.255,6.05 -0.635,12.18 0.054,18.183 0.046,0.409 -0.643,0.499 -0.719,0.097 -0.021,-0.111 -0.033,-0.222 -0.052,-0.333 -0.017,0.27 -0.31,0.55 -0.641,0.395 -2.159,-1.009 -2.719,-3.295 -3.295,-5.457 -1.388,-5.204 -2.53,-10.759 -3.639,-16.036 -0.461,-2.195 -0.882,-4.299 -1.112,-6.407 -0.196,-0.096 -0.338,-0.335 -0.19,-0.545 0.042,-0.059 0.078,-0.118 0.119,-0.178 -0.184,-2.124 -0.158,-4.265 0.262,-6.517 0.728,-3.913 4.409,-6.082 6.294,-9.418 -0.168,-0.066 -0.303,-0.232 -0.243,-0.433 0.157,-0.526 0.412,-1.035 0.872,-1.306 -0.02,-0.135 -0.046,-0.27 -0.068,-0.406 -0.183,0.027 -0.366,0.067 -0.549,0.126 -0.519,0.166 -0.697,-0.601 -0.22,-0.795 0.193,-0.079 0.406,-0.136 0.627,-0.181 C -3.985,12.019 -8.206,0.875 -5.737,-9.785 -4.454,-15.326 0.155,-12.566 0.56,-8.287 1.553,2.201 0.563,12.609 0.03,23.054"
       style="fill:#39180e icc-color(Adobe-RGB-1998, 0.20799255, 0.11799622, 0.08599854);fill-opacity:1;fill-rule:evenodd;stroke:none"
       transform="matrix(0.35277776,0,0,-0.35277776,128.09301,107.12677)"
       clip-path="url(#clipPath9446)" />
    <path
       id="path9427"
       d="m 0,0 c 4.688,2.428 10.142,6.253 10.998,11.903 0.038,0.255 -0.338,0.478 -0.459,0.194 C 9.431,9.518 8.389,7.336 6.413,5.284 4.496,3.294 2.159,1.746 -0.128,0.22 -0.264,0.128 -0.146,-0.075 0,0"
       style="fill:#39180e icc-color(Adobe-RGB-1998, 0.20799255, 0.11799622, 0.08599854);fill-opacity:1;fill-rule:evenodd;stroke:none"
       transform="matrix(0.35277776,0,0,-0.35277776,113.17634,101.8975)"
       clip-path="url(#clipPath9428)" />
    <path
       id="path9431"
       d="M 0,0 C 0.463,0.714 0.567,1.691 0.766,2.506 0.859,2.887 0.275,3.048 0.179,2.667 -0.029,1.854 -0.399,0.937 -0.328,0.09 -0.313,-0.083 -0.099,-0.151 0,0"
       style="fill:#39180e icc-color(Adobe-RGB-1998, 0.20799255, 0.11799622, 0.08599854);fill-opacity:1;fill-rule:evenodd;stroke:none"
       transform="matrix(0.35277776,0,0,-0.35277776,117.52438,96.299865)"
       clip-path="url(#clipPath9432)" />
    <path
       id="path9441"
       d="m 0,0 c -2.401,-3.806 -5.147,-7.104 -8.83,-9.723 -0.233,-0.166 -0.036,-0.505 0.225,-0.382 4.079,1.913 7.074,5.914 9.063,9.837 C 0.613,0.037 0.184,0.292 0,0"
       style="fill:#39180e icc-color(Adobe-RGB-1998, 0.20799255, 0.11799622, 0.08599854);fill-opacity:1;fill-rule:evenodd;stroke:none"
       transform="matrix(0.35277776,0,0,-0.35277776,121.66403,103.29331)"
       clip-path="url(#clipPath9442)" />
    <path
       id="path9439"
       d="M 0,0 C 2.259,3.292 4.958,6.037 7.706,8.896 7.827,9.021 7.67,9.238 7.517,9.142 4.145,6.999 1.769,3.508 -0.206,0.119 -0.285,-0.015 -0.086,-0.125 0,0"
       style="fill:#39180e icc-color(Adobe-RGB-1998, 0.20799255, 0.11799622, 0.08599854);fill-opacity:1;fill-rule:evenodd;stroke:none"
       transform="matrix(0.35277776,0,0,-0.35277776,96.782664,88.36666)"
       clip-path="url(#clipPath9440)" />
    <path
       id="path238"
       d="M 0,0 C -0.547,0.498 -1.197,1.059 -0.571,2.117 0.008,1.762 0.551,1.43 1.249,1 1.271,2.744 1.293,4.354 1.314,5.984 2.745,6.033 2.576,5.074 2.646,4.406 2.746,3.443 2.706,2.467 2.743,1.496 2.746,1.398 2.86,1.305 2.921,1.211 3.264,1.383 3.577,1.541 4.19,1.85 3.976,0.906 3.827,0.252 3.668,-0.447 4.383,-0.535 5.042,-0.615 5.81,-0.709 5.809,-1.107 5.809,-1.455 5.809,-1.807 5.177,-1.988 4.668,-2.135 4.188,-2.273 4.389,-2.932 4.565,-3.521 4.743,-4.109 4.638,-4.17 4.53,-4.229 4.424,-4.287 3.968,-3.963 3.513,-3.639 2.892,-3.195 2.835,-3.752 2.79,-4.152 2.755,-4.555 2.665,-5.646 2.591,-6.738 2.487,-7.826 2.443,-8.303 2.368,-8.807 1.52,-8.529 1.428,-6.762 1.332,-4.937 1.229,-2.939 0.54,-3.32 0.122,-3.553 -0.297,-3.785 l -0.234,0.187 c 0.221,0.545 0.443,1.09 0.693,1.707 -0.515,0.123 -0.985,0.235 -1.398,0.334 C -1.724,-0.266 -0.32,-0.699 0,0"
       style="fill:#be9500;fill-opacity:1;fill-rule:nonzero;stroke:none"
       transform="matrix(0.35277776,0,0,-0.35277776,123.04358,80.457148)"
       clip-path="url(#clipPath239)" />
    <path
       id="path250"
       d="M 0,0 C 0.732,0.037 1.358,-0.525 1.396,-1.258 1.435,-1.988 0.871,-2.613 0.139,-2.652 -0.594,-2.689 -1.218,-2.127 -1.256,-1.395 -1.294,-0.664 -0.732,-0.039 0,0"
       style="fill:#be9500;fill-opacity:1;fill-rule:nonzero;stroke:none"
       transform="matrix(0.35277776,0,0,-0.35277776,125.13855,84.640176)"
       clip-path="url(#clipPath251)" />
    <path
       id="path252"
       d="M 0,0 C 0.55,0.027 1.019,-0.393 1.047,-0.941 1.076,-1.492 0.653,-1.959 0.104,-1.988 -0.445,-2.018 -0.914,-1.596 -0.942,-1.047 -0.971,-0.496 -0.55,-0.029 0,0"
       style="fill:#be9500;fill-opacity:1;fill-rule:nonzero;stroke:none"
       transform="matrix(0.35277776,0,0,-0.35277776,120.91108,77.81336)"
       clip-path="url(#clipPath253)" />
    <path
       id="path454-4-5"
       d="m 0,0 c 0.301,-0.18 0.576,-0.4 0.88,-0.574 0.369,-0.207 0.844,0.025 0.903,0.447 0.096,0.689 0.164,1.383 0.244,2.074 0.03,0.262 0.049,0.524 0.094,0.783 0.045,0.266 0.136,0.518 0.44,0.584 C 2.748,3.354 2.957,3.078 2.981,2.74 3.055,1.73 3.075,0.721 2.792,-0.266 2.54,-1.148 2.281,-2.031 1.991,-3.031 0.883,-2.279 -0.106,-1.002 -0.468,0.057 -0.292,0.219 -0.137,0.084 0,0 m -2.337,-0.543 c 0.661,-1.248 1.479,-2.387 2.52,-3.342 0.513,-0.474 1.083,-0.892 1.662,-1.283 0.474,-0.322 0.859,-0.146 1.009,0.377 0.155,0.545 0.271,1.107 0.48,1.629 0.543,1.351 0.893,2.756 1.101,4.185 C 4.542,1.754 4.514,2.512 4.49,3.252 4.474,3.736 4.321,4.199 3.979,4.576 3.554,5.045 3.125,5.152 2.567,4.865 1.696,4.42 1.154,3.701 0.938,2.748 0.853,2.369 0.813,1.979 0.738,1.5 0.46,1.67 0.243,1.801 0.031,1.934 -0.263,2.121 -0.539,2.348 -0.851,2.494 -1.226,2.668 -1.633,2.658 -1.978,2.396 -2.71,1.84 -2.937,1.066 -2.64,0.186 c 0.083,-0.25 0.18,-0.498 0.303,-0.729"
       style="fill:#be9500;fill-opacity:1;fill-rule:nonzero;stroke:none"
       transform="matrix(0.35277776,0,0,-0.35277776,133.02075,102.22945)"
       clip-path="url(#clipPath455-7-07)" />
    <path
       id="path252-55"
       d="M 0,0 C 0.55,0.027 1.019,-0.393 1.047,-0.941 1.076,-1.492 0.653,-1.959 0.104,-1.988 -0.445,-2.018 -0.914,-1.596 -0.942,-1.047 -0.971,-0.496 -0.55,-0.029 0,0"
       style="fill:#be9500;fill-opacity:1;fill-rule:nonzero;stroke:none"
       transform="matrix(0.35277776,0,0,-0.35277776,133.96233,107.10373)"
       clip-path="url(#clipPath253-36)" />
    <path
       id="path454-4-4"
       d="m 0,0 c 0.301,-0.18 0.576,-0.4 0.88,-0.574 0.369,-0.207 0.844,0.025 0.903,0.447 0.096,0.689 0.164,1.383 0.244,2.074 0.03,0.262 0.049,0.524 0.094,0.783 0.045,0.266 0.136,0.518 0.44,0.584 C 2.748,3.354 2.957,3.078 2.981,2.74 3.055,1.73 3.075,0.721 2.792,-0.266 2.54,-1.148 2.281,-2.031 1.991,-3.031 0.883,-2.279 -0.106,-1.002 -0.468,0.057 -0.292,0.219 -0.137,0.084 0,0 m -2.337,-0.543 c 0.661,-1.248 1.479,-2.387 2.52,-3.342 0.513,-0.474 1.083,-0.892 1.662,-1.283 0.474,-0.322 0.859,-0.146 1.009,0.377 0.155,0.545 0.271,1.107 0.48,1.629 0.543,1.351 0.893,2.756 1.101,4.185 C 4.542,1.754 4.514,2.512 4.49,3.252 4.474,3.736 4.321,4.199 3.979,4.576 3.554,5.045 3.125,5.152 2.567,4.865 1.696,4.42 1.154,3.701 0.938,2.748 0.853,2.369 0.813,1.979 0.738,1.5 0.46,1.67 0.243,1.801 0.031,1.934 -0.263,2.121 -0.539,2.348 -0.851,2.494 -1.226,2.668 -1.633,2.658 -1.978,2.396 -2.71,1.84 -2.937,1.066 -2.64,0.186 c 0.083,-0.25 0.18,-0.498 0.303,-0.729"
       style="fill:#be9500;fill-opacity:1;fill-rule:nonzero;stroke:none"
       transform="matrix(0.35277776,0,0,-0.35277776,130.55919,97.992869)"
       clip-path="url(#clipPath455-7-7)" />
    <path
       id="path238-4"
       d="M 0,0 C -0.547,0.498 -1.197,1.059 -0.571,2.117 0.008,1.762 0.551,1.43 1.249,1 1.271,2.744 1.293,4.354 1.314,5.984 2.745,6.033 2.576,5.074 2.646,4.406 2.746,3.443 2.706,2.467 2.743,1.496 2.746,1.398 2.86,1.305 2.921,1.211 3.264,1.383 3.577,1.541 4.19,1.85 3.976,0.906 3.827,0.252 3.668,-0.447 4.383,-0.535 5.042,-0.615 5.81,-0.709 5.809,-1.107 5.809,-1.455 5.809,-1.807 5.177,-1.988 4.668,-2.135 4.188,-2.273 4.389,-2.932 4.565,-3.521 4.743,-4.109 4.638,-4.17 4.53,-4.229 4.424,-4.287 3.968,-3.963 3.513,-3.639 2.892,-3.195 2.835,-3.752 2.79,-4.152 2.755,-4.555 2.665,-5.646 2.591,-6.738 2.487,-7.826 2.443,-8.303 2.368,-8.807 1.52,-8.529 1.428,-6.762 1.332,-4.937 1.229,-2.939 0.54,-3.32 0.122,-3.553 -0.297,-3.785 l -0.234,0.187 c 0.221,0.545 0.443,1.09 0.693,1.707 -0.515,0.123 -0.985,0.235 -1.398,0.334 C -1.724,-0.266 -0.32,-0.699 0,0"
       style="fill:#be9500;fill-opacity:1;fill-rule:nonzero;stroke:none"
       transform="matrix(0.35277776,0,0,-0.35277776,136.70204,100.64093)"
       clip-path="url(#clipPath239-7)" />
    <path
       id="path250-3"
       d="M 0,0 C 0.732,0.037 1.358,-0.525 1.396,-1.258 1.435,-1.988 0.871,-2.613 0.139,-2.652 -0.594,-2.689 -1.218,-2.127 -1.256,-1.395 -1.294,-0.664 -0.732,-0.039 0,0"
       style="fill:#be9500;fill-opacity:1;fill-rule:nonzero;stroke:none"
       transform="matrix(0.35277776,0,0,-0.35277776,138.79701,104.82395)"
       clip-path="url(#clipPath251-8)" />
    <path
       id="path252-0"
       d="M 0,0 C 0.55,0.027 1.019,-0.393 1.047,-0.941 1.076,-1.492 0.653,-1.959 0.104,-1.988 -0.445,-2.018 -0.914,-1.596 -0.942,-1.047 -0.971,-0.496 -0.55,-0.029 0,0"
       style="fill:#be9500;fill-opacity:1;fill-rule:nonzero;stroke:none"
       transform="matrix(0.35277776,0,0,-0.35277776,134.56954,97.997138)"
       clip-path="url(#clipPath253-8)" />
    <path
       id="path454-4-0"
       d="m 0,0 c 0.301,-0.18 0.576,-0.4 0.88,-0.574 0.369,-0.207 0.844,0.025 0.903,0.447 0.096,0.689 0.164,1.383 0.244,2.074 0.03,0.262 0.049,0.524 0.094,0.783 0.045,0.266 0.136,0.518 0.44,0.584 C 2.748,3.354 2.957,3.078 2.981,2.74 3.055,1.73 3.075,0.721 2.792,-0.266 2.54,-1.148 2.281,-2.031 1.991,-3.031 0.883,-2.279 -0.106,-1.002 -0.468,0.057 -0.292,0.219 -0.137,0.084 0,0 m -2.337,-0.543 c 0.661,-1.248 1.479,-2.387 2.52,-3.342 0.513,-0.474 1.083,-0.892 1.662,-1.283 0.474,-0.322 0.859,-0.146 1.009,0.377 0.155,0.545 0.271,1.107 0.48,1.629 0.543,1.351 0.893,2.756 1.101,4.185 C 4.542,1.754 4.514,2.512 4.49,3.252 4.474,3.736 4.321,4.199 3.979,4.576 3.554,5.045 3.125,5.152 2.567,4.865 1.696,4.42 1.154,3.701 0.938,2.748 0.853,2.369 0.813,1.979 0.738,1.5 0.46,1.67 0.243,1.801 0.031,1.934 -0.263,2.121 -0.539,2.348 -0.851,2.494 -1.226,2.668 -1.633,2.658 -1.978,2.396 -2.71,1.84 -2.937,1.066 -2.64,0.186 c 0.083,-0.25 0.18,-0.498 0.303,-0.729"
       style="fill:#bd9500;fill-opacity:0.85490197;fill-rule:nonzero;stroke:none"
       transform="matrix(0.35277776,0,0,-0.35277776,90.691946,77.074922)"
       clip-path="url(#clipPath455-7-0)" />
    <path
       id="path238-5"
       d="M 0,0 C -0.547,0.498 -1.197,1.059 -0.571,2.117 0.008,1.762 0.551,1.43 1.249,1 1.271,2.744 1.293,4.354 1.314,5.984 2.745,6.033 2.576,5.074 2.646,4.406 2.746,3.443 2.706,2.467 2.743,1.496 2.746,1.398 2.86,1.305 2.921,1.211 3.264,1.383 3.577,1.541 4.19,1.85 3.976,0.906 3.827,0.252 3.668,-0.447 4.383,-0.535 5.042,-0.615 5.81,-0.709 5.809,-1.107 5.809,-1.455 5.809,-1.807 5.177,-1.988 4.668,-2.135 4.188,-2.273 4.389,-2.932 4.565,-3.521 4.743,-4.109 4.638,-4.17 4.53,-4.229 4.424,-4.287 3.968,-3.963 3.513,-3.639 2.892,-3.195 2.835,-3.752 2.79,-4.152 2.755,-4.555 2.665,-5.646 2.591,-6.738 2.487,-7.826 2.443,-8.303 2.368,-8.807 1.52,-8.529 1.428,-6.762 1.332,-4.937 1.229,-2.939 0.54,-3.32 0.122,-3.553 -0.297,-3.785 l -0.234,0.187 c 0.221,0.545 0.443,1.09 0.693,1.707 -0.515,0.123 -0.985,0.235 -1.398,0.334 C -1.724,-0.266 -0.32,-0.699 0,0"
       style="fill:#bd9500;fill-opacity:0.85490197;fill-rule:nonzero;stroke:none"
       transform="matrix(0.35277776,0,0,-0.35277776,96.834796,79.722979)"
       clip-path="url(#clipPath239-5)" />
    <path
       id="path250-1"
       d="M 0,0 C 0.732,0.037 1.358,-0.525 1.396,-1.258 1.435,-1.988 0.871,-2.613 0.139,-2.652 -0.594,-2.689 -1.218,-2.127 -1.256,-1.395 -1.294,-0.664 -0.732,-0.039 0,0"
       style="fill:#bd9500;fill-opacity:0.85490197;fill-rule:nonzero;stroke:none"
       transform="matrix(0.35277776,0,0,-0.35277776,98.929766,83.906007)"
       clip-path="url(#clipPath251-2)" />
    <path
       id="path252-5"
       d="M 0,0 C 0.55,0.027 1.019,-0.393 1.047,-0.941 1.076,-1.492 0.653,-1.959 0.104,-1.988 -0.445,-2.018 -0.914,-1.596 -0.942,-1.047 -0.971,-0.496 -0.55,-0.029 0,0"
       style="fill:#bd9500;fill-opacity:0.85490197;fill-rule:nonzero;stroke:none"
       transform="matrix(0.35277776,0,0,-0.35277776,94.702296,77.079191)"
       clip-path="url(#clipPath253-3)" />
    <path
       id="path238-5-8"
       d="M 0,0 C -0.547,0.498 -1.197,1.059 -0.571,2.117 0.008,1.762 0.551,1.43 1.249,1 1.271,2.744 1.293,4.354 1.314,5.984 2.745,6.033 2.576,5.074 2.646,4.406 2.746,3.443 2.706,2.467 2.743,1.496 2.746,1.398 2.86,1.305 2.921,1.211 3.264,1.383 3.577,1.541 4.19,1.85 3.976,0.906 3.827,0.252 3.668,-0.447 4.383,-0.535 5.042,-0.615 5.81,-0.709 5.809,-1.107 5.809,-1.455 5.809,-1.807 5.177,-1.988 4.668,-2.135 4.188,-2.273 4.389,-2.932 4.565,-3.521 4.743,-4.109 4.638,-4.17 4.53,-4.229 4.424,-4.287 3.968,-3.963 3.513,-3.639 2.892,-3.195 2.835,-3.752 2.79,-4.152 2.755,-4.555 2.665,-5.646 2.591,-6.738 2.487,-7.826 2.443,-8.303 2.368,-8.807 1.52,-8.529 1.428,-6.762 1.332,-4.937 1.229,-2.939 0.54,-3.32 0.122,-3.553 -0.297,-3.785 l -0.234,0.187 c 0.221,0.545 0.443,1.09 0.693,1.707 -0.515,0.123 -0.985,0.235 -1.398,0.334 C -1.724,-0.266 -0.32,-0.699 0,0"
       style="fill:#be9500;fill-opacity:1;fill-rule:nonzero;stroke:none"
       transform="matrix(0.35277776,0,0,-0.35277776,134.80961,92.112414)"
       clip-path="url(#clipPath239-5-8)" />
    <path
       id="path250-1-9"
       d="M 0,0 C 0.732,0.037 1.358,-0.525 1.396,-1.258 1.435,-1.988 0.871,-2.613 0.139,-2.652 -0.594,-2.689 -1.218,-2.127 -1.256,-1.395 -1.294,-0.664 -0.732,-0.039 0,0"
       style="fill:#be9500;fill-opacity:1;fill-rule:nonzero;stroke:none"
       transform="matrix(0.35277776,0,0,-0.35277776,136.90458,96.295442)"
       clip-path="url(#clipPath251-2-8)" />
    <path
       id="path252-5-4"
       d="M 0,0 C 0.55,0.027 1.019,-0.393 1.047,-0.941 1.076,-1.492 0.653,-1.959 0.104,-1.988 -0.445,-2.018 -0.914,-1.596 -0.942,-1.047 -0.971,-0.496 -0.55,-0.029 0,0"
       style="fill:#be9500;fill-opacity:1;fill-rule:nonzero;stroke:none"
       transform="matrix(0.35277776,0,0,-0.35277776,132.67711,89.468626)"
       clip-path="url(#clipPath253-3-6)" />
    <path
       id="path454-4-46"
       d="m 0,0 c 0.301,-0.18 0.576,-0.4 0.88,-0.574 0.369,-0.207 0.844,0.025 0.903,0.447 0.096,0.689 0.164,1.383 0.244,2.074 0.03,0.262 0.049,0.524 0.094,0.783 0.045,0.266 0.136,0.518 0.44,0.584 C 2.748,3.354 2.957,3.078 2.981,2.74 3.055,1.73 3.075,0.721 2.792,-0.266 2.54,-1.148 2.281,-2.031 1.991,-3.031 0.883,-2.279 -0.106,-1.002 -0.468,0.057 -0.292,0.219 -0.137,0.084 0,0 m -2.337,-0.543 c 0.661,-1.248 1.479,-2.387 2.52,-3.342 0.513,-0.474 1.083,-0.892 1.662,-1.283 0.474,-0.322 0.859,-0.146 1.009,0.377 0.155,0.545 0.271,1.107 0.48,1.629 0.543,1.351 0.893,2.756 1.101,4.185 C 4.542,1.754 4.514,2.512 4.49,3.252 4.474,3.736 4.321,4.199 3.979,4.576 3.554,5.045 3.125,5.152 2.567,4.865 1.696,4.42 1.154,3.701 0.938,2.748 0.853,2.369 0.813,1.979 0.738,1.5 0.46,1.67 0.243,1.801 0.031,1.934 -0.263,2.121 -0.539,2.348 -0.851,2.494 -1.226,2.668 -1.633,2.658 -1.978,2.396 -2.71,1.84 -2.937,1.066 -2.64,0.186 c 0.083,-0.25 0.18,-0.498 0.303,-0.729"
       style="fill:#be9500;fill-opacity:1;fill-rule:nonzero;stroke:none"
       transform="matrix(0.35277776,0,0,-0.35277776,84.248037,84.87673)"
       clip-path="url(#clipPath455-7-56)" />
  </g>
</svg>
