<?xml version="1.0" encoding="UTF-8" standalone="no"?>
<!-- Created with Inkscape (http://www.inkscape.org/) -->

<svg
   version="1.1"
   id="svg1"
   width="158.701"
   height="165.617"
   viewBox="0 0 158.70101 165.617"
   sodipodi:docname="ceremonia.svg"
   inkscape:export-filename="3069159_Freepik.svg"
   inkscape:export-xdpi="96"
   inkscape:export-ydpi="96"
   inkscape:version="1.3 (0e150ed6c4, 2023-07-21)"
   xmlns:inkscape="http://www.inkscape.org/namespaces/inkscape"
   xmlns:sodipodi="http://sodipodi.sourceforge.net/DTD/sodipodi-0.dtd"
   xmlns="http://www.w3.org/2000/svg"
   xmlns:svg="http://www.w3.org/2000/svg">
  <defs
     id="defs1">
    <clipPath
       clipPathUnits="userSpaceOnUse"
       id="clipPath9324">
      <path
         d="M 0,500 H 750 V 0 H 0 Z"
         transform="translate(-330.30271,-335.02291)"
         id="path9324" />
    </clipPath>
    <clipPath
       clipPathUnits="userSpaceOnUse"
       id="clipPath145">
      <path
         d="M 0,500 H 500 V 0 H 0 Z"
         transform="translate(-153.7393,-348.96391)"
         id="path145" />
    </clipPath>
    <clipPath
       clipPathUnits="userSpaceOnUse"
       id="clipPath147">
      <path
         d="M 0,500 H 500 V 0 H 0 Z"
         transform="translate(-108.18801,-395.41211)"
         id="path147" />
    </clipPath>
    <clipPath
       clipPathUnits="userSpaceOnUse"
       id="clipPath149">
      <path
         d="M 0,500 H 500 V 0 H 0 Z"
         transform="translate(-88.849105,-369.41111)"
         id="path149" />
    </clipPath>
    <clipPath
       clipPathUnits="userSpaceOnUse"
       id="clipPath151">
      <path
         d="M 0,500 H 500 V 0 H 0 Z"
         transform="translate(-160.5088,-349.62301)"
         id="path151" />
    </clipPath>
    <clipPath
       clipPathUnits="userSpaceOnUse"
       id="clipPath153">
      <path
         d="M 0,500 H 500 V 0 H 0 Z"
         transform="translate(-84.477505,-349.80271)"
         id="path153" />
    </clipPath>
    <clipPath
       clipPathUnits="userSpaceOnUse"
       id="clipPath155">
      <path
         d="M 0,500 H 500 V 0 H 0 Z"
         transform="translate(-102.1333,-400.11521)"
         id="path155" />
    </clipPath>
    <clipPath
       clipPathUnits="userSpaceOnUse"
       id="clipPath157">
      <path
         d="M 0,500 H 500 V 0 H 0 Z"
         transform="translate(-90.187,-344.47901)"
         id="path157" />
    </clipPath>
    <clipPath
       clipPathUnits="userSpaceOnUse"
       id="clipPath159">
      <path
         d="M 0,500 H 500 V 0 H 0 Z"
         transform="translate(-146.0269,-361.66411)"
         id="path159" />
    </clipPath>
    <clipPath
       clipPathUnits="userSpaceOnUse"
       id="clipPath161">
      <path
         d="M 0,500 H 500 V 0 H 0 Z"
         transform="translate(-157.79151,-334.78171)"
         id="path161" />
    </clipPath>
    <clipPath
       clipPathUnits="userSpaceOnUse"
       id="clipPath163">
      <path
         d="M 0,500 H 500 V 0 H 0 Z"
         transform="translate(-83.71,-375.12651)"
         id="path163" />
    </clipPath>
    <clipPath
       clipPathUnits="userSpaceOnUse"
       id="clipPath165">
      <path
         d="M 0,500 H 500 V 0 H 0 Z"
         transform="translate(-149.8818,-364.79491)"
         id="path165" />
    </clipPath>
    <clipPath
       clipPathUnits="userSpaceOnUse"
       id="clipPath167">
      <path
         d="M 0,500 H 500 V 0 H 0 Z"
         transform="translate(-102.0547,-370.88921)"
         id="path167" />
    </clipPath>
    <clipPath
       clipPathUnits="userSpaceOnUse"
       id="clipPath145-3">
      <path
         d="M 0,500 H 500 V 0 H 0 Z"
         transform="translate(-153.7393,-348.96391)"
         id="path145-6" />
    </clipPath>
    <clipPath
       clipPathUnits="userSpaceOnUse"
       id="clipPath147-6">
      <path
         d="M 0,500 H 500 V 0 H 0 Z"
         transform="translate(-108.18801,-395.41211)"
         id="path147-4" />
    </clipPath>
    <clipPath
       clipPathUnits="userSpaceOnUse"
       id="clipPath149-7">
      <path
         d="M 0,500 H 500 V 0 H 0 Z"
         transform="translate(-88.849105,-369.41111)"
         id="path149-4" />
    </clipPath>
    <clipPath
       clipPathUnits="userSpaceOnUse"
       id="clipPath151-3">
      <path
         d="M 0,500 H 500 V 0 H 0 Z"
         transform="translate(-160.5088,-349.62301)"
         id="path151-2" />
    </clipPath>
    <clipPath
       clipPathUnits="userSpaceOnUse"
       id="clipPath153-6">
      <path
         d="M 0,500 H 500 V 0 H 0 Z"
         transform="translate(-84.477505,-349.80271)"
         id="path153-9" />
    </clipPath>
    <clipPath
       clipPathUnits="userSpaceOnUse"
       id="clipPath155-8">
      <path
         d="M 0,500 H 500 V 0 H 0 Z"
         transform="translate(-102.1333,-400.11521)"
         id="path155-4" />
    </clipPath>
    <clipPath
       clipPathUnits="userSpaceOnUse"
       id="clipPath157-1">
      <path
         d="M 0,500 H 500 V 0 H 0 Z"
         transform="translate(-90.187,-344.47901)"
         id="path157-6" />
    </clipPath>
    <clipPath
       clipPathUnits="userSpaceOnUse"
       id="clipPath159-8">
      <path
         d="M 0,500 H 500 V 0 H 0 Z"
         transform="translate(-146.0269,-361.66411)"
         id="path159-3" />
    </clipPath>
    <clipPath
       clipPathUnits="userSpaceOnUse"
       id="clipPath161-7">
      <path
         d="M 0,500 H 500 V 0 H 0 Z"
         transform="translate(-157.79151,-334.78171)"
         id="path161-4" />
    </clipPath>
    <clipPath
       clipPathUnits="userSpaceOnUse"
       id="clipPath163-6">
      <path
         d="M 0,500 H 500 V 0 H 0 Z"
         transform="translate(-83.71,-375.12651)"
         id="path163-3" />
    </clipPath>
    <clipPath
       clipPathUnits="userSpaceOnUse"
       id="clipPath165-5">
      <path
         d="M 0,500 H 500 V 0 H 0 Z"
         transform="translate(-149.8818,-364.79491)"
         id="path165-9" />
    </clipPath>
    <clipPath
       clipPathUnits="userSpaceOnUse"
       id="clipPath167-3">
      <path
         d="M 0,500 H 500 V 0 H 0 Z"
         transform="translate(-102.0547,-370.88921)"
         id="path167-8" />
    </clipPath>
    <clipPath
       clipPathUnits="userSpaceOnUse"
       id="clipPath153-6-0">
      <path
         d="M 0,500 H 500 V 0 H 0 Z"
         transform="translate(-84.477505,-349.80271)"
         id="path153-9-8" />
    </clipPath>
    <clipPath
       clipPathUnits="userSpaceOnUse"
       id="clipPath147-0">
      <path
         d="M 0,500 H 500 V 0 H 0 Z"
         transform="translate(-108.18801,-395.41211)"
         id="path147-7" />
    </clipPath>
    <clipPath
       clipPathUnits="userSpaceOnUse"
       id="clipPath155-88">
      <path
         d="M 0,500 H 500 V 0 H 0 Z"
         transform="translate(-102.1333,-400.11521)"
         id="path155-43" />
    </clipPath>
    <clipPath
       clipPathUnits="userSpaceOnUse"
       id="clipPath153-6-0-5">
      <path
         d="M 0,500 H 500 V 0 H 0 Z"
         transform="translate(-84.477505,-349.80271)"
         id="path153-9-8-4" />
    </clipPath>
    <clipPath
       clipPathUnits="userSpaceOnUse"
       id="clipPath159-8-6">
      <path
         d="M 0,500 H 500 V 0 H 0 Z"
         transform="translate(-146.0269,-361.66411)"
         id="path159-3-2" />
    </clipPath>
    <clipPath
       clipPathUnits="userSpaceOnUse"
       id="clipPath165-5-1">
      <path
         d="M 0,500 H 500 V 0 H 0 Z"
         transform="translate(-149.8818,-364.79491)"
         id="path165-9-9" />
    </clipPath>
    <clipPath
       clipPathUnits="userSpaceOnUse"
       id="clipPath147-8">
      <path
         d="M 0,500 H 500 V 0 H 0 Z"
         transform="translate(-108.18801,-395.41211)"
         id="path147-9" />
    </clipPath>
    <clipPath
       clipPathUnits="userSpaceOnUse"
       id="clipPath153-6-0-0">
      <path
         d="M 0,500 H 500 V 0 H 0 Z"
         transform="translate(-84.477505,-349.80271)"
         id="path153-9-8-1" />
    </clipPath>
    <clipPath
       clipPathUnits="userSpaceOnUse"
       id="clipPath147-02">
      <path
         d="M 0,500 H 500 V 0 H 0 Z"
         transform="translate(-108.18801,-395.41211)"
         id="path147-2" />
    </clipPath>
  </defs>
  <sodipodi:namedview
     id="namedview1"
     pagecolor="#ffffff"
     bordercolor="#000000"
     borderopacity="0.25"
     inkscape:showpageshadow="2"
     inkscape:pageopacity="0.0"
     inkscape:pagecheckerboard="0"
     inkscape:deskcolor="#d1d1d1"
     inkscape:zoom="3.148"
     inkscape:cx="63.373571"
     inkscape:cy="84.021601"
     inkscape:window-width="1920"
     inkscape:window-height="1001"
     inkscape:window-x="-9"
     inkscape:window-y="-9"
     inkscape:window-maximized="1"
     inkscape:current-layer="g1" />
  <g
     inkscape:groupmode="layer"
     inkscape:label="Image"
     id="g1"
     transform="translate(-766,-489)">
    <path
       id="path9323"
       d="M 0,0 C 0.016,0.01 0.032,0.016 0.047,0.026 1.188,-0.591 2.305,-1.172 3.284,-2.094 4.476,-3.217 5.196,-4.667 5.6,-6.197 2.776,-5.287 0.685,-2.765 0,0 m 0.413,-9.631 c 0.55,0.075 1.093,0.204 1.638,0.317 C 1.765,-9.556 1.49,-9.81 1.198,-10.046 0.77,-10.392 0.076,-10.76 -0.32,-11.22 c -0.02,0.02 -0.031,0.054 -0.056,0.067 0.189,0.514 0.305,1.077 0.368,1.648 0.1,-0.092 0.24,-0.152 0.421,-0.126 m 4.495,-12.024 c -2.294,1.757 -3.581,4.507 -4.389,7.278 0.147,-0.172 0.293,-0.344 0.439,-0.516 0.75,-0.885 1.286,-2.061 2.155,-2.829 0.158,-0.141 0.443,-0.05 0.437,0.173 -0.029,1.025 -0.805,1.964 -1.441,2.739 -0.51,0.623 -1.056,1.217 -1.609,1.806 2.793,-2.284 5.92,-5.254 4.408,-8.651 m -5.593,14.46 C -0.73,-8.1 -0.87,-8.974 -1.057,-9.86 c -0.078,-0.363 -0.183,-0.72 -0.277,-1.078 -0.177,-0.081 -0.263,-0.338 -0.108,-0.485 -0.01,-0.059 -0.031,-0.115 -0.038,-0.175 -0.662,1.167 -1.737,2.2 -3.414,3.576 -3.198,2.626 0.147,6.038 1.068,8.572 0.138,0.377 0.185,0.75 0.173,1.116 0.488,-0.523 0.968,-1.055 1.397,-1.632 0.045,-0.06 0.078,-0.12 0.121,-0.18 -0.111,-0.218 0.055,-0.5 0.323,-0.505 0.005,0 0.01,0.002 0.016,0.002 1.313,-2.076 1.561,-4.078 1.37,-6.241 -0.133,-0.042 -0.25,-0.13 -0.259,-0.305 m -2.372,-12.27 c 2.826,-1.572 2.296,-4.032 1.094,-6.286 -0.287,0.449 -0.647,0.885 -1.06,1.306 -1.755,1.784 -3.705,2.886 -3.04,5.77 0.198,0.86 0.572,1.616 0.942,2.369 0.014,-0.65 0.105,-1.315 0.454,-1.785 0.467,-0.632 0.912,-0.987 1.61,-1.374 m 0.521,-10.722 c -0.051,-0.322 -0.108,-0.648 -0.164,-0.986 -0.046,0.039 -0.073,0.086 -0.123,0.122 -0.37,0.265 -0.74,0.472 -1.149,0.677 -0.215,0.108 -0.391,0.235 -0.536,0.377 0.027,0.049 0.061,0.105 0.085,0.15 0.204,0.391 -0.215,0.733 -0.547,0.626 -0.314,0.957 0.005,2.167 0.18,3.088 0.125,0.667 0.137,1.248 0.048,1.81 0.86,-0.852 1.66,-1.647 2.029,-2.702 -0.093,-0.145 -0.187,-0.291 -0.281,-0.433 -0.204,-0.307 0.203,-0.554 0.474,-0.39 0.065,-0.573 0.013,-1.222 -0.2,-1.986 -0.041,-0.147 0.055,-0.286 0.184,-0.353 m -4.319,12.942 c -0.057,0.069 -0.129,0.128 -0.229,0.16 -0.264,0.082 -0.534,0.157 -0.804,0.231 0.349,0.12 0.678,0.269 0.931,0.493 0.048,0.042 0.064,0.091 0.081,0.138 0.299,0.042 0.531,0.45 0.253,0.681 -0.029,0.024 -0.056,0.05 -0.084,0.074 0.032,0.031 0.058,0.068 0.079,0.105 0.152,-0.342 0.305,-0.684 0.471,-1.023 -0.166,-0.329 -0.33,-0.658 -0.482,-0.99 -0.045,0.072 -0.124,0.112 -0.216,0.131 m -1.581,1.244 c -0.004,-10e-4 -0.007,-10e-4 -0.011,-0.002 -0.008,0.004 -0.012,0.011 -0.021,0.015 -0.19,0.091 -0.379,0.174 -0.567,0.253 -0.014,0.009 -0.02,0.022 -0.036,0.031 -0.581,0.322 -0.905,0.597 -1.582,0.337 -0.034,-0.013 -0.044,-0.04 -0.073,-0.057 -0.119,10e-4 -0.236,0.007 -0.354,0.009 -0.07,0.019 -0.141,0.031 -0.21,0.05 -0.127,0.037 -0.235,0.011 -0.331,-0.033 -27.441,1.036 -39.737,31.442 -47.489,52.299 -0.009,0.026 -0.026,0.043 -0.039,0.066 1.276,0.123 2.391,0.609 3.428,1.341 0.12,-0.704 0.45,-1.308 0.97,-1.869 0.094,-0.101 0.236,0.027 0.184,0.136 -0.331,0.677 -0.683,1.3 -0.763,2.041 0.188,0.146 0.38,0.282 0.564,0.446 0.507,-2.108 1.22,-4.216 2.268,-6.124 0.147,-0.266 0.558,-0.079 0.49,0.197 -0.543,2.193 -1.465,4.307 -2.2,6.452 0.037,0.039 0.075,0.08 0.114,0.118 0.009,-0.009 0.012,-0.019 0.022,-0.026 1.874,-1.424 3.744,-1.316 5.832,-0.328 0.529,0.251 1.025,0.529 1.511,0.817 0.486,-0.212 0.959,-0.367 1.426,-0.469 -0.091,-0.062 -0.16,-0.161 -0.169,-0.305 -0.557,-9.623 6.287,-20.498 11.857,-28.047 0.229,-0.31 0.761,-0.025 0.538,0.301 -5.649,8.28 -10.868,17.73 -11.569,27.746 -0.006,0.088 -0.039,0.155 -0.081,0.213 1.212,-0.148 2.401,0.062 3.679,0.602 0.153,0.064 0.293,0.134 0.436,0.203 0.015,-1.945 0.373,-4.288 1.699,-5.773 0.162,-0.181 0.419,0.017 0.38,0.211 -0.349,1.771 -1.03,3.385 -1.278,5.163 0.349,-0.19 0.707,-0.32 1.069,-0.413 -0.064,-0.077 -0.098,-0.178 -0.073,-0.302 0.245,-1.237 0.465,-2.553 0.975,-3.719 0.119,-0.271 0.622,-0.277 0.59,0.076 -0.115,1.283 -0.445,2.596 -0.834,3.827 0.723,-0.084 1.463,-0.03 2.21,0.133 0.013,-0.112 0.073,-0.218 0.206,-0.294 2.002,-1.144 4.09,-1.43 6.327,-1.258 0.96,-1.624 2.559,-2.313 4.356,-2.562 0.386,-2.427 2.422,-3.419 4.83,-3.812 0.081,-2.106 0.508,-4.186 1.267,-6.167 0.122,-0.316 0.562,-0.187 0.516,0.136 -0.287,1.989 -0.804,3.925 -1.01,5.92 0.055,-0.005 0.11,-0.014 0.165,-0.02 -0.096,-0.853 0.189,-1.508 0.696,-2.02 -0.068,-0.048 -0.119,-0.113 -0.106,-0.21 0.261,-2.162 0.587,-4.466 1.617,-6.43 0.092,-0.174 0.411,-0.097 0.393,0.103 -0.185,2.062 -0.921,4.059 -1.352,6.086 0.848,-0.57 2.004,-0.919 3.095,-1.172 0.213,-0.049 0.427,-0.092 0.64,-0.138 -1.743,-2.377 -0.094,-4.056 2.095,-5.09 -0.299,-2.523 1.043,-4.068 3.251,-5.116 -0.002,-0.013 -0.01,-0.021 -0.011,-0.034 -0.253,-1.87 0.644,-3.16 2.028,-4.112 -0.404,-1.571 0.042,-2.879 1.062,-3.991 C -5.812,9.429 -5.816,9.426 -5.818,9.422 -6.826,7.588 -7.236,5.735 -5.769,3.97 c 0.207,-0.25 0.426,-0.488 0.645,-0.726 1.057,-3.538 -2.628,-6.388 -1.753,-10.196 0.138,-0.604 0.594,-1.175 1.105,-1.657 1.128,-1.682 1.085,-2.944 0.904,-4.453 -0.032,-0.049 -0.057,-0.105 -0.066,-0.173 -0.099,-0.704 -0.385,-1.417 -0.727,-2.139 -3.522,9.762 -3.007,19.283 -3.985,29.46 -0.032,0.332 -0.548,0.345 -0.548,0 -0.019,-9.623 -0.515,-19.947 3.362,-29.007 -0.434,0.222 -0.846,0.472 -1.269,0.708 -5.914,5.69 -8.508,13.351 -11.382,20.811 -3.581,9.297 -5.922,18.969 -8.47,28.558 -0.095,0.358 -0.66,0.206 -0.574,-0.152 2.543,-10.65 5.306,-21.086 9.19,-31.368 1.975,-5.228 4.05,-11.09 7.708,-15.615 -11.467,8.319 -17.268,22.634 -23.669,34.488 -0.09,0.166 -0.39,0.05 -0.317,-0.127 3.501,-8.519 7.571,-16.537 13.058,-24.056 3.466,-4.749 7.997,-11.203 13.989,-13.408 0.299,-0.246 0.62,-0.472 0.936,-0.704 -0.273,-0.048 -0.544,-0.142 -0.804,-0.215 m -0.417,-2.661 c -0.142,-0.179 -0.286,-0.358 -0.429,-0.537 -1.353,0.712 -2.662,1.334 -3.13,2.871 0.07,10e-4 0.141,-0.007 0.211,-0.005 0.392,-0.658 0.919,-1.239 1.597,-1.622 0.195,-0.136 0.41,-0.252 0.644,-0.339 0.356,-0.133 0.763,-0.196 1.171,-0.213 -0.021,-0.053 -0.043,-0.104 -0.064,-0.155 M -51.336,42.52 c 1.447,1.333 2.986,1.644 4.868,2.018 0.118,0.023 0.179,0.108 0.214,0.203 0.411,0.002 0.823,-0.012 1.241,-0.046 0.852,-0.068 1.682,-0.405 2.535,-0.376 -3.696,-2.018 -6.904,-6.541 -11.034,-4.017 0.714,0.748 1.411,1.512 2.176,2.218 m 12.381,2.002 c 0.249,0.074 0.29,0.298 0.205,0.471 1.018,0.053 2.027,-0.048 3.065,-0.289 0.445,-0.104 0.867,-0.27 1.286,-0.436 -1.275,-0.077 -2.512,-0.602 -3.652,-1.217 -2.664,-1.439 -4.66,-3.092 -7.741,-2.305 2.178,1.409 4.128,2.983 6.837,3.776 m 6.555,-0.901 c 0.331,-0.02 0.661,-0.043 0.992,-0.103 0.68,-0.127 1.244,-0.446 1.837,-0.737 -3.442,-1.103 -7.266,-3.327 -9.991,-1.855 2.201,1.16 3.895,2.419 6.817,2.414 0.21,-0.001 0.32,0.13 0.345,0.281 m 3.606,-1.438 c 2.653,0.771 4.055,-0.475 5.567,-2.297 -4.032,-0.243 -7.766,-1.766 -11.642,-0.006 0.422,0.133 0.845,0.277 1.264,0.441 1.607,0.625 3.146,1.377 4.811,1.862 m 5.448,-6.803 c 4.125,-0.06 8.1,1.376 9.9,-3.234 0.008,-0.018 0.023,-0.023 0.033,-0.038 -1.53,0.198 -3.228,0.168 -4.821,0.263 -0.131,0.268 -0.564,0.333 -0.755,0.056 -0.164,0.015 -0.322,0.038 -0.483,0.057 0,0.003 0,0.005 0,0.008 -0.018,0.399 -0.566,0.421 -0.677,0.094 -1.791,0.319 -3.261,1.039 -3.894,2.825 0.23,-0.014 0.463,-0.028 0.697,-0.031 m 13.369,-6.145 c 0.006,-0.031 0.009,-0.062 0.023,-0.094 0.29,-0.658 0.719,-1.272 1.243,-1.834 -3.9,1.322 -9.621,1.344 -9.58,4.164 3.054,-0.241 6.039,-0.152 8.314,-2.236 m 0.788,0.791 c 0.9,0.316 1.808,0.646 2.698,1.012 2.735,-0.589 4.885,-3.886 6.04,-6.397 -3.17,0.109 -6.205,1.827 -8.221,4.137 -10e-4,0.023 0.013,0.045 0.005,0.068 -0.025,0.084 -0.068,0.146 -0.098,0.224 0.405,-0.473 0.841,-0.905 1.39,-1.244 0.565,-0.346 1.452,-0.739 2.1,-0.452 0.172,0.076 0.163,0.299 0.055,0.417 -0.395,0.436 -1.176,0.507 -1.699,0.783 -0.608,0.32 -1.081,0.806 -1.509,1.32 -0.192,0.231 -0.53,0.102 -0.658,-0.115 -0.053,0.088 -0.12,0.155 -0.176,0.237 0.025,0.004 0.047,0.001 0.073,0.01 m 3.509,4.318 c 0.873,0.657 1.838,1.158 2.822,1.399 0.828,0.202 1.833,0.011 0.989,-0.859 -0.665,-0.686 -1.496,-1.211 -2.322,-1.7 -0.226,-0.134 -0.463,-0.248 -0.696,-0.371 0.554,0.432 1.095,0.88 1.615,1.365 0.385,0.36 -0.13,1.034 -0.584,0.726 -0.707,-0.479 -1.36,-1.022 -2.062,-1.504 -0.126,-0.088 -0.176,-0.202 -0.18,-0.314 -0.174,-0.127 -0.342,-0.262 -0.518,-0.384 0.427,0.448 0.734,1.014 0.936,1.642 m -5.492,-12.063 c 1.661,-0.619 3.431,-0.933 5.107,-1.514 2.493,-0.863 2.539,-2.827 3.07,-4.96 -0.585,0.511 -1.285,0.93 -1.985,1.243 -2.794,1.245 -6.318,1.801 -6.329,5.285 0.046,-0.017 0.091,-0.037 0.137,-0.054 m 8.662,-9.878 c -1.112,0.555 -2.385,0.991 -3.421,1.607 -0.061,0.094 -0.167,0.154 -0.283,0.178 -1.008,0.668 -1.729,1.55 -1.73,2.974 1.136,-0.449 2.301,-0.829 3.386,-1.393 1.545,-0.808 1.812,-1.914 2.048,-3.366 m 1.094,-1.933 c -0.167,-1.19 -0.072,-2.386 0.404,-3.468 -2.014,1.904 -5.44,2.89 -5.043,5.929 0.2,-0.108 0.401,-0.216 0.612,-0.314 1.084,-0.509 2.215,-0.909 3.25,-1.512 0.34,-0.199 0.585,-0.412 0.777,-0.635 m 0.65,-6.388 C -1.325,3.115 -1.709,2.087 -1.897,1.09 -2.828,2.146 -3.86,3.147 -4.588,4.221 -4.646,4.316 -4.703,4.412 -4.763,4.505 -4.774,4.522 -4.79,4.532 -4.802,4.546 -5.548,5.778 -5.848,7.122 -5.095,8.769 -4.937,8.637 -4.778,8.506 -4.603,8.38 -3.549,7.62 -2.41,6.959 -1.469,6.065 -0.779,5.41 -0.653,4.749 -0.766,4.082 m 3.124,12.23 C 2.696,16.719 2.632,15.296 2.681,14.889 2.824,13.695 2.583,12.475 2.315,11.315 2.075,10.273 1.68,9.286 1.239,8.313 1.409,9.426 1.205,10.719 1.014,11.61 0.9,12.146 0.078,11.911 0.168,11.386 0.301,10.606 0.337,9.827 0.298,9.039 0.263,8.323 -0.057,7.621 -0.016,6.915 c -0.081,0.151 -0.156,0.306 -0.219,0.463 0.771,1.243 0.534,2.427 -0.204,3.391 0.412,2.054 1.602,4.107 2.797,5.543 M 3.072,6.681 C 2.95,5.256 2.311,3.976 1.439,2.787 1.081,2.298 0.66,1.926 0.216,1.594 0.816,2.242 1.344,2.984 1.317,3.733 1.302,4.112 0.875,4.24 0.591,4.021 0.468,3.925 0.362,3.818 0.249,3.716 0.941,4.943 1.873,6.028 3.072,6.681 m -69.239,27.865 c 0.07,0.136 0.155,0.27 0.219,0.404 0.14,0.032 0.265,0.122 0.315,0.3 0.601,2.136 1.815,3.875 3.426,5.444 1.881,1.832 3.956,2.416 6.361,3.239 -3.606,-2.627 -5.991,-7.93 -10.321,-9.387 m 1.563,-1.087 c -0.074,0.049 -0.16,0.089 -0.276,0.089 -0.182,0 -0.376,0.009 -0.57,0.018 0.842,0.587 1.828,0.982 2.86,1.184 -0.655,-0.46 -1.321,-0.897 -2.014,-1.291 m -3.622,-0.351 c -0.289,-0.352 0.026,-0.814 0.367,-0.817 -0.034,-0.055 -0.077,-0.101 -0.109,-0.159 -0.037,-0.066 -0.053,-0.131 -0.055,-0.193 -0.349,0.047 -0.703,0.069 -1.061,0.055 -0.047,-0.002 -0.086,-0.015 -0.124,-0.029 -0.117,0.114 -0.244,0.215 -0.367,0.322 0.073,0.103 0.103,0.226 0.056,0.346 0.073,0.031 0.135,0.081 0.189,0.139 0.075,-0.1 0.137,-0.205 0.226,-0.3 0.391,-0.424 1.003,0.188 0.64,0.613 -2.053,2.408 0.715,7.002 2.838,9.306 -0.075,-3.399 -0.237,-6.405 -2.6,-9.283 m 4.331,-5.195 c 0.491,-0.921 0.64,-2.004 0.428,-3.012 -0.283,-1.344 -1.44,-1.792 -2.485,-2.484 -0.25,-0.164 -0.193,-0.632 0.171,-0.602 0.462,0.039 0.854,0.17 1.215,0.341 0.24,-0.912 0.733,-1.656 0.294,-2.635 -0.346,-0.774 -1.125,-1.287 -1.933,-1.549 -2.169,-0.705 -3.541,0.825 -3.665,2.738 0.461,-0.021 0.887,-0.006 1.141,0.017 1.727,0.152 2.814,1.297 2.864,2.941 0.038,1.265 -0.701,2.181 -1.727,2.745 0.396,0.845 0.422,1.892 0.157,2.793 -0.169,0.573 -0.467,1.136 -0.843,1.663 0.069,-0.011 0.144,-0.009 0.226,0.014 0.151,0.041 0.29,0.1 0.434,0.149 1.628,-0.458 2.921,-1.616 3.723,-3.119 M -66.517,6.551 c -2.954,2.019 -3.478,6.951 -3.407,10.298 0.093,0.442 0.136,0.882 0.106,1.291 0.12,-0.149 0.275,-0.263 0.418,-0.388 -0.067,-0.075 -0.099,-0.179 -0.051,-0.312 0.276,-0.77 0.473,-1.557 0.644,-2.354 0.185,-0.859 0.227,-1.799 0.699,-2.564 0.109,-0.176 0.429,-0.159 0.476,0.06 0.199,0.929 0,2.02 -0.323,3.054 1.788,-2.573 1.669,-6.013 1.438,-9.085 m -4.273,16.17 c 0.183,0.283 0.47,0.593 0.797,0.723 0.071,0.029 0.133,0.028 0.191,0.012 0.151,-0.781 -0.052,-1.233 0.519,-1.793 -0.278,-0.003 -0.552,0.011 -0.802,0.044 -1.015,0.13 -1.276,0.13 -0.705,1.014 m 0.267,-3.614 c -0.382,-0.716 -0.316,-1.592 -0.508,-2.374 -0.166,-0.679 -0.457,-1.331 -0.937,-1.862 -0.727,-0.807 -1.823,-0.939 -2.836,-0.633 -2.39,0.725 -3,3.204 -2.184,5.188 0.385,0.069 0.761,0.171 1.099,0.311 0.639,-0.651 1.485,-1.237 2.3,-1.315 0.203,-0.02 0.353,0.242 0.239,0.399 -0.432,0.595 -1.131,0.998 -1.725,1.478 0.079,0.2 -0.081,0.43 -0.317,0.446 -0.048,0.004 -0.1,-0.006 -0.15,-0.005 -0.772,0.842 -1.107,1.967 -0.794,3.057 0.091,0.323 -0.392,0.432 -0.513,0.135 -0.478,-1.178 -0.433,-2.237 0.251,-3.303 -0.153,0.158 -0.455,0.203 -0.625,-0.031 -0.04,-0.055 -0.062,-0.115 -0.1,-0.171 -0.326,-0.082 -0.654,-0.157 -0.975,-0.181 -0.724,-0.056 -1.477,0.015 -2.125,0.346 -1.021,0.519 -1.229,1.668 -0.981,2.661 0.297,1.183 1.218,2.131 2.352,2.632 0.265,0.118 0.54,0.189 0.817,0.241 0.117,-0.044 0.252,-0.015 0.355,0.058 1.302,0.128 2.676,-0.342 3.784,-0.932 0.096,-0.052 0.187,-0.057 0.27,-0.041 -0.414,-1.157 0.294,-2.406 1.013,-3.311 0.159,-0.2 0.482,-0.26 0.7,-0.159 0.078,-0.562 0.72,-0.831 1.444,-0.953 -0.007,-0.571 0.071,-1.109 0.244,-1.587 -0.041,-0.021 -0.076,-0.053 -0.098,-0.094 m -10.334,0.667 c 0.418,-0.227 0.895,-0.351 1.376,-0.417 -0.532,-0.34 -0.949,-0.798 -1.255,-1.347 0.017,0.594 -0.011,1.188 -0.121,1.764 m 0.31,-3.797 c 0.156,0.111 0.308,0.224 0.463,0.334 0.427,0.172 0.728,0.479 1.043,0.791 0.289,0.232 0.567,0.473 0.835,0.73 -0.061,-1.151 0.295,-2.269 1.087,-3.148 -0.298,0.166 -0.601,0.314 -0.91,0.419 -1.131,0.383 -2.213,0.409 -3.195,0.175 0.026,0.077 0.055,0.158 0.079,0.233 0.047,0.149 0.076,0.307 0.117,0.461 0.136,-0.092 0.31,-0.118 0.481,0.005 m 5.69,-5.322 c 0.51,-1.214 0.372,-2.131 -0.29,-2.813 -1.634,1.726 -5.043,1.8 -7.383,0.397 -0.067,-0.04 -0.12,-0.09 -0.183,-0.132 -0.762,0.475 -1.634,0.678 -2.501,0.653 -0.017,1.044 0.286,2.095 0.825,3.011 0.209,0.022 0.42,0.066 0.641,0.152 0.985,0.381 1.63,1.283 2.079,2.237 0.912,0.363 1.946,0.466 3.049,0.183 1.757,-0.45 3.114,-2.15 3.763,-3.688 m -1.452,-8.598 c -0.04,0.352 -0.134,0.688 -0.274,1.004 0.233,0.913 0.157,1.854 -0.392,2.527 -0.314,0.386 -0.742,0.704 -1.213,0.947 0.917,-0.037 1.832,-0.275 2.589,-0.737 0.43,-0.264 0.697,-0.584 0.85,-0.923 0.002,-0.095 0.02,-0.183 0.017,-0.28 -0.003,-0.08 0.045,-0.135 0.106,-0.172 0.133,-0.97 -0.591,-1.983 -1.683,-2.366 m -2.686,2.724 c -0.561,0.072 -1.136,0.057 -1.645,-0.078 -0.003,0.005 -0.002,0.008 -0.003,0.012 -0.555,1.397 0.306,1.822 1.61,1.288 0.907,-0.369 1.513,-1.065 1.634,-1.878 -0.414,0.333 -0.938,0.573 -1.596,0.656 m -1.194,-0.913 c 1.318,0.314 2.167,-0.234 2.561,-1.067 -0.194,-0.382 -0.482,-0.762 -0.822,-1.062 -0.871,-0.001 -1.778,0.133 -2.592,0.413 -0.31,0.704 -0.038,1.504 0.853,1.716 m 0.74,-5.013 c -0.036,0.059 -0.079,0.116 -0.113,0.176 -0.214,0.386 -0.762,0.112 -0.7,-0.26 -0.315,0.007 -0.645,0.041 -1.011,0.14 -0.432,0.116 -0.756,0.335 -1.011,0.61 -0.029,0.073 -0.079,0.128 -0.147,0.169 -0.49,0.655 -0.622,1.581 -0.568,2.455 0.354,-0.25 0.757,-0.448 1.187,-0.611 0.249,-0.414 0.594,-0.777 0.984,-1.033 1.071,-0.705 2.168,-0.368 2.996,0.418 0.03,0 0.062,-0.002 0.091,-0.001 0.095,0.002 0.185,0.02 0.279,0.025 -0.214,-0.954 -0.88,-1.818 -1.987,-2.088 m 1.524,-2.757 c -2.372,-1.853 -5.04,-2.563 -7.999,-0.983 -2.361,1.262 -3.349,3.55 -2.788,5.723 0.473,-0.836 1.089,-1.59 1.817,-2.157 1.264,-0.985 3.066,-1.034 4.174,0.045 0.69,-0.683 1.686,-1.055 2.991,-0.896 0.482,-0.683 1.102,-1.27 1.805,-1.732 m -4.131,-22.541 c 0.146,-1.075 0.279,-2.153 0.382,-3.23 0.071,-0.729 0.045,-1.457 0.024,-2.184 -1.867,4.301 -5.929,7.896 -4.308,13.196 0.993,-2.702 2.469,-5.308 3.902,-7.782 m 0.234,-11.906 c -0.407,0.81 -0.913,1.584 -1.397,2.302 -2.137,3.18 -4.045,5.802 -2.748,9.626 1.196,-2.545 2.612,-4.746 3.659,-7.248 0.002,-0.025 -0.015,-0.041 -0.007,-0.069 0.481,-1.578 0.555,-3.079 0.493,-4.611 m -0.146,-7.105 c -0.375,0.889 -0.863,1.749 -1.375,2.574 -1.938,3.117 -3.238,5.559 -2.529,8.995 0.672,-1.105 1.485,-2.145 2.202,-3.215 0.433,-0.646 0.749,-1.296 1.012,-1.958 -0.211,-0.05 -0.385,-0.278 -0.265,-0.529 0.954,-2.001 0.981,-3.888 0.955,-5.867 m -3.361,-3.636 c 0.027,1.384 -0.204,2.762 -0.137,4.162 0.051,1.068 0.155,2.128 0.219,3.192 0.469,-0.75 0.974,-1.485 1.433,-2.233 0.974,-1.588 1.331,-3.185 1.674,-4.919 -1.058,-0.047 -2.123,-0.121 -3.189,-0.202 m -0.667,39.359 c 0.422,-0.834 0.865,-1.663 1.326,-2.503 1.746,-3.179 1.926,-5.826 1.505,-9.273 -1.779,3.711 -3.736,7.133 -2.831,11.776 m -0.88,4.539 c 1.114,-0.763 2.449,-1.256 3.814,-1.413 -0.135,-0.072 -0.235,-0.212 -0.204,-0.399 0.226,-1.359 0.341,-2.711 0.34,-4.085 -0.001,-0.743 -0.099,-1.474 -0.164,-2.208 -1.165,2.703 -2.868,5.344 -3.786,8.105 m 2.178,10.366 c 0.073,-0.082 0.155,-0.115 0.237,-0.124 -0.003,-0.469 0.077,-0.952 0.261,-1.435 0.094,-0.243 0.228,-0.456 0.374,-0.66 -0.211,-1.255 -0.028,-2.547 0.554,-3.526 -1.192,-0.634 -2.142,-0.795 -3.358,0.275 -0.726,0.639 -1.224,1.497 -1.574,2.396 0.21,0.371 0.469,0.732 0.782,1.075 0.335,0.369 -0.216,0.906 -0.565,0.54 -0.198,-0.208 -0.375,-0.416 -0.538,-0.625 -0.035,0.132 -0.081,0.265 -0.109,0.396 -0.482,2.241 0.934,3.825 2.672,4.238 0.184,-0.907 0.585,-1.783 1.264,-2.55 m 0.387,0.856 c -0.417,0.557 -0.665,1.174 -0.799,1.81 0.559,0.008 1.12,-0.12 1.646,-0.372 -0.396,-0.428 -0.69,-0.912 -0.847,-1.438 m 2.275,0.22 c -0.653,-0.555 -1.139,-1.278 -1.452,-2.073 -0.111,0.264 -0.194,0.545 -0.223,0.858 -0.08,0.856 0.261,1.548 0.819,2.087 0.314,-0.23 0.601,-0.52 0.856,-0.872 m 0.589,-1.934 c -0.313,-0.241 -0.558,-0.57 -0.68,-1.035 -0.051,-0.195 -0.061,-0.39 -0.052,-0.585 -0.242,0.154 -0.467,0.325 -0.66,0.519 0.026,0.114 0.05,0.234 0.08,0.338 0.204,0.69 0.554,1.236 0.992,1.688 0.039,-0.233 0.1,-0.481 0.215,-0.765 0.026,-0.064 0.062,-0.117 0.105,-0.16 m -0.705,3.369 c 0.934,0.563 2.12,0.864 3.089,0.924 1.463,0.091 2.625,-0.361 3.375,-1.196 -0.195,-0.124 -0.416,-0.239 -0.658,-0.342 -1.121,0.324 -2.394,0.346 -3.378,0.21 -0.607,-0.084 -1.143,-0.284 -1.619,-0.553 -0.238,0.37 -0.507,0.689 -0.809,0.957 m -7.252,0.501 c 0.065,0.117 0.137,0.227 0.182,0.36 0.08,0.241 -0.217,0.444 -0.434,0.32 -0.617,-0.352 -1.085,-0.837 -1.788,-1.054 -0.717,-0.223 -1.485,-0.026 -2.133,0.28 -1.333,0.626 -2.155,2.01 -2.117,3.407 0.014,0.522 -0.804,0.51 -0.84,0 -0.018,-0.261 -0.006,-0.516 0.023,-0.767 -0.009,-0.006 -0.017,-0.012 -0.026,-0.017 -0.013,0.061 -0.04,0.119 -0.075,0.173 -0.003,0.109 0.01,0.211 0.005,0.322 -0.015,0.316 -0.338,0.435 -0.573,0.352 -2.093,-0.075 -3.701,0.279 -4.319,2.477 -0.326,1.154 -0.047,2.302 0.699,2.635 0.467,-0.222 1.01,-0.348 1.587,-0.41 0.08,-0.695 0.436,-1.326 1.212,-1.612 0.225,-0.084 0.47,0.168 0.395,0.379 -0.152,0.425 -0.477,0.737 -0.65,1.149 -0.202,0.486 -0.112,0.974 0.1,1.443 0.208,0.461 -0.475,0.873 -0.721,0.403 -0.102,-0.193 -0.177,-0.406 -0.238,-0.625 -0.586,0.3 -1.133,0.388 -1.61,0.304 -2.483,1.81 0.552,7.103 4.088,3.775 -0.129,-0.288 -0.231,-0.583 -0.269,-0.89 -0.218,-1.78 1.175,-3.132 2.643,-3.995 2.01,-1.179 5.031,-1.638 7.176,-0.731 -0.69,-0.872 -1.417,-1.631 -2.766,-1.977 -2.158,-0.552 -4.014,1.065 -5.017,2.691 -0.261,0.422 -0.935,0.045 -0.686,-0.383 1.153,-1.975 2.976,-3.449 5.451,-3.264 0.83,0.063 1.669,0.401 2.414,0.899 0.012,-1.97 -1.557,-2.953 -3.732,-2.846 -0.924,0.046 -1.852,0.331 -2.632,0.802 -0.788,0.476 -0.723,0.957 -0.797,1.725 -0.029,0.304 -0.369,0.453 -0.617,0.245 -0.787,-0.666 -0.207,-1.799 0.394,-2.368 0.884,-0.835 2.233,-1.158 3.424,-1.287 2.496,-0.273 4.336,0.95 4.636,2.968 0.475,-0.532 1.036,-0.996 1.68,-1.201 -0.502,-0.996 -0.776,-2.102 -0.737,-3.203 -1.074,-0.222 -2.06,-0.81 -2.737,-1.685 0.028,0.122 0.06,0.247 0.085,0.364 0.064,0.313 -0.134,0.512 -0.384,0.559 -0.038,0.143 -0.144,0.255 -0.296,0.283 m -6.955,-8.652 c 0.603,2.015 1.613,3.812 3.05,5.25 -0.2,-0.385 0.412,-0.868 0.859,-0.533 0.816,0.611 1.595,1.263 2.381,1.908 -0.923,-2.967 -3.026,-6.915 -6.29,-6.625 m -6.117,0.804 c 0.204,2.939 1.527,5.828 3.596,8.033 -0.974,-1.728 -1.917,-3.471 -2.766,-5.262 -0.259,-0.545 0.546,-1.026 0.854,-0.479 0.935,1.662 1.866,3.229 2.862,4.776 -0.769,-2.687 -2.392,-4.958 -4.546,-7.068 m 4.998,23.371 c 0.02,0.006 0.04,0.014 0.059,0.021 0.196,-0.301 0.467,-0.552 0.841,-0.709 0.302,-0.126 0.586,0.129 0.444,0.425 -0.5,1.029 -1.014,1.687 -0.434,2.831 0.52,1.024 1.539,1.781 2.589,2.261 0.927,0.422 2.2,0.62 3.027,-0.091 1.014,-0.87 0.908,-2.613 0.714,-3.96 -0.146,-0.026 -0.297,-0.042 -0.438,-0.08 -0.592,0.07 -1.187,0.088 -1.774,0.023 -1.354,-0.149 -2.864,-1.021 -3.74,-2.197 -0.49,0.448 -1.022,0.775 -1.567,0.987 0.201,0.09 0.329,0.304 0.279,0.489 m 6.113,16.817 c 0.163,0.707 -0.026,-0.14 0.259,-0.881 0.427,-1.11 0.711,-2.262 0.97,-3.417 0.471,-2.106 0.446,-4.237 0.09,-6.341 -2.132,3.258 -2.197,6.843 -1.319,10.639 m 1.87,-12.902 c 0.044,0.001 0.087,0.004 0.132,0.032 0.943,0.58 1.415,1.42 2.671,1.383 1.192,-0.035 2.229,-1.011 2.873,-1.878 1.598,-2.151 1.159,-4.639 -0.977,-6.021 -0.601,1.746 -2.225,3.176 -4.186,3.406 -0.202,0.022 -0.39,0.011 -0.581,0.005 0.237,1.016 0.348,2.097 0.068,3.073 m 2.99,4.863 c -0.054,0.11 -0.092,0.228 -0.141,0.343 2.132,-0.169 3.753,-1.392 5.088,-2.926 -1.649,0.863 -3.366,1.606 -4.947,2.583 m 1.088,-15.665 c 1.216,0.897 1.524,2.317 0.974,3.624 0.923,0.522 1.572,1.218 1.982,2.004 0.004,-0.294 0.05,-0.58 0.132,-0.858 -0.076,-0.009 -0.15,-10e-4 -0.226,-0.03 -0.568,-0.207 -0.362,-0.798 -0.286,-1.213 0.021,-0.119 0.19,-0.213 0.308,-0.168 0.202,0.079 0.407,0.19 0.47,0.409 0.009,0.034 0.005,0.056 0.006,0.084 0.006,-0.015 0.004,-0.017 0.012,-0.034 0.106,-0.242 0.168,-0.5 0.232,-0.753 0.315,-1.245 0.132,-2.617 -0.178,-3.844 -0.103,-0.406 -0.25,-0.81 -0.42,-1.202 -0.987,-0.49 -1.826,-1.252 -2.452,-2.166 -0.761,0.13 -1.476,0.828 -1.954,1.398 -0.052,0.061 -0.116,0.09 -0.182,0.106 -0.006,0.063 0.002,0.119 -0.007,0.183 0.769,0.691 1.363,1.556 1.589,2.46 m -8.287,2.96 c 0.301,-2.456 3.48,-4.812 5.739,-2.564 2.158,2.149 -1.463,4.627 -3.644,4.519 -0.252,-0.012 -0.495,-0.2 -0.481,-0.462 0.029,-0.552 0.074,-1.139 0.59,-1.465 0.375,-0.234 0.741,0.278 0.46,0.572 -0.066,0.071 -0.088,0.242 -0.095,0.423 1.109,-0.1 2.109,-0.735 2.7,-1.648 0.746,-1.152 -0.978,-1.778 -1.859,-1.84 -0.945,-0.065 -1.632,0.657 -2.059,1.36 -0.804,1.326 -0.487,2.921 0.471,4.052 0.354,0.417 0.788,0.663 1.252,0.801 0.101,-0.017 0.2,-0.046 0.3,-0.067 0.08,-0.133 0.257,-0.173 0.381,-0.083 0.892,-0.229 1.751,-0.596 2.471,-1.01 0.694,-0.401 1.333,-0.944 1.807,-1.587 0.016,-0.054 0.025,-0.112 0.039,-0.167 -0.1,-0.155 -0.043,-0.378 0.096,-0.499 0.135,-1.064 -0.167,-2.162 -1.026,-2.952 -1.227,-1.129 -3.314,-1.01 -4.834,-0.683 -1.5,0.323 -3.08,1.065 -4.03,2.254 -1.271,1.589 -0.068,3.165 1.351,4.166 0.547,0.385 1.162,0.583 1.802,0.666 -1.038,-0.896 -1.616,-2.28 -1.431,-3.786 m 14.162,6.866 c -1.061,-0.471 -1.923,-1.281 -2.434,-2.278 0.016,1.057 -0.318,2.172 -1.05,3.234 -0.137,0.2 -0.296,0.396 -0.464,0.584 1.231,-0.685 2.592,-1.188 3.948,-1.54 m 6.618,-0.311 c 0.038,0.183 -0.032,0.4 -0.257,0.491 -0.711,0.286 -1.534,0.734 -1.757,1.498 -0.125,0.434 0.105,0.898 0.476,1.152 0.411,0.28 0.925,0.276 1.315,-0.038 0.78,-0.63 0.833,-1.81 0.918,-2.7 0.001,-0.006 0.005,-0.011 0.005,-0.018 -0.252,-0.102 -0.484,-0.23 -0.7,-0.385 m 2.667,-1.975 c -0.518,-0.131 -0.99,-0.534 -1.333,-1.025 -0.048,-0.027 -0.097,-0.056 -0.146,-0.081 -0.153,0.22 -0.388,0.419 -0.493,0.73 -0.096,0.28 -0.425,0.368 -0.667,0.283 -0.086,0.672 0.18,1.287 1.126,1.646 0.778,0.293 1.706,0.323 2.56,0.124 -0.134,-0.163 -0.277,-0.326 -0.429,-0.494 -0.227,-0.25 -0.015,-0.673 0.349,-0.575 0.479,0.131 0.864,0.36 1.165,0.655 0.203,-0.114 0.398,-0.238 0.569,-0.387 0.633,-0.546 0.782,-1.334 0.651,-2.11 -0.132,-0.78 -0.714,-1.17 -1.408,-1.347 0.003,0.027 0.021,0.042 0.019,0.07 -0.094,1.064 -0.402,2.904 -1.963,2.511 m -1.784,8.419 c 1.394,-0.58 2.519,-1.712 3.276,-2.947 0.744,-1.212 0.643,-2.114 0.124,-2.995 -0.8,0.234 -1.66,0.305 -2.423,0.201 -0.099,-0.013 -0.195,-0.044 -0.293,-0.062 -0.05,1.12 -0.377,2.441 -1.342,3.136 -0.647,0.467 -1.514,0.479 -2.196,0.072 -0.684,-0.408 -1.059,-1.198 -0.919,-1.957 0.21,-1.14 1.387,-1.773 2.417,-2.151 0.04,-0.016 0.075,-0.016 0.112,-0.018 -0.094,-0.094 -0.16,-0.213 -0.239,-0.319 -0.029,0.069 -0.075,0.135 -0.16,0.186 -1.321,0.794 -2.854,1.297 -4.376,1.126 -2.222,3.541 2.219,7.314 6.019,5.728 m -6.226,0.462 c -0.368,1.821 0.199,5.057 2.365,5.613 -0.077,-1.169 -0.315,-2.295 -0.803,-3.388 -0.379,-0.85 -0.987,-1.516 -1.562,-2.225 m 4.63,8.455 c 0.911,-0.937 1.564,-2.104 2.051,-3.369 -0.284,0.128 -0.689,10e-4 -0.661,-0.373 0.002,-0.04 0.016,-0.077 0.02,-0.116 h -0.004 c 0.003,-0.008 0.005,-0.016 0.008,-0.024 0.096,-0.934 0.435,-1.764 0.933,-2.533 0.228,-0.568 0.487,-1.124 0.765,-1.672 -2.154,2.134 -3.657,5.125 -3.112,8.087 M -76.77,-5.707 c 0.032,0.053 0.049,0.105 0.058,0.158 2.332,-2.042 4.43,-4.991 2.691,-7.859 -2.269,1.58 -2.975,4.386 -3.125,7.054 0.125,0.215 0.246,0.433 0.376,0.647 m 6.079,-2.227 c -1.109,-0.023 -2.168,0.428 -3.042,1.088 -0.491,0.372 -0.832,0.79 -1.085,1.252 1.768,0.108 3.399,-0.793 4.127,-2.34 m -9.005,-4.32 c 0.029,0.489 0.095,0.972 0.19,1.449 0.132,0.02 0.258,0.082 0.343,0.203 0.328,0.463 0.595,0.943 0.821,1.439 -0.235,-1.114 -0.654,-2.171 -1.354,-3.091 m -27.673,22.775 c 1.55,0.335 3.081,0.233 4.712,-0.064 0.545,-0.1 1.089,-0.257 1.636,-0.402 -2.094,-0.468 -4.403,-0.319 -6.348,0.466 m 3.418,18.665 c 1.071,-0.733 2.232,-1.384 3.27,-2.144 -0.106,-0.106 -0.158,-0.255 -0.102,-0.425 0.174,-0.53 0.431,-1.071 0.758,-1.57 -1.822,0.972 -3.534,2.265 -3.926,4.139 m 6.18,5.381 c 1.883,-0.889 3.255,-2.396 4.774,-3.713 -1.891,0.797 -3.942,1.895 -4.774,3.713 m 16.844,3.452 c 0.069,-1.283 0.216,-2.558 0.374,-3.837 0.095,-0.775 0.154,-1.56 0.218,-2.346 -1.446,1.783 -1.707,4.208 -0.592,6.183 m 70.728,3.955 c -0.176,-0.025 -0.354,-0.062 -0.533,-0.107 0.035,0.091 0.031,0.196 -0.045,0.308 -1.639,2.409 -1.617,5.895 -0.489,8.611 0.341,-1.279 0.818,-2.523 1.224,-3.784 0.622,-1.935 0.505,-3.474 -0.157,-5.028 m -3.687,-1.596 c -0.722,0.159 -1.47,0.019 -2.01,-0.478 -0.192,-0.176 -0.324,-0.386 -0.416,-0.613 -0.629,0.284 -1.435,0.758 -1.319,1.469 0.116,0.71 0.808,1.225 1.425,1.542 0.593,0.303 1.362,0.453 2.007,0.214 0.34,-0.438 0.66,-0.913 0.998,-1.412 0.039,-0.325 0.046,-0.664 0.095,-0.982 -0.286,0.121 -0.559,0.212 -0.78,0.26 m -7.525,5.968 c -0.833,2.133 -0.988,4.597 0.147,6.604 0.351,-2.22 0.072,-4.401 -0.147,-6.604 m -2.868,-0.281 c -0.103,0.143 -0.203,0.286 -0.307,0.427 -0.295,0.406 -0.986,0.036 -0.702,-0.393 0.341,-0.51 0.687,-1.017 1.031,-1.528 -2.399,1.106 -4.621,2.879 -4.942,5.308 1.563,-0.608 3.12,-1.277 4.382,-2.369 0.543,-0.47 0.9,-0.988 1.147,-1.538 -0.159,0.223 -0.422,0.219 -0.609,0.093 M 6.163,-7.377 C 6.562,-7.454 6.854,-7.153 6.786,-6.78 6.229,-3.758 4.021,-0.441 0.891,0.707 1.337,1.119 1.732,1.562 2.029,1.932 3.321,3.545 4.195,5.407 4.099,7.472 4.086,7.759 3.782,8.055 3.46,7.937 2.85,7.714 2.275,7.375 1.738,6.965 c 1.695,3.098 2.59,6.904 1.397,10.115 -0.068,0.179 -0.228,0.327 -0.442,0.321 -1.759,-0.056 -3.027,-3.508 -3.542,-4.794 -0.136,-0.342 -0.248,-0.693 -0.346,-1.047 -0.184,0.152 -0.381,0.295 -0.586,0.427 0.529,1.423 0,2.631 -0.943,3.568 0.124,-0.007 0.25,0.05 0.278,0.186 0.506,2.425 -0.467,4.832 -2.934,5.803 -2.495,0.978 -10.599,1.83 -8.061,5.845 0.045,0.071 0.061,0.138 0.065,0.204 1.252,-0.257 2.507,-0.504 3.728,-0.898 2.41,-0.779 3.127,-2.102 3.593,-4.358 0.07,-0.337 0.59,-0.308 0.679,0 0.316,1.092 0.246,1.956 -0.092,2.659 1.872,-0.907 3.981,-1.395 5.759,-1.312 0.287,0.013 0.595,0.294 0.471,0.592 -1.056,2.531 -3.234,6.076 -6.016,7.308 1.955,0.922 3.745,2.1 5.046,3.847 0.11,0.148 0.079,0.424 -0.073,0.54 -1.57,1.183 -3.436,0.801 -5.113,-0.242 0.132,1.252 -0.03,2.548 -0.351,3.476 -0.578,1.67 -1.798,2.594 -3.239,2.783 1.179,3.135 -0.782,6.962 -1.726,10.169 -0.123,0.415 -0.678,0.361 -0.823,0 -1.35,-3.365 -2.309,-7.198 0.067,-10.367 0.038,-0.05 0.083,-0.088 0.13,-0.115 -0.195,-0.072 -0.391,-0.133 -0.585,-0.229 -0.458,-0.224 -0.057,-0.853 0.398,-0.652 0.309,0.136 0.607,0.235 0.897,0.302 -0.227,-0.411 -0.477,-0.826 -0.773,-1.259 -0.002,-0.003 0,-0.007 -0.002,-0.01 -0.045,-0.014 -0.091,-0.017 -0.136,-0.035 -0.233,-0.08 -0.313,-0.28 -0.287,-0.463 -0.133,0.119 -0.276,0.232 -0.431,0.334 0.281,0.624 0.128,1.494 -0.07,2.107 -0.132,0.407 -0.378,0.746 -0.676,1.047 -1.192,2.287 -5.273,3.463 -7.533,2.373 0.702,2.908 0.73,6.26 -0.077,8.982 -0.082,0.275 -0.52,0.444 -0.73,0.185 -2.236,-2.75 -2.005,-6.438 -0.36,-9.417 0.041,-0.076 0.097,-0.122 0.158,-0.155 -0.01,-0.142 -0.012,-0.283 -0.018,-0.426 -0.143,-0.195 -0.27,-0.409 -0.355,-0.655 -0.022,0.005 -0.046,0.013 -0.068,0.02 -0.065,3.899 -4.09,5.98 -7.623,7.352 -0.318,0.124 -0.63,-0.181 -0.64,-0.466 -0.12,-3.688 3.635,-6.516 7.208,-7.53 0.036,-0.302 0.072,-0.605 0.118,-0.912 0.057,-0.382 0.693,-0.354 0.774,0 0.041,0.176 0.059,0.342 0.084,0.513 0,-0.137 -0.017,-0.263 -0.002,-0.411 0.052,-0.523 0.904,-0.535 0.864,0 -0.015,0.192 0.009,0.356 0.026,0.522 0.249,0.122 0.342,0.444 0.15,0.624 0.517,1.251 2.142,1.508 3.674,1.184 0.921,-0.195 1.602,-0.567 2.173,-1.048 -0.507,-0.056 -1.008,-0.208 -1.442,-0.409 -0.944,-0.435 -1.861,-1.289 -1.983,-2.329 -0.146,-1.261 1.026,-1.986 2.127,-2.331 -0.023,-0.419 0.025,-0.847 0.09,-1.223 0.1,-0.581 1.013,-0.332 0.919,0.242 -0.198,1.193 0.153,2.304 1.605,1.9 0.131,-0.037 0.355,-0.126 0.596,-0.241 -0.003,-0.003 -0.007,-0.002 -0.009,-0.005 -0.589,-0.483 -2.395,-2.225 -0.717,-2.653 0.252,-0.064 0.533,-0.062 0.815,-0.013 -0.005,-0.421 -0.019,-0.829 0.074,-1.249 0.134,-0.601 1.089,-0.345 0.959,0.254 -0.093,0.429 0.013,0.916 -0.028,1.363 0.347,0.206 0.641,0.472 0.812,0.765 0.287,0.49 0.175,0.953 -0.132,1.356 0.056,-0.005 0.118,-0.002 0.185,0.017 1.6,0.442 2.66,-0.269 2.557,-1.881 -0.042,-0.657 -0.365,-1.282 -0.745,-1.814 -0.479,-0.669 -1.296,-0.899 -1.827,-1.467 -0.13,-0.139 -0.099,-0.415 0.125,-0.455 2.093,-0.364 3.473,2.518 3.472,4.109 -0.003,1.634 -1.163,2.511 -2.573,2.511 0.375,0.368 0.673,0.757 0.912,1.159 1.39,-0.161 2.427,-1.195 2.882,-2.827 0.282,-1.011 0.215,-2.108 -0.014,-3.121 -0.034,-0.151 -0.097,-0.28 -0.148,-0.419 -1.126,-0.972 -2.071,-2.169 -2.659,-3.252 -0.263,-0.123 -0.529,-0.262 -0.798,-0.44 -0.037,-0.026 -0.061,-0.056 -0.085,-0.086 -0.787,0.565 -1.766,0.875 -2.849,1.044 0.035,0.035 0.059,0.084 0.063,0.148 0.154,2.716 -1.732,4.053 -4.38,4.335 -3.714,0.398 -8.219,-1.408 -10.945,1.629 0.034,0.006 0.068,0.008 0.102,0.012 4.166,0.573 7.258,1.458 10.939,-1.046 0.255,-0.174 0.545,0.155 0.408,0.39 -1.178,2.008 -3.387,2.431 -5.624,2.387 0.01,0.05 0.028,0.098 0.008,0.15 -1.279,3.354 -3.525,3.645 -6.078,3.01 -0.007,0.009 -0.003,0.018 -0.011,0.027 -0.929,1.105 -2.551,1.455 -4.054,1.421 -0.913,0.687 -2.272,0.949 -3.353,1.192 -1.573,0.354 -3.151,0.285 -4.682,-0.179 -0.287,-0.088 -0.342,-0.359 -0.247,-0.558 -0.404,-0.12 -0.802,-0.271 -1.193,-0.464 0.03,0.082 0.024,0.171 -0.063,0.24 -1.387,1.113 -3.846,1.006 -5.57,0.526 -4.97,-0.126 -7.057,-7.119 -12.228,-7.463 0.137,0.159 0.279,0.308 0.413,0.471 0.961,1.175 1.875,2.377 2.926,3.484 1.618,1.706 3.478,2.292 5.633,3.127 0.28,0.109 0.243,0.485 -0.072,0.508 -1.756,0.127 -3.207,-0.392 -4.498,-1.263 0.092,0.192 -0.028,0.446 -0.308,0.481 -2.374,0.302 -4.882,-1.461 -6.573,-2.865 -0.911,-0.756 -1.735,-1.658 -2.417,-2.649 0.144,1.377 0.146,2.806 0.104,4.313 -0.01,0.359 -0.451,0.529 -0.723,0.286 -1.648,-1.47 -3.915,-4.427 -4.5,-7.192 -0.661,2.415 -1.655,4.822 -3.594,6.345 -0.253,0.2 -0.651,0.146 -0.748,-0.189 -0.937,-3.239 0.202,-6.499 2.395,-8.975 -0.036,0.013 -0.073,0.033 -0.11,0.046 -1.739,0.59 -3.583,0.237 -5.013,-0.642 1.556,1.617 2.101,4.255 2.134,6.294 0.005,0.238 -0.219,0.471 -0.476,0.457 -3.312,-0.185 -4.346,-4.33 -3.742,-6.9 0.054,-0.226 0.232,-0.314 0.415,-0.307 -0.178,-0.297 0.214,-0.614 0.51,-0.456 0.032,0.017 0.056,0.041 0.088,0.06 -0.396,-0.389 -0.741,-0.816 -0.986,-1.285 -0.036,2.789 -0.825,5.712 -0.92,8.431 -0.014,0.371 -0.515,0.623 -0.802,0.318 -2.537,-2.699 -2.296,-6.891 0.627,-9.237 0,0 0.001,0 0.001,-0.002 0.032,-0.268 0.07,-0.535 0.11,-0.803 -1.812,2.307 -4.072,4.298 -7.314,4.169 -0.324,-0.013 -0.581,-0.301 -0.487,-0.613 0.042,-0.141 0.113,-0.262 0.162,-0.398 -0.187,-0.18 -0.261,-0.478 -0.024,-0.671 0.167,-0.135 0.343,-0.282 0.516,-0.426 0.434,-0.77 0.989,-1.455 1.644,-2.049 -0.287,0.106 -0.58,0.187 -0.883,0.219 -0.931,0.102 -2.043,-0.227 -2.716,-0.906 0.913,4.313 0.094,8.604 -1.713,12.638 -0.061,0.135 -0.255,0.225 -0.403,0.221 -0.1,-0.006 -0.2,-0.007 -0.3,-0.006 -0.202,-10e-4 -0.393,-0.134 -0.444,-0.324 -0.942,-3.518 -1.192,-7.002 0.163,-10.178 -0.707,0.674 -1.466,1.306 -2.198,1.925 -1.279,1.081 -2.678,2.009 -4.305,2.526 -0.372,0.119 -0.619,-0.239 -0.572,-0.547 0.449,-2.948 3.693,-4.568 6.337,-5.471 0.019,-0.006 0.035,-0.003 0.053,-0.008 -0.515,-0.026 -1.031,-0.133 -1.487,-0.297 -1.418,-0.509 -2.732,-1.539 -3.396,-2.856 -0.171,-0.34 -0.278,-0.749 -0.318,-1.167 -1.54,2.277 -4.211,3.296 -6.404,5.069 -0.323,0.261 -0.809,0.095 -0.829,-0.329 -0.16,-3.493 3.319,-5.448 6.281,-6.728 -1.405,0.159 -2.776,-0.519 -3.603,-2.192 -0.811,-1.64 -0.417,-3.099 0.653,-4.025 -0.592,-0.526 -0.936,-1.43 -0.902,-2.523 0.053,-1.659 1.055,-3.08 2.443,-3.744 -2.713,0.95 -6.257,1.048 -8.726,0.123 -0.396,-0.148 -0.523,-0.652 -0.12,-0.887 2.878,-1.672 6.883,-1.833 9.978,-0.467 0.054,0 0.108,-0.011 0.163,-0.009 -2.967,-2.731 -4.829,-6.672 -4.685,-10.607 0.015,-0.427 0.537,-0.638 0.863,-0.343 3.346,3.012 5.67,6.311 6.028,10.546 0.114,0.164 0.228,0.329 0.345,0.493 0.41,-1.147 1.303,-2.106 2.483,-2.672 0.432,-0.206 0.932,-0.318 1.441,-0.346 -2.626,-1.749 -4.332,-4.438 -5.138,-7.549 -0.064,-0.25 0.081,-0.537 0.355,-0.598 3.615,-0.805 6.103,2.392 7.447,5.575 0,-0.002 0,-0.004 0,-0.006 0.007,-0.417 0.069,-0.839 0.163,-1.262 -0.132,0 -0.259,-0.052 -0.324,-0.188 -1.293,-2.732 -1.887,-5.541 -1.649,-8.541 0.042,-0.519 0.851,-0.684 0.991,-0.127 0.293,1.171 0.749,2.402 1.127,3.647 0.371,-0.884 0.988,-1.683 1.757,-2.357 -0.12,-0.082 -0.197,-0.222 -0.158,-0.403 0.29,-1.317 0.749,-2.539 1.299,-3.728 -0.022,-0.03 -0.044,-0.061 -0.057,-0.102 -1.012,-3.171 -0.621,-6.303 0.414,-9.326 -0.134,0.02 -0.286,-0.027 -0.351,-0.182 -1.074,-2.573 -0.883,-4.746 0.131,-7.195 -0.078,-0.026 -0.147,-0.076 -0.187,-0.164 -1.134,-2.503 -1.077,-4.722 0.11,-7.163 -0.991,-2.588 -0.866,-4.914 0.386,-7.467 0.003,-0.005 0.007,-0.011 0.009,-0.016 -0.206,-2.766 -1.138,-6.184 0.009,-8.802 -3.361,-0.26 -6.728,-0.515 -9.983,0.013 -0.46,0.073 -0.661,-0.554 -0.195,-0.681 7.856,-2.167 16.003,0.982 24.024,-1.152 0.396,-0.107 0.677,0.479 0.286,0.649 -3.006,1.3 -6.18,1.545 -9.412,1.453 0.024,0.372 0.026,0.741 -0.014,1.104 0.67,1.765 0.683,3.81 0.202,5.704 0.118,0.578 0.103,1.151 0.003,1.712 0.317,1.264 0.378,2.589 0.211,3.884 0.066,0.052 0.119,0.12 0.125,0.215 0.064,0.972 -0.066,1.883 -0.3,2.762 0.755,1.972 0.43,4.214 -0.087,6.314 0.036,0.055 0.056,0.122 0.04,0.197 -0.381,1.741 -1.028,3.316 -1.734,4.831 0.097,0.004 0.189,0.034 0.231,0.129 1.162,2.635 0.882,5.078 0.04,7.453 1.066,2.355 0.698,5.334 0.063,7.745 -0.017,0.063 -0.047,0.112 -0.081,0.153 1.573,-0.089 3.163,0.307 4.488,1.362 0.01,-0.159 0.014,-0.322 0.021,-0.482 -1.843,-2.185 -2.839,-4.9 -2.585,-7.743 0.035,-0.403 0.515,-0.64 0.843,-0.335 1.283,1.191 1.965,2.635 2.284,4.182 0.488,-1.953 1.508,-3.717 3.424,-4.831 0.246,-0.142 0.52,-0.036 0.675,0.17 1.454,1.934 1.275,4.102 0.281,6.022 1.022,-0.494 2.186,-0.692 3.33,-0.496 0.268,0.046 0.422,0.358 0.351,0.592 -0.512,1.69 -2.099,3.168 -3.917,3.551 2.486,0.696 3.906,3.156 3.168,5.611 -0.112,0.374 -0.657,0.281 -0.683,-0.088 -0.155,-2.273 -0.599,-4.448 -3.377,-4.792 -0.37,-0.044 -0.732,-0.037 -1.086,0.006 -0.07,0.232 -0.35,0.236 -0.508,0.094 -0.24,0.056 -0.475,0.125 -0.702,0.215 0.001,0 0.001,0.002 0.002,0.003 0.202,0.317 -0.253,0.633 -0.523,0.387 -0.034,-0.031 -0.067,-0.057 -0.101,-0.088 -0.612,0.343 -1.155,0.801 -1.609,1.331 1.475,0.434 2.344,1.752 2.517,3.118 1.756,0.471 2.997,1.752 2.476,3.767 -0.079,0.307 -0.21,0.575 -0.372,0.816 -0.037,0.457 -0.146,0.868 -0.315,1.233 0.325,0.294 0.548,0.679 0.704,1.104 1.023,-0.606 1.857,-1.523 2.482,-2.485 0.371,-0.571 0.642,-1.189 0.638,-1.87 -0.001,-0.403 -0.235,-0.661 -0.535,-0.869 -0.133,0.488 -0.319,0.965 -0.509,1.382 -0.176,0.389 -0.852,0.109 -0.711,-0.287 0.2,-0.566 0.311,-1.089 0.366,-1.609 -0.062,-0.041 -0.123,-0.081 -0.177,-0.127 -0.146,-0.122 -0.07,-0.382 0.116,-0.42 0.034,-0.008 0.061,-0.003 0.093,-0.009 0.002,-0.548 -0.064,-1.102 -0.231,-1.708 -0.044,-0.159 0.157,-0.346 0.317,-0.234 0.722,0.516 0.938,1.241 0.906,2.004 1.661,0.22 2.383,1.864 2.158,3.37 -0.273,1.821 -1.895,3.556 -3.592,4.306 -0.414,0.183 -0.779,-0.39 -0.363,-0.594 1.332,-0.653 2.287,-1.832 2.834,-3.149 0.259,-0.621 0.297,-1.117 0.191,-1.547 -0.02,0.261 -0.059,0.517 -0.142,0.753 -0.564,1.588 -2.057,3.055 -3.67,3.779 0.058,0.386 0.077,0.786 0.016,1.201 -0.192,1.313 -1.013,2.695 -2.108,3.733 0.177,-0.093 0.334,-0.204 0.53,-0.281 1.262,-0.503 2.656,-0.248 3.692,0.57 0.28,0.222 0.538,0.524 0.768,0.873 0.092,-3.652 1.087,-7.919 4.426,-9.498 0.352,-0.167 0.72,0.039 0.749,0.412 0.296,3.8 0.537,8.25 -2.267,11.233 0.571,-0.108 1.208,-0.09 1.904,0.097 1.122,0.305 2.123,1.088 2.586,2.117 0.458,1.019 0.331,2.553 -0.554,3.353 0.862,0.691 1.317,1.781 1.417,2.911 0.49,-0.389 0.866,-0.879 0.888,-1.531 0.028,-0.866 -1.083,-1.401 -1.672,-1.879 -0.241,-0.196 0.024,-0.508 0.281,-0.462 1.208,0.211 2.227,1.135 2.287,2.341 0.052,1.015 -0.891,1.766 -1.77,2.243 -0.017,0.368 -0.062,0.731 -0.152,1.081 -0.496,1.922 -1.982,3.495 -3.832,4.252 2.115,0.897 4.062,2.087 5.827,3.546 0.311,0.256 0.065,0.793 -0.335,0.774 -0.355,-0.018 -0.706,-0.072 -1.058,-0.122 0.469,0.395 0.912,0.827 1.341,1.281 0.006,0 0.011,-0.004 0.018,-0.005 0.291,-0.034 0.573,-0.047 0.848,-0.049 -0.024,-0.062 -0.035,-0.133 -0.011,-0.217 3.698,-13.119 9.595,-25.975 18.459,-36.66 6.418,-7.737 17.107,-16.006 28.067,-16.351 0.301,-1.7 1.727,-3.13 3.437,-3.639 -6.232,-7.808 -12.649,-16.279 -14.791,-25.995 -0.092,-0.415 0.511,-0.57 0.661,-0.172 3.401,9.034 8.256,16.435 13.794,24.101 -1.986,-4.987 -3.874,-10.251 -4.886,-15.29 -0.091,-0.461 0.614,-0.66 0.743,-0.195 1.685,6.068 5.397,12.236 6.326,18.491 0.093,0.126 0.185,0.253 0.279,0.382 0.059,0.079 0.073,0.155 0.07,0.227 0.284,0.088 0.552,0.211 0.777,0.4 -0.494,-1.257 -0.695,-2.529 0.046,-3.802 0.226,-0.389 0.486,-0.735 0.753,-1.064 0.912,-2.484 -0.687,-4.939 0.414,-7.326 -1.684,-2.623 -3.896,-5.594 -1.387,-8.308 -0.553,-0.918 -0.795,-1.882 0.521,-2.398 0.12,-0.047 0.23,-0.082 0.342,-0.119 -0.718,-2.117 -1.591,-6.313 0.295,-8.104 -6.531,0.695 -12.971,2.195 -19.619,1.836 -9.216,-0.499 -18.284,-4.978 -27.415,-1.268 -0.496,0.202 -0.936,-0.482 -0.43,-0.707 7.373,-3.249 15.877,-1.025 23.47,0.361 11.034,2.015 21.54,-3.026 32.413,-1.247 0.455,0.074 0.349,0.8 -0.107,0.768 -2.362,-0.16 -4.694,-0.08 -7.014,0.126 -0.757,1.27 -1.316,2.218 -1.396,3.761 -0.072,1.414 0.226,2.867 0.622,4.232 0.787,-0.209 1.404,-0.392 2.127,-1.365 1.521,-2.044 0.147,-3.933 -0.656,-5.912 -0.118,-0.288 0.331,-0.524 0.537,-0.299 1.804,1.949 2.411,4.405 0.97,6.688 -0.456,0.724 -1.091,1.42 -1.957,1.681 -1.304,0.393 -2.333,0.388 -2.013,1.485 0.734,-0.28 1.72,-0.205 2.397,-0.185 0.706,0.025 1.407,0.072 2.11,-0.03 1.279,-0.185 1.149,-1.384 1.02,-2.386 -0.088,0.288 -0.183,0.567 -0.287,0.824 -0.172,0.427 -0.877,0.263 -0.729,-0.192 0.374,-1.15 0.545,-2.293 0.488,-3.497 -0.06,-1.28 -0.716,-2.31 -1.012,-3.52 -0.069,-0.281 0.276,-0.474 0.498,-0.277 1.537,1.361 1.696,3.656 1.295,5.659 0.109,-0.002 0.218,0.03 0.275,0.137 0.954,1.773 0.696,4.081 -1.753,4.26 -1.228,0.09 -2.714,-0.265 -3.895,0.152 0.064,0.3 -0.339,0.501 -0.582,0.278 -2.061,1.366 0.198,4.81 1.504,6.857 0.187,-0.127 0.387,-0.239 0.562,-0.339 2.452,-1.378 1.767,-3.544 1.15,-5.787 -0.102,-0.37 0.422,-0.568 0.63,-0.254 0.992,1.491 1.712,4.088 0.458,5.666 0.023,0.015 0.048,0.014 0.069,0.039 0.644,0.715 0.792,1.691 0.722,2.644 0.251,0.694 0.233,1.381 0.022,2.05 1.851,2.015 2.664,4.88 0.783,7.135 -0.254,0.305 -0.922,0.652 -1.262,0.844 -2.457,1.387 -2.239,3.34 -1.84,5.566 0.219,1.223 0.169,2.218 -0.161,3.18 2.144,-2.069 1.98,-4.437 2.708,-7.195 0.091,-0.341 0.609,-0.254 0.622,0.082 0.083,2.088 -0.024,3.522 -0.46,4.726 0.088,-0.105 0.178,-0.208 0.266,-0.312 0.724,-3.778 2.274,-7.77 5.625,-10.016 0.227,-0.152 0.574,-0.043 0.703,0.176 2.273,3.88 -1.19,8.63 -4.924,10.889 0.424,0.273 0.822,0.672 1.138,0.925 0.753,0.608 1.496,1.235 2.193,1.901 0.302,0.288 0.087,0.828 -0.352,0.816 -1.087,-0.031 -2.307,-0.259 -3.34,-0.605 0.601,1.764 0.643,3.543 0.225,5.353 1.275,-1.969 3.256,-3.495 5.683,-3.969"
       style="fill:#39180e;fill-opacity:1;fill-rule:evenodd;stroke:none"
       transform="matrix(1.3333333,0,0,-1.3333333,911.63955,561.64729)"
       clip-path="url(#clipPath9324)" />
    <text
       xml:space="preserve"
       style="font-style:normal;font-variant:normal;font-weight:normal;font-stretch:normal;font-size:21.3333px;font-family:'Great Vibes';-inkscape-font-specification:'Great Vibes';white-space:pre;inline-size:79.2353;display:inline;fill:#be9500;fill-opacity:1"
       x="797.13086"
       y="642.1131"
       id="text1"
       transform="translate(16.518424,5.0825921)"><tspan
         x="797.13086"
         y="642.1131"
         id="tspan2">Ceremonia</tspan></text>
    <path
       id="path144"
       d="M 0,0 C 0.548,0.555 1.201,1.181 0.485,2.259 -0.105,1.854 -0.658,1.473 -1.369,0.984 -1.488,2.817 -1.599,4.509 -1.711,6.224 -3.219,6.196 -2.989,5.198 -3.026,4.491 -3.078,3.472 -2.983,2.447 -2.967,1.424 -2.966,1.321 -3.08,1.215 -3.139,1.115 c -0.37,0.162 -0.709,0.31 -1.371,0.601 0.278,-0.98 0.47,-1.659 0.676,-2.389 -0.748,-0.13 -1.437,-0.25 -2.239,-0.392 0.023,-0.419 0.042,-0.784 0.062,-1.154 0.674,-0.156 1.219,-0.283 1.729,-0.402 -0.174,-0.704 -0.328,-1.334 -0.482,-1.962 0.114,-0.057 0.231,-0.114 0.346,-0.17 0.461,0.367 0.922,0.734 1.551,1.233 0.09,-0.582 0.161,-1.001 0.219,-1.422 0.154,-1.143 0.292,-2.287 0.46,-3.428 0.073,-0.499 0.18,-1.025 1.057,-0.685 v 5.896 c 0.745,-0.364 1.198,-0.585 1.651,-0.807 0.078,0.07 0.157,0.14 0.236,0.21 -0.263,0.562 -0.526,1.123 -0.823,1.758 0.535,0.159 1.024,0.302 1.453,0.428 C 1.828,-0.185 0.375,-0.718 0,0"
       style="fill:#c99500;fill-opacity:1;fill-rule:nonzero;stroke:none"
       transform="matrix(1.3333333,0,0,-1.3333333,901.07492,638.05305)"
       clip-path="url(#clipPath145)" />
    <path
       id="path146"
       d="M 0,0 C -0.417,-0.125 -0.639,-0.19 -0.879,-0.262 -0.982,0.501 -1.078,1.207 -1.173,1.913 H -1.486 C -2.243,1.239 -1.711,0.157 -2.119,-0.646 -2.361,-0.439 -2.56,-0.269 -2.916,0.035 v -1.509 c -0.745,0.004 -1.148,-0.292 -1.083,-1.116 0.424,-0.092 0.853,-0.185 1.27,-0.276 -0.052,-0.585 -0.753,-0.958 -0.313,-1.731 0.329,0.31 0.605,0.569 0.986,0.928 0.062,-0.851 0.113,-1.623 0.177,-2.392 0.041,-0.495 0.201,-0.856 0.913,-0.612 v 2.125 c 0.357,0.05 0.61,0.085 0.973,0.135 -0.299,0.577 -0.549,1.059 -0.791,1.524 0.546,0.514 1.699,-0.049 1.76,1.234 -0.501,0.128 -0.989,0.253 -1.484,0.38 C -0.341,-0.857 -0.199,-0.501 0,0"
       style="fill:#c99500;fill-opacity:1;fill-rule:nonzero;stroke:none"
       transform="matrix(1.3333333,0,0,-1.3333333,789.51394,595.4995)"
       clip-path="url(#clipPath147)" />
    <path
       id="path146-5"
       d="M 0,0 C -0.417,-0.125 -0.639,-0.19 -0.879,-0.262 -0.982,0.501 -1.078,1.207 -1.173,1.913 H -1.486 C -2.243,1.239 -1.711,0.157 -2.119,-0.646 -2.361,-0.439 -2.56,-0.269 -2.916,0.035 v -1.509 c -0.745,0.004 -1.148,-0.292 -1.083,-1.116 0.424,-0.092 0.853,-0.185 1.27,-0.276 -0.052,-0.585 -0.753,-0.958 -0.313,-1.731 0.329,0.31 0.605,0.569 0.986,0.928 0.062,-0.851 0.113,-1.623 0.177,-2.392 0.041,-0.495 0.201,-0.856 0.913,-0.612 v 2.125 c 0.357,0.05 0.61,0.085 0.973,0.135 -0.299,0.577 -0.549,1.059 -0.791,1.524 0.546,0.514 1.699,-0.049 1.76,1.234 -0.501,0.128 -0.989,0.253 -1.484,0.38 C -0.341,-0.857 -0.199,-0.501 0,0"
       style="fill:#c99500;fill-opacity:1;fill-rule:nonzero;stroke:none"
       transform="matrix(2.1622696,0,0,-1.4433244,799.37956,634.19819)"
       clip-path="url(#clipPath147-02)" />
    <path
       id="path148"
       d="M 0,0 C -0.589,-0.366 -1.046,-0.651 -1.597,-0.994 -1.726,0.674 -1.843,2.165 -1.958,3.655 -2.149,3.659 -2.34,3.663 -2.531,3.667 -2.703,2.525 -2.875,1.384 -3.082,0.016 -3.49,0.35 -3.774,0.582 -4.057,0.814 -4.156,0.784 -4.256,0.753 -4.355,0.723 c 0.067,-0.598 0.134,-1.195 0.2,-1.789 -2.311,-0.396 -2.311,-0.396 -2.593,-1.536 1.216,-0.09 2.394,-0.178 3.645,-0.272 -0.528,-1.009 -0.977,-1.867 -1.425,-2.725 0.11,-0.078 0.218,-0.156 0.329,-0.234 0.434,0.314 0.868,0.626 1.339,0.965 0.435,-0.895 -0.181,-2.125 1.134,-2.811 0.088,1.262 0.165,2.37 0.256,3.674 0.878,-0.634 1.533,-1.107 2.19,-1.58 0.08,0.083 0.16,0.166 0.24,0.248 -0.539,0.79 -1.077,1.58 -1.669,2.448 0.935,0.302 1.95,-0.077 2.455,1.122 C 1.159,-1.531 0.62,-1.315 0.059,-1.09 0.042,-0.782 0.024,-0.461 0,0"
       style="fill:#b89500;fill-opacity:1;fill-rule:nonzero;stroke:none"
       transform="matrix(1.3333333,0,0,-1.3333333,922.8774,615.8727)"
       clip-path="url(#clipPath149)" />
    <path
       id="path150"
       d="m 0,0 c -0.334,-0.305 -0.888,0.219 -1.088,0.444 -0.21,0.235 -0.351,0.543 -0.411,0.862 0.018,0.011 0.037,0.016 0.054,0.031 0.397,0.348 0.957,0.456 1.421,0.179 C 0.499,1.203 0.39,0.354 0,0 m 0.625,2.131 c -0.63,0.458 -1.464,0.407 -2.11,0.029 -0.061,0.122 -0.246,0.176 -0.359,0.064 -1.528,-1.515 0.862,-4.333 2.605,-2.984 0.89,0.688 0.727,2.263 -0.136,2.891"
       style="fill:#c99500;fill-opacity:1;fill-rule:nonzero;stroke:none"
       transform="matrix(1.3333333,0,0,-1.3333333,910.10092,636.85659)"
       clip-path="url(#clipPath151)" />
    <path
       id="path152"
       d="m 0,0 c -0.06,-0.589 -0.455,-1.13 -0.964,-1.422 -0.373,-0.214 -0.785,-0.172 -0.924,0.263 -0.098,0.305 -0.084,0.668 -0.077,0.99 0.018,0.005 0.031,0.009 0.065,0.02 0.161,0.051 0.312,0.112 0.478,0.154 0.232,0.059 0.233,0.413 0,0.471 -0.101,0.025 -0.203,0.054 -0.306,0.08 0.37,0.176 0.746,0.355 1.156,0.408 C 0.098,1.053 0.045,0.458 0,0 M -0.075,1.604 C -0.765,1.742 -1.529,1.26 -2.109,0.956 -2.264,0.875 -2.268,0.722 -2.195,0.609 -2.376,0.603 -2.552,0.558 -2.704,0.398 -3.049,0.039 -3.022,-0.733 -2.955,-1.179 c 0.173,-1.116 1.169,-1.685 2.224,-1.301 1.07,0.39 1.658,1.561 1.637,2.644 -0.014,0.697 -0.219,1.289 -0.981,1.44"
       style="fill:#c99500;fill-opacity:1;fill-rule:nonzero;stroke:none"
       transform="matrix(1.3333333,0,0,-1.3333333,777.91265,642.01724)"
       clip-path="url(#clipPath153)" />
    <path
       id="path154"
       d="m 0,0 c -0.285,-0.018 -0.495,0.369 -0.569,0.653 -0.02,0.079 -0.024,0.15 -0.02,0.218 0.175,0.512 0.613,0.946 0.976,0.317 C 0.573,0.866 0.406,0.025 0,0 M -0.209,2.121 C -0.304,2.1 -0.381,2.05 -0.458,2 -1.166,1.822 -1.615,1.103 -1.489,0.327 -1.353,-0.508 -0.4,-1.232 0.417,-0.865 1.392,-0.427 1.538,1.02 0.882,1.768 0.612,2.076 0.182,2.205 -0.209,2.121"
       style="fill:#c99500;fill-opacity:1;fill-rule:nonzero;stroke:none"
       transform="matrix(1.3333333,0,0,-1.3333333,913.58839,521.88435)"
       clip-path="url(#clipPath155)" />
    <path
       id="path156"
       d="m 0,0 c -0.008,0.009 -0.016,0.019 -0.024,0.026 -0.141,0.15 -0.366,0.182 -0.549,0.093 -0.353,0.172 -0.785,0.167 -1.105,-0.094 -0.422,-0.344 -0.146,-0.958 0.17,-1.251 0.297,-0.274 0.774,-0.51 1.182,-0.35 0.661,0.259 0.646,0.996 0.377,1.521 C 0.039,-0.031 0.016,-0.02 0,0"
       style="fill:#c99500;fill-opacity:1;fill-rule:nonzero;stroke:none"
       transform="matrix(1.3333333,0,0,-1.3333333,783.30167,633.55007)"
       clip-path="url(#clipPath157)" />
    <path
       id="path158"
       d="m 0,0 c -0.059,-0.04 -0.114,-0.026 -0.166,0.002 0.036,0.05 0.081,0.089 0.111,0.144 0.023,0.04 0.037,0.085 0.054,0.129 C 0.075,0.272 0.147,0.264 0.223,0.258 0.167,0.154 0.093,0.062 0,0 M 0.594,0.911 C 0.483,0.873 0.361,0.861 0.24,0.851 0.263,0.879 0.28,0.911 0.31,0.936 0.38,0.993 0.361,1.131 0.28,1.169 0.09,1.258 -0.1,1.234 -0.26,1.093 -0.378,0.989 -0.481,0.908 -0.575,0.779 -0.615,0.725 -0.733,0.492 -0.772,0.489 -1.108,0.471 -1.281,0.147 -1.139,-0.149 c 0.259,-0.54 0.8,-0.89 1.4,-0.703 0.613,0.19 0.817,0.832 0.802,1.405 C 1.058,0.782 0.829,0.992 0.594,0.911"
       style="fill:#c99500;fill-opacity:1;fill-rule:nonzero;stroke:none"
       transform="matrix(1.3333333,0,0,-1.3333333,912.39274,643.35579)"
       clip-path="url(#clipPath159)" />
    <path
       id="path160"
       d="M 0,0 C -0.008,0.094 -0.012,0.188 -0.021,0.283 -0.046,0.572 -0.428,0.819 -0.657,0.545 -0.772,0.407 -0.878,0.262 -0.992,0.12 -1.08,0.064 -1.154,-0.009 -1.189,-0.133 c -0.011,-0.042 0.001,-0.079 0,-0.118 -0.079,-0.134 -0.142,-0.25 -0.145,-0.443 -0.005,-0.233 0.209,-0.471 0.452,-0.453 0.111,0.008 0.211,0.038 0.306,0.071 0.276,-0.121 0.639,0.042 0.627,0.382 -0.004,0.116 -0.017,0.228 -0.025,0.342 0.008,0.05 0.029,0.092 0.03,0.146 C 0.059,-0.131 0.034,-0.063 0,0"
       style="fill:#be9500 icc-color(Adobe-RGB-1998, 0.69799805, 0.57998657, 0.13299561);fill-opacity:1;fill-rule:nonzero;stroke:none"
       transform="matrix(1.3333333,0,0,-1.3333333,906.47786,656.64499)"
       clip-path="url(#clipPath161)" />
    <path
       id="path162"
       d="M 0,0 C 0.111,0.008 0.211,0.038 0.307,0.071 0.582,-0.05 0.945,0.113 0.933,0.453 0.929,0.568 0.916,0.681 0.908,0.795 0.916,0.845 0.937,0.887 0.938,0.941 0.941,1.015 0.916,1.084 0.882,1.147 0.874,1.241 0.87,1.335 0.861,1.429 0.835,1.719 0.455,1.966 0.224,1.693 0.109,1.554 0.003,1.409 -0.11,1.267 -0.198,1.211 -0.272,1.138 -0.307,1.014 c -0.012,-0.041 0,-0.079 0,-0.118 C -0.386,0.762 -0.449,0.646 -0.452,0.453 -0.457,0.22 -0.243,-0.019 0,0"
       style="fill:#c99500;fill-opacity:1;fill-rule:nonzero;stroke:none"
       transform="matrix(1.3333333,0,0,-1.3333333,807.70252,602.85192)"
       clip-path="url(#clipPath163)" />
    <path
       id="path164"
       d="M 0,0 C 0.111,0.008 0.211,0.038 0.307,0.071 0.582,-0.049 0.946,0.113 0.934,0.453 0.929,0.569 0.916,0.682 0.909,0.796 0.916,0.845 0.937,0.887 0.938,0.941 0.941,1.016 0.916,1.084 0.882,1.147 0.874,1.241 0.87,1.335 0.862,1.429 0.836,1.72 0.455,1.966 0.225,1.693 0.11,1.554 0.004,1.409 -0.11,1.267 -0.197,1.211 -0.272,1.138 -0.307,1.015 c -0.011,-0.042 0,-0.079 0,-0.119 C -0.386,0.762 -0.449,0.646 -0.452,0.453 -0.456,0.22 -0.243,-0.019 0,0"
       style="fill:#c99500;fill-opacity:1;fill-rule:nonzero;stroke:none"
       transform="matrix(1.3333333,0,0,-1.3333333,918.48559,637.91074)"
       clip-path="url(#clipPath165)" />
    <path
       id="path166"
       d="m 0,0 c -0.04,0.019 -0.085,0.035 -0.129,0.052 0.023,0.02 0.045,0.039 0.067,0.059 C -0.039,0.083 -0.016,0.056 0.007,0.028 0.004,0.019 0.003,0.008 0,0 m 0.238,0.898 c -0.144,0.124 -0.38,0.158 -0.52,0 C -0.435,0.725 -0.588,0.554 -0.742,0.381 -0.838,0.274 -0.848,0.154 -0.811,0.053 -0.93,-0.038 -1.01,-0.177 -1.006,-0.338 c 0.01,-0.468 0.258,-0.81 0.702,-0.956 0.336,-0.112 0.583,0.05 0.791,0.275 0.101,0.013 0.18,0.104 0.171,0.209 0.012,0.017 0.027,0.032 0.04,0.05 0.21,0.281 0.335,0.801 0.143,1.13 -0.123,0.21 -0.42,0.369 -0.603,0.528"
       style="fill:#c99500;fill-opacity:1;fill-rule:nonzero;stroke:none"
       transform="matrix(1.3333333,0,0,-1.3333333,775.93594,620.89047)"
       clip-path="url(#clipPath167)" />
    <path
       id="path144-6"
       d="M 0,0 C 0.548,0.555 1.201,1.181 0.485,2.259 -0.105,1.854 -0.658,1.473 -1.369,0.984 -1.488,2.817 -1.599,4.509 -1.711,6.224 -3.219,6.196 -2.989,5.198 -3.026,4.491 -3.078,3.472 -2.983,2.447 -2.967,1.424 -2.966,1.321 -3.08,1.215 -3.139,1.115 c -0.37,0.162 -0.709,0.31 -1.371,0.601 0.278,-0.98 0.47,-1.659 0.676,-2.389 -0.748,-0.13 -1.437,-0.25 -2.239,-0.392 0.023,-0.419 0.042,-0.784 0.062,-1.154 0.674,-0.156 1.219,-0.283 1.729,-0.402 -0.174,-0.704 -0.328,-1.334 -0.482,-1.962 0.114,-0.057 0.231,-0.114 0.346,-0.17 0.461,0.367 0.922,0.734 1.551,1.233 0.09,-0.582 0.161,-1.001 0.219,-1.422 0.154,-1.143 0.292,-2.287 0.46,-3.428 0.073,-0.499 0.18,-1.025 1.057,-0.685 v 5.896 c 0.745,-0.364 1.198,-0.585 1.651,-0.807 0.078,0.07 0.157,0.14 0.236,0.21 -0.263,0.562 -0.526,1.123 -0.823,1.758 0.535,0.159 1.024,0.302 1.453,0.428 C 1.828,-0.185 0.375,-0.718 0,0"
       style="fill:#c99500;fill-opacity:1;fill-rule:nonzero;stroke:none"
       transform="matrix(1.3333333,0,0,-1.3333333,917.1105,503.04543)"
       clip-path="url(#clipPath145-3)" />
    <path
       id="path146-7"
       d="M 0,0 C -0.417,-0.125 -0.639,-0.19 -0.879,-0.262 -0.982,0.501 -1.078,1.207 -1.173,1.913 H -1.486 C -2.243,1.239 -1.711,0.157 -2.119,-0.646 -2.361,-0.439 -2.56,-0.269 -2.916,0.035 v -1.509 c -0.745,0.004 -1.148,-0.292 -1.083,-1.116 0.424,-0.092 0.853,-0.185 1.27,-0.276 -0.052,-0.585 -0.753,-0.958 -0.313,-1.731 0.329,0.31 0.605,0.569 0.986,0.928 0.062,-0.851 0.113,-1.623 0.177,-2.392 0.041,-0.495 0.201,-0.856 0.913,-0.612 v 2.125 c 0.357,0.05 0.61,0.085 0.973,0.135 -0.299,0.577 -0.549,1.059 -0.791,1.524 0.546,0.514 1.699,-0.049 1.76,1.234 -0.501,0.128 -0.989,0.253 -1.484,0.38 C -0.341,-0.857 -0.199,-0.501 0,0"
       style="fill:#c99500;fill-opacity:1;fill-rule:nonzero;stroke:none"
       transform="matrix(1.3333333,0,0,-1.3333333,803.96121,500.19962)"
       clip-path="url(#clipPath147-6)" />
    <path
       id="path148-4"
       d="M 0,0 C -0.589,-0.366 -1.046,-0.651 -1.597,-0.994 -1.726,0.674 -1.843,2.165 -1.958,3.655 -2.149,3.659 -2.34,3.663 -2.531,3.667 -2.703,2.525 -2.875,1.384 -3.082,0.016 -3.49,0.35 -3.774,0.582 -4.057,0.814 -4.156,0.784 -4.256,0.753 -4.355,0.723 c 0.067,-0.598 0.134,-1.195 0.2,-1.789 -2.311,-0.396 -2.311,-0.396 -2.593,-1.536 1.216,-0.09 2.394,-0.178 3.645,-0.272 -0.528,-1.009 -0.977,-1.867 -1.425,-2.725 0.11,-0.078 0.218,-0.156 0.329,-0.234 0.434,0.314 0.868,0.626 1.339,0.965 0.435,-0.895 -0.181,-2.125 1.134,-2.811 0.088,1.262 0.165,2.37 0.256,3.674 0.878,-0.634 1.533,-1.107 2.19,-1.58 0.08,0.083 0.16,0.166 0.24,0.248 -0.539,0.79 -1.077,1.58 -1.669,2.448 0.935,0.302 1.95,-0.077 2.455,1.122 C 1.159,-1.531 0.62,-1.315 0.059,-1.09 0.042,-0.782 0.024,-0.461 0,0"
       style="fill:#c99500;fill-opacity:1;fill-rule:nonzero;stroke:none"
       transform="matrix(1.3333333,0,0,-1.3333333,779.76432,578.70498)"
       clip-path="url(#clipPath149-7)" />
    <path
       id="path150-5"
       d="m 0,0 c -0.334,-0.305 -0.888,0.219 -1.088,0.444 -0.21,0.235 -0.351,0.543 -0.411,0.862 0.018,0.011 0.037,0.016 0.054,0.031 0.397,0.348 0.957,0.456 1.421,0.179 C 0.499,1.203 0.39,0.354 0,0 m 0.625,2.131 c -0.63,0.458 -1.464,0.407 -2.11,0.029 -0.061,0.122 -0.246,0.176 -0.359,0.064 -1.528,-1.515 0.862,-4.333 2.605,-2.984 0.89,0.688 0.727,2.263 -0.136,2.891"
       style="fill:#c99500;fill-opacity:1;fill-rule:nonzero;stroke:none"
       transform="matrix(1.3333333,0,0,-1.3333333,919.78326,559.02813)"
       clip-path="url(#clipPath151-3)" />
    <path
       id="path152-8"
       d="m 0,0 c -0.06,-0.589 -0.455,-1.13 -0.964,-1.422 -0.373,-0.214 -0.785,-0.172 -0.924,0.263 -0.098,0.305 -0.084,0.668 -0.077,0.99 0.018,0.005 0.031,0.009 0.065,0.02 0.161,0.051 0.312,0.112 0.478,0.154 0.232,0.059 0.233,0.413 0,0.471 -0.101,0.025 -0.203,0.054 -0.306,0.08 0.37,0.176 0.746,0.355 1.156,0.408 C 0.098,1.053 0.045,0.458 0,0 M -0.075,1.604 C -0.765,1.742 -1.529,1.26 -2.109,0.956 -2.264,0.875 -2.268,0.722 -2.195,0.609 -2.376,0.603 -2.552,0.558 -2.704,0.398 -3.049,0.039 -3.022,-0.733 -2.955,-1.179 c 0.173,-1.116 1.169,-1.685 2.224,-1.301 1.07,0.39 1.658,1.561 1.637,2.644 -0.014,0.697 -0.219,1.289 -0.981,1.44"
       style="fill:#c99500;fill-opacity:1;fill-rule:nonzero;stroke:none"
       transform="matrix(1.3333333,0,0,-1.3333333,773.93552,604.84952)"
       clip-path="url(#clipPath153-6)" />
    <path
       id="path152-8-0"
       d="m 0,0 c -0.06,-0.589 -0.455,-1.13 -0.964,-1.422 -0.373,-0.214 -0.785,-0.172 -0.924,0.263 -0.098,0.305 -0.084,0.668 -0.077,0.99 0.018,0.005 0.031,0.009 0.065,0.02 0.161,0.051 0.312,0.112 0.478,0.154 0.232,0.059 0.233,0.413 0,0.471 -0.101,0.025 -0.203,0.054 -0.306,0.08 0.37,0.176 0.746,0.355 1.156,0.408 C 0.098,1.053 0.045,0.458 0,0 M -0.075,1.604 C -0.765,1.742 -1.529,1.26 -2.109,0.956 -2.264,0.875 -2.268,0.722 -2.195,0.609 -2.376,0.603 -2.552,0.558 -2.704,0.398 -3.049,0.039 -3.022,-0.733 -2.955,-1.179 c 0.173,-1.116 1.169,-1.685 2.224,-1.301 1.07,0.39 1.658,1.561 1.637,2.644 -0.014,0.697 -0.219,1.289 -0.981,1.44"
       style="fill:#c99500;fill-opacity:1;fill-rule:nonzero;stroke:none"
       transform="matrix(1.3333333,0,0,-1.3333333,918.51621,533.08717)"
       clip-path="url(#clipPath153-6-0)" />
    <path
       id="path146-1"
       d="M 0,0 C -0.417,-0.125 -0.639,-0.19 -0.879,-0.262 -0.982,0.501 -1.078,1.207 -1.173,1.913 H -1.486 C -2.243,1.239 -1.711,0.157 -2.119,-0.646 -2.361,-0.439 -2.56,-0.269 -2.916,0.035 v -1.509 c -0.745,0.004 -1.148,-0.292 -1.083,-1.116 0.424,-0.092 0.853,-0.185 1.27,-0.276 -0.052,-0.585 -0.753,-0.958 -0.313,-1.731 0.329,0.31 0.605,0.569 0.986,0.928 0.062,-0.851 0.113,-1.623 0.177,-2.392 0.041,-0.495 0.201,-0.856 0.913,-0.612 v 2.125 c 0.357,0.05 0.61,0.085 0.973,0.135 -0.299,0.577 -0.549,1.059 -0.791,1.524 0.546,0.514 1.699,-0.049 1.76,1.234 -0.501,0.128 -0.989,0.253 -1.484,0.38 C -0.341,-0.857 -0.199,-0.501 0,0"
       style="fill:#c99500;fill-opacity:1;fill-rule:nonzero;stroke:none"
       transform="matrix(1.3333333,0,0,-1.3333333,915.89762,605.77014)"
       clip-path="url(#clipPath147-8)" />
    <path
       id="path152-8-0-4"
       d="m 0,0 c -0.06,-0.589 -0.455,-1.13 -0.964,-1.422 -0.373,-0.214 -0.785,-0.172 -0.924,0.263 -0.098,0.305 -0.084,0.668 -0.077,0.99 0.018,0.005 0.031,0.009 0.065,0.02 0.161,0.051 0.312,0.112 0.478,0.154 0.232,0.059 0.233,0.413 0,0.471 -0.101,0.025 -0.203,0.054 -0.306,0.08 0.37,0.176 0.746,0.355 1.156,0.408 C 0.098,1.053 0.045,0.458 0,0 M -0.075,1.604 C -0.765,1.742 -1.529,1.26 -2.109,0.956 -2.264,0.875 -2.268,0.722 -2.195,0.609 -2.376,0.603 -2.552,0.558 -2.704,0.398 -3.049,0.039 -3.022,-0.733 -2.955,-1.179 c 0.173,-1.116 1.169,-1.685 2.224,-1.301 1.07,0.39 1.658,1.561 1.637,2.644 -0.014,0.697 -0.219,1.289 -0.981,1.44"
       style="fill:#c99500;fill-opacity:1;fill-rule:nonzero;stroke:none"
       transform="matrix(1.3333333,0,0,-1.3333333,921.0117,595.45438)"
       clip-path="url(#clipPath153-6-0-0)" />
    <path
       id="path154-3"
       d="m 0,0 c -0.285,-0.018 -0.495,0.369 -0.569,0.653 -0.02,0.079 -0.024,0.15 -0.02,0.218 0.175,0.512 0.613,0.946 0.976,0.317 C 0.573,0.866 0.406,0.025 0,0 M -0.209,2.121 C -0.304,2.1 -0.381,2.05 -0.458,2 -1.166,1.822 -1.615,1.103 -1.489,0.327 -1.353,-0.508 -0.4,-1.232 0.417,-0.865 1.392,-0.427 1.538,1.02 0.882,1.768 0.612,2.076 0.182,2.205 -0.209,2.121"
       style="fill:#c99500;fill-opacity:1;fill-rule:nonzero;stroke:none"
       transform="matrix(1.3333333,0,0,-1.3333333,774.60492,514.89452)"
       clip-path="url(#clipPath155-8)" />
    <path
       id="path156-6"
       d="m 0,0 c -0.008,0.009 -0.016,0.019 -0.024,0.026 -0.141,0.15 -0.366,0.182 -0.549,0.093 -0.353,0.172 -0.785,0.167 -1.105,-0.094 -0.422,-0.344 -0.146,-0.958 0.17,-1.251 0.297,-0.274 0.774,-0.51 1.182,-0.35 0.661,0.259 0.646,0.996 0.377,1.521 C 0.039,-0.031 0.016,-0.02 0,0"
       style="fill:#c99500;fill-opacity:1;fill-rule:nonzero;stroke:none"
       transform="matrix(1.3333333,0,0,-1.3333333,781.54818,611.94778)"
       clip-path="url(#clipPath157-1)" />
    <path
       id="path158-7"
       d="m 0,0 c -0.059,-0.04 -0.114,-0.026 -0.166,0.002 0.036,0.05 0.081,0.089 0.111,0.144 0.023,0.04 0.037,0.085 0.054,0.129 C 0.075,0.272 0.147,0.264 0.223,0.258 0.167,0.154 0.093,0.062 0,0 M 0.594,0.911 C 0.483,0.873 0.361,0.861 0.24,0.851 0.263,0.879 0.28,0.911 0.31,0.936 0.38,0.993 0.361,1.131 0.28,1.169 0.09,1.258 -0.1,1.234 -0.26,1.093 -0.378,0.989 -0.481,0.908 -0.575,0.779 -0.615,0.725 -0.733,0.492 -0.772,0.489 -1.108,0.471 -1.281,0.147 -1.139,-0.149 c 0.259,-0.54 0.8,-0.89 1.4,-0.703 0.613,0.19 0.817,0.832 0.802,1.405 C 1.058,0.782 0.829,0.992 0.594,0.911"
       style="fill:#c99500;fill-opacity:1;fill-rule:nonzero;stroke:none"
       transform="matrix(1.3333333,0,0,-1.3333333,918.89846,527.40789)"
       clip-path="url(#clipPath159-8)" />
    <path
       id="path160-4"
       d="M 0,0 C -0.008,0.094 -0.012,0.188 -0.021,0.283 -0.046,0.572 -0.428,0.819 -0.657,0.545 -0.772,0.407 -0.878,0.262 -0.992,0.12 -1.08,0.064 -1.154,-0.009 -1.189,-0.133 c -0.011,-0.042 0.001,-0.079 0,-0.118 -0.079,-0.134 -0.142,-0.25 -0.145,-0.443 -0.005,-0.233 0.209,-0.471 0.452,-0.453 0.111,0.008 0.211,0.038 0.306,0.071 0.276,-0.121 0.639,0.042 0.627,0.382 -0.004,0.116 -0.017,0.228 -0.025,0.342 0.008,0.05 0.029,0.092 0.03,0.146 C 0.059,-0.131 0.034,-0.063 0,0"
       style="fill:#c99500;fill-opacity:1;fill-rule:nonzero;stroke:none"
       transform="matrix(1.3333333,0,0,-1.3333333,906.31268,644.57256)"
       clip-path="url(#clipPath161-7)" />
    <path
       id="path162-5"
       d="M 0,0 C 0.111,0.008 0.211,0.038 0.307,0.071 0.582,-0.05 0.945,0.113 0.933,0.453 0.929,0.568 0.916,0.681 0.908,0.795 0.916,0.845 0.937,0.887 0.938,0.941 0.941,1.015 0.916,1.084 0.882,1.147 0.874,1.241 0.87,1.335 0.861,1.429 0.835,1.719 0.455,1.966 0.224,1.693 0.109,1.554 0.003,1.409 -0.11,1.267 -0.198,1.211 -0.272,1.138 -0.307,1.014 c -0.012,-0.041 0,-0.079 0,-0.118 C -0.386,0.762 -0.449,0.646 -0.452,0.453 -0.457,0.22 -0.243,-0.019 0,0"
       style="fill:#c99500;fill-opacity:1;fill-rule:nonzero;stroke:none"
       transform="matrix(1.3333333,0,0,-1.3333333,772.91218,571.08445)"
       clip-path="url(#clipPath163-6)" />
    <path
       id="path164-6"
       d="M 0,0 C 0.111,0.008 0.211,0.038 0.307,0.071 0.582,-0.049 0.946,0.113 0.934,0.453 0.929,0.569 0.916,0.682 0.909,0.796 0.916,0.845 0.937,0.887 0.938,0.941 0.941,1.016 0.916,1.084 0.882,1.147 0.874,1.241 0.87,1.335 0.862,1.429 0.836,1.72 0.455,1.966 0.225,1.693 0.11,1.554 0.004,1.409 -0.11,1.267 -0.197,1.211 -0.272,1.138 -0.307,1.015 c -0.011,-0.042 0,-0.079 0,-0.119 C -0.386,0.762 -0.449,0.646 -0.452,0.453 -0.456,0.22 -0.243,-0.019 0,0"
       style="fill:#c99500;fill-opacity:1;fill-rule:nonzero;stroke:none"
       transform="matrix(1.3333333,0,0,-1.3333333,918.63807,551.18775)"
       clip-path="url(#clipPath165-5)" />
    <path
       id="path146-75"
       d="M 0,0 C -0.417,-0.125 -0.639,-0.19 -0.879,-0.262 -0.982,0.501 -1.078,1.207 -1.173,1.913 H -1.486 C -2.243,1.239 -1.711,0.157 -2.119,-0.646 -2.361,-0.439 -2.56,-0.269 -2.916,0.035 v -1.509 c -0.745,0.004 -1.148,-0.292 -1.083,-1.116 0.424,-0.092 0.853,-0.185 1.27,-0.276 -0.052,-0.585 -0.753,-0.958 -0.313,-1.731 0.329,0.31 0.605,0.569 0.986,0.928 0.062,-0.851 0.113,-1.623 0.177,-2.392 0.041,-0.495 0.201,-0.856 0.913,-0.612 v 2.125 c 0.357,0.05 0.61,0.085 0.973,0.135 -0.299,0.577 -0.549,1.059 -0.791,1.524 0.546,0.514 1.699,-0.049 1.76,1.234 -0.501,0.128 -0.989,0.253 -1.484,0.38 C -0.341,-0.857 -0.199,-0.501 0,0"
       style="fill:#c99500;fill-opacity:1;fill-rule:nonzero;stroke:none"
       transform="matrix(1.3333333,0,0,-1.3333333,785.0712,499.28222)"
       clip-path="url(#clipPath147-0)" />
    <path
       id="path154-7"
       d="m 0,0 c -0.285,-0.018 -0.495,0.369 -0.569,0.653 -0.02,0.079 -0.024,0.15 -0.02,0.218 0.175,0.512 0.613,0.946 0.976,0.317 C 0.573,0.866 0.406,0.025 0,0 M -0.209,2.121 C -0.304,2.1 -0.381,2.05 -0.458,2 -1.166,1.822 -1.615,1.103 -1.489,0.327 -1.353,-0.508 -0.4,-1.232 0.417,-0.865 1.392,-0.427 1.538,1.02 0.882,1.768 0.612,2.076 0.182,2.205 -0.209,2.121"
       style="fill:#c99500;fill-opacity:1;fill-rule:nonzero;stroke:none"
       transform="matrix(1.3333333,0,0,-1.3333333,823.05926,498.09401)"
       clip-path="url(#clipPath155-88)" />
    <path
       id="path152-8-0-0"
       d="m 0,0 c -0.06,-0.589 -0.455,-1.13 -0.964,-1.422 -0.373,-0.214 -0.785,-0.172 -0.924,0.263 -0.098,0.305 -0.084,0.668 -0.077,0.99 0.018,0.005 0.031,0.009 0.065,0.02 0.161,0.051 0.312,0.112 0.478,0.154 0.232,0.059 0.233,0.413 0,0.471 -0.101,0.025 -0.203,0.054 -0.306,0.08 0.37,0.176 0.746,0.355 1.156,0.408 C 0.098,1.053 0.045,0.458 0,0 M -0.075,1.604 C -0.765,1.742 -1.529,1.26 -2.109,0.956 -2.264,0.875 -2.268,0.722 -2.195,0.609 -2.376,0.603 -2.552,0.558 -2.704,0.398 -3.049,0.039 -3.022,-0.733 -2.955,-1.179 c 0.173,-1.116 1.169,-1.685 2.224,-1.301 1.07,0.39 1.658,1.561 1.637,2.644 -0.014,0.697 -0.219,1.289 -0.981,1.44"
       style="fill:#c99500;fill-opacity:1;fill-rule:nonzero;stroke:none"
       transform="matrix(1.3333333,0,0,-1.3333333,838.78758,493.73139)"
       clip-path="url(#clipPath153-6-0-5)" />
    <path
       id="path158-7-9"
       d="m 0,0 c -0.059,-0.04 -0.114,-0.026 -0.166,0.002 0.036,0.05 0.081,0.089 0.111,0.144 0.023,0.04 0.037,0.085 0.054,0.129 C 0.075,0.272 0.147,0.264 0.223,0.258 0.167,0.154 0.093,0.062 0,0 M 0.594,0.911 C 0.483,0.873 0.361,0.861 0.24,0.851 0.263,0.879 0.28,0.911 0.31,0.936 0.38,0.993 0.361,1.131 0.28,1.169 0.09,1.258 -0.1,1.234 -0.26,1.093 -0.378,0.989 -0.481,0.908 -0.575,0.779 -0.615,0.725 -0.733,0.492 -0.772,0.489 -1.108,0.471 -1.281,0.147 -1.139,-0.149 c 0.259,-0.54 0.8,-0.89 1.4,-0.703 0.613,0.19 0.817,0.832 0.802,1.405 C 1.058,0.782 0.829,0.992 0.594,0.911"
       style="fill:#c99500;fill-opacity:1;fill-rule:nonzero;stroke:none"
       transform="matrix(1.3333333,0,0,-1.3333333,846.79372,517.59468)"
       clip-path="url(#clipPath159-8-6)" />
    <path
       id="path164-6-6"
       d="M 0,0 C 0.111,0.008 0.211,0.038 0.307,0.071 0.582,-0.049 0.946,0.113 0.934,0.453 0.929,0.569 0.916,0.682 0.909,0.796 0.916,0.845 0.937,0.887 0.938,0.941 0.941,1.016 0.916,1.084 0.882,1.147 0.874,1.241 0.87,1.335 0.862,1.429 0.836,1.72 0.455,1.966 0.225,1.693 0.11,1.554 0.004,1.409 -0.11,1.267 -0.197,1.211 -0.272,1.138 -0.307,1.015 c -0.011,-0.042 0,-0.079 0,-0.119 C -0.386,0.762 -0.449,0.646 -0.452,0.453 -0.456,0.22 -0.243,-0.019 0,0"
       style="fill:#c99500;fill-opacity:1;fill-rule:nonzero;stroke:none"
       transform="matrix(1.3333333,0,0,-1.3333333,851.93359,513.42028)"
       clip-path="url(#clipPath165-5-1)" />
    <path
       id="path166-7"
       d="m 0,0 c -0.04,0.019 -0.085,0.035 -0.129,0.052 0.023,0.02 0.045,0.039 0.067,0.059 C -0.039,0.083 -0.016,0.056 0.007,0.028 0.004,0.019 0.003,0.008 0,0 m 0.238,0.898 c -0.144,0.124 -0.38,0.158 -0.52,0 C -0.435,0.725 -0.588,0.554 -0.742,0.381 -0.838,0.274 -0.848,0.154 -0.811,0.053 -0.93,-0.038 -1.01,-0.177 -1.006,-0.338 c 0.01,-0.468 0.258,-0.81 0.702,-0.956 0.336,-0.112 0.583,0.05 0.791,0.275 0.101,0.013 0.18,0.104 0.171,0.209 0.012,0.017 0.027,0.032 0.04,0.05 0.21,0.281 0.335,0.801 0.143,1.13 -0.123,0.21 -0.42,0.369 -0.603,0.528"
       style="fill:#c99500;fill-opacity:1;fill-rule:nonzero;stroke:none"
       transform="matrix(1.3333333,0,0,-1.3333333,919.67165,576.73418)"
       clip-path="url(#clipPath167-3)" />
  </g>
</svg>
