<?xml version="1.0" encoding="UTF-8" standalone="no"?>
<!-- Created with Inkscape (http://www.inkscape.org/) -->

<svg
   width="50.709976mm"
   height="47.396mm"
   viewBox="0 0 50.709976 47.396"
   version="1.1"
   id="svg1"
   inkscape:version="1.3 (0e150ed6c4, 2023-07-21)"
   sodipodi:docname="fotosNovios.svg"
   xmlns:inkscape="http://www.inkscape.org/namespaces/inkscape"
   xmlns:sodipodi="http://sodipodi.sourceforge.net/DTD/sodipodi-0.dtd"
   xmlns="http://www.w3.org/2000/svg"
   xmlns:svg="http://www.w3.org/2000/svg">
  <sodipodi:namedview
     id="namedview1"
     pagecolor="#ffffff"
     bordercolor="#000000"
     borderopacity="0.25"
     inkscape:showpageshadow="2"
     inkscape:pageopacity="0.0"
     inkscape:pagecheckerboard="0"
     inkscape:deskcolor="#d1d1d1"
     inkscape:document-units="mm"
     inkscape:zoom="3.9660278"
     inkscape:cx="119.13683"
     inkscape:cy="91.653417"
     inkscape:window-width="1920"
     inkscape:window-height="1001"
     inkscape:window-x="-9"
     inkscape:window-y="-9"
     inkscape:window-maximized="1"
     inkscape:current-layer="layer1" />
  <defs
     id="defs1">
    <clipPath
       clipPathUnits="userSpaceOnUse"
       id="clipPath9492">
      <path
         d="M 0,500 H 750 V 0 H 0 Z"
         transform="translate(-170.1987,-107.94041)"
         id="path9492" />
    </clipPath>
    <clipPath
       clipPathUnits="userSpaceOnUse"
       id="clipPath9470">
      <path
         d="M 0,500 H 750 V 0 H 0 Z"
         transform="translate(-171.57861,-138.7187)"
         id="path9470" />
    </clipPath>
    <clipPath
       clipPathUnits="userSpaceOnUse"
       id="clipPath451">
      <path
         d="M 0,500 H 500 V 0 H 0 Z"
         transform="translate(-132.37701,-197.4209)"
         id="path451" />
    </clipPath>
    <clipPath
       clipPathUnits="userSpaceOnUse"
       id="clipPath455">
      <path
         d="M 0,500 H 500 V 0 H 0 Z"
         transform="translate(-134.3242,-224.06351)"
         id="path455" />
    </clipPath>
    <clipPath
       clipPathUnits="userSpaceOnUse"
       id="clipPath459">
      <path
         d="M 0,500 H 500 V 0 H 0 Z"
         transform="translate(-120.5308,-211.51071)"
         id="path459" />
    </clipPath>
    <clipPath
       clipPathUnits="userSpaceOnUse"
       id="clipPath463">
      <path
         d="M 0,500 H 500 V 0 H 0 Z"
         transform="translate(-124.6455,-191.5967)"
         id="path463" />
    </clipPath>
    <clipPath
       clipPathUnits="userSpaceOnUse"
       id="clipPath467">
      <path
         d="M 0,500 H 500 V 0 H 0 Z"
         transform="translate(-139.0786,-208.04591)"
         id="path467" />
    </clipPath>
    <clipPath
       clipPathUnits="userSpaceOnUse"
       id="clipPath469">
      <path
         d="M 0,500 H 500 V 0 H 0 Z"
         transform="translate(-128.4082,-185.2139)"
         id="path469" />
    </clipPath>
    <clipPath
       clipPathUnits="userSpaceOnUse"
       id="clipPath451-1">
      <path
         d="M 0,500 H 500 V 0 H 0 Z"
         transform="translate(-132.37701,-197.4209)"
         id="path451-1" />
    </clipPath>
    <clipPath
       clipPathUnits="userSpaceOnUse"
       id="clipPath455-1">
      <path
         d="M 0,500 H 500 V 0 H 0 Z"
         transform="translate(-134.3242,-224.06351)"
         id="path455-0" />
    </clipPath>
    <clipPath
       clipPathUnits="userSpaceOnUse"
       id="clipPath459-2">
      <path
         d="M 0,500 H 500 V 0 H 0 Z"
         transform="translate(-120.5308,-211.51071)"
         id="path459-1" />
    </clipPath>
    <clipPath
       clipPathUnits="userSpaceOnUse"
       id="clipPath463-6">
      <path
         d="M 0,500 H 500 V 0 H 0 Z"
         transform="translate(-124.6455,-191.5967)"
         id="path463-4" />
    </clipPath>
    <clipPath
       clipPathUnits="userSpaceOnUse"
       id="clipPath467-7">
      <path
         d="M 0,500 H 500 V 0 H 0 Z"
         transform="translate(-139.0786,-208.04591)"
         id="path467-3" />
    </clipPath>
    <clipPath
       clipPathUnits="userSpaceOnUse"
       id="clipPath469-5">
      <path
         d="M 0,500 H 500 V 0 H 0 Z"
         transform="translate(-128.4082,-185.2139)"
         id="path469-9" />
    </clipPath>
    <clipPath
       clipPathUnits="userSpaceOnUse"
       id="clipPath451-9">
      <path
         d="M 0,500 H 500 V 0 H 0 Z"
         transform="translate(-132.37701,-197.4209)"
         id="path451-6" />
    </clipPath>
    <clipPath
       clipPathUnits="userSpaceOnUse"
       id="clipPath455-7">
      <path
         d="M 0,500 H 500 V 0 H 0 Z"
         transform="translate(-134.3242,-224.06351)"
         id="path455-9" />
    </clipPath>
    <clipPath
       clipPathUnits="userSpaceOnUse"
       id="clipPath459-0">
      <path
         d="M 0,500 H 500 V 0 H 0 Z"
         transform="translate(-120.5308,-211.51071)"
         id="path459-5" />
    </clipPath>
    <clipPath
       clipPathUnits="userSpaceOnUse"
       id="clipPath463-3">
      <path
         d="M 0,500 H 500 V 0 H 0 Z"
         transform="translate(-124.6455,-191.5967)"
         id="path463-7" />
    </clipPath>
    <clipPath
       clipPathUnits="userSpaceOnUse"
       id="clipPath467-3">
      <path
         d="M 0,500 H 500 V 0 H 0 Z"
         transform="translate(-139.0786,-208.04591)"
         id="path467-1" />
    </clipPath>
    <clipPath
       clipPathUnits="userSpaceOnUse"
       id="clipPath469-7">
      <path
         d="M 0,500 H 500 V 0 H 0 Z"
         transform="translate(-128.4082,-185.2139)"
         id="path469-8" />
    </clipPath>
    <clipPath
       clipPathUnits="userSpaceOnUse"
       id="clipPath451-5">
      <path
         d="M 0,500 H 500 V 0 H 0 Z"
         transform="translate(-132.37701,-197.4209)"
         id="path451-0" />
    </clipPath>
    <clipPath
       clipPathUnits="userSpaceOnUse"
       id="clipPath455-4">
      <path
         d="M 0,500 H 500 V 0 H 0 Z"
         transform="translate(-134.3242,-224.06351)"
         id="path455-5" />
    </clipPath>
    <clipPath
       clipPathUnits="userSpaceOnUse"
       id="clipPath459-06">
      <path
         d="M 0,500 H 500 V 0 H 0 Z"
         transform="translate(-120.5308,-211.51071)"
         id="path459-10" />
    </clipPath>
    <clipPath
       clipPathUnits="userSpaceOnUse"
       id="clipPath463-7">
      <path
         d="M 0,500 H 500 V 0 H 0 Z"
         transform="translate(-124.6455,-191.5967)"
         id="path463-72" />
    </clipPath>
    <clipPath
       clipPathUnits="userSpaceOnUse"
       id="clipPath467-5">
      <path
         d="M 0,500 H 500 V 0 H 0 Z"
         transform="translate(-139.0786,-208.04591)"
         id="path467-4" />
    </clipPath>
    <clipPath
       clipPathUnits="userSpaceOnUse"
       id="clipPath469-4">
      <path
         d="M 0,500 H 500 V 0 H 0 Z"
         transform="translate(-128.4082,-185.2139)"
         id="path469-91" />
    </clipPath>
    <clipPath
       clipPathUnits="userSpaceOnUse"
       id="clipPath455-14">
      <path
         d="M 0,500 H 500 V 0 H 0 Z"
         transform="translate(-134.3242,-224.06351)"
         id="path455-8" />
    </clipPath>
    <clipPath
       clipPathUnits="userSpaceOnUse"
       id="clipPath451-53">
      <path
         d="M 0,500 H 500 V 0 H 0 Z"
         transform="translate(-132.37701,-197.4209)"
         id="path451-08" />
    </clipPath>
    <clipPath
       clipPathUnits="userSpaceOnUse"
       id="clipPath459-8">
      <path
         d="M 0,500 H 500 V 0 H 0 Z"
         transform="translate(-120.5308,-211.51071)"
         id="path459-6" />
    </clipPath>
    <clipPath
       clipPathUnits="userSpaceOnUse"
       id="clipPath463-5">
      <path
         d="M 0,500 H 500 V 0 H 0 Z"
         transform="translate(-124.6455,-191.5967)"
         id="path463-0" />
    </clipPath>
    <clipPath
       clipPathUnits="userSpaceOnUse"
       id="clipPath467-6">
      <path
         d="M 0,500 H 500 V 0 H 0 Z"
         transform="translate(-139.0786,-208.04591)"
         id="path467-46" />
    </clipPath>
    <clipPath
       clipPathUnits="userSpaceOnUse"
       id="clipPath469-0">
      <path
         d="M 0,500 H 500 V 0 H 0 Z"
         transform="translate(-128.4082,-185.2139)"
         id="path469-7" />
    </clipPath>
    <clipPath
       clipPathUnits="userSpaceOnUse"
       id="clipPath261">
      <path
         d="M 0,500 H 500 V 0 H 0 Z"
         transform="translate(-364.15921,-340.33111)"
         id="path261" />
    </clipPath>
    <clipPath
       clipPathUnits="userSpaceOnUse"
       id="clipPath263">
      <path
         d="M 0,500 H 500 V 0 H 0 Z"
         transform="translate(-411.53221,-366.42821)"
         id="path263" />
    </clipPath>
    <clipPath
       clipPathUnits="userSpaceOnUse"
       id="clipPath265">
      <path
         d="M 0,500 H 500 V 0 H 0 Z"
         transform="translate(-411.22071,-359.43511)"
         id="path265" />
    </clipPath>
    <clipPath
       clipPathUnits="userSpaceOnUse"
       id="clipPath267">
      <path
         d="M 0,500 H 500 V 0 H 0 Z"
         transform="translate(-366.62991,-360.85061)"
         id="path267" />
    </clipPath>
    <clipPath
       clipPathUnits="userSpaceOnUse"
       id="clipPath269">
      <path
         d="M 0,500 H 500 V 0 H 0 Z"
         transform="translate(-379.46191,-345.76951)"
         id="path269" />
    </clipPath>
    <clipPath
       clipPathUnits="userSpaceOnUse"
       id="clipPath271">
      <path
         d="M 0,500 H 500 V 0 H 0 Z"
         transform="translate(-402.37011,-346.79591)"
         id="path271" />
    </clipPath>
    <clipPath
       clipPathUnits="userSpaceOnUse"
       id="clipPath273">
      <path
         d="M 0,500 H 500 V 0 H 0 Z"
         transform="translate(-406.86231,-356.97271)"
         id="path273" />
    </clipPath>
    <clipPath
       clipPathUnits="userSpaceOnUse"
       id="clipPath275">
      <path
         d="M 0,500 H 500 V 0 H 0 Z"
         transform="translate(-407.42581,-363.01371)"
         id="path275" />
    </clipPath>
    <clipPath
       clipPathUnits="userSpaceOnUse"
       id="clipPath277">
      <path
         d="M 0,500 H 500 V 0 H 0 Z"
         transform="translate(-411.21871,-359.43951)"
         id="path277" />
    </clipPath>
    <clipPath
       clipPathUnits="userSpaceOnUse"
       id="clipPath279">
      <path
         d="M 0,500 H 500 V 0 H 0 Z"
         transform="translate(-408.49121,-354.62741)"
         id="path279" />
    </clipPath>
    <clipPath
       clipPathUnits="userSpaceOnUse"
       id="clipPath281">
      <path
         d="M 0,500 H 500 V 0 H 0 Z"
         transform="translate(-408.18551,-369.92721)"
         id="path281" />
    </clipPath>
    <clipPath
       clipPathUnits="userSpaceOnUse"
       id="clipPath283">
      <path
         d="M 0,500 H 500 V 0 H 0 Z"
         transform="translate(-374.12501,-352.08251)"
         id="path283" />
    </clipPath>
    <clipPath
       clipPathUnits="userSpaceOnUse"
       id="clipPath285">
      <path
         d="M 0,500 H 500 V 0 H 0 Z"
         transform="translate(-375.82521,-361.69041)"
         id="path285" />
    </clipPath>
    <clipPath
       clipPathUnits="userSpaceOnUse"
       id="clipPath287">
      <path
         d="M 0,500 H 500 V 0 H 0 Z"
         transform="translate(-371.84281,-359.94871)"
         id="path287" />
    </clipPath>
    <clipPath
       clipPathUnits="userSpaceOnUse"
       id="clipPath289">
      <path
         d="M 0,500 H 500 V 0 H 0 Z"
         transform="translate(-380.79591,-363.42821)"
         id="path289" />
    </clipPath>
    <clipPath
       clipPathUnits="userSpaceOnUse"
       id="clipPath291">
      <path
         d="M 0,500 H 500 V 0 H 0 Z"
         transform="translate(-382.23141,-360.11431)"
         id="path291" />
    </clipPath>
    <clipPath
       clipPathUnits="userSpaceOnUse"
       id="clipPath293">
      <path
         d="M 0,500 H 500 V 0 H 0 Z"
         transform="translate(-361.54591,-341.19631)"
         id="path293" />
    </clipPath>
    <clipPath
       clipPathUnits="userSpaceOnUse"
       id="clipPath295">
      <path
         d="M 0,500 H 500 V 0 H 0 Z"
         transform="translate(-385.49221,-388.32321)"
         id="path295" />
    </clipPath>
    <clipPath
       clipPathUnits="userSpaceOnUse"
       id="clipPath297">
      <path
         d="M 0,500 H 500 V 0 H 0 Z"
         transform="translate(-393.78521,-381.25001)"
         id="path297" />
    </clipPath>
    <clipPath
       clipPathUnits="userSpaceOnUse"
       id="clipPath299">
      <path
         d="M 0,500 H 500 V 0 H 0 Z"
         transform="translate(-414.32911,-351.28661)"
         id="path299" />
    </clipPath>
    <clipPath
       clipPathUnits="userSpaceOnUse"
       id="clipPath301">
      <path
         d="M 0,500 H 500 V 0 H 0 Z"
         transform="translate(-414.47561,-349.33351)"
         id="path301" />
    </clipPath>
    <clipPath
       clipPathUnits="userSpaceOnUse"
       id="clipPath303">
      <path
         d="M 0,500 H 500 V 0 H 0 Z"
         transform="translate(-414.27541,-369.88431)"
         id="path303" />
    </clipPath>
    <clipPath
       clipPathUnits="userSpaceOnUse"
       id="clipPath305">
      <path
         d="M 0,500 H 500 V 0 H 0 Z"
         transform="translate(-359.72461,-378.10161)"
         id="path305" />
    </clipPath>
    <clipPath
       clipPathUnits="userSpaceOnUse"
       id="clipPath451-9-1">
      <path
         d="M 0,500 H 500 V 0 H 0 Z"
         transform="translate(-132.37701,-197.4209)"
         id="path451-6-1" />
    </clipPath>
    <clipPath
       clipPathUnits="userSpaceOnUse"
       id="clipPath455-7-5">
      <path
         d="M 0,500 H 500 V 0 H 0 Z"
         transform="translate(-134.3242,-224.06351)"
         id="path455-9-6" />
    </clipPath>
    <clipPath
       clipPathUnits="userSpaceOnUse"
       id="clipPath459-0-7">
      <path
         d="M 0,500 H 500 V 0 H 0 Z"
         transform="translate(-120.5308,-211.51071)"
         id="path459-5-3" />
    </clipPath>
    <clipPath
       clipPathUnits="userSpaceOnUse"
       id="clipPath463-3-6">
      <path
         d="M 0,500 H 500 V 0 H 0 Z"
         transform="translate(-124.6455,-191.5967)"
         id="path463-7-0" />
    </clipPath>
    <clipPath
       clipPathUnits="userSpaceOnUse"
       id="clipPath467-3-1">
      <path
         d="M 0,500 H 500 V 0 H 0 Z"
         transform="translate(-139.0786,-208.04591)"
         id="path467-1-3" />
    </clipPath>
    <clipPath
       clipPathUnits="userSpaceOnUse"
       id="clipPath469-7-8">
      <path
         d="M 0,500 H 500 V 0 H 0 Z"
         transform="translate(-128.4082,-185.2139)"
         id="path469-8-5" />
    </clipPath>
    <clipPath
       clipPathUnits="userSpaceOnUse"
       id="clipPath169">
      <path
         d="M 0,500 H 500 V 0 H 0 Z"
         transform="translate(-289.22271,-394.23001)"
         id="path169" />
    </clipPath>
    <clipPath
       clipPathUnits="userSpaceOnUse"
       id="clipPath171">
      <path
         d="M 0,500 H 500 V 0 H 0 Z"
         transform="translate(-270.26461,-415.48731)"
         id="path171" />
    </clipPath>
    <clipPath
       clipPathUnits="userSpaceOnUse"
       id="clipPath175">
      <path
         d="M 0,500 H 500 V 0 H 0 Z"
         transform="translate(-275.9053,-397.17241)"
         id="path175" />
    </clipPath>
    <clipPath
       clipPathUnits="userSpaceOnUse"
       id="clipPath177">
      <path
         d="M 0,500 H 500 V 0 H 0 Z"
         transform="translate(-262.09671,-419.63331)"
         id="path177" />
    </clipPath>
    <clipPath
       clipPathUnits="userSpaceOnUse"
       id="clipPath181">
      <path
         d="M 0,500 H 500 V 0 H 0 Z"
         transform="translate(-281.6074,-388.07031)"
         id="path181" />
    </clipPath>
    <clipPath
       clipPathUnits="userSpaceOnUse"
       id="clipPath183">
      <path
         d="M 0,500 H 500 V 0 H 0 Z"
         transform="translate(-294.7471,-397.62651)"
         id="path183" />
    </clipPath>
    <clipPath
       clipPathUnits="userSpaceOnUse"
       id="clipPath187">
      <path
         d="M 0,500 H 500 V 0 H 0 Z"
         transform="translate(-281.6377,-404.52981)"
         id="path187" />
    </clipPath>
    <clipPath
       clipPathUnits="userSpaceOnUse"
       id="clipPath189">
      <path
         d="M 0,500 H 500 V 0 H 0 Z"
         transform="translate(-255.9883,-395.75731)"
         id="path189" />
    </clipPath>
    <clipPath
       clipPathUnits="userSpaceOnUse"
       id="clipPath199">
      <path
         d="M 0,500 H 500 V 0 H 0 Z"
         transform="translate(-257.22951,-400.86621)"
         id="path199" />
    </clipPath>
    <clipPath
       clipPathUnits="userSpaceOnUse"
       id="clipPath203">
      <path
         d="M 0,500 H 500 V 0 H 0 Z"
         transform="translate(-261.457,-395.69871)"
         id="path203" />
    </clipPath>
    <clipPath
       clipPathUnits="userSpaceOnUse"
       id="clipPath205">
      <path
         d="M 0,500 H 500 V 0 H 0 Z"
         transform="translate(-256.8232,-399.21001)"
         id="path205" />
    </clipPath>
    <clipPath
       clipPathUnits="userSpaceOnUse"
       id="clipPath207">
      <path
         d="M 0,500 H 500 V 0 H 0 Z"
         transform="translate(-265.65141,-398.76511)"
         id="path207" />
    </clipPath>
  </defs>
  <g
     inkscape:label="Capa 1"
     inkscape:groupmode="layer"
     id="layer1"
     transform="translate(-80.890763,-73.579595)">
    <path
       id="path450"
       d="m 0,0 c -0.886,0.166 -1.312,0.775 -1.829,1.197 -0.622,0.508 -1.339,0.953 -1.781,1.739 0.589,0.195 1.021,-0.065 1.476,-0.17 0.598,-0.137 0.922,0.17 0.836,0.795 C -1.333,3.818 -1.449,4.064 -1.489,4.322 -1.688,5.607 -1.59,6.838 -0.756,8.037 -0.625,7.846 -0.485,7.73 -0.454,7.59 -0.331,7.037 -0.212,6.48 -0.146,5.918 0.086,4.004 0.068,2.082 0,0 M 1.448,-2.574 C 1.447,-2.23 1.368,-1.885 1.313,-1.543 1.273,-1.287 1.137,-1.023 1.18,-0.787 1.512,1.088 1.391,2.979 1.412,4.865 1.424,5.973 1.266,7.057 1.021,8.131 0.934,8.512 0.819,8.896 0.659,9.254 0.328,9.998 -0.462,10.164 -1.067,9.631 -1.262,9.459 -1.458,9.254 -1.568,9.025 -1.906,8.316 -2.274,7.609 -2.499,6.861 -2.709,6.158 -2.75,5.406 -2.892,4.508 -3.276,4.629 -3.562,4.721 -3.848,4.807 -4.183,4.906 -4.516,5.031 -4.859,5.092 -5.284,5.166 -5.627,5.012 -5.862,4.625 -6.377,3.773 -6.332,3.158 -5.671,2.346 c 0.138,-0.17 0.274,-0.344 0.428,-0.5 1.204,-1.219 2.488,-2.348 3.851,-3.389 0.522,-0.396 1.045,-0.793 1.569,-1.187 0.138,-0.106 0.273,-0.223 0.425,-0.303 0.402,-0.213 0.847,0.017 0.846,0.459"
       style="fill:#bd9500;fill-opacity:0.854902;fill-rule:nonzero;stroke:none"
       transform="matrix(0.42076362,0,0,-0.35687265,86.645542,98.623606)"
       clip-path="url(#clipPath451)" />
    <path
       id="path454"
       d="m 0,0 c 0.301,-0.18 0.576,-0.4 0.88,-0.574 0.369,-0.207 0.844,0.025 0.903,0.447 0.096,0.689 0.164,1.383 0.244,2.074 0.03,0.262 0.049,0.524 0.094,0.783 0.045,0.266 0.136,0.518 0.44,0.584 C 2.748,3.354 2.957,3.078 2.981,2.74 3.055,1.73 3.075,0.721 2.792,-0.266 2.54,-1.148 2.281,-2.031 1.991,-3.031 0.883,-2.279 -0.106,-1.002 -0.468,0.057 -0.292,0.219 -0.137,0.084 0,0 m -2.337,-0.543 c 0.661,-1.248 1.479,-2.387 2.52,-3.342 0.513,-0.474 1.083,-0.892 1.662,-1.283 0.474,-0.322 0.859,-0.146 1.009,0.377 0.155,0.545 0.271,1.107 0.48,1.629 0.543,1.351 0.893,2.756 1.101,4.185 C 4.542,1.754 4.514,2.512 4.49,3.252 4.474,3.736 4.321,4.199 3.979,4.576 3.554,5.045 3.125,5.152 2.567,4.865 1.696,4.42 1.154,3.701 0.938,2.748 0.853,2.369 0.813,1.979 0.738,1.5 0.46,1.67 0.243,1.801 0.031,1.934 -0.263,2.121 -0.539,2.348 -0.851,2.494 -1.226,2.668 -1.633,2.658 -1.978,2.396 -2.71,1.84 -2.937,1.066 -2.64,0.186 c 0.083,-0.25 0.18,-0.498 0.303,-0.729"
       style="fill:#bd9500;fill-opacity:0.854902;fill-rule:nonzero;stroke:none"
       transform="matrix(0.42076362,0,0,-0.35687265,87.464851,89.115593)"
       clip-path="url(#clipPath455)" />
    <path
       id="path454-6"
       d="m 0,0 c 0.301,-0.18 0.576,-0.4 0.88,-0.574 0.369,-0.207 0.844,0.025 0.903,0.447 0.096,0.689 0.164,1.383 0.244,2.074 0.03,0.262 0.049,0.524 0.094,0.783 0.045,0.266 0.136,0.518 0.44,0.584 C 2.748,3.354 2.957,3.078 2.981,2.74 3.055,1.73 3.075,0.721 2.792,-0.266 2.54,-1.148 2.281,-2.031 1.991,-3.031 0.883,-2.279 -0.106,-1.002 -0.468,0.057 -0.292,0.219 -0.137,0.084 0,0 m -2.337,-0.543 c 0.661,-1.248 1.479,-2.387 2.52,-3.342 0.513,-0.474 1.083,-0.892 1.662,-1.283 0.474,-0.322 0.859,-0.146 1.009,0.377 0.155,0.545 0.271,1.107 0.48,1.629 0.543,1.351 0.893,2.756 1.101,4.185 C 4.542,1.754 4.514,2.512 4.49,3.252 4.474,3.736 4.321,4.199 3.979,4.576 3.554,5.045 3.125,5.152 2.567,4.865 1.696,4.42 1.154,3.701 0.938,2.748 0.853,2.369 0.813,1.979 0.738,1.5 0.46,1.67 0.243,1.801 0.031,1.934 -0.263,2.121 -0.539,2.348 -0.851,2.494 -1.226,2.668 -1.633,2.658 -1.978,2.396 -2.71,1.84 -2.937,1.066 -2.64,0.186 c 0.083,-0.25 0.18,-0.498 0.303,-0.729"
       style="fill:#be9500;fill-opacity:1;fill-rule:nonzero;stroke:none"
       transform="matrix(0.42076362,0,0,-0.35687265,95.093281,81.39746)"
       clip-path="url(#clipPath455-14)" />
    <path
       id="path458"
       d="M 0,0 C -0.362,0.037 -0.588,0.387 -0.582,0.896 -0.577,1.227 -0.325,1.418 0.052,1.379 0.428,1.34 0.677,1.049 0.659,0.67 0.642,0.285 0.329,-0.033 0,0 M -0.136,2.287 C -0.288,2.203 -0.458,2.154 -0.613,2.072 c -0.889,-0.459 -1.349,-1.394 -1.185,-2.4 0.127,-0.785 0.761,-1.305 1.651,-1.276 0.08,0.018 0.256,0.036 0.419,0.09 0.85,0.289 1.716,1.567 1.673,2.465 -0.052,1.07 -1.006,1.934 -2.081,1.336"
       style="fill:#bd9500;fill-opacity:0.854902;fill-rule:nonzero;stroke:none"
       transform="matrix(0.42076362,0,0,-0.35687265,81.66109,93.595349)"
       clip-path="url(#clipPath459)" />
    <path
       id="path462"
       d="m 0,0 c -0.399,0.215 -0.851,0.305 -1.241,0.02 -0.628,-0.457 -1.01,-1.081 -0.967,-1.889 0.039,-0.77 0.61,-1.268 1.411,-1.246 0.333,0.027 0.724,0.088 0.877,0.427 0.227,0.508 0.431,1.051 0.506,1.598 C 0.646,-0.658 0.421,-0.227 0,0"
       style="fill:#bd9500;fill-opacity:0.854902;fill-rule:nonzero;stroke:none"
       transform="matrix(0.42076362,0,0,-0.35687265,83.392407,100.70211)"
       clip-path="url(#clipPath463)" />
    <path
       id="path466"
       d="M 0,0 C 0.391,-0.178 1.095,-0.049 1.285,0.309 1.528,0.762 1.686,1.258 1.825,1.602 1.769,2.189 1.579,2.51 1.185,2.689 0.791,2.871 0.422,2.832 0.095,2.541 -0.305,2.182 -0.577,1.734 -0.724,1.227 -0.874,0.711 -0.593,0.268 0,0"
       style="fill:#bd9500;fill-opacity:0.854902;fill-rule:nonzero;stroke:none"
       transform="matrix(0.42076362,0,0,-0.35687265,89.46533,94.831837)"
       clip-path="url(#clipPath467)" />
    <path
       id="path468"
       d="m 0,0 c -0.318,-0.027 -0.589,-0.166 -0.702,-0.492 -0.087,-0.246 -0.199,-0.496 -0.209,-0.748 -0.008,-0.194 0.075,-0.44 0.205,-0.578 0.314,-0.338 0.733,-0.496 1.183,-0.309 0.392,0.162 0.338,0.565 0.392,0.992 -0.02,0.127 -0.03,0.348 -0.088,0.553 C 0.688,-0.25 0.322,0.025 0,0"
       style="fill:#bd9500;fill-opacity:0.854902;fill-rule:nonzero;stroke:none"
       transform="matrix(0.42076362,0,0,-0.35687265,84.975613,102.97995)"
       clip-path="url(#clipPath469)" />
    <path
       id="path450-72"
       d="m 0,0 c -0.886,0.166 -1.312,0.775 -1.829,1.197 -0.622,0.508 -1.339,0.953 -1.781,1.739 0.589,0.195 1.021,-0.065 1.476,-0.17 0.598,-0.137 0.922,0.17 0.836,0.795 C -1.333,3.818 -1.449,4.064 -1.489,4.322 -1.688,5.607 -1.59,6.838 -0.756,8.037 -0.625,7.846 -0.485,7.73 -0.454,7.59 -0.331,7.037 -0.212,6.48 -0.146,5.918 0.086,4.004 0.068,2.082 0,0 M 1.448,-2.574 C 1.447,-2.23 1.368,-1.885 1.313,-1.543 1.273,-1.287 1.137,-1.023 1.18,-0.787 1.512,1.088 1.391,2.979 1.412,4.865 1.424,5.973 1.266,7.057 1.021,8.131 0.934,8.512 0.819,8.896 0.659,9.254 0.328,9.998 -0.462,10.164 -1.067,9.631 -1.262,9.459 -1.458,9.254 -1.568,9.025 -1.906,8.316 -2.274,7.609 -2.499,6.861 -2.709,6.158 -2.75,5.406 -2.892,4.508 -3.276,4.629 -3.562,4.721 -3.848,4.807 -4.183,4.906 -4.516,5.031 -4.859,5.092 -5.284,5.166 -5.627,5.012 -5.862,4.625 -6.377,3.773 -6.332,3.158 -5.671,2.346 c 0.138,-0.17 0.274,-0.344 0.428,-0.5 1.204,-1.219 2.488,-2.348 3.851,-3.389 0.522,-0.396 1.045,-0.793 1.569,-1.187 0.138,-0.106 0.273,-0.223 0.425,-0.303 0.402,-0.213 0.847,0.017 0.846,0.459"
       style="fill:#be9500;fill-opacity:1;fill-rule:nonzero;stroke:none"
       transform="matrix(0.42076362,0,0,-0.35687265,107.7379,80.404153)"
       clip-path="url(#clipPath451-53)" />
    <path
       id="path458-3"
       d="M 0,0 C -0.362,0.037 -0.588,0.387 -0.582,0.896 -0.577,1.227 -0.325,1.418 0.052,1.379 0.428,1.34 0.677,1.049 0.659,0.67 0.642,0.285 0.329,-0.033 0,0 M -0.136,2.287 C -0.288,2.203 -0.458,2.154 -0.613,2.072 c -0.889,-0.459 -1.349,-1.394 -1.185,-2.4 0.127,-0.785 0.761,-1.305 1.651,-1.276 0.08,0.018 0.256,0.036 0.419,0.09 0.85,0.289 1.716,1.567 1.673,2.465 -0.052,1.07 -1.006,1.934 -2.081,1.336"
       style="fill:#be9500;fill-opacity:1;fill-rule:nonzero;stroke:none"
       transform="matrix(0.42076362,0,0,-0.35687265,102.75344,75.375896)"
       clip-path="url(#clipPath459-8)" />
    <path
       id="path462-4"
       d="m 0,0 c -0.399,0.215 -0.851,0.305 -1.241,0.02 -0.628,-0.457 -1.01,-1.081 -0.967,-1.889 0.039,-0.77 0.61,-1.268 1.411,-1.246 0.333,0.027 0.724,0.088 0.877,0.427 0.227,0.508 0.431,1.051 0.506,1.598 C 0.646,-0.658 0.421,-0.227 0,0"
       style="fill:#be9500;fill-opacity:1;fill-rule:nonzero;stroke:none"
       transform="matrix(0.42076362,0,0,-0.35687265,101.27701,79.274901)"
       clip-path="url(#clipPath463-5)" />
    <path
       id="path450-7"
       d="m 0,0 c -0.886,0.166 -1.312,0.775 -1.829,1.197 -0.622,0.508 -1.339,0.953 -1.781,1.739 0.589,0.195 1.021,-0.065 1.476,-0.17 0.598,-0.137 0.922,0.17 0.836,0.795 C -1.333,3.818 -1.449,4.064 -1.489,4.322 -1.688,5.607 -1.59,6.838 -0.756,8.037 -0.625,7.846 -0.485,7.73 -0.454,7.59 -0.331,7.037 -0.212,6.48 -0.146,5.918 0.086,4.004 0.068,2.082 0,0 M 1.448,-2.574 C 1.447,-2.23 1.368,-1.885 1.313,-1.543 1.273,-1.287 1.137,-1.023 1.18,-0.787 1.512,1.088 1.391,2.979 1.412,4.865 1.424,5.973 1.266,7.057 1.021,8.131 0.934,8.512 0.819,8.896 0.659,9.254 0.328,9.998 -0.462,10.164 -1.067,9.631 -1.262,9.459 -1.458,9.254 -1.568,9.025 -1.906,8.316 -2.274,7.609 -2.499,6.861 -2.709,6.158 -2.75,5.406 -2.892,4.508 -3.276,4.629 -3.562,4.721 -3.848,4.807 -4.183,4.906 -4.516,5.031 -4.859,5.092 -5.284,5.166 -5.627,5.012 -5.862,4.625 -6.377,3.773 -6.332,3.158 -5.671,2.346 c 0.138,-0.17 0.274,-0.344 0.428,-0.5 1.204,-1.219 2.488,-2.348 3.851,-3.389 0.522,-0.396 1.045,-0.793 1.569,-1.187 0.138,-0.106 0.273,-0.223 0.425,-0.303 0.402,-0.213 0.847,0.017 0.846,0.459"
       style="fill:#bd9500;fill-opacity:0.854902;fill-rule:nonzero;stroke:none"
       transform="matrix(0.35277776,0,0,-0.35277776,89.917795,104.02235)"
       clip-path="url(#clipPath451-1)" />
    <path
       id="path458-8"
       d="M 0,0 C -0.362,0.037 -0.588,0.387 -0.582,0.896 -0.577,1.227 -0.325,1.418 0.052,1.379 0.428,1.34 0.677,1.049 0.659,0.67 0.642,0.285 0.329,-0.033 0,0 M -0.136,2.287 C -0.288,2.203 -0.458,2.154 -0.613,2.072 c -0.889,-0.459 -1.349,-1.394 -1.185,-2.4 0.127,-0.785 0.761,-1.305 1.651,-1.276 0.08,0.018 0.256,0.036 0.419,0.09 0.85,0.289 1.716,1.567 1.673,2.465 -0.052,1.07 -1.006,1.934 -2.081,1.336"
       style="fill:#bd9500;fill-opacity:0.854902;fill-rule:nonzero;stroke:none"
       transform="matrix(0.35277776,0,0,-0.35277776,90.075025,97.984383)"
       clip-path="url(#clipPath459-2)" />
    <path
       id="path462-1"
       d="m 0,0 c -0.399,0.215 -0.851,0.305 -1.241,0.02 -0.628,-0.457 -1.01,-1.081 -0.967,-1.889 0.039,-0.77 0.61,-1.268 1.411,-1.246 0.333,0.027 0.724,0.088 0.877,0.427 0.227,0.508 0.431,1.051 0.506,1.598 C 0.646,-0.658 0.421,-0.227 0,0"
       style="fill:#bd9500;fill-opacity:0.854902;fill-rule:nonzero;stroke:none"
       transform="matrix(0.35277776,0,0,-0.35277776,91.526601,105.0096)"
       clip-path="url(#clipPath463-6)" />
    <path
       id="path466-5"
       d="M 0,0 C 0.391,-0.178 1.095,-0.049 1.285,0.309 1.528,0.762 1.686,1.258 1.825,1.602 1.769,2.189 1.579,2.51 1.185,2.689 0.791,2.871 0.422,2.832 0.095,2.541 -0.305,2.182 -0.577,1.734 -0.724,1.227 -0.874,0.711 -0.593,0.268 0,0"
       style="fill:#be9500;fill-opacity:1;fill-rule:nonzero;stroke:none"
       transform="matrix(0.35277776,0,0,-0.35277776,84.076341,106.2782)"
       clip-path="url(#clipPath467-7)" />
    <path
       id="path168"
       d="M 0,0 C 0.521,0.527 1.141,1.121 0.46,2.146 -0.1,1.76 -0.624,1.399 -1.299,0.935 -1.412,2.674 -1.518,4.281 -1.624,5.909 -3.056,5.882 -2.837,4.935 -2.872,4.264 -2.922,3.296 -2.831,2.323 -2.817,1.352 -2.815,1.254 -2.924,1.154 -2.979,1.058 c -0.352,0.154 -0.673,0.296 -1.302,0.571 0.263,-0.93 0.446,-1.575 0.641,-2.267 -0.709,-0.124 -1.363,-0.239 -2.125,-0.373 0.022,-0.398 0.04,-0.743 0.059,-1.095 0.64,-0.148 1.156,-0.269 1.642,-0.382 -0.165,-0.668 -0.312,-1.265 -0.458,-1.863 0.108,-0.053 0.218,-0.107 0.328,-0.161 0.438,0.348 0.876,0.697 1.473,1.171 0.085,-0.553 0.152,-0.951 0.207,-1.351 0.147,-1.084 0.278,-2.171 0.438,-3.253 0.069,-0.474 0.17,-0.973 1.003,-0.651 v 5.597 c 0.707,-0.345 1.136,-0.555 1.567,-0.765 0.074,0.066 0.15,0.132 0.224,0.199 -0.249,0.533 -0.499,1.066 -0.781,1.669 0.507,0.15 0.971,0.286 1.378,0.406 C 1.735,-0.175 0.356,-0.681 0,0"
       style="fill:#be9500;fill-opacity:1;fill-rule:nonzero;stroke:none"
       transform="matrix(0.35277776,0,0,-0.35277776,93.144288,85.187148)"
       clip-path="url(#clipPath169)" />
    <path
       id="path170"
       d="m 0,0 c -0.506,-0.151 -0.776,-0.232 -1.069,-0.319 -0.125,0.928 -0.24,1.786 -0.357,2.644 h -0.38 c -0.921,-0.819 -0.275,-2.134 -0.771,-3.11 -0.294,0.251 -0.535,0.457 -0.967,0.827 v -1.834 c -0.906,0.004 -1.397,-0.355 -1.317,-1.357 0.513,-0.113 1.036,-0.227 1.544,-0.337 -0.064,-0.711 -0.916,-1.164 -0.381,-2.104 0.4,0.376 0.735,0.692 1.199,1.128 0.074,-1.035 0.136,-1.972 0.214,-2.908 0.051,-0.602 0.245,-1.041 1.111,-0.744 v 2.583 c 0.434,0.061 0.741,0.104 1.183,0.165 -0.363,0.701 -0.668,1.287 -0.962,1.853 0.663,0.625 2.065,-0.06 2.14,1.5 -0.609,0.156 -1.202,0.308 -1.804,0.462 C -0.414,-1.042 -0.241,-0.609 0,0"
       style="fill:#be9500;fill-opacity:1;fill-rule:nonzero;stroke:none"
       transform="matrix(0.35277776,0,0,-0.35277776,86.456291,77.688044)"
       clip-path="url(#clipPath171)" />
    <path
       id="path174"
       d="m 0,0 c -0.47,0 -0.85,-0.38 -0.85,-0.85 0,-0.469 0.38,-0.85 0.85,-0.85 0.47,0 0.85,0.381 0.85,0.85 C 0.85,-0.38 0.47,0 0,0"
       style="fill:#be9500;fill-opacity:1;fill-rule:nonzero;stroke:none"
       transform="matrix(0.35277776,0,0,-0.35277776,88.446204,84.149135)"
       clip-path="url(#clipPath175)" />
    <path
       id="path176"
       d="m 0,0 c -0.588,0 -1.062,-0.475 -1.062,-1.062 0,-0.586 0.474,-1.062 1.062,-1.062 0.585,0 1.062,0.476 1.062,1.062 C 1.062,-0.475 0.585,0 0,0"
       style="fill:#be9500;fill-opacity:1;fill-rule:nonzero;stroke:none"
       transform="matrix(0.35277776,0,0,-0.35277776,83.574838,76.225427)"
       clip-path="url(#clipPath177)" />
    <path
       id="path180"
       d="m 0,0 c -0.733,0 -1.329,-0.594 -1.329,-1.327 0,-0.733 0.596,-1.328 1.329,-1.328 0.733,0 1.327,0.595 1.327,1.328 C 1.327,-0.594 0.733,0 0,0"
       style="fill:#be9500;fill-opacity:1;fill-rule:nonzero;stroke:none"
       transform="matrix(0.35277776,0,0,-0.35277776,90.457778,87.360152)"
       clip-path="url(#clipPath181)" />
    <path
       id="path182"
       d="m 0,0 c -0.551,0 -0.997,-0.445 -0.997,-0.995 0,-0.55 0.446,-0.996 0.997,-0.996 0.55,0 0.995,0.446 0.995,0.996 C 0.995,-0.445 0.55,0 0,0"
       style="fill:#be9500 icc-color(Adobe-RGB-1998, 0.69799805, 0.57998657, 0.13299561);fill-opacity:1;fill-rule:nonzero;stroke:none"
       transform="matrix(0.35277776,0,0,-0.35277776,95.093172,83.988937)"
       clip-path="url(#clipPath183)" />
    <path
       id="path186"
       d="m 0,0 c -0.057,-0.559 -0.434,-1.073 -0.917,-1.351 -0.353,-0.202 -0.744,-0.162 -0.876,0.251 -0.092,0.29 -0.08,0.634 -0.072,0.94 0.016,0.005 0.029,0.008 0.061,0.019 0.153,0.048 0.295,0.106 0.452,0.146 0.222,0.056 0.223,0.392 0,0.447 -0.094,0.024 -0.191,0.051 -0.289,0.076 0.352,0.168 0.708,0.336 1.097,0.388 C 0.092,1 0.043,0.435 0,0 M -0.073,1.523 C -0.728,1.654 -1.452,1.196 -2.003,0.908 -2.149,0.831 -2.153,0.685 -2.084,0.579 -2.257,0.572 -2.423,0.529 -2.567,0.379 -2.895,0.038 -2.87,-0.696 -2.805,-1.119 c 0.162,-1.059 1.109,-1.599 2.112,-1.235 1.014,0.37 1.573,1.481 1.552,2.509 -0.013,0.662 -0.208,1.224 -0.932,1.368"
       style="fill:#be9500;fill-opacity:1;fill-rule:nonzero;stroke:none"
       transform="matrix(0.35277776,0,0,-0.35277776,90.468467,81.553607)"
       clip-path="url(#clipPath187)" />
    <path
       id="path188"
       d="M 0,0 C 0.018,0.009 0.032,0.014 0.049,0.022 0.057,0.043 0.063,0.063 0.063,0.063 Z"
       style="fill:#514527 icc-color(Adobe-RGB-1998, 0.30999756, 0.27799988, 0.17599487);fill-opacity:1;fill-rule:evenodd;stroke:none"
       transform="matrix(0.35277776,0,0,-0.35277776,81.419929,84.64835)"
       clip-path="url(#clipPath189)" />
    <path
       id="path468-0"
       d="m 0,0 c -0.318,-0.027 -0.589,-0.166 -0.702,-0.492 -0.087,-0.246 -0.199,-0.496 -0.209,-0.748 -0.008,-0.194 0.075,-0.44 0.205,-0.578 0.314,-0.338 0.733,-0.496 1.183,-0.309 0.392,0.162 0.338,0.565 0.392,0.992 -0.02,0.127 -0.03,0.348 -0.088,0.553 C 0.688,-0.25 0.322,0.025 0,0"
       style="fill:#bd9500;fill-opacity:0.854902;fill-rule:nonzero;stroke:none"
       transform="matrix(0.35277776,0,0,-0.35277776,92.853997,107.26131)"
       clip-path="url(#clipPath469-5)" />
    <path
       id="path450-3"
       d="m 0,0 c -0.886,0.166 -1.312,0.775 -1.829,1.197 -0.622,0.508 -1.339,0.953 -1.781,1.739 0.589,0.195 1.021,-0.065 1.476,-0.17 0.598,-0.137 0.922,0.17 0.836,0.795 C -1.333,3.818 -1.449,4.064 -1.489,4.322 -1.688,5.607 -1.59,6.838 -0.756,8.037 -0.625,7.846 -0.485,7.73 -0.454,7.59 -0.331,7.037 -0.212,6.48 -0.146,5.918 0.086,4.004 0.068,2.082 0,0 M 1.448,-2.574 C 1.447,-2.23 1.368,-1.885 1.313,-1.543 1.273,-1.287 1.137,-1.023 1.18,-0.787 1.512,1.088 1.391,2.979 1.412,4.865 1.424,5.973 1.266,7.057 1.021,8.131 0.934,8.512 0.819,8.896 0.659,9.254 0.328,9.998 -0.462,10.164 -1.067,9.631 -1.262,9.459 -1.458,9.254 -1.568,9.025 -1.906,8.316 -2.274,7.609 -2.499,6.861 -2.709,6.158 -2.75,5.406 -2.892,4.508 -3.276,4.629 -3.562,4.721 -3.848,4.807 -4.183,4.906 -4.516,5.031 -4.859,5.092 -5.284,5.166 -5.627,5.012 -5.862,4.625 -6.377,3.773 -6.332,3.158 -5.671,2.346 c 0.138,-0.17 0.274,-0.344 0.428,-0.5 1.204,-1.219 2.488,-2.348 3.851,-3.389 0.522,-0.396 1.045,-0.793 1.569,-1.187 0.138,-0.106 0.273,-0.223 0.425,-0.303 0.402,-0.213 0.847,0.017 0.846,0.459"
       style="fill:#be9500;fill-opacity:1;fill-rule:nonzero;stroke:none;stroke-width:1.00063;stroke-dasharray:none"
       transform="matrix(0.35277776,0,0,-0.35277776,114.70427,81.735963)"
       clip-path="url(#clipPath451-9)" />
    <path
       id="path454-4"
       d="m 0,0 c 0.301,-0.18 0.576,-0.4 0.88,-0.574 0.369,-0.207 0.844,0.025 0.903,0.447 0.096,0.689 0.164,1.383 0.244,2.074 0.03,0.262 0.049,0.524 0.094,0.783 0.045,0.266 0.136,0.518 0.44,0.584 C 2.748,3.354 2.957,3.078 2.981,2.74 3.055,1.73 3.075,0.721 2.792,-0.266 2.54,-1.148 2.281,-2.031 1.991,-3.031 0.883,-2.279 -0.106,-1.002 -0.468,0.057 -0.292,0.219 -0.137,0.084 0,0 m -2.337,-0.543 c 0.661,-1.248 1.479,-2.387 2.52,-3.342 0.513,-0.474 1.083,-0.892 1.662,-1.283 0.474,-0.322 0.859,-0.146 1.009,0.377 0.155,0.545 0.271,1.107 0.48,1.629 0.543,1.351 0.893,2.756 1.101,4.185 C 4.542,1.754 4.514,2.512 4.49,3.252 4.474,3.736 4.321,4.199 3.979,4.576 3.554,5.045 3.125,5.152 2.567,4.865 1.696,4.42 1.154,3.701 0.938,2.748 0.853,2.369 0.813,1.979 0.738,1.5 0.46,1.67 0.243,1.801 0.031,1.934 -0.263,2.121 -0.539,2.348 -0.851,2.494 -1.226,2.668 -1.633,2.658 -1.978,2.396 -2.71,1.84 -2.937,1.066 -2.64,0.186 c 0.083,-0.25 0.18,-0.498 0.303,-0.729"
       style="fill:#be9500;fill-opacity:1;fill-rule:nonzero;stroke:none"
       transform="matrix(0.35277776,0,0,-0.35277776,116.90073,77.809091)"
       clip-path="url(#clipPath455-7)" />
    <path
       id="path458-2"
       d="M 0,0 C -0.362,0.037 -0.588,0.387 -0.582,0.896 -0.577,1.227 -0.325,1.418 0.052,1.379 0.428,1.34 0.677,1.049 0.659,0.67 0.642,0.285 0.329,-0.033 0,0 M -0.136,2.287 C -0.288,2.203 -0.458,2.154 -0.613,2.072 c -0.889,-0.459 -1.349,-1.394 -1.185,-2.4 0.127,-0.785 0.761,-1.305 1.651,-1.276 0.08,0.018 0.256,0.036 0.419,0.09 0.85,0.289 1.716,1.567 1.673,2.465 -0.052,1.07 -1.006,1.934 -2.081,1.336"
       style="fill:#be9500;fill-opacity:0.631373;fill-rule:nonzero;stroke:none"
       transform="matrix(0.35277776,0,0,-0.35277776,112.97818,78.274925)"
       clip-path="url(#clipPath459-0)" />
    <path
       id="path462-9"
       d="m 0,0 c -0.399,0.215 -0.851,0.305 -1.241,0.02 -0.628,-0.457 -1.01,-1.081 -0.967,-1.889 0.039,-0.77 0.61,-1.268 1.411,-1.246 0.333,0.027 0.724,0.088 0.877,0.427 0.227,0.508 0.431,1.051 0.506,1.598 C 0.646,-0.658 0.421,-0.227 0,0"
       style="fill:#be9500;fill-opacity:1;fill-rule:nonzero;stroke:none"
       transform="matrix(0.35277776,0,0,-0.35277776,122.49248,77.654695)"
       clip-path="url(#clipPath463-3)" />
    <path
       id="path466-57"
       d="M 0,0 C 0.391,-0.178 1.095,-0.049 1.285,0.309 1.528,0.762 1.686,1.258 1.825,1.602 1.769,2.189 1.579,2.51 1.185,2.689 0.791,2.871 0.422,2.832 0.095,2.541 -0.305,2.182 -0.577,1.734 -0.724,1.227 -0.874,0.711 -0.593,0.268 0,0"
       style="fill:#be9500;fill-opacity:1;fill-rule:nonzero;stroke:none"
       transform="matrix(0.35277776,0,0,-0.35277776,118.57798,83.459744)"
       clip-path="url(#clipPath467-3)" />
    <path
       id="path468-8"
       d="m 0,0 c -0.318,-0.027 -0.589,-0.166 -0.702,-0.492 -0.087,-0.246 -0.199,-0.496 -0.209,-0.748 -0.008,-0.194 0.075,-0.44 0.205,-0.578 0.314,-0.338 0.733,-0.496 1.183,-0.309 0.392,0.162 0.338,0.565 0.392,0.992 -0.02,0.127 -0.03,0.348 -0.088,0.553 C 0.688,-0.25 0.322,0.025 0,0"
       style="fill:#be9500;fill-opacity:1;fill-rule:nonzero;stroke:none"
       transform="matrix(0.35277776,0,0,-0.35277776,120.28412,80.907091)"
       clip-path="url(#clipPath469-7)" />
    <path
       id="path450-3-6"
       d="m 0,0 c -0.886,0.166 -1.312,0.775 -1.829,1.197 -0.622,0.508 -1.339,0.953 -1.781,1.739 0.589,0.195 1.021,-0.065 1.476,-0.17 0.598,-0.137 0.922,0.17 0.836,0.795 C -1.333,3.818 -1.449,4.064 -1.489,4.322 -1.688,5.607 -1.59,6.838 -0.756,8.037 -0.625,7.846 -0.485,7.73 -0.454,7.59 -0.331,7.037 -0.212,6.48 -0.146,5.918 0.086,4.004 0.068,2.082 0,0 M 1.448,-2.574 C 1.447,-2.23 1.368,-1.885 1.313,-1.543 1.273,-1.287 1.137,-1.023 1.18,-0.787 1.512,1.088 1.391,2.979 1.412,4.865 1.424,5.973 1.266,7.057 1.021,8.131 0.934,8.512 0.819,8.896 0.659,9.254 0.328,9.998 -0.462,10.164 -1.067,9.631 -1.262,9.459 -1.458,9.254 -1.568,9.025 -1.906,8.316 -2.274,7.609 -2.499,6.861 -2.709,6.158 -2.75,5.406 -2.892,4.508 -3.276,4.629 -3.562,4.721 -3.848,4.807 -4.183,4.906 -4.516,5.031 -4.859,5.092 -5.284,5.166 -5.627,5.012 -5.862,4.625 -6.377,3.773 -6.332,3.158 -5.671,2.346 c 0.138,-0.17 0.274,-0.344 0.428,-0.5 1.204,-1.219 2.488,-2.348 3.851,-3.389 0.522,-0.396 1.045,-0.793 1.569,-1.187 0.138,-0.106 0.273,-0.223 0.425,-0.303 0.402,-0.213 0.847,0.017 0.846,0.459"
       style="fill:#be9500;fill-opacity:1;fill-rule:nonzero;stroke:none;stroke-width:1.00063;stroke-dasharray:none"
       transform="matrix(0.35277776,0,0,-0.35277776,122.84526,87.599525)"
       clip-path="url(#clipPath451-9-1)" />
    <path
       id="path454-4-9"
       d="m 0,0 c 0.301,-0.18 0.576,-0.4 0.88,-0.574 0.369,-0.207 0.844,0.025 0.903,0.447 0.096,0.689 0.164,1.383 0.244,2.074 0.03,0.262 0.049,0.524 0.094,0.783 0.045,0.266 0.136,0.518 0.44,0.584 C 2.748,3.354 2.957,3.078 2.981,2.74 3.055,1.73 3.075,0.721 2.792,-0.266 2.54,-1.148 2.281,-2.031 1.991,-3.031 0.883,-2.279 -0.106,-1.002 -0.468,0.057 -0.292,0.219 -0.137,0.084 0,0 m -2.337,-0.543 c 0.661,-1.248 1.479,-2.387 2.52,-3.342 0.513,-0.474 1.083,-0.892 1.662,-1.283 0.474,-0.322 0.859,-0.146 1.009,0.377 0.155,0.545 0.271,1.107 0.48,1.629 0.543,1.351 0.893,2.756 1.101,4.185 C 4.542,1.754 4.514,2.512 4.49,3.252 4.474,3.736 4.321,4.199 3.979,4.576 3.554,5.045 3.125,5.152 2.567,4.865 1.696,4.42 1.154,3.701 0.938,2.748 0.853,2.369 0.813,1.979 0.738,1.5 0.46,1.67 0.243,1.801 0.031,1.934 -0.263,2.121 -0.539,2.348 -0.851,2.494 -1.226,2.668 -1.633,2.658 -1.978,2.396 -2.71,1.84 -2.937,1.066 -2.64,0.186 c 0.083,-0.25 0.18,-0.498 0.303,-0.729"
       style="fill:#be9500;fill-opacity:1;fill-rule:nonzero;stroke:none"
       transform="matrix(0.35277776,0,0,-0.35277776,125.04172,83.672653)"
       clip-path="url(#clipPath455-7-5)" />
    <path
       id="path458-2-4"
       d="M 0,0 C -0.362,0.037 -0.588,0.387 -0.582,0.896 -0.577,1.227 -0.325,1.418 0.052,1.379 0.428,1.34 0.677,1.049 0.659,0.67 0.642,0.285 0.329,-0.033 0,0 M -0.136,2.287 C -0.288,2.203 -0.458,2.154 -0.613,2.072 c -0.889,-0.459 -1.349,-1.394 -1.185,-2.4 0.127,-0.785 0.761,-1.305 1.651,-1.276 0.08,0.018 0.256,0.036 0.419,0.09 0.85,0.289 1.716,1.567 1.673,2.465 -0.052,1.07 -1.006,1.934 -2.081,1.336"
       style="fill:#be9500;fill-opacity:0.631373;fill-rule:nonzero;stroke:none"
       transform="matrix(0.35277776,0,0,-0.35277776,121.11917,84.138487)"
       clip-path="url(#clipPath459-0-7)" />
    <path
       id="path466-57-8"
       d="M 0,0 C 0.391,-0.178 1.095,-0.049 1.285,0.309 1.528,0.762 1.686,1.258 1.825,1.602 1.769,2.189 1.579,2.51 1.185,2.689 0.791,2.871 0.422,2.832 0.095,2.541 -0.305,2.182 -0.577,1.734 -0.724,1.227 -0.874,0.711 -0.593,0.268 0,0"
       style="fill:#be9500;fill-opacity:1;fill-rule:nonzero;stroke:none"
       transform="matrix(0.35277776,0,0,-0.35277776,126.71897,89.323306)"
       clip-path="url(#clipPath467-3-1)" />
    <path
       id="path468-8-6"
       d="m 0,0 c -0.318,-0.027 -0.589,-0.166 -0.702,-0.492 -0.087,-0.246 -0.199,-0.496 -0.209,-0.748 -0.008,-0.194 0.075,-0.44 0.205,-0.578 0.314,-0.338 0.733,-0.496 1.183,-0.309 0.392,0.162 0.338,0.565 0.392,0.992 -0.02,0.127 -0.03,0.348 -0.088,0.553 C 0.688,-0.25 0.322,0.025 0,0"
       style="fill:#be9500;fill-opacity:1;fill-rule:nonzero;stroke:none"
       transform="matrix(0.35277776,0,0,-0.35277776,128.42511,86.770653)"
       clip-path="url(#clipPath469-7-8)" />
    <path
       id="path450-0"
       d="m 0,0 c -0.886,0.166 -1.312,0.775 -1.829,1.197 -0.622,0.508 -1.339,0.953 -1.781,1.739 0.589,0.195 1.021,-0.065 1.476,-0.17 0.598,-0.137 0.922,0.17 0.836,0.795 C -1.333,3.818 -1.449,4.064 -1.489,4.322 -1.688,5.607 -1.59,6.838 -0.756,8.037 -0.625,7.846 -0.485,7.73 -0.454,7.59 -0.331,7.037 -0.212,6.48 -0.146,5.918 0.086,4.004 0.068,2.082 0,0 M 1.448,-2.574 C 1.447,-2.23 1.368,-1.885 1.313,-1.543 1.273,-1.287 1.137,-1.023 1.18,-0.787 1.512,1.088 1.391,2.979 1.412,4.865 1.424,5.973 1.266,7.057 1.021,8.131 0.934,8.512 0.819,8.896 0.659,9.254 0.328,9.998 -0.462,10.164 -1.067,9.631 -1.262,9.459 -1.458,9.254 -1.568,9.025 -1.906,8.316 -2.274,7.609 -2.499,6.861 -2.709,6.158 -2.75,5.406 -2.892,4.508 -3.276,4.629 -3.562,4.721 -3.848,4.807 -4.183,4.906 -4.516,5.031 -4.859,5.092 -5.284,5.166 -5.627,5.012 -5.862,4.625 -6.377,3.773 -6.332,3.158 -5.671,2.346 c 0.138,-0.17 0.274,-0.344 0.428,-0.5 1.204,-1.219 2.488,-2.348 3.851,-3.389 0.522,-0.396 1.045,-0.793 1.569,-1.187 0.138,-0.106 0.273,-0.223 0.425,-0.303 0.402,-0.213 0.847,0.017 0.846,0.459"
       style="fill:#be9500;fill-opacity:1;fill-rule:nonzero;stroke:none"
       transform="matrix(0.35277776,0,0,-0.35277776,128.59274,101.39397)"
       clip-path="url(#clipPath451-5)" />
    <path
       id="path454-41"
       d="m 0,0 c 0.301,-0.18 0.576,-0.4 0.88,-0.574 0.369,-0.207 0.844,0.025 0.903,0.447 0.096,0.689 0.164,1.383 0.244,2.074 0.03,0.262 0.049,0.524 0.094,0.783 0.045,0.266 0.136,0.518 0.44,0.584 C 2.748,3.354 2.957,3.078 2.981,2.74 3.055,1.73 3.075,0.721 2.792,-0.266 2.54,-1.148 2.281,-2.031 1.991,-3.031 0.883,-2.279 -0.106,-1.002 -0.468,0.057 -0.292,0.219 -0.137,0.084 0,0 m -2.337,-0.543 c 0.661,-1.248 1.479,-2.387 2.52,-3.342 0.513,-0.474 1.083,-0.892 1.662,-1.283 0.474,-0.322 0.859,-0.146 1.009,0.377 0.155,0.545 0.271,1.107 0.48,1.629 0.543,1.351 0.893,2.756 1.101,4.185 C 4.542,1.754 4.514,2.512 4.49,3.252 4.474,3.736 4.321,4.199 3.979,4.576 3.554,5.045 3.125,5.152 2.567,4.865 1.696,4.42 1.154,3.701 0.938,2.748 0.853,2.369 0.813,1.979 0.738,1.5 0.46,1.67 0.243,1.801 0.031,1.934 -0.263,2.121 -0.539,2.348 -0.851,2.494 -1.226,2.668 -1.633,2.658 -1.978,2.396 -2.71,1.84 -2.937,1.066 -2.64,0.186 c 0.083,-0.25 0.18,-0.498 0.303,-0.729"
       style="fill:#be9500;fill-opacity:1;fill-rule:nonzero;stroke:none"
       transform="matrix(0.35277776,0,0,-0.35277776,129.27967,91.99505)"
       clip-path="url(#clipPath455-4)" />
    <path
       id="path462-7"
       d="m 0,0 c -0.399,0.215 -0.851,0.305 -1.241,0.02 -0.628,-0.457 -1.01,-1.081 -0.967,-1.889 0.039,-0.77 0.61,-1.268 1.411,-1.246 0.333,0.027 0.724,0.088 0.877,0.427 0.227,0.508 0.431,1.051 0.506,1.598 C 0.646,-0.658 0.421,-0.227 0,0"
       style="fill:#be9500;fill-opacity:1;fill-rule:nonzero;stroke:none"
       transform="matrix(0.35277776,0,0,-0.35277776,125.86524,103.44862)"
       clip-path="url(#clipPath463-7)" />
    <path
       id="path466-1"
       d="M 0,0 C 0.391,-0.178 1.095,-0.049 1.285,0.309 1.528,0.762 1.686,1.258 1.825,1.602 1.769,2.189 1.579,2.51 1.185,2.689 0.791,2.871 0.422,2.832 0.095,2.541 -0.305,2.182 -0.577,1.734 -0.724,1.227 -0.874,0.711 -0.593,0.268 0,0"
       style="fill:#be9500;fill-opacity:1;fill-rule:nonzero;stroke:none"
       transform="matrix(0.35277776,0,0,-0.35277776,130.95692,97.645703)"
       clip-path="url(#clipPath467-5)" />
    <path
       id="path468-6"
       d="m 0,0 c -0.318,-0.027 -0.589,-0.166 -0.702,-0.492 -0.087,-0.246 -0.199,-0.496 -0.209,-0.748 -0.008,-0.194 0.075,-0.44 0.205,-0.578 0.314,-0.338 0.733,-0.496 1.183,-0.309 0.392,0.162 0.338,0.565 0.392,0.992 -0.02,0.127 -0.03,0.348 -0.088,0.553 C 0.688,-0.25 0.322,0.025 0,0"
       style="fill:#be9500;fill-opacity:1;fill-rule:nonzero;stroke:none"
       transform="matrix(0.35277776,0,0,-0.35277776,127.19264,105.70033)"
       clip-path="url(#clipPath469-4)" />
    <path
       id="path260"
       d="M 0,0 C 0.757,-0.033 1.734,-0.173 2.432,0.167 2.56,0.229 2.56,0.442 2.432,0.504 1.734,0.845 0.757,0.705 0,0.672 -0.433,0.653 -0.433,0.019 0,0"
       style="fill:#38180e;fill-opacity:1;fill-rule:nonzero;stroke:none"
       transform="matrix(0.49806923,0,0,-0.46065667,97.369972,105.57)"
       clip-path="url(#clipPath261)" />
    <path
       id="path262"
       d="m 0,0 c -0.01,-1.586 -0.018,-3.171 -0.069,-4.757 -0.025,-0.744 -0.159,-1.489 -0.243,-2.234 0.059,-0.683 0.151,-1.363 0.168,-2.049 0.056,-2.18 0.108,-4.361 0.11,-6.545 0.001,-1.614 -0.045,-3.233 -0.152,-4.849 -0.021,-0.306 -0.362,-0.737 -0.657,-0.885 -2.478,-1.243 -5.045,-1.72 -7.693,-1.079 -0.695,0.168 -1.37,1.379 -1.37,2.369 -10e-4,4.429 -0.028,8.858 0.019,13.289 0.035,3.47 0.163,6.944 0.26,10.417 0.023,0.779 0.087,1.557 0.684,2.269 1.339,-0.055 2.713,-0.113 4.085,-0.17 0.066,0.001 0.133,0.001 0.202,0.002 C -3.725,5.691 -2.789,5.621 -1.86,5.512 -1.363,5.454 -1.136,5.083 -0.838,4.689 0.229,3.278 0.011,1.625 0,0 m -11.3,-19.644 c 0,-0.622 0.081,-1.238 0.133,-2 -0.885,-0.167 -1.779,-0.355 -2.678,-0.503 -2.14,-0.354 -13.858,-1.324 -17.346,-1.316 -2.573,0.005 -5.137,0.17 -7.698,0.327 -1.559,0.096 -3.111,0.275 -4.653,0.489 -1.441,0.199 -2.697,0.743 -3.845,1.707 -0.887,0.745 -1.791,1.387 -2.058,2.58 -0.212,0.952 -0.368,1.925 -0.459,2.902 -0.446,4.78 -0.612,9.583 -0.271,14.418 0.163,2.307 0.347,4.614 0.536,6.921 0.12,1.454 0.411,1.741 1.841,1.715 2.659,-0.049 5.315,-0.146 7.975,-0.201 1.65,-0.034 3.308,0.036 4.952,-0.054 2.678,-0.147 5.35,-0.368 8.021,-0.591 1.967,-0.166 3.919,-0.483 5.892,-0.557 2.91,-0.109 5.835,-0.053 8.752,-0.089 0.52,-0.006 1.037,-0.111 1.575,-0.173 -0.205,-1.4 -0.472,-2.727 -0.576,-4.058 -0.148,-1.885 -0.25,-3.776 -0.24,-5.657 0.019,-3.764 0.147,-14.336 0.147,-15.86 m -37.713,30.351 c 0.537,0.969 1.424,1.471 2.418,1.597 1.322,0.167 2.661,0.223 3.988,0.196 2.717,-0.054 5.434,-0.169 8.147,-0.303 5.307,-0.263 10.619,-0.487 15.915,-0.862 3.702,-0.262 7.376,-0.754 11.065,-1.13 C -5.958,10.049 -4.435,9.91 -2.908,9.798 -1.716,9.71 -0.848,8.8 -1.105,7.719 -1.828,7.532 -6.754,7.691 -8.068,7.77 c -1.983,0.119 -3.977,0.138 -5.966,0.205 -2.122,0.071 -4.243,0.147 -6.366,0.223 -4.651,0.165 -9.303,0.33 -13.954,0.495 -1.675,0.059 -3.351,0.134 -5.03,0.174 -2.926,0.069 -5.854,0.099 -8.778,0.183 -1.146,0.033 -1.421,0.628 -0.851,1.657 m 22.707,3.806 c -0.381,-0.118 -0.782,-0.345 -1.174,-0.349 -3.04,-0.031 -6.082,-0.023 -9.12,-0.01 -0.261,0 -0.517,0.123 -0.852,0.209 0.472,1.1 1.146,1.613 2.098,1.609 2.509,-0.012 5.016,-0.063 7.521,-0.105 0.79,-0.013 1.338,-0.351 1.527,-1.354 m -15.514,2.72 c 0.359,0.767 0.776,1.239 1.751,1.437 2.297,0.47 4.598,0.825 6.891,0.708 3.088,-0.156 6.16,-0.512 9.226,-0.859 0.419,-0.047 0.867,-0.457 1.124,-0.83 0.483,-0.701 0.838,-1.497 1.245,-2.254 l 0.056,0.022 -0.041,-0.031 c 0.115,-0.441 0.232,-0.88 0.35,-1.316 -0.873,-0.361 -1.872,-0.148 -2.428,0.497 -0.226,0.264 -0.524,0.484 -0.684,0.784 -0.762,1.425 -2.113,1.859 -3.571,1.933 -2.118,0.108 -4.252,0.114 -6.381,0.048 -1.563,-0.049 -2.98,-0.57 -3.901,-2.07 -0.433,-0.704 -1.019,-0.995 -1.892,-0.897 -0.914,0.103 -1.867,-0.059 -2.805,-0.099 -0.085,-0.003 -0.167,0.038 -0.288,0.068 0.455,0.964 0.902,1.912 1.348,2.859 m 31.484,-2.542 c -0.03,-0.652 -0.06,-1.318 -0.094,-2.106 -0.583,0.066 -1.144,0.129 -1.686,0.19 -0.186,1.638 0.304,2.165 1.78,1.916 m 2.771,0.099 c -0.107,-0.771 -0.207,-1.5 -0.329,-2.383 -0.346,-0.038 -0.71,-0.079 -1.121,-0.124 -0.054,0.959 -0.095,1.69 -0.141,2.501 0.541,0.002 1.014,0.004 1.591,0.006 m 1.163,0.002 c 0.292,0.017 0.595,0.035 0.914,0.054 -0.042,-0.945 -0.081,-1.79 -0.121,-2.707 -0.934,0.083 -1.027,0.443 -0.793,2.653 m 3.523,-3.127 c -0.364,0.049 -0.725,0.1 -1.14,0.158 -0.069,0.955 -0.13,1.863 -0.203,2.882 1.066,-0.407 1.588,-1.649 1.343,-3.04 m 4.174,-23.708 c 0.005,2.457 -0.011,4.913 -0.008,7.37 0.005,3.775 0.017,7.55 0.026,11.324 0.007,1.939 -0.416,3.65 -2.225,4.633 -0.189,1.108 -0.283,2.249 -0.595,3.317 -0.276,0.951 -0.729,1.895 -1.809,2.183 -0.669,0.177 -1.358,0.345 -2.046,0.363 -1.649,0.039 -3.303,0.019 -4.956,-0.047 -0.509,-0.02 -1.057,-0.184 -1.524,-0.424 -1.091,-0.561 -1.401,-1.655 -1.698,-2.73 -0.077,-0.276 -0.143,-0.554 -0.23,-0.891 -1.668,0.163 -3.243,0.297 -4.805,0.49 -0.222,0.028 -0.541,0.322 -0.567,0.536 -0.226,1.859 -1.223,3.354 -2.061,4.91 -0.477,0.88 -1.24,1.553 -2.345,1.622 -1.023,0.063 -2.051,0.123 -3.078,0.154 -2.238,0.066 -4.477,0.151 -6.719,0.154 -1.859,0.002 -3.723,-0.058 -5.586,-0.175 -1.389,-0.089 -2.621,-0.725 -3.374,-1.954 -0.885,-1.445 -1.763,-2.926 -1.942,-4.663 -0.128,-0.063 -0.23,-0.14 -0.341,-0.161 -0.234,-0.044 -0.474,-0.08 -0.711,-0.082 -2.131,-0.017 -3.755,-0.996 -4.968,-2.802 -0.166,-0.248 -0.382,-0.478 -0.616,-0.666 -0.62,-0.501 -0.789,-1.076 -0.614,-1.842 0.142,-0.623 0.19,-1.297 0.138,-1.943 -0.179,-2.182 -0.454,-4.362 -0.623,-6.545 -0.206,-2.619 -0.381,-5.242 -0.484,-7.862 -0.06,-1.456 0.028,-2.913 0.091,-4.366 0.069,-1.517 0.168,-3.032 0.298,-4.543 0.069,-0.798 0.639,-4.609 2.457,-6.143 1.817,-1.533 13.316,-1.998 15.533,-1.996 1.603,0.002 18.537,0.824 21.405,1.029 1.553,0.112 3.125,-0.018 4.668,-0.177 1.777,-0.183 3.541,-0.216 5.294,0.281 1.531,0.434 3.05,0.95 4.058,2.385 -0.027,0.339 -0.075,0.662 -0.075,0.988 0.006,2.757 0.026,5.515 0.032,8.273"
       style="fill:#38180e;fill-opacity:1;fill-rule:nonzero;stroke:none"
       transform="matrix(0.49806923,0,0,-0.46065667,120.965,93.548172)"
       clip-path="url(#clipPath263)" />
    <path
       id="path264"
       d="M 0,0 V 0.002 C 0.001,0.007 -0.001,0.013 -0.001,0.018 Z"
       style="fill:#38180e;fill-opacity:1;fill-rule:nonzero;stroke:none"
       transform="matrix(0.49806923,0,0,-0.46065667,120.80984,96.769612)"
       clip-path="url(#clipPath265)" />
    <path
       id="path266"
       d="m 0,0 c 0.207,2.176 1.271,4.025 1.917,6.03 0.037,0.113 0.097,0.232 0.177,0.319 1.461,1.588 2.851,3.304 5.144,3.612 1.06,0.142 2.136,0.301 3.189,0.271 3.102,-0.085 5.657,-1.333 7.872,-3.437 1.787,-1.696 2.32,-3.965 2.998,-6.201 0.426,-1.402 0.251,-2.822 -0.031,-4.257 -0.408,-2.073 -1.851,-3.371 -3.406,-4.571 -2.329,-1.798 -5.014,-2.054 -7.729,-2.123 C 7.88,-10.436 5.747,-10.032 3.934,-8.759 0.983,-6.689 -0.359,-3.817 0,0 m 3.579,-11.533 c 2.014,-1.359 4.238,-1.684 6.62,-1.397 2.203,0.266 4.275,0.977 6.205,2.212 1.895,1.211 3.649,2.483 4.822,4.525 1.004,1.749 1.559,3.538 1.597,5.53 0.082,1.901 -0.206,3.743 -0.901,5.518 -1.075,2.75 -2.987,4.701 -5.598,5.882 -2.317,1.048 -4.822,1.266 -7.414,0.786 C 6.036,10.99 3.526,9.787 1.466,7.549 0.317,6.3 -0.435,4.864 -1.009,3.321 c -0.955,-2.569 -1.187,-5.227 -0.56,-7.783 0.744,-3.032 2.581,-5.339 5.148,-7.071"
       style="fill:#38180e;fill-opacity:1;fill-rule:nonzero;stroke:none"
       transform="matrix(0.49806923,0,0,-0.46065667,98.600529,96.117524)"
       clip-path="url(#clipPath267)" />
    <path
       id="path268"
       d="m 0,0 c -3.072,0.075 -6.137,0.232 -9.2,0.394 -1.23,0.065 -2.449,0.236 -3.688,0.36 -0.158,-0.269 -0.285,-0.484 -0.437,-0.744 0.447,-0.157 0.791,-0.343 1.159,-0.398 2.108,-0.318 4.208,-0.765 6.338,-0.866 3.413,-0.163 6.849,-0.1 10.275,-0.111 1.887,-0.007 3.778,0.038 5.665,0.039 0.42,0 0.706,0.075 0.701,0.571 -0.666,0.457 -1.876,0.75 -3.104,0.749 C 5.139,-0.008 2.565,-0.063 0,0"
       style="fill:#38180e;fill-opacity:1;fill-rule:nonzero;stroke:none"
       transform="matrix(0.49806923,0,0,-0.46065667,104.99177,103.06477)"
       clip-path="url(#clipPath269)" />
    <path
       id="path270"
       d="M 0,0 C -0.329,-0.521 -0.145,-0.853 0.225,-1.028 0.609,-1.212 1.043,-1.366 1.469,-1.388 3.492,-1.49 5.39,-0.798 7.271,-0.063 7.637,0.079 7.968,0.345 7.685,1.015 6.894,0.782 6.079,0.542 5.267,0.302 3.535,-0.21 1.801,-0.638 0,0"
       style="fill:#38180e;fill-opacity:1;fill-rule:nonzero;stroke:none"
       transform="matrix(0.49806923,0,0,-0.46065667,116.40164,102.59194)"
       clip-path="url(#clipPath271)" />
    <path
       id="path272"
       d="M 0,0 C 0.762,-0.535 0.956,0.083 1.137,0.465 2.101,2.489 3.033,4.526 3.948,6.569 4.096,6.896 4.1,7.281 4.171,7.639 4.053,7.671 3.937,7.705 3.819,7.737 2.327,5.259 1.133,2.642 0,0"
       style="fill:#38180e;fill-opacity:1;fill-rule:nonzero;stroke:none"
       transform="matrix(0.49806923,0,0,-0.46065667,118.63907,97.903929)"
       clip-path="url(#clipPath273)" />
    <path
       id="path274"
       d="M 0,0 C 0.941,0.349 2.868,4.592 2.753,6.163 1.912,5.491 -0.159,0.766 0,0"
       style="fill:#38180e;fill-opacity:1;fill-rule:nonzero;stroke:none"
       transform="matrix(0.49806923,0,0,-0.46065667,118.91971,95.12112)"
       clip-path="url(#clipPath275)" />
    <path
       id="path276"
       d="M 0,0 C 0.002,-0.004 0.001,0.013 0.001,0.013 -0.001,0.01 -0.003,0.006 -0.003,0.002 -0.003,0.001 -0.002,0.001 0,0"
       style="fill:#38180e;fill-opacity:1;fill-rule:nonzero;stroke:none"
       transform="matrix(0.49806923,0,0,-0.46065667,120.80884,96.767569)"
       clip-path="url(#clipPath277)" />
    <path
       id="path278"
       d="M 0,0 C 0.318,0.24 0.612,0.367 0.754,0.588 1.052,1.045 1.291,1.543 1.516,2.042 1.933,2.96 2.322,3.89 2.725,4.814 2.568,4.926 2.413,5.034 2.263,5.138 1.376,4.079 -0.041,0.988 0,0"
       style="fill:#38180e;fill-opacity:1;fill-rule:nonzero;stroke:none"
       transform="matrix(0.49806923,0,0,-0.46065667,119.45033,98.984328)"
       clip-path="url(#clipPath279)" />
    <path
       id="path280"
       d="M 0,0 C -0.781,-1.294 -1.57,-2.513 -2.051,-4.112 -0.833,-3.558 0.477,-0.838 0,0"
       style="fill:#38180e;fill-opacity:1;fill-rule:nonzero;stroke:none"
       transform="matrix(0.49806923,0,0,-0.46065667,119.2981,91.936361)"
       clip-path="url(#clipPath281)" />
    <path
       id="path282"
       d="m 0,0 c 2.803,-0.407 5.604,-0.236 8.294,1.042 1.793,0.853 2.582,2.493 3.21,4.24 0.021,0.058 0.067,0.139 0.045,0.172 -0.421,0.683 0.075,1.37 0.082,2.054 0.009,0.805 0.207,1.663 0.019,2.407 -0.372,1.478 -0.845,2.948 -1.469,4.325 C 9.256,16.28 7.46,17.332 5.32,17.596 4.041,17.754 2.677,17.476 1.358,17.303 0.88,17.24 0.397,16.952 -0.036,16.683 c -0.215,-0.134 -0.321,-0.457 -0.499,-0.724 0.223,-0.075 0.279,-0.116 0.331,-0.107 0.293,0.045 0.589,0.091 0.879,0.159 2.486,0.578 4.852,0.306 7.059,-0.786 C 8.328,14.93 8.953,14.433 9.237,13.854 9.841,12.627 10.348,11.32 10.673,9.979 10.967,8.762 11.036,7.462 11.076,6.188 11.107,5.148 9.539,3.251 8.474,2.857 7.57,2.524 6.682,2.109 5.756,1.893 3.657,1.402 1.541,1.242 -0.378,2.271 c -2.169,1.164 -3.69,2.716 -4.017,5.513 -0.339,2.928 0.528,5.225 2.534,7.484 -1.565,-0.495 -2.47,-1.534 -2.996,-2.932 C -5.242,11.313 -5.567,10.268 -5.882,9.221 -6.217,8.103 -6.429,6.982 -5.877,5.896 -5.496,5.148 -5.224,4.332 -4.778,3.63 -3.643,1.838 -2.218,0.322 0,0"
       style="fill:#38180e;fill-opacity:1;fill-rule:nonzero;stroke:none"
       transform="matrix(0.49806923,0,0,-0.46065667,102.3336,100.15662)"
       clip-path="url(#clipPath283)" />
    <path
       id="path284"
       d="M 0,0 C 0.024,0.761 0.849,1.643 1.549,1.657 2.168,1.669 2.565,1.144 2.527,0.357 2.488,-0.474 1.856,-1.197 1.172,-1.192 0.566,-1.186 -0.02,-0.592 0,0 M 3.135,0.126 C 3.166,1.452 2.361,2.5 1.329,2.469 -0.224,2.425 -1.318,1.187 -1.356,-0.564 c -0.024,-1.128 0.782,-1.789 2.127,-1.744 1.132,0.037 2.333,1.277 2.364,2.434"
       style="fill:#38180e;fill-opacity:1;fill-rule:nonzero;stroke:none"
       transform="matrix(0.49806923,0,0,-0.46065667,103.18044,95.730699)"
       clip-path="url(#clipPath285)" />
    <path
       id="path286"
       d="M 0,0 C -0.801,-0.321 -0.424,-0.868 -0.297,-1.202 0.528,-3.379 2.145,-4.486 4.459,-4.747 6.435,-4.969 8.114,-4.52 9.439,-2.843 5.526,-4.181 1.998,-4.363 0,0"
       style="fill:#38180e;fill-opacity:1;fill-rule:nonzero;stroke:none"
       transform="matrix(0.49806923,0,0,-0.46065667,101.19691,96.533028)"
       clip-path="url(#clipPath287)" />
    <path
       id="path288"
       d="m 0,0 c 0.026,-0.213 0.142,-0.529 0.289,-0.573 0.205,-0.06 0.529,0.027 0.718,0.17 C 1.569,0.024 1.532,0.765 0.923,1.482 0.307,1.073 -0.063,0.506 0,0"
       style="fill:#38180e;fill-opacity:1;fill-rule:nonzero;stroke:none"
       transform="matrix(0.49806923,0,0,-0.46065667,105.65621,94.930141)"
       clip-path="url(#clipPath289)" />
    <path
       id="path290"
       d="M 0,0 C 0.259,0.092 0.589,0.113 0.765,0.29 1.241,0.766 1.156,1.303 0.8,1.976 0.43,1.56 0.052,1.25 -0.153,0.854 -0.261,0.647 -0.062,0.29 0,0"
       style="fill:#38180e;fill-opacity:1;fill-rule:nonzero;stroke:none"
       transform="matrix(0.49806923,0,0,-0.46065667,106.37119,96.456732)"
       clip-path="url(#clipPath291)" />
    <path
       id="path292"
       d="m 0,0 c -2.774,0.646 -3.7,2.305 -4.28,4.926 -0.697,3.141 -1.216,6.211 -0.628,9.413 0.116,0.631 -0.864,0.888 -0.957,0.264 C -6.418,10.895 -5.787,7.108 -4.889,3.497 -4.277,1.042 -2.696,-0.915 0,-0.392 0.199,-0.353 0.19,-0.044 0,0"
       style="fill:#38180e;fill-opacity:1;fill-rule:nonzero;stroke:none"
       transform="matrix(0.49806923,0,0,-0.46065667,96.068357,105.17142)"
       clip-path="url(#clipPath293)" />
    <path
       id="path294"
       d="M 0,0 C 1.862,-0.091 3.772,0.027 5.151,-1.421 5.819,-2.124 6.222,-3.063 6.854,-3.803 6.997,-3.971 7.241,-3.789 7.199,-3.601 6.907,-2.286 6.294,-1.205 5.27,-0.296 3.878,0.939 1.73,0.768 0,0.687 -0.443,0.667 -0.442,0.021 0,0"
       style="fill:#38180e;fill-opacity:1;fill-rule:nonzero;stroke:none"
       transform="matrix(0.49806923,0,0,-0.46065667,107.99529,83.462112)"
       clip-path="url(#clipPath295)" />
    <path
       id="path296"
       d="M 0,0 C 0.245,-0.365 0.829,-0.034 0.594,0.347 0.334,0.77 0.277,1.267 -0.063,1.646 -0.349,1.962 -0.779,1.506 -0.522,1.188 -0.252,0.853 -0.243,0.362 0,0"
       style="fill:#38180e;fill-opacity:1;fill-rule:nonzero;stroke:none"
       transform="matrix(0.49806923,0,0,-0.46065667,112.12576,86.720441)"
       clip-path="url(#clipPath297)" />
    <path
       id="path298"
       d="m 0,0 c 0.86,5.281 0.239,11.048 0.092,16.38 -0.01,0.338 -0.514,0.338 -0.524,0 C -0.579,11.048 -1.2,5.281 -0.34,0 -0.312,-0.168 -0.028,-0.168 0,0"
       style="fill:#38180e;fill-opacity:1;fill-rule:nonzero;stroke:none"
       transform="matrix(0.49806923,0,0,-0.46065667,122.35803,100.52325)"
       clip-path="url(#clipPath299)" />
    <path
       id="path300"
       d="m 0,0 c -0.029,0.408 -0.604,0.408 -0.633,0 -0.044,-0.615 -0.1,-1.248 -0.044,-1.865 -0.011,-0.052 -0.008,-0.104 0.014,-0.159 0.003,-0.023 0.003,-0.047 0.006,-0.07 0.037,-0.255 0.187,-0.299 0.341,-0.251 0.153,-0.048 0.303,-0.004 0.34,0.251 0.003,0.023 0.003,0.047 0.006,0.07 0.022,0.055 0.026,0.107 0.014,0.159 0.057,0.617 0,1.25 -0.044,1.865"
       style="fill:#38180e;fill-opacity:1;fill-rule:nonzero;stroke:none"
       transform="matrix(0.49806923,0,0,-0.46065667,122.43103,101.42299)"
       clip-path="url(#clipPath301)" />
    <path
       id="path302"
       d="M 0,0 C 0.265,0.3 0.162,0.738 0.157,1.116 0.152,1.469 -0.385,1.469 -0.39,1.116 -0.395,0.738 -0.497,0.3 -0.232,0 -0.176,-0.064 -0.057,-0.064 0,0"
       style="fill:#38180e;fill-opacity:1;fill-rule:nonzero;stroke:none"
       transform="matrix(0.49806923,0,0,-0.46065667,122.33131,91.956116)"
       clip-path="url(#clipPath303)" />
    <path
       id="path304"
       d="m 0,0 c 0.736,0.628 1.404,1.33 2.146,1.952 0.929,0.776 2.045,0.88 3.041,1.465 0.104,0.061 0.12,0.24 0,0.297 C 4.27,4.149 3.018,3.56 2.244,3.021 1.227,2.313 0.336,1.406 -0.465,0.464 -0.739,0.141 -0.323,-0.275 0,0"
       style="fill:#38180e;fill-opacity:1;fill-rule:nonzero;stroke:none"
       transform="matrix(0.49806923,0,0,-0.46065667,95.161216,88.170736)"
       clip-path="url(#clipPath305)" />
    <text
       xml:space="preserve"
       style="font-size:5.64444px;font-family:'Great Vibes';-inkscape-font-specification:'Great Vibes';fill:#be9500;fill-opacity:1;stroke-width:0.264583"
       x="94.798355"
       y="111.2096"
       id="text1"><tspan
         sodipodi:role="line"
         id="tspan1"
         style="fill:#be9500;fill-opacity:1;stroke-width:0.264583"
         x="94.798355"
         y="111.2096">Sesin de fotos </tspan><tspan
         sodipodi:role="line"
         style="fill:#be9500;fill-opacity:1;stroke-width:0.264583"
         x="94.798355"
         y="118.26515"
         id="tspan2">novios y familia</tspan></text>
  </g>
</svg>
