<?xml version="1.0" encoding="UTF-8" standalone="no"?>
<!-- Created with Inkscape (http://www.inkscape.org/) -->

<svg
   width="50.709976mm"
   height="41.396mm"
   viewBox="0 0 50.709976 41.396"
   version="1.1"
   id="svg1"
   inkscape:version="1.3 (0e150ed6c4, 2023-07-21)"
   sodipodi:docname="fotosDamas.svg"
   xmlns:inkscape="http://www.inkscape.org/namespaces/inkscape"
   xmlns:sodipodi="http://sodipodi.sourceforge.net/DTD/sodipodi-0.dtd"
   xmlns="http://www.w3.org/2000/svg"
   xmlns:svg="http://www.w3.org/2000/svg">
  <sodipodi:namedview
     id="namedview1"
     pagecolor="#ffffff"
     bordercolor="#000000"
     borderopacity="0.25"
     inkscape:showpageshadow="2"
     inkscape:pageopacity="0.0"
     inkscape:pagecheckerboard="0"
     inkscape:deskcolor="#d1d1d1"
     inkscape:document-units="mm"
     inkscape:zoom="3.9660278"
     inkscape:cx="78.037779"
     inkscape:cy="81.315617"
     inkscape:window-width="1920"
     inkscape:window-height="1001"
     inkscape:window-x="-9"
     inkscape:window-y="-9"
     inkscape:window-maximized="1"
     inkscape:current-layer="layer1" />
  <defs
     id="defs1">
    <clipPath
       clipPathUnits="userSpaceOnUse"
       id="clipPath9492">
      <path
         d="M 0,500 H 750 V 0 H 0 Z"
         transform="translate(-170.1987,-107.94041)"
         id="path9492" />
    </clipPath>
    <clipPath
       clipPathUnits="userSpaceOnUse"
       id="clipPath9470">
      <path
         d="M 0,500 H 750 V 0 H 0 Z"
         transform="translate(-171.57861,-138.7187)"
         id="path9470" />
    </clipPath>
    <clipPath
       clipPathUnits="userSpaceOnUse"
       id="clipPath451">
      <path
         d="M 0,500 H 500 V 0 H 0 Z"
         transform="translate(-132.37701,-197.4209)"
         id="path451" />
    </clipPath>
    <clipPath
       clipPathUnits="userSpaceOnUse"
       id="clipPath455">
      <path
         d="M 0,500 H 500 V 0 H 0 Z"
         transform="translate(-134.3242,-224.06351)"
         id="path455" />
    </clipPath>
    <clipPath
       clipPathUnits="userSpaceOnUse"
       id="clipPath459">
      <path
         d="M 0,500 H 500 V 0 H 0 Z"
         transform="translate(-120.5308,-211.51071)"
         id="path459" />
    </clipPath>
    <clipPath
       clipPathUnits="userSpaceOnUse"
       id="clipPath463">
      <path
         d="M 0,500 H 500 V 0 H 0 Z"
         transform="translate(-124.6455,-191.5967)"
         id="path463" />
    </clipPath>
    <clipPath
       clipPathUnits="userSpaceOnUse"
       id="clipPath467">
      <path
         d="M 0,500 H 500 V 0 H 0 Z"
         transform="translate(-139.0786,-208.04591)"
         id="path467" />
    </clipPath>
    <clipPath
       clipPathUnits="userSpaceOnUse"
       id="clipPath469">
      <path
         d="M 0,500 H 500 V 0 H 0 Z"
         transform="translate(-128.4082,-185.2139)"
         id="path469" />
    </clipPath>
    <clipPath
       clipPathUnits="userSpaceOnUse"
       id="clipPath451-1">
      <path
         d="M 0,500 H 500 V 0 H 0 Z"
         transform="translate(-132.37701,-197.4209)"
         id="path451-1" />
    </clipPath>
    <clipPath
       clipPathUnits="userSpaceOnUse"
       id="clipPath455-1">
      <path
         d="M 0,500 H 500 V 0 H 0 Z"
         transform="translate(-134.3242,-224.06351)"
         id="path455-0" />
    </clipPath>
    <clipPath
       clipPathUnits="userSpaceOnUse"
       id="clipPath459-2">
      <path
         d="M 0,500 H 500 V 0 H 0 Z"
         transform="translate(-120.5308,-211.51071)"
         id="path459-1" />
    </clipPath>
    <clipPath
       clipPathUnits="userSpaceOnUse"
       id="clipPath463-6">
      <path
         d="M 0,500 H 500 V 0 H 0 Z"
         transform="translate(-124.6455,-191.5967)"
         id="path463-4" />
    </clipPath>
    <clipPath
       clipPathUnits="userSpaceOnUse"
       id="clipPath467-7">
      <path
         d="M 0,500 H 500 V 0 H 0 Z"
         transform="translate(-139.0786,-208.04591)"
         id="path467-3" />
    </clipPath>
    <clipPath
       clipPathUnits="userSpaceOnUse"
       id="clipPath469-5">
      <path
         d="M 0,500 H 500 V 0 H 0 Z"
         transform="translate(-128.4082,-185.2139)"
         id="path469-9" />
    </clipPath>
    <clipPath
       clipPathUnits="userSpaceOnUse"
       id="clipPath451-9">
      <path
         d="M 0,500 H 500 V 0 H 0 Z"
         transform="translate(-132.37701,-197.4209)"
         id="path451-6" />
    </clipPath>
    <clipPath
       clipPathUnits="userSpaceOnUse"
       id="clipPath455-7">
      <path
         d="M 0,500 H 500 V 0 H 0 Z"
         transform="translate(-134.3242,-224.06351)"
         id="path455-9" />
    </clipPath>
    <clipPath
       clipPathUnits="userSpaceOnUse"
       id="clipPath459-0">
      <path
         d="M 0,500 H 500 V 0 H 0 Z"
         transform="translate(-120.5308,-211.51071)"
         id="path459-5" />
    </clipPath>
    <clipPath
       clipPathUnits="userSpaceOnUse"
       id="clipPath463-3">
      <path
         d="M 0,500 H 500 V 0 H 0 Z"
         transform="translate(-124.6455,-191.5967)"
         id="path463-7" />
    </clipPath>
    <clipPath
       clipPathUnits="userSpaceOnUse"
       id="clipPath467-3">
      <path
         d="M 0,500 H 500 V 0 H 0 Z"
         transform="translate(-139.0786,-208.04591)"
         id="path467-1" />
    </clipPath>
    <clipPath
       clipPathUnits="userSpaceOnUse"
       id="clipPath469-7">
      <path
         d="M 0,500 H 500 V 0 H 0 Z"
         transform="translate(-128.4082,-185.2139)"
         id="path469-8" />
    </clipPath>
    <clipPath
       clipPathUnits="userSpaceOnUse"
       id="clipPath451-5">
      <path
         d="M 0,500 H 500 V 0 H 0 Z"
         transform="translate(-132.37701,-197.4209)"
         id="path451-0" />
    </clipPath>
    <clipPath
       clipPathUnits="userSpaceOnUse"
       id="clipPath455-4">
      <path
         d="M 0,500 H 500 V 0 H 0 Z"
         transform="translate(-134.3242,-224.06351)"
         id="path455-5" />
    </clipPath>
    <clipPath
       clipPathUnits="userSpaceOnUse"
       id="clipPath459-06">
      <path
         d="M 0,500 H 500 V 0 H 0 Z"
         transform="translate(-120.5308,-211.51071)"
         id="path459-10" />
    </clipPath>
    <clipPath
       clipPathUnits="userSpaceOnUse"
       id="clipPath463-7">
      <path
         d="M 0,500 H 500 V 0 H 0 Z"
         transform="translate(-124.6455,-191.5967)"
         id="path463-72" />
    </clipPath>
    <clipPath
       clipPathUnits="userSpaceOnUse"
       id="clipPath467-5">
      <path
         d="M 0,500 H 500 V 0 H 0 Z"
         transform="translate(-139.0786,-208.04591)"
         id="path467-4" />
    </clipPath>
    <clipPath
       clipPathUnits="userSpaceOnUse"
       id="clipPath469-4">
      <path
         d="M 0,500 H 500 V 0 H 0 Z"
         transform="translate(-128.4082,-185.2139)"
         id="path469-91" />
    </clipPath>
    <clipPath
       clipPathUnits="userSpaceOnUse"
       id="clipPath455-14">
      <path
         d="M 0,500 H 500 V 0 H 0 Z"
         transform="translate(-134.3242,-224.06351)"
         id="path455-8" />
    </clipPath>
    <clipPath
       clipPathUnits="userSpaceOnUse"
       id="clipPath451-53">
      <path
         d="M 0,500 H 500 V 0 H 0 Z"
         transform="translate(-132.37701,-197.4209)"
         id="path451-08" />
    </clipPath>
    <clipPath
       clipPathUnits="userSpaceOnUse"
       id="clipPath459-8">
      <path
         d="M 0,500 H 500 V 0 H 0 Z"
         transform="translate(-120.5308,-211.51071)"
         id="path459-6" />
    </clipPath>
    <clipPath
       clipPathUnits="userSpaceOnUse"
       id="clipPath463-5">
      <path
         d="M 0,500 H 500 V 0 H 0 Z"
         transform="translate(-124.6455,-191.5967)"
         id="path463-0" />
    </clipPath>
    <clipPath
       clipPathUnits="userSpaceOnUse"
       id="clipPath467-6">
      <path
         d="M 0,500 H 500 V 0 H 0 Z"
         transform="translate(-139.0786,-208.04591)"
         id="path467-46" />
    </clipPath>
    <clipPath
       clipPathUnits="userSpaceOnUse"
       id="clipPath469-0">
      <path
         d="M 0,500 H 500 V 0 H 0 Z"
         transform="translate(-128.4082,-185.2139)"
         id="path469-7" />
    </clipPath>
    <clipPath
       clipPathUnits="userSpaceOnUse"
       id="clipPath261">
      <path
         d="M 0,500 H 500 V 0 H 0 Z"
         transform="translate(-364.15921,-340.33111)"
         id="path261" />
    </clipPath>
    <clipPath
       clipPathUnits="userSpaceOnUse"
       id="clipPath263">
      <path
         d="M 0,500 H 500 V 0 H 0 Z"
         transform="translate(-411.53221,-366.42821)"
         id="path263" />
    </clipPath>
    <clipPath
       clipPathUnits="userSpaceOnUse"
       id="clipPath265">
      <path
         d="M 0,500 H 500 V 0 H 0 Z"
         transform="translate(-411.22071,-359.43511)"
         id="path265" />
    </clipPath>
    <clipPath
       clipPathUnits="userSpaceOnUse"
       id="clipPath267">
      <path
         d="M 0,500 H 500 V 0 H 0 Z"
         transform="translate(-366.62991,-360.85061)"
         id="path267" />
    </clipPath>
    <clipPath
       clipPathUnits="userSpaceOnUse"
       id="clipPath269">
      <path
         d="M 0,500 H 500 V 0 H 0 Z"
         transform="translate(-379.46191,-345.76951)"
         id="path269" />
    </clipPath>
    <clipPath
       clipPathUnits="userSpaceOnUse"
       id="clipPath271">
      <path
         d="M 0,500 H 500 V 0 H 0 Z"
         transform="translate(-402.37011,-346.79591)"
         id="path271" />
    </clipPath>
    <clipPath
       clipPathUnits="userSpaceOnUse"
       id="clipPath273">
      <path
         d="M 0,500 H 500 V 0 H 0 Z"
         transform="translate(-406.86231,-356.97271)"
         id="path273" />
    </clipPath>
    <clipPath
       clipPathUnits="userSpaceOnUse"
       id="clipPath275">
      <path
         d="M 0,500 H 500 V 0 H 0 Z"
         transform="translate(-407.42581,-363.01371)"
         id="path275" />
    </clipPath>
    <clipPath
       clipPathUnits="userSpaceOnUse"
       id="clipPath277">
      <path
         d="M 0,500 H 500 V 0 H 0 Z"
         transform="translate(-411.21871,-359.43951)"
         id="path277" />
    </clipPath>
    <clipPath
       clipPathUnits="userSpaceOnUse"
       id="clipPath279">
      <path
         d="M 0,500 H 500 V 0 H 0 Z"
         transform="translate(-408.49121,-354.62741)"
         id="path279" />
    </clipPath>
    <clipPath
       clipPathUnits="userSpaceOnUse"
       id="clipPath281">
      <path
         d="M 0,500 H 500 V 0 H 0 Z"
         transform="translate(-408.18551,-369.92721)"
         id="path281" />
    </clipPath>
    <clipPath
       clipPathUnits="userSpaceOnUse"
       id="clipPath283">
      <path
         d="M 0,500 H 500 V 0 H 0 Z"
         transform="translate(-374.12501,-352.08251)"
         id="path283" />
    </clipPath>
    <clipPath
       clipPathUnits="userSpaceOnUse"
       id="clipPath285">
      <path
         d="M 0,500 H 500 V 0 H 0 Z"
         transform="translate(-375.82521,-361.69041)"
         id="path285" />
    </clipPath>
    <clipPath
       clipPathUnits="userSpaceOnUse"
       id="clipPath287">
      <path
         d="M 0,500 H 500 V 0 H 0 Z"
         transform="translate(-371.84281,-359.94871)"
         id="path287" />
    </clipPath>
    <clipPath
       clipPathUnits="userSpaceOnUse"
       id="clipPath289">
      <path
         d="M 0,500 H 500 V 0 H 0 Z"
         transform="translate(-380.79591,-363.42821)"
         id="path289" />
    </clipPath>
    <clipPath
       clipPathUnits="userSpaceOnUse"
       id="clipPath291">
      <path
         d="M 0,500 H 500 V 0 H 0 Z"
         transform="translate(-382.23141,-360.11431)"
         id="path291" />
    </clipPath>
    <clipPath
       clipPathUnits="userSpaceOnUse"
       id="clipPath293">
      <path
         d="M 0,500 H 500 V 0 H 0 Z"
         transform="translate(-361.54591,-341.19631)"
         id="path293" />
    </clipPath>
    <clipPath
       clipPathUnits="userSpaceOnUse"
       id="clipPath295">
      <path
         d="M 0,500 H 500 V 0 H 0 Z"
         transform="translate(-385.49221,-388.32321)"
         id="path295" />
    </clipPath>
    <clipPath
       clipPathUnits="userSpaceOnUse"
       id="clipPath297">
      <path
         d="M 0,500 H 500 V 0 H 0 Z"
         transform="translate(-393.78521,-381.25001)"
         id="path297" />
    </clipPath>
    <clipPath
       clipPathUnits="userSpaceOnUse"
       id="clipPath299">
      <path
         d="M 0,500 H 500 V 0 H 0 Z"
         transform="translate(-414.32911,-351.28661)"
         id="path299" />
    </clipPath>
    <clipPath
       clipPathUnits="userSpaceOnUse"
       id="clipPath301">
      <path
         d="M 0,500 H 500 V 0 H 0 Z"
         transform="translate(-414.47561,-349.33351)"
         id="path301" />
    </clipPath>
    <clipPath
       clipPathUnits="userSpaceOnUse"
       id="clipPath303">
      <path
         d="M 0,500 H 500 V 0 H 0 Z"
         transform="translate(-414.27541,-369.88431)"
         id="path303" />
    </clipPath>
    <clipPath
       clipPathUnits="userSpaceOnUse"
       id="clipPath305">
      <path
         d="M 0,500 H 500 V 0 H 0 Z"
         transform="translate(-359.72461,-378.10161)"
         id="path305" />
    </clipPath>
  </defs>
  <g
     inkscape:label="Capa 1"
     inkscape:groupmode="layer"
     id="layer1"
     transform="translate(-80.890763,-73.579595)">
    <path
       id="path9491"
       d="m 0,0 c -0.079,0.074 -0.178,0.134 -0.32,0.147 -21.35,2.038 -42.058,7.348 -63.21,10.536 0.375,1.942 0.701,4.183 1.033,6.283 -0.009,-1.663 0.01,-3.324 0.093,-4.989 0.035,-0.715 1.145,-0.609 1.105,0.106 -0.597,10.655 1.85,11.135 3.078,21.674 0.223,1.209 0.449,2.415 0.692,3.619 2.173,10.808 6.061,21.475 5.387,32.641 -0.002,0.027 -0.012,0.046 -0.017,0.07 3.15,-0.548 6.292,-1.141 9.432,-1.755 0.074,-0.287 0.2,-0.537 0.42,-0.702 0.112,-0.084 0.289,-0.066 0.35,0.077 0.062,0.146 0.083,0.298 0.09,0.453 0.957,-0.19 1.912,-0.4 2.868,-0.597 0.001,-0.026 -10e-4,-0.053 0,-0.081 0.025,-0.199 0.297,-0.245 0.384,-0.066 0.011,0.022 0.016,0.043 0.027,0.063 0.426,-0.085 0.85,-0.183 1.277,-0.27 0,-0.004 -10e-4,-0.008 0,-0.011 0.026,-0.172 0.244,-0.21 0.329,-0.057 0.976,-0.203 1.95,-0.418 2.925,-0.625 0.085,-0.158 0.275,-0.191 0.407,-0.086 3.73,-0.792 7.457,-1.607 11.169,-2.49 5.092,-1.212 10.272,-2.029 15.437,-2.906 3.401,-0.863 6.891,-1.543 10.384,-2.002 2.622,-0.603 5.225,-1.3 7.791,-2.161 0.166,-0.057 0.318,-0.037 0.447,0.028 C 6.655,35.078 3.919,22.634 -0.081,0.629 -0.121,0.424 -0.055,0.263 0.053,0.148 0.037,0.099 0.02,0.05 0,0 m -59.575,5.607 c -2.09,-0.78 -4.249,-1.323 -6.357,-2.008 -0.014,0.146 -0.048,0.3 -0.079,0.457 3.441,1.755 7.023,2.55 10.851,3.303 -1.508,-0.498 -3.001,-1.222 -4.415,-1.752 m -17.832,50.582 c -0.365,1.313 -0.736,2.624 -1.07,3.95 0.441,0.184 0.891,0.338 1.336,0.509 -0.127,-1.484 -0.215,-2.97 -0.266,-4.459 m 6.887,-21.5 c -0.25,0.738 -0.499,1.473 -0.75,2.208 0.663,7.437 0.643,14.952 1.05,22.4 0.012,0.232 -0.345,0.303 -0.363,0.063 -0.527,-7.16 -0.804,-14.358 -1,-21.54 -1.885,5.537 -3.754,11.077 -5.372,16.698 0.61,2.021 0.528,4.253 0.491,6.389 3.212,1.19 6.499,2.077 9.814,2.872 -1.972,-11.334 -2.709,-23.574 -1.825,-35.175 -0.398,1.204 -0.797,2.406 -1.203,3.609 -0.032,9.449 1.597,18.715 1.702,28.184 0.004,0.329 -0.491,0.271 -0.501,-0.047 -0.277,-8.454 -2.188,-17.127 -2.043,-25.661 m 5.536,0.347 c -0.217,-4.601 -1.193,-9.291 -1.119,-13.919 -0.535,1.765 -1.085,3.524 -1.654,5.278 -0.062,12.574 0.572,24.919 1.484,37.476 0.448,0.107 0.899,0.205 1.348,0.31 0.077,-0.118 0.234,-0.191 0.394,-0.095 0.198,0.123 0.41,0.217 0.614,0.329 3.283,0.745 6.581,1.451 9.854,2.291 -0.745,-7.566 -2.127,-15.118 -3.557,-22.676 0.405,5.775 0.567,11.57 0.681,17.312 0.006,0.343 -0.586,0.365 -0.603,0.022 -0.448,-9.254 -1.009,-18.431 -1.993,-27.601 -0.399,-2.214 -0.784,-4.43 -1.132,-6.645 -0.629,-3.764 -1.2,-7.539 -1.768,-11.317 -0.337,-0.032 -0.828,-0.386 -0.962,-0.477 -0.299,-0.2 -0.61,-0.389 -0.93,-0.563 0.006,0.055 0.005,0.113 -0.011,0.177 -0.224,0.842 -0.477,1.674 -0.712,2.512 -0.444,6.598 0.469,13.016 0.81,19.625 0.449,8.693 0.739,17.397 1.28,26.085 0.019,0.283 -0.412,0.366 -0.44,0.076 -0.912,-9.383 -1.14,-18.785 -1.584,-28.2 M -53.02,66.97 c -0.124,-1.791 -0.312,-3.568 -0.562,-5.335 0.186,1.75 0.298,3.508 0.319,5.272 0.081,0.023 0.163,0.04 0.243,0.063 m 10.229,2.496 c -0.558,0.11 -1.111,0.233 -1.669,0.344 0.611,0.283 1.231,0.555 1.857,0.82 -0.08,-0.366 -0.151,-0.771 -0.188,-1.164 m 1.392,-0.29 c -0.183,0.038 -0.367,0.079 -0.551,0.115 -0.021,0.552 0.034,1.1 0.104,1.647 0.044,0.017 0.09,0.034 0.136,0.051 0.149,0.03 0.298,0.057 0.45,0.089 -0.136,-0.617 -0.269,-1.287 -0.139,-1.902 m 1.081,-0.226 c -0.213,0.044 -0.424,0.091 -0.637,0.134 0.105,0.686 0.1,1.405 0.184,2.095 0.251,0.052 0.501,0.115 0.752,0.174 -0.03,-0.349 -0.057,-0.696 -0.111,-1.046 -0.067,-0.443 -0.215,-0.909 -0.188,-1.357 m 0.918,1.231 c 0.048,0.442 0.062,0.884 0.068,1.33 0.26,0.063 0.515,0.131 0.772,0.197 -0.002,-0.012 -0.012,-0.019 -0.011,-0.033 -0.012,-0.744 -0.088,-1.47 -0.205,-2.203 -0.042,-0.273 -0.099,-0.544 -0.146,-0.814 -0.244,0.051 -0.487,0.104 -0.73,0.153 0.187,0.417 0.2,0.918 0.252,1.37 m 2.078,-1.862 c -0.312,0.066 -0.627,0.135 -0.94,0.2 0.208,1.044 0.165,2.228 0.13,3.199 -0.001,0.046 -0.027,0.066 -0.043,0.096 1.669,0.454 3.299,0.986 4.817,1.638 0.075,0.032 0.115,0.096 0.135,0.165 0.022,0.006 0.041,0.012 0.061,0.015 -0.456,-1.912 -1.044,-4.015 -1.018,-5.979 -0.811,0.172 -1.622,0.348 -2.432,0.517 0.221,0.972 0.197,2.075 0.121,2.985 -0.027,0.328 -0.509,0.276 -0.501,-0.047 0.021,-0.922 -0.242,-1.863 -0.33,-2.789 m 4.633,1.936 c -0.134,-0.891 -0.356,-1.916 -0.045,-2.782 0.063,-0.184 0.333,-0.196 0.415,-0.019 0.367,0.811 0.319,1.789 0.413,2.665 0.13,1.171 0.302,2.342 0.456,3.511 0.018,0.137 -0.051,0.222 -0.141,0.275 0.28,0.048 0.559,0.081 0.838,0.124 -0.093,-1.116 -0.233,-2.228 -0.344,-3.344 -0.116,-1.181 -0.507,-2.471 -0.269,-3.645 -0.653,0.141 -1.301,0.293 -1.955,0.429 0.439,2.014 0.489,4.218 0.713,6.27 0.214,0.043 0.434,0.067 0.65,0.108 -0.03,-0.037 -0.066,-0.061 -0.08,-0.116 -0.246,-1.155 -0.477,-2.309 -0.651,-3.476 m 5.076,-0.852 c 0.058,1.027 0.035,2.058 -0.067,3.08 -0.039,0.371 -0.607,0.317 -0.578,-0.055 0.085,-1.117 0.017,-2.215 -0.075,-3.325 -0.073,-0.887 -0.26,-1.807 -0.012,-2.669 0.011,-0.03 0.033,-0.05 0.052,-0.069 -0.435,0.093 -0.869,0.193 -1.299,0.287 0.878,2.249 0.9,4.943 1.198,7.3 0.028,0.213 -0.281,0.268 -0.328,0.058 -0.511,-2.314 -1.398,-4.85 -1.336,-7.257 -0.321,0.069 -0.645,0.143 -0.965,0.212 0.611,1.043 0.555,2.416 0.632,3.597 0.076,1.166 0.041,2.332 0.059,3.5 -10e-4,0.012 -0.01,0.017 -0.012,0.027 0.022,0.002 0.048,0.007 0.07,0.009 0.084,-0.194 0.314,-0.331 0.547,-0.179 0.197,0.129 0.416,0.223 0.624,0.331 0.672,0.08 1.34,0.146 2.013,0.178 0.321,-1.821 0.723,-3.594 1.297,-5.366 0.309,-0.953 0.781,-2.813 1.694,-3.62 -1.324,0.306 -2.651,0.589 -3.979,0.875 0.051,0.018 0.096,0.045 0.12,0.1 0.346,0.926 0.29,2.006 0.345,2.986 M -66.211,4.843 c -0.35,1.124 -0.908,2.287 -1.14,2.928 -0.525,1.446 -1.127,2.853 -1.794,4.225 -1.054,1.737 -1.445,2.324 -2.032,4.477 -0.38,1.394 -1.761,4.695 -3.052,8.161 -4.725,12.686 -9.023,25.347 -11.545,38.723 0.464,0.217 0.927,0.443 1.395,0.651 8.547,0.635 17.548,3.984 25.569,6.257 11.333,3.211 22.621,8.729 34.486,9.393 0.211,0.014 0.33,0.145 0.366,0.301 0.096,0.019 0.183,0.077 0.238,0.173 1.11,-4.825 2.946,-9.446 3.845,-14.329 0.1,-0.535 0.92,-0.475 0.875,0.04 0.195,-0.563 0.389,-1.125 0.586,-1.682 -0.667,0.142 -1.336,0.275 -2.001,0.432 -0.949,0.221 -1.899,0.438 -2.847,0.655 0.05,0.075 0.082,0.165 0.048,0.273 -0.2,0.615 -0.653,1.151 -0.934,1.737 -0.398,0.827 -0.687,1.707 -0.971,2.579 -0.5,1.517 -0.933,3.068 -1.348,4.616 0.227,0.006 0.455,0.027 0.681,0.028 0.581,0.002 0.49,0.898 -0.09,0.899 -0.299,0 -0.603,-0.026 -0.904,-0.032 -0.09,0.056 -0.205,0.045 -0.3,-0.012 -0.11,-0.005 -0.221,-0.014 -0.331,-0.021 -0.037,0.177 -0.187,0.338 -0.391,0.325 -0.417,-0.022 -0.87,-0.21 -1.298,-0.445 -3.51,-0.333 -7.118,-1.181 -10.516,-2.411 -0.064,-0.001 -0.122,-0.027 -0.176,-0.063 -0.057,-0.022 -0.111,-0.047 -0.169,-0.067 -2.947,-0.711 -5.887,-1.474 -8.911,-1.843 -0.107,-0.014 -0.184,-0.063 -0.243,-0.123 -1.179,0.222 -2.354,0.454 -3.535,0.666 -0.736,0.132 -0.935,-1.015 -0.197,-1.142 0.024,-0.005 0.048,-0.009 0.071,-0.015 -0.056,-0.063 -0.097,-0.146 -0.099,-0.251 -0.008,-0.374 -0.029,-0.745 -0.043,-1.119 -0.118,-0.046 -0.239,-0.086 -0.358,-0.132 -0.006,0.277 -0.006,0.551 -0.018,0.826 -0.013,0.278 -0.472,0.298 -0.493,0.018 -0.027,-0.357 -0.067,-0.716 -0.104,-1.071 -2.924,-1.021 -6.047,-1.483 -8.852,-2.755 -4.663,-1.003 -9.315,-2.086 -13.73,-3.822 0,0.091 -0.002,0.184 -0.002,0.276 0.002,0.309 -0.511,0.326 -0.542,0.02 -0.019,-0.177 -0.026,-0.362 -0.044,-0.54 -0.581,-0.238 -1.166,-0.461 -1.738,-0.723 -0.205,0.106 -0.503,-0.028 -0.593,-0.277 -0.137,-0.066 -0.276,-0.126 -0.413,-0.192 -0.447,-0.222 -0.196,-0.949 0.276,-0.739 0.087,0.037 0.175,0.067 0.264,0.105 2.005,-8.394 4.814,-16.542 7.609,-24.695 -0.006,-0.219 -0.012,-0.438 -0.018,-0.658 -0.002,-0.097 0.159,-0.103 0.169,-0.008 0.006,0.06 0.01,0.117 0.017,0.174 0.388,-1.131 0.772,-2.265 1.156,-3.399 0.085,-0.93 0.189,-1.86 0.34,-2.787 0.044,-0.262 0.426,-0.229 0.412,0.039 -0.011,0.189 -0.007,0.378 -0.016,0.566 0.51,-1.519 1.006,-3.041 1.495,-4.568 0.003,-0.02 0.003,-0.04 0.005,-0.06 0.003,-0.029 0.023,-0.041 0.034,-0.064 1.033,-3.223 2.012,-6.464 2.877,-9.738 0.024,-0.091 0.071,-0.153 0.125,-0.2 -0.247,-0.092 -0.498,-0.173 -0.761,-0.217 -0.49,-0.087 -0.428,-0.795 0.076,-0.773 0.79,0.032 1.35,0.366 2.174,0.74 0.249,0.113 0.649,0.325 0.977,0.57 -0.701,-4.659 -0.287,-2.446 -0.692,-3.553 -0.415,-0.166 -0.482,-1.453 0.065,-1.565 2.696,-0.554 3.92,-0.92 6.626,-1.481 -1.64,-0.084 -3.411,-0.745 -4.813,-1.202 -1.655,-0.54 -3.281,-1.238 -4.803,-2.099 m -2.819,2.48 c -0.005,0.014 -0.011,0.028 -0.015,0.042 -0.149,0.423 -0.299,0.847 -0.449,1.269 -0.468,1.561 -0.76,3.22 -1.031,4.842 0.128,-0.295 0.249,-0.591 0.372,-0.887 0.42,-1.958 0.857,-3.913 1.344,-5.853 -0.085,0.189 -0.144,0.394 -0.221,0.587 m -1.771,7.766 c -0.127,0.711 -0.087,1.474 -0.418,2.065 -0.936,1.666 -3.871,5.775 -5.122,8.984 -1.755,4.5 -2.604,9.29 -3.818,13.953 1.379,-3.984 2.798,-7.947 4.081,-11.927 2.466,-7.64 3.837,-5.553 5.459,-13.398 -0.062,0.108 -0.118,0.214 -0.182,0.323 m -16.096,47.747 c 0.186,0.091 0.376,0.173 0.564,0.263 0.165,-1.159 0.355,-2.312 0.572,-3.455 -0.361,1.066 -0.748,2.129 -1.136,3.192 m 28.81,9.461 c 5.32,1.36 10.581,2.922 15.852,4.459 2.691,0.784 5.388,1.534 8.096,2.259 1.991,0.524 3.991,1.011 6.001,1.461 0.914,0.265 1.844,0.438 2.787,0.52 -0.184,-0.202 -0.011,-0.49 0.206,-0.538 -9.907,-0.707 -19.053,-4.865 -28.45,-7.775 -5.65,-1.749 -11.408,-3.267 -17.141,-4.715 -3.298,-0.833 -6.676,-1.807 -10.077,-2.477 7.363,2.88 15.042,4.841 22.726,6.806 M 1.449,2.499 c 3.686,21.755 8.57,33.504 11.183,55.4 0.06,0.528 -0.691,0.659 -0.811,0.14 -0.021,-0.095 -0.038,-0.19 -0.063,-0.285 -0.045,0.038 -0.094,0.073 -0.163,0.098 -0.614,0.211 -1.225,0.413 -1.843,0.604 0.808,-0.038 1.611,-0.074 2.413,-0.085 0.734,-0.01 0.623,1.135 -0.108,1.137 -3.523,0.01 -6.928,0.421 -10.304,0.99 -1.859,0.389 -3.727,0.731 -5.6,1.055 -2.859,0.583 -5.72,1.196 -8.633,1.708 -0.153,0.024 -0.267,-0.073 -0.33,-0.193 -1.586,0.278 -3.166,0.583 -4.743,0.909 -0.006,0.037 -0.015,0.076 -0.022,0.116 0.164,0.07 0.29,0.246 0.213,0.436 -0.126,0.303 -0.297,0.61 -0.476,0.911 -0.925,4.088 -3.013,8.135 -4.219,12.08 -0.028,0.083 -0.086,0.116 -0.146,0.127 -0.309,0.989 -0.609,1.979 -0.898,2.974 -0.043,0.157 -0.178,0.223 -0.319,0.227 -0.018,0.127 -0.136,0.245 -0.272,0.219 -0.357,-0.062 -0.587,-0.233 -0.681,-0.557 -0.014,0 -0.022,0.006 -0.033,0.005 -0.233,-0.012 -0.462,-0.036 -0.695,-0.054 0.064,-0.003 0.131,0.005 0.193,0.054 0.082,0.067 0.167,0.135 0.247,0.201 0.038,-0.025 0.058,-0.06 0.107,-0.07 0.278,-0.048 0.402,0.222 0.336,0.428 0.132,0.107 0.262,0.212 0.392,0.317 0.306,0.247 0.17,0.877 -0.294,0.786 -10.994,-2.153 -21.581,-5.775 -32.403,-8.613 -5.011,-1.311 -10.038,-2.552 -15.018,-3.988 -3.849,-1.109 -9.55,-2.3 -13.262,-4.694 -0.905,-0.096 -1.811,-0.17 -2.715,-0.191 -0.094,-0.002 -0.161,-0.035 -0.217,-0.079 -0.184,0.003 -0.375,-0.145 -0.301,-0.379 0.098,-0.313 0.188,-0.629 0.286,-0.941 -0.271,0.18 -0.733,0.031 -0.671,-0.378 l 0.015,-0.098 c 0.043,-0.278 0.369,-0.487 0.629,-0.323 0.065,-0.012 0.133,-0.009 0.204,0.027 0.015,0.008 0.033,0.014 0.05,0.023 4.137,-13.508 4.703,-16.48 7.933,-30.223 0.52,-2.21 3.413,-8.481 6.065,-14.674 -0.084,-0.055 2.326,-5.949 2.348,-6.065 0.311,-1.696 0.318,-1.544 0.842,-3.189 0.614,-1.923 1.104,-4.129 2.02,-5.918 0.146,-0.285 0.543,-0.203 0.542,0.126 0,0.139 -0.013,0.278 -0.023,0.418 0.065,-0.232 0.122,-0.462 0.19,-0.693 0.12,-0.406 0.811,-0.355 0.842,0.079 0.006,0.063 0.01,0.124 0.014,0.187 0.02,0 0.042,0.005 0.063,0.005 0.041,-0.063 0.065,-0.14 0.116,-0.195 0.143,-0.159 0.364,-0.151 0.475,0.041 0.033,0.057 0.039,0.134 0.063,0.198 2.038,0.213 4.154,1.17 6.019,1.839 2.306,0.83 5.096,1.524 7.143,2.894 16.766,-3.464 33.716,-6.817 50.707,-8.279 -0.035,-0.039 -0.065,-0.083 -0.086,-0.138 -0.024,-0.072 -0.052,-0.143 -0.074,-0.214 -0.301,-0.83 1.02,-1.06 1.018,-0.179 0,0.077 0.003,0.153 0.001,0.23 -0.001,0.091 -0.035,0.166 -0.082,0.232 0.287,-0.023 0.571,-0.054 0.857,-0.075 0.052,-0.004 0.096,0.01 0.14,0.017 -0.112,-0.304 -0.238,-0.604 -0.341,-0.91 -0.255,-0.764 0.817,-1.101 1.044,-0.33 C 0.736,-0.838 1.152,0.632 1.67,2.035 1.754,2.26 1.62,2.441 1.449,2.499"
       style="fill:#38180e;fill-opacity:1;fill-rule:evenodd;stroke:none"
       transform="matrix(0.35277776,0,0,-0.35277776,122.74079,108.63294)"
       clip-path="url(#clipPath9492)" />
    <path
       id="path9469"
       d="m 0,0 c -0.864,5.585 -9.912,1.624 -12.897,-1.125 0.057,3.826 -1.971,13.325 -6.556,10.574 -1.355,-0.813 -2.164,-2.238 -2.651,-3.853 -1.051,-0.235 -2.112,-0.81 -2.982,-1.366 -0.172,0.141 -0.471,0.156 -0.626,-0.084 -0.003,0.461 -0.016,0.965 -0.054,1.51 0.143,0.347 0.3,0.686 0.439,1.035 0.163,0.417 -0.312,0.731 -0.61,0.56 -0.031,0.238 -0.06,0.475 -0.1,0.713 0.144,0.263 0.284,0.529 0.433,0.785 0.24,0.408 -0.407,0.696 -0.652,0.318 -0.301,1.317 -0.734,2.516 -1.351,3.255 1.168,3.525 2.003,7.289 1.02,10.819 -0.96,3.425 -3.912,2.863 -6.508,1.606 -2.6,-1.256 -4.348,-4.837 -4.757,-7.099 -0.066,0.237 -0.483,0.244 -0.507,-0.034 -0.026,-0.296 -0.06,-0.527 -0.1,-0.726 -0.027,-0.032 -0.061,-0.056 -0.072,-0.097 l -0.145,-0.527 c -0.464,-0.66 -1.318,0.88 -2.458,1.396 -1.533,0.693 -2.874,0.917 -4.55,0.746 -1.893,-0.192 -3.332,-1.32 -4.346,-2.781 0.944,4.97 1.89,9.937 2.975,14.893 0.042,0.192 -0.272,0.296 -0.335,0.105 -0.804,-2.404 -1.483,-4.856 -2.092,-7.332 0.314,2.021 0.615,4.044 0.885,6.069 0.028,0.206 -0.147,0.299 -0.3,0.276 0.035,0.485 0.083,0.975 0.113,1.459 0.153,-0.159 0.416,-0.218 0.557,-0.011 7.162,-2.212 14.643,-2.664 22.031,-3.728 9.806,-1.415 19.448,-4.193 29.199,-5.973 0.537,-0.097 0.683,0.744 0.147,0.84 -8.573,1.506 -17.05,3.497 -25.567,5.275 -8.431,1.758 -17.234,2.567 -25.75,3.673 0.179,0.281 0.243,0.412 0.41,0.791 0.034,0.081 0.035,0.159 0.016,0.231 2.364,0.098 4.984,-0.623 7.171,-1.031 4.617,-0.859 9.238,-1.558 13.88,-2.29 10.323,-1.631 20.463,-4.466 30.749,-6.327 0.028,-0.005 0.048,0.003 0.073,10e-4 C 2.524,15.099 1.218,7.561 0,0 m -50.244,-6.831 c -0.847,1.102 -1.377,2.569 -0.146,3.631 0.05,0.045 0.101,0.076 0.153,0.109 -0.074,-1.139 -0.206,-2.513 -0.007,-3.74 m 5.36,6.985 c 0.112,0.204 0.233,0.404 0.369,0.592 0.142,0.196 0.274,0.33 0.402,0.434 0,-0.01 -0.003,-0.016 -0.002,-0.023 0.016,-0.162 0.041,-0.324 0.059,-0.486 -0.149,-0.033 -0.266,-0.147 -0.224,-0.345 0.075,-0.336 0.124,-0.672 0.18,-1.006 -0.258,0.28 -0.529,0.548 -0.784,0.834 m -0.84,-5.103 c -0.016,0.136 -0.111,0.196 -0.213,0.218 -0.018,0.037 -0.035,0.072 -0.053,0.11 0.082,0.059 0.147,0.143 0.145,0.278 -0.012,1.029 0.105,2.138 0.416,3.168 0.028,-0.029 0.055,-0.057 0.083,-0.086 0.031,-0.809 0.092,-1.617 0.154,-2.424 -0.004,0.024 -0.009,0.047 -0.013,0.07 -0.061,0.352 -0.605,0.307 -0.559,-0.055 0.125,-0.999 0.188,-2.059 0.271,-3.132 -0.08,0.619 -0.153,1.235 -0.231,1.853 m -2.564,-3.68 c -0.307,0.237 -0.615,0.475 -0.91,0.732 -0.044,0.668 -0.195,1.335 -0.254,2.001 -0.048,0.54 -0.072,1.081 -0.091,1.621 0.074,-0.608 0.156,-1.215 0.26,-1.82 0.137,-0.787 0.231,-1.807 0.844,-2.372 0.038,-0.034 0.084,-0.048 0.131,-0.051 0.007,-0.038 0.014,-0.074 0.02,-0.111 m 0.718,3.257 c 0.198,-1.405 0.342,-3.207 1.075,-4.502 -0.217,0.142 -0.441,0.275 -0.656,0.422 -0.004,0.734 -0.368,1.639 -0.468,2.285 -0.192,1.268 -0.32,2.547 -0.475,3.821 0.653,-0.474 1.2,-1.179 1.447,-1.719 0.08,-0.177 0.237,-0.246 0.388,-0.239 0.074,-1.07 0.079,-2.256 0.193,-3.41 -0.079,0.255 -0.156,0.508 -0.224,0.763 -0.235,0.873 -0.398,1.761 -0.546,2.651 -0.077,0.462 -0.8,0.402 -0.734,-0.072 m 5.192,4.367 c -0.201,0.576 -0.43,1.137 -0.64,1.662 -0.073,0.188 -0.246,0.236 -0.396,0.196 -0.015,0.123 -0.036,0.244 -0.05,0.369 -0.009,0.059 -0.031,0.108 -0.061,0.149 0.764,-0.176 1.115,-2.07 1.146,-2.363 10e-4,-0.005 0,-0.01 10e-4,-0.013 m -0.265,-2.932 c 0.052,-0.052 0.105,-0.103 0.158,-0.154 -0.121,-1.264 -0.33,-2.519 -0.568,-3.768 -0.023,0.467 -0.074,0.942 -0.139,1.418 0.028,0.033 0.059,0.058 0.074,0.109 0.085,0.277 0.141,0.57 0.182,0.871 0.117,-0.014 0.235,0.043 0.269,0.19 0.1,0.425 0.081,0.879 0.024,1.334 m 13.13,15.255 c -0.828,-1.908 -1.842,-3.758 -2.734,-5.651 0.004,0.156 0.007,0.312 0.017,0.468 1.152,1.672 1.792,3.924 2.529,5.776 0.356,0.129 0.738,0.12 1.125,-0.146 -0.422,-1.448 -0.888,-2.903 -1.361,-4.358 -0.792,-1.445 -1.601,-2.913 -2.242,-4.405 -0.028,0.349 -0.055,0.694 -0.069,1.04 1.497,2.084 2.449,4.654 3.285,7.017 0.13,0.364 -0.392,0.627 -0.55,0.259 m 1.945,-1.754 c -0.885,-1.649 -1.598,-3.364 -2.317,-5.091 -0.51,-1.225 -1.19,-2.391 -1.765,-3.587 0.319,0.926 0.641,1.853 0.96,2.781 1.017,1.98 1.76,4.21 2.619,6.105 0.103,0.232 -0.115,0.407 -0.306,0.379 0.126,0.34 0.251,0.673 0.373,1.023 0.317,-0.431 0.542,-0.927 0.738,-1.433 -0.115,0.003 -0.232,-0.047 -0.302,-0.177 m -0.89,-4.104 c 0.47,1.292 0.902,2.571 1.418,3.656 0.042,-0.122 0.086,-0.243 0.126,-0.361 0.054,-0.172 0.084,-0.355 0.133,-0.529 -0.555,-0.899 -1.12,-1.823 -1.677,-2.766 m -2.443,-11.021 c -0.074,-0.189 0.156,-0.342 0.298,-0.191 0.087,0.091 0.162,0.193 0.245,0.286 0.01,-0.173 0.178,-0.281 0.358,-0.184 0.419,0.224 0.781,0.588 1.101,1.013 -0.012,-0.027 -0.022,-0.051 -0.034,-0.078 -0.041,-0.106 -0.018,-0.206 0.03,-0.296 -0.682,-0.443 -1.366,-0.88 -2.053,-1.308 -0.03,0.476 -0.08,0.958 -0.133,1.437 1.01,1.311 1.732,2.913 2.478,4.357 0.816,1.578 1.559,3.191 2.267,4.82 -0.023,-0.499 -0.089,-0.995 -0.172,-1.483 -1.614,-2.68 -3.3,-5.502 -4.385,-8.373 m 4.712,6.052 c 0.454,1.001 0.89,2.013 1.336,3.016 0.025,0.05 0.031,0.098 0.03,0.142 0.491,0.253 1.121,0.544 1.776,0.772 -0.049,-0.038 -0.088,-0.087 -0.116,-0.155 -0.163,-0.363 -0.325,-0.726 -0.487,-1.089 -0.152,0.115 -0.365,0.133 -0.51,-0.071 -0.11,-0.153 -0.211,-0.315 -0.313,-0.476 -0.149,0.218 -0.511,0.283 -0.645,-0.028 -0.317,-0.721 -0.686,-1.419 -1.071,-2.111 m -0.395,-2.72 c 0.073,-0.096 0.211,-0.124 0.316,-0.019 0.203,0.201 0.38,0.432 0.547,0.676 -0.059,-0.211 -0.114,-0.424 -0.143,-0.641 -0.031,-0.262 0.295,-0.433 0.474,-0.222 0.235,0.274 0.423,0.581 0.591,0.9 -0.068,-0.225 -0.125,-0.453 -0.168,-0.683 -0.923,-0.707 -1.86,-1.392 -2.825,-2.046 0.43,0.651 0.828,1.335 1.208,2.035 m -11.374,18.184 c 0.752,0.906 1.133,2.883 1.707,3.921 1.844,3.338 8.691,8.311 9.398,0.776 0.218,-2.337 -0.601,-4.911 -1.216,-7.137 -0.061,-0.211 -0.123,-0.426 -0.184,-0.636 -0.471,0.266 -1.013,0.303 -1.647,0.021 -2.33,-1.037 -2.914,-4.451 -3.128,-6.682 -0.082,-0.819 -0.077,-1.635 -0.04,-2.454 -0.089,-0.218 -0.192,-0.432 -0.271,-0.652 -0.053,-0.146 0.12,-0.267 0.229,-0.148 0.025,0.027 0.047,0.057 0.07,0.084 0.045,-0.607 0.117,-1.211 0.199,-1.817 -0.026,-0.073 -0.055,-0.148 -0.078,-0.224 -0.034,-0.114 0.044,-0.186 0.14,-0.211 0.047,-0.329 0.093,-0.659 0.144,-0.989 -1.096,-2.835 -2.267,-5.631 -3.492,-8.327 -1.831,1.72 -3.668,3.417 -5.445,5.175 0.088,1.269 0.039,2.532 -0.318,3.696 -0.432,1.413 -1.996,1.751 -3.038,0.844 -0.159,-0.137 -0.306,-0.302 -0.442,-0.478 -0.444,0.508 -0.902,1.005 -1.329,1.536 -1.888,2.341 -3.34,4.968 -3.936,7.93 -0.104,0.51 -0.15,0.995 -0.154,1.455 0.149,0.777 0.298,1.557 0.445,2.336 1.771,4.106 8.353,4.508 11.36,0.302 0.219,-0.309 0.734,-0.207 0.795,0.178 0.081,0.515 0.167,1.008 0.231,1.501 m 22.936,-26.307 c -0.297,0.825 -0.397,1.694 0.161,2.432 -0.073,-0.497 -0.126,-0.991 -0.144,-1.496 -0.007,-0.298 -0.028,-0.618 -0.017,-0.936 m 13.65,7.242 c -0.731,-1.866 -2.463,-3.45 -3.86,-4.822 -0.686,-0.672 -1.405,-1.308 -2.138,-1.933 0.474,1.768 0.596,3.528 -0.126,5.201 -0.087,0.203 -0.319,0.278 -0.507,0.156 -1.809,-1.188 -2.684,-2.71 -2.983,-4.732 -0.469,1.049 -1.416,1.946 -2.371,2.284 -0.101,0.107 -0.259,0.146 -0.399,0.106 -0.965,0.175 -1.873,-0.29 -2.227,-1.856 -0.341,-1.509 0.926,-3.384 1.629,-4.608 0.308,-0.535 0.651,-1.051 0.984,-1.571 -2.72,-2.457 -5.23,-5.043 -8.508,-6.782 -0.294,-0.157 -0.237,-0.459 -0.046,-0.637 -11.136,2.16 -22.338,4.046 -33.535,5.818 0.116,0.114 0.193,0.273 0.19,0.477 -0.114,6.353 1.406,12.481 2.637,18.661 0.242,0.999 0.472,2 0.673,3.001 0.179,0.883 0.345,1.766 0.517,2.649 0.739,-3.011 2.863,-6.031 5.4,-8.821 -0.393,-0.997 -0.568,-2.153 -0.539,-3.13 -0.652,0.855 -1.572,1.514 -2.685,1.537 -1.544,0.032 -2.537,-1.095 -2.53,-2.628 0.016,-3.141 3.662,-5.318 6.535,-6.91 0.007,-0.002 0.013,-0.007 0.019,-0.01 0.437,-0.242 0.857,-0.472 1.242,-0.688 -10e-4,-0.162 0.008,-0.321 0.041,-0.468 0.047,-0.222 0.373,-0.416 0.535,-0.168 0.054,0.084 0.097,0.184 0.145,0.276 0.307,-0.011 0.503,0.417 0.303,0.683 0.524,1.48 0.614,3.473 0.85,4.819 0.137,0.771 0.281,1.588 0.397,2.416 1.904,-1.738 3.755,-3.297 5.214,-4.585 -0.078,-0.168 -0.153,-0.341 -0.231,-0.509 -0.24,-0.512 0.554,-0.887 0.792,-0.375 0.041,0.09 0.079,0.183 0.12,0.274 0.122,-0.112 0.244,-0.225 0.359,-0.33 0.409,-0.378 0.953,0.278 0.555,0.658 -0.18,0.172 -0.362,0.341 -0.543,0.511 1.125,2.546 2.096,5.147 3.022,7.768 0.062,-0.365 0.125,-0.732 0.185,-1.098 -0.066,-0.195 -0.14,-0.39 -0.201,-0.584 -0.049,-0.167 0.197,-0.26 0.297,-0.137 0.005,0.005 0.007,0.011 0.012,0.019 0.006,-0.038 0.011,-0.073 0.018,-0.111 -0.056,-0.081 -0.111,-0.161 -0.163,-0.244 -0.099,-0.155 -0.028,-0.445 0.208,-0.396 0.014,0.002 0.027,0.011 0.043,0.015 0.048,-0.342 0.091,-0.682 0.134,-1.023 -0.056,-0.155 -0.116,-0.309 -0.166,-0.466 -0.05,-0.17 0.103,-0.265 0.249,-0.253 0.037,-0.382 0.078,-0.765 0.098,-1.145 -0.028,-0.019 -0.061,-0.038 -0.092,-0.057 -0.406,-0.251 -0.069,-0.81 0.332,-0.731 0.212,-0.089 0.511,0.024 0.557,0.3 2.636,1.589 5.591,3.323 8.046,5.454 -0.058,-5.98 0.534,-12.114 1.901,-17.926 0.097,-0.403 0.754,-0.241 0.7,0.158 -0.828,6.219 -1.899,12.288 -1.744,18.533 0.94,0.902 1.778,1.872 2.454,2.934 0.766,1.199 0.82,3.108 -0.679,3.683 -0.208,0.082 -0.429,0.124 -0.652,0.148 1.1,2.633 3.068,4.439 5.605,0.928 1.757,-2.435 2.123,-5.811 1.641,-8.68 -0.073,-0.43 0.572,-0.538 0.666,-0.114 0.014,0.078 0.031,0.165 0.042,0.261 0.059,-0.002 0.121,0.003 0.174,0.049 1.847,1.566 3.953,2.636 6.238,3.428 3.227,1.118 6.642,-0.919 5.166,-4.677 m -7.275,-7.822 c -0.142,-0.117 -0.286,-0.236 -0.427,-0.351 -10e-4,0.245 -0.016,0.492 -0.016,0.739 -0.006,1.046 -0.017,2.08 0.132,3.114 0.031,0.21 -0.285,0.268 -0.325,0.057 -0.098,-0.56 -0.184,-1.12 -0.259,-1.685 0.002,0.227 -0.004,0.454 0,0.679 0.004,0.233 -0.249,0.312 -0.439,0.252 0.41,0.925 1.773,3.439 2.094,2.652 0.023,-0.055 0.031,-0.115 0.049,-0.171 -0.172,0.093 -0.455,-0.005 -0.452,-0.268 -0.001,-0.183 -0.018,-0.364 -0.024,-0.547 -0.14,0.066 -0.329,0.035 -0.361,-0.162 -0.127,-0.737 -0.187,-1.48 -0.253,-2.226 -0.051,-0.598 -0.234,-1.214 -0.06,-1.798 0.038,-0.124 0.232,-0.164 0.307,-0.055 0.106,0.152 0.168,0.317 0.217,0.486 0.03,-0.004 0.06,-0.001 0.088,0.014 -0.094,-0.253 -0.184,-0.499 -0.271,-0.73 m -1.863,0.072 c -0.088,-0.456 -0.194,-0.968 -0.29,-1.51 -0.08,0.636 -0.169,1.264 -0.274,1.864 0.132,-0.01 0.272,0.055 0.328,0.183 0.183,-0.037 0.381,0.047 0.404,0.288 0.017,0.356 0.07,0.71 0.135,1.06 -0.023,-0.573 -0.047,-1.144 -0.067,-1.717 -0.103,0.01 -0.21,-0.037 -0.236,-0.168 m -1.002,0.837 c 0.003,0.455 -0.679,0.373 -0.696,-0.068 -10e-4,-0.06 -10e-4,-0.127 -0.005,-0.189 0.003,0.409 0.005,0.819 0.013,1.231 10e-4,0.25 -0.279,0.346 -0.482,0.277 0.001,0.032 0.003,0.065 0.005,0.096 0.005,0.484 -0.732,0.403 -0.744,-0.07 -0.022,-0.972 -0.125,-1.937 -0.155,-2.907 -0.015,-0.487 -0.04,-0.984 0.033,-1.457 -0.078,0.123 -0.165,0.244 -0.243,0.37 0.161,0.839 0.036,1.752 0.111,2.607 0.066,0.766 0.18,1.525 0.304,2.282 0.021,0.031 0.023,0.067 0.014,0.103 0.006,0.027 0.011,0.057 0.015,0.083 0.814,-0.494 1.58,-1.7 1.897,-2.388 -0.022,-0.027 -0.035,-0.065 -0.026,-0.116 0.132,-0.846 0.137,-1.702 0.11,-2.561 -0.062,0.921 -0.156,1.845 -0.151,2.707 M 4.37,23.483 c -0.044,0.021 -0.083,0.043 -0.139,0.054 -11.659,2.055 -23.139,5.008 -34.824,6.886 -4.448,0.715 -8.853,1.643 -13.301,2.354 -1.036,0.165 -2.552,0.525 -3.891,0.468 -0.122,0.067 -0.278,0.067 -0.395,-0.033 -0.373,-0.041 -0.712,-0.143 -1.029,-0.276 -0.006,0.112 -0.004,0.229 -0.012,0.34 -0.037,0.504 -0.795,0.423 -0.776,-0.075 0.067,-1.864 -0.258,-3.735 -0.315,-5.598 -0.809,-3.844 -1.278,-7.776 -1.712,-11.707 -2.154,-10.366 -4.059,-20.859 -5.037,-31.283 -0.047,-0.273 -0.102,-0.547 -0.146,-0.822 l -0.14,0.022 c -0.61,0.095 -0.771,-0.829 -0.163,-0.944 16.825,-3.182 33.749,-5.706 50.464,-9.459 0.749,-0.168 0.953,1.007 0.207,1.172 -4.847,1.072 -9.709,2.069 -14.587,3.019 0.017,0.005 0.035,0.005 0.05,0.013 3.163,1.673 5.909,4.094 8.597,6.569 0.51,-0.769 1.037,-1.525 1.558,-2.282 0.096,-0.135 0.25,-0.156 0.383,-0.11 0.177,-0.117 0.443,-0.084 0.507,0.197 0.486,2.073 1.665,4.34 2.486,6.63 0.091,0.075 0.181,0.157 0.27,0.233 2.263,1.855 5.576,4.384 6.976,7.382 -1.189,-7.586 -2.314,-15.181 -3.566,-22.718 -0.117,-0.701 0.955,-0.885 1.083,-0.188 2.975,16.513 6.153,33.171 8.284,49.815 0.068,0.52 -0.587,0.698 -0.832,0.341"
       style="fill:#38180e;fill-opacity:1;fill-rule:evenodd;stroke:none"
       transform="matrix(0.35277776,0,0,-0.35277776,122.84787,97.653821)"
       clip-path="url(#clipPath9470)" />
    <path
       id="path450"
       d="m 0,0 c -0.886,0.166 -1.312,0.775 -1.829,1.197 -0.622,0.508 -1.339,0.953 -1.781,1.739 0.589,0.195 1.021,-0.065 1.476,-0.17 0.598,-0.137 0.922,0.17 0.836,0.795 C -1.333,3.818 -1.449,4.064 -1.489,4.322 -1.688,5.607 -1.59,6.838 -0.756,8.037 -0.625,7.846 -0.485,7.73 -0.454,7.59 -0.331,7.037 -0.212,6.48 -0.146,5.918 0.086,4.004 0.068,2.082 0,0 M 1.448,-2.574 C 1.447,-2.23 1.368,-1.885 1.313,-1.543 1.273,-1.287 1.137,-1.023 1.18,-0.787 1.512,1.088 1.391,2.979 1.412,4.865 1.424,5.973 1.266,7.057 1.021,8.131 0.934,8.512 0.819,8.896 0.659,9.254 0.328,9.998 -0.462,10.164 -1.067,9.631 -1.262,9.459 -1.458,9.254 -1.568,9.025 -1.906,8.316 -2.274,7.609 -2.499,6.861 -2.709,6.158 -2.75,5.406 -2.892,4.508 -3.276,4.629 -3.562,4.721 -3.848,4.807 -4.183,4.906 -4.516,5.031 -4.859,5.092 -5.284,5.166 -5.627,5.012 -5.862,4.625 -6.377,3.773 -6.332,3.158 -5.671,2.346 c 0.138,-0.17 0.274,-0.344 0.428,-0.5 1.204,-1.219 2.488,-2.348 3.851,-3.389 0.522,-0.396 1.045,-0.793 1.569,-1.187 0.138,-0.106 0.273,-0.223 0.425,-0.303 0.402,-0.213 0.847,0.017 0.846,0.459"
       style="fill:#bd9500;fill-opacity:0.85490197;fill-rule:nonzero;stroke:none"
       transform="matrix(0.42076362,0,0,-0.35687265,86.645542,98.623606)"
       clip-path="url(#clipPath451)" />
    <path
       id="path454"
       d="m 0,0 c 0.301,-0.18 0.576,-0.4 0.88,-0.574 0.369,-0.207 0.844,0.025 0.903,0.447 0.096,0.689 0.164,1.383 0.244,2.074 0.03,0.262 0.049,0.524 0.094,0.783 0.045,0.266 0.136,0.518 0.44,0.584 C 2.748,3.354 2.957,3.078 2.981,2.74 3.055,1.73 3.075,0.721 2.792,-0.266 2.54,-1.148 2.281,-2.031 1.991,-3.031 0.883,-2.279 -0.106,-1.002 -0.468,0.057 -0.292,0.219 -0.137,0.084 0,0 m -2.337,-0.543 c 0.661,-1.248 1.479,-2.387 2.52,-3.342 0.513,-0.474 1.083,-0.892 1.662,-1.283 0.474,-0.322 0.859,-0.146 1.009,0.377 0.155,0.545 0.271,1.107 0.48,1.629 0.543,1.351 0.893,2.756 1.101,4.185 C 4.542,1.754 4.514,2.512 4.49,3.252 4.474,3.736 4.321,4.199 3.979,4.576 3.554,5.045 3.125,5.152 2.567,4.865 1.696,4.42 1.154,3.701 0.938,2.748 0.853,2.369 0.813,1.979 0.738,1.5 0.46,1.67 0.243,1.801 0.031,1.934 -0.263,2.121 -0.539,2.348 -0.851,2.494 -1.226,2.668 -1.633,2.658 -1.978,2.396 -2.71,1.84 -2.937,1.066 -2.64,0.186 c 0.083,-0.25 0.18,-0.498 0.303,-0.729"
       style="fill:#bd9500;fill-opacity:0.85490197;fill-rule:nonzero;stroke:none"
       transform="matrix(0.42076362,0,0,-0.35687265,87.464851,89.115593)"
       clip-path="url(#clipPath455)" />
    <path
       id="path454-6"
       d="m 0,0 c 0.301,-0.18 0.576,-0.4 0.88,-0.574 0.369,-0.207 0.844,0.025 0.903,0.447 0.096,0.689 0.164,1.383 0.244,2.074 0.03,0.262 0.049,0.524 0.094,0.783 0.045,0.266 0.136,0.518 0.44,0.584 C 2.748,3.354 2.957,3.078 2.981,2.74 3.055,1.73 3.075,0.721 2.792,-0.266 2.54,-1.148 2.281,-2.031 1.991,-3.031 0.883,-2.279 -0.106,-1.002 -0.468,0.057 -0.292,0.219 -0.137,0.084 0,0 m -2.337,-0.543 c 0.661,-1.248 1.479,-2.387 2.52,-3.342 0.513,-0.474 1.083,-0.892 1.662,-1.283 0.474,-0.322 0.859,-0.146 1.009,0.377 0.155,0.545 0.271,1.107 0.48,1.629 0.543,1.351 0.893,2.756 1.101,4.185 C 4.542,1.754 4.514,2.512 4.49,3.252 4.474,3.736 4.321,4.199 3.979,4.576 3.554,5.045 3.125,5.152 2.567,4.865 1.696,4.42 1.154,3.701 0.938,2.748 0.853,2.369 0.813,1.979 0.738,1.5 0.46,1.67 0.243,1.801 0.031,1.934 -0.263,2.121 -0.539,2.348 -0.851,2.494 -1.226,2.668 -1.633,2.658 -1.978,2.396 -2.71,1.84 -2.937,1.066 -2.64,0.186 c 0.083,-0.25 0.18,-0.498 0.303,-0.729"
       style="fill:#be9500;fill-opacity:1;fill-rule:nonzero;stroke:none"
       transform="matrix(0.42076362,0,0,-0.35687265,95.093281,81.39746)"
       clip-path="url(#clipPath455-14)" />
    <path
       id="path458"
       d="M 0,0 C -0.362,0.037 -0.588,0.387 -0.582,0.896 -0.577,1.227 -0.325,1.418 0.052,1.379 0.428,1.34 0.677,1.049 0.659,0.67 0.642,0.285 0.329,-0.033 0,0 M -0.136,2.287 C -0.288,2.203 -0.458,2.154 -0.613,2.072 c -0.889,-0.459 -1.349,-1.394 -1.185,-2.4 0.127,-0.785 0.761,-1.305 1.651,-1.276 0.08,0.018 0.256,0.036 0.419,0.09 0.85,0.289 1.716,1.567 1.673,2.465 -0.052,1.07 -1.006,1.934 -2.081,1.336"
       style="fill:#bd9500;fill-opacity:0.85490197;fill-rule:nonzero;stroke:none"
       transform="matrix(0.42076362,0,0,-0.35687265,81.66109,93.595349)"
       clip-path="url(#clipPath459)" />
    <path
       id="path462"
       d="m 0,0 c -0.399,0.215 -0.851,0.305 -1.241,0.02 -0.628,-0.457 -1.01,-1.081 -0.967,-1.889 0.039,-0.77 0.61,-1.268 1.411,-1.246 0.333,0.027 0.724,0.088 0.877,0.427 0.227,0.508 0.431,1.051 0.506,1.598 C 0.646,-0.658 0.421,-0.227 0,0"
       style="fill:#bd9500;fill-opacity:0.85490197;fill-rule:nonzero;stroke:none"
       transform="matrix(0.42076362,0,0,-0.35687265,83.392407,100.70211)"
       clip-path="url(#clipPath463)" />
    <path
       id="path466"
       d="M 0,0 C 0.391,-0.178 1.095,-0.049 1.285,0.309 1.528,0.762 1.686,1.258 1.825,1.602 1.769,2.189 1.579,2.51 1.185,2.689 0.791,2.871 0.422,2.832 0.095,2.541 -0.305,2.182 -0.577,1.734 -0.724,1.227 -0.874,0.711 -0.593,0.268 0,0"
       style="fill:#bd9500;fill-opacity:0.85490197;fill-rule:nonzero;stroke:none"
       transform="matrix(0.42076362,0,0,-0.35687265,89.46533,94.831837)"
       clip-path="url(#clipPath467)" />
    <path
       id="path468"
       d="m 0,0 c -0.318,-0.027 -0.589,-0.166 -0.702,-0.492 -0.087,-0.246 -0.199,-0.496 -0.209,-0.748 -0.008,-0.194 0.075,-0.44 0.205,-0.578 0.314,-0.338 0.733,-0.496 1.183,-0.309 0.392,0.162 0.338,0.565 0.392,0.992 -0.02,0.127 -0.03,0.348 -0.088,0.553 C 0.688,-0.25 0.322,0.025 0,0"
       style="fill:#bd9500;fill-opacity:0.85490197;fill-rule:nonzero;stroke:none"
       transform="matrix(0.42076362,0,0,-0.35687265,84.975613,102.97995)"
       clip-path="url(#clipPath469)" />
    <path
       id="path450-72"
       d="m 0,0 c -0.886,0.166 -1.312,0.775 -1.829,1.197 -0.622,0.508 -1.339,0.953 -1.781,1.739 0.589,0.195 1.021,-0.065 1.476,-0.17 0.598,-0.137 0.922,0.17 0.836,0.795 C -1.333,3.818 -1.449,4.064 -1.489,4.322 -1.688,5.607 -1.59,6.838 -0.756,8.037 -0.625,7.846 -0.485,7.73 -0.454,7.59 -0.331,7.037 -0.212,6.48 -0.146,5.918 0.086,4.004 0.068,2.082 0,0 M 1.448,-2.574 C 1.447,-2.23 1.368,-1.885 1.313,-1.543 1.273,-1.287 1.137,-1.023 1.18,-0.787 1.512,1.088 1.391,2.979 1.412,4.865 1.424,5.973 1.266,7.057 1.021,8.131 0.934,8.512 0.819,8.896 0.659,9.254 0.328,9.998 -0.462,10.164 -1.067,9.631 -1.262,9.459 -1.458,9.254 -1.568,9.025 -1.906,8.316 -2.274,7.609 -2.499,6.861 -2.709,6.158 -2.75,5.406 -2.892,4.508 -3.276,4.629 -3.562,4.721 -3.848,4.807 -4.183,4.906 -4.516,5.031 -4.859,5.092 -5.284,5.166 -5.627,5.012 -5.862,4.625 -6.377,3.773 -6.332,3.158 -5.671,2.346 c 0.138,-0.17 0.274,-0.344 0.428,-0.5 1.204,-1.219 2.488,-2.348 3.851,-3.389 0.522,-0.396 1.045,-0.793 1.569,-1.187 0.138,-0.106 0.273,-0.223 0.425,-0.303 0.402,-0.213 0.847,0.017 0.846,0.459"
       style="fill:#be9500;fill-opacity:1;fill-rule:nonzero;stroke:none"
       transform="matrix(0.42076362,0,0,-0.35687265,107.7379,80.404153)"
       clip-path="url(#clipPath451-53)" />
    <path
       id="path458-3"
       d="M 0,0 C -0.362,0.037 -0.588,0.387 -0.582,0.896 -0.577,1.227 -0.325,1.418 0.052,1.379 0.428,1.34 0.677,1.049 0.659,0.67 0.642,0.285 0.329,-0.033 0,0 M -0.136,2.287 C -0.288,2.203 -0.458,2.154 -0.613,2.072 c -0.889,-0.459 -1.349,-1.394 -1.185,-2.4 0.127,-0.785 0.761,-1.305 1.651,-1.276 0.08,0.018 0.256,0.036 0.419,0.09 0.85,0.289 1.716,1.567 1.673,2.465 -0.052,1.07 -1.006,1.934 -2.081,1.336"
       style="fill:#be9500;fill-opacity:1;fill-rule:nonzero;stroke:none"
       transform="matrix(0.42076362,0,0,-0.35687265,102.75344,75.375896)"
       clip-path="url(#clipPath459-8)" />
    <path
       id="path462-4"
       d="m 0,0 c -0.399,0.215 -0.851,0.305 -1.241,0.02 -0.628,-0.457 -1.01,-1.081 -0.967,-1.889 0.039,-0.77 0.61,-1.268 1.411,-1.246 0.333,0.027 0.724,0.088 0.877,0.427 0.227,0.508 0.431,1.051 0.506,1.598 C 0.646,-0.658 0.421,-0.227 0,0"
       style="fill:#be9500;fill-opacity:1;fill-rule:nonzero;stroke:none"
       transform="matrix(0.42076362,0,0,-0.35687265,101.27701,79.274901)"
       clip-path="url(#clipPath463-5)" />
    <path
       id="path466-3"
       d="M 0,0 C 0.391,-0.178 1.095,-0.049 1.285,0.309 1.528,0.762 1.686,1.258 1.825,1.602 1.769,2.189 1.579,2.51 1.185,2.689 0.791,2.871 0.422,2.832 0.095,2.541 -0.305,2.182 -0.577,1.734 -0.724,1.227 -0.874,0.711 -0.593,0.268 0,0"
       style="fill:#be9500;fill-opacity:1;fill-rule:nonzero;stroke:none"
       transform="matrix(0.42076362,0,0,-0.35687265,110.55768,76.612384)"
       clip-path="url(#clipPath467-6)" />
    <path
       id="path468-09"
       d="m 0,0 c -0.318,-0.027 -0.589,-0.166 -0.702,-0.492 -0.087,-0.246 -0.199,-0.496 -0.209,-0.748 -0.008,-0.194 0.075,-0.44 0.205,-0.578 0.314,-0.338 0.733,-0.496 1.183,-0.309 0.392,0.162 0.338,0.565 0.392,0.992 -0.02,0.127 -0.03,0.348 -0.088,0.553 C 0.688,-0.25 0.322,0.025 0,0"
       style="fill:#be9500 icc-color(Adobe-RGB-1998, 0.69799805, 0.57998657, 0.13299561);fill-opacity:1;fill-rule:nonzero;stroke:none"
       transform="matrix(0.42076362,0,0,-0.35687265,106.06797,84.760492)"
       clip-path="url(#clipPath469-0)" />
    <path
       id="path450-7"
       d="m 0,0 c -0.886,0.166 -1.312,0.775 -1.829,1.197 -0.622,0.508 -1.339,0.953 -1.781,1.739 0.589,0.195 1.021,-0.065 1.476,-0.17 0.598,-0.137 0.922,0.17 0.836,0.795 C -1.333,3.818 -1.449,4.064 -1.489,4.322 -1.688,5.607 -1.59,6.838 -0.756,8.037 -0.625,7.846 -0.485,7.73 -0.454,7.59 -0.331,7.037 -0.212,6.48 -0.146,5.918 0.086,4.004 0.068,2.082 0,0 M 1.448,-2.574 C 1.447,-2.23 1.368,-1.885 1.313,-1.543 1.273,-1.287 1.137,-1.023 1.18,-0.787 1.512,1.088 1.391,2.979 1.412,4.865 1.424,5.973 1.266,7.057 1.021,8.131 0.934,8.512 0.819,8.896 0.659,9.254 0.328,9.998 -0.462,10.164 -1.067,9.631 -1.262,9.459 -1.458,9.254 -1.568,9.025 -1.906,8.316 -2.274,7.609 -2.499,6.861 -2.709,6.158 -2.75,5.406 -2.892,4.508 -3.276,4.629 -3.562,4.721 -3.848,4.807 -4.183,4.906 -4.516,5.031 -4.859,5.092 -5.284,5.166 -5.627,5.012 -5.862,4.625 -6.377,3.773 -6.332,3.158 -5.671,2.346 c 0.138,-0.17 0.274,-0.344 0.428,-0.5 1.204,-1.219 2.488,-2.348 3.851,-3.389 0.522,-0.396 1.045,-0.793 1.569,-1.187 0.138,-0.106 0.273,-0.223 0.425,-0.303 0.402,-0.213 0.847,0.017 0.846,0.459"
       style="fill:#bd9500;fill-opacity:0.85490197;fill-rule:nonzero;stroke:none"
       transform="matrix(0.35277776,0,0,-0.35277776,94.254103,102.95495)"
       clip-path="url(#clipPath451-1)" />
    <path
       id="path458-8"
       d="M 0,0 C -0.362,0.037 -0.588,0.387 -0.582,0.896 -0.577,1.227 -0.325,1.418 0.052,1.379 0.428,1.34 0.677,1.049 0.659,0.67 0.642,0.285 0.329,-0.033 0,0 M -0.136,2.287 C -0.288,2.203 -0.458,2.154 -0.613,2.072 c -0.889,-0.459 -1.349,-1.394 -1.185,-2.4 0.127,-0.785 0.761,-1.305 1.651,-1.276 0.08,0.018 0.256,0.036 0.419,0.09 0.85,0.289 1.716,1.567 1.673,2.465 -0.052,1.07 -1.006,1.934 -2.081,1.336"
       style="fill:#bd9500;fill-opacity:0.85490197;fill-rule:nonzero;stroke:none"
       transform="matrix(0.35277776,0,0,-0.35277776,90.075025,97.984383)"
       clip-path="url(#clipPath459-2)" />
    <path
       id="path462-1"
       d="m 0,0 c -0.399,0.215 -0.851,0.305 -1.241,0.02 -0.628,-0.457 -1.01,-1.081 -0.967,-1.889 0.039,-0.77 0.61,-1.268 1.411,-1.246 0.333,0.027 0.724,0.088 0.877,0.427 0.227,0.508 0.431,1.051 0.506,1.598 C 0.646,-0.658 0.421,-0.227 0,0"
       style="fill:#bd9500;fill-opacity:0.85490197;fill-rule:nonzero;stroke:none"
       transform="matrix(0.35277776,0,0,-0.35277776,91.526601,105.0096)"
       clip-path="url(#clipPath463-6)" />
    <path
       id="path466-5"
       d="M 0,0 C 0.391,-0.178 1.095,-0.049 1.285,0.309 1.528,0.762 1.686,1.258 1.825,1.602 1.769,2.189 1.579,2.51 1.185,2.689 0.791,2.871 0.422,2.832 0.095,2.541 -0.305,2.182 -0.577,1.734 -0.724,1.227 -0.874,0.711 -0.593,0.268 0,0"
       style="fill:#be9500;fill-opacity:1;fill-rule:nonzero;stroke:none"
       transform="matrix(0.35277776,0,0,-0.35277776,96.618277,99.206683)"
       clip-path="url(#clipPath467-7)" />
    <path
       id="path468-0"
       d="m 0,0 c -0.318,-0.027 -0.589,-0.166 -0.702,-0.492 -0.087,-0.246 -0.199,-0.496 -0.209,-0.748 -0.008,-0.194 0.075,-0.44 0.205,-0.578 0.314,-0.338 0.733,-0.496 1.183,-0.309 0.392,0.162 0.338,0.565 0.392,0.992 -0.02,0.127 -0.03,0.348 -0.088,0.553 C 0.688,-0.25 0.322,0.025 0,0"
       style="fill:#bd9500;fill-opacity:0.85490197;fill-rule:nonzero;stroke:none"
       transform="matrix(0.35277776,0,0,-0.35277776,92.853997,107.26131)"
       clip-path="url(#clipPath469-5)" />
    <path
       id="path450-3"
       d="m 0,0 c -0.886,0.166 -1.312,0.775 -1.829,1.197 -0.622,0.508 -1.339,0.953 -1.781,1.739 0.589,0.195 1.021,-0.065 1.476,-0.17 0.598,-0.137 0.922,0.17 0.836,0.795 C -1.333,3.818 -1.449,4.064 -1.489,4.322 -1.688,5.607 -1.59,6.838 -0.756,8.037 -0.625,7.846 -0.485,7.73 -0.454,7.59 -0.331,7.037 -0.212,6.48 -0.146,5.918 0.086,4.004 0.068,2.082 0,0 M 1.448,-2.574 C 1.447,-2.23 1.368,-1.885 1.313,-1.543 1.273,-1.287 1.137,-1.023 1.18,-0.787 1.512,1.088 1.391,2.979 1.412,4.865 1.424,5.973 1.266,7.057 1.021,8.131 0.934,8.512 0.819,8.896 0.659,9.254 0.328,9.998 -0.462,10.164 -1.067,9.631 -1.262,9.459 -1.458,9.254 -1.568,9.025 -1.906,8.316 -2.274,7.609 -2.499,6.861 -2.709,6.158 -2.75,5.406 -2.892,4.508 -3.276,4.629 -3.562,4.721 -3.848,4.807 -4.183,4.906 -4.516,5.031 -4.859,5.092 -5.284,5.166 -5.627,5.012 -5.862,4.625 -6.377,3.773 -6.332,3.158 -5.671,2.346 c 0.138,-0.17 0.274,-0.344 0.428,-0.5 1.204,-1.219 2.488,-2.348 3.851,-3.389 0.522,-0.396 1.045,-0.793 1.569,-1.187 0.138,-0.106 0.273,-0.223 0.425,-0.303 0.402,-0.213 0.847,0.017 0.846,0.459"
       style="fill:#be9500;fill-opacity:1;fill-rule:nonzero;stroke:none;stroke-width:1.00062997;stroke-dasharray:none"
       transform="matrix(0.35277776,0,0,-0.35277776,118.90715,85.205009)"
       clip-path="url(#clipPath451-9)" />
    <path
       id="path454-4"
       d="m 0,0 c 0.301,-0.18 0.576,-0.4 0.88,-0.574 0.369,-0.207 0.844,0.025 0.903,0.447 0.096,0.689 0.164,1.383 0.244,2.074 0.03,0.262 0.049,0.524 0.094,0.783 0.045,0.266 0.136,0.518 0.44,0.584 C 2.748,3.354 2.957,3.078 2.981,2.74 3.055,1.73 3.075,0.721 2.792,-0.266 2.54,-1.148 2.281,-2.031 1.991,-3.031 0.883,-2.279 -0.106,-1.002 -0.468,0.057 -0.292,0.219 -0.137,0.084 0,0 m -2.337,-0.543 c 0.661,-1.248 1.479,-2.387 2.52,-3.342 0.513,-0.474 1.083,-0.892 1.662,-1.283 0.474,-0.322 0.859,-0.146 1.009,0.377 0.155,0.545 0.271,1.107 0.48,1.629 0.543,1.351 0.893,2.756 1.101,4.185 C 4.542,1.754 4.514,2.512 4.49,3.252 4.474,3.736 4.321,4.199 3.979,4.576 3.554,5.045 3.125,5.152 2.567,4.865 1.696,4.42 1.154,3.701 0.938,2.748 0.853,2.369 0.813,1.979 0.738,1.5 0.46,1.67 0.243,1.801 0.031,1.934 -0.263,2.121 -0.539,2.348 -0.851,2.494 -1.226,2.668 -1.633,2.658 -1.978,2.396 -2.71,1.84 -2.937,1.066 -2.64,0.186 c 0.083,-0.25 0.18,-0.498 0.303,-0.729"
       style="fill:#be9500;fill-opacity:1;fill-rule:nonzero;stroke:none"
       transform="matrix(0.35277776,0,0,-0.35277776,121.10361,81.278137)"
       clip-path="url(#clipPath455-7)" />
    <path
       id="path458-2"
       d="M 0,0 C -0.362,0.037 -0.588,0.387 -0.582,0.896 -0.577,1.227 -0.325,1.418 0.052,1.379 0.428,1.34 0.677,1.049 0.659,0.67 0.642,0.285 0.329,-0.033 0,0 M -0.136,2.287 C -0.288,2.203 -0.458,2.154 -0.613,2.072 c -0.889,-0.459 -1.349,-1.394 -1.185,-2.4 0.127,-0.785 0.761,-1.305 1.651,-1.276 0.08,0.018 0.256,0.036 0.419,0.09 0.85,0.289 1.716,1.567 1.673,2.465 -0.052,1.07 -1.006,1.934 -2.081,1.336"
       style="fill:#be9500;fill-opacity:0.63137257;fill-rule:nonzero;stroke:none"
       transform="matrix(0.35277776,0,0,-0.35277776,117.18106,81.743971)"
       clip-path="url(#clipPath459-0)" />
    <path
       id="path462-9"
       d="m 0,0 c -0.399,0.215 -0.851,0.305 -1.241,0.02 -0.628,-0.457 -1.01,-1.081 -0.967,-1.889 0.039,-0.77 0.61,-1.268 1.411,-1.246 0.333,0.027 0.724,0.088 0.877,0.427 0.227,0.508 0.431,1.051 0.506,1.598 C 0.646,-0.658 0.421,-0.227 0,0"
       style="fill:#be9500;fill-opacity:1;fill-rule:nonzero;stroke:none"
       transform="matrix(0.35277776,0,0,-0.35277776,126.69536,81.123741)"
       clip-path="url(#clipPath463-3)" />
    <path
       id="path466-57"
       d="M 0,0 C 0.391,-0.178 1.095,-0.049 1.285,0.309 1.528,0.762 1.686,1.258 1.825,1.602 1.769,2.189 1.579,2.51 1.185,2.689 0.791,2.871 0.422,2.832 0.095,2.541 -0.305,2.182 -0.577,1.734 -0.724,1.227 -0.874,0.711 -0.593,0.268 0,0"
       style="fill:#be9500;fill-opacity:1;fill-rule:nonzero;stroke:none"
       transform="matrix(0.35277776,0,0,-0.35277776,122.78086,86.92879)"
       clip-path="url(#clipPath467-3)" />
    <path
       id="path468-8"
       d="m 0,0 c -0.318,-0.027 -0.589,-0.166 -0.702,-0.492 -0.087,-0.246 -0.199,-0.496 -0.209,-0.748 -0.008,-0.194 0.075,-0.44 0.205,-0.578 0.314,-0.338 0.733,-0.496 1.183,-0.309 0.392,0.162 0.338,0.565 0.392,0.992 -0.02,0.127 -0.03,0.348 -0.088,0.553 C 0.688,-0.25 0.322,0.025 0,0"
       style="fill:#be9500;fill-opacity:1;fill-rule:nonzero;stroke:none"
       transform="matrix(0.35277776,0,0,-0.35277776,124.487,84.376137)"
       clip-path="url(#clipPath469-7)" />
    <path
       id="path450-0"
       d="m 0,0 c -0.886,0.166 -1.312,0.775 -1.829,1.197 -0.622,0.508 -1.339,0.953 -1.781,1.739 0.589,0.195 1.021,-0.065 1.476,-0.17 0.598,-0.137 0.922,0.17 0.836,0.795 C -1.333,3.818 -1.449,4.064 -1.489,4.322 -1.688,5.607 -1.59,6.838 -0.756,8.037 -0.625,7.846 -0.485,7.73 -0.454,7.59 -0.331,7.037 -0.212,6.48 -0.146,5.918 0.086,4.004 0.068,2.082 0,0 M 1.448,-2.574 C 1.447,-2.23 1.368,-1.885 1.313,-1.543 1.273,-1.287 1.137,-1.023 1.18,-0.787 1.512,1.088 1.391,2.979 1.412,4.865 1.424,5.973 1.266,7.057 1.021,8.131 0.934,8.512 0.819,8.896 0.659,9.254 0.328,9.998 -0.462,10.164 -1.067,9.631 -1.262,9.459 -1.458,9.254 -1.568,9.025 -1.906,8.316 -2.274,7.609 -2.499,6.861 -2.709,6.158 -2.75,5.406 -2.892,4.508 -3.276,4.629 -3.562,4.721 -3.848,4.807 -4.183,4.906 -4.516,5.031 -4.859,5.092 -5.284,5.166 -5.627,5.012 -5.862,4.625 -6.377,3.773 -6.332,3.158 -5.671,2.346 c 0.138,-0.17 0.274,-0.344 0.428,-0.5 1.204,-1.219 2.488,-2.348 3.851,-3.389 0.522,-0.396 1.045,-0.793 1.569,-1.187 0.138,-0.106 0.273,-0.223 0.425,-0.303 0.402,-0.213 0.847,0.017 0.846,0.459"
       style="fill:#be9500;fill-opacity:1;fill-rule:nonzero;stroke:none"
       transform="matrix(0.35277776,0,0,-0.35277776,128.59274,101.39397)"
       clip-path="url(#clipPath451-5)" />
    <path
       id="path454-41"
       d="m 0,0 c 0.301,-0.18 0.576,-0.4 0.88,-0.574 0.369,-0.207 0.844,0.025 0.903,0.447 0.096,0.689 0.164,1.383 0.244,2.074 0.03,0.262 0.049,0.524 0.094,0.783 0.045,0.266 0.136,0.518 0.44,0.584 C 2.748,3.354 2.957,3.078 2.981,2.74 3.055,1.73 3.075,0.721 2.792,-0.266 2.54,-1.148 2.281,-2.031 1.991,-3.031 0.883,-2.279 -0.106,-1.002 -0.468,0.057 -0.292,0.219 -0.137,0.084 0,0 m -2.337,-0.543 c 0.661,-1.248 1.479,-2.387 2.52,-3.342 0.513,-0.474 1.083,-0.892 1.662,-1.283 0.474,-0.322 0.859,-0.146 1.009,0.377 0.155,0.545 0.271,1.107 0.48,1.629 0.543,1.351 0.893,2.756 1.101,4.185 C 4.542,1.754 4.514,2.512 4.49,3.252 4.474,3.736 4.321,4.199 3.979,4.576 3.554,5.045 3.125,5.152 2.567,4.865 1.696,4.42 1.154,3.701 0.938,2.748 0.853,2.369 0.813,1.979 0.738,1.5 0.46,1.67 0.243,1.801 0.031,1.934 -0.263,2.121 -0.539,2.348 -0.851,2.494 -1.226,2.668 -1.633,2.658 -1.978,2.396 -2.71,1.84 -2.937,1.066 -2.64,0.186 c 0.083,-0.25 0.18,-0.498 0.303,-0.729"
       style="fill:#be9500;fill-opacity:1;fill-rule:nonzero;stroke:none"
       transform="matrix(0.35277776,0,0,-0.35277776,129.27967,91.99505)"
       clip-path="url(#clipPath455-4)" />
    <path
       id="path462-7"
       d="m 0,0 c -0.399,0.215 -0.851,0.305 -1.241,0.02 -0.628,-0.457 -1.01,-1.081 -0.967,-1.889 0.039,-0.77 0.61,-1.268 1.411,-1.246 0.333,0.027 0.724,0.088 0.877,0.427 0.227,0.508 0.431,1.051 0.506,1.598 C 0.646,-0.658 0.421,-0.227 0,0"
       style="fill:#be9500;fill-opacity:1;fill-rule:nonzero;stroke:none"
       transform="matrix(0.35277776,0,0,-0.35277776,125.86524,103.44862)"
       clip-path="url(#clipPath463-7)" />
    <path
       id="path466-1"
       d="M 0,0 C 0.391,-0.178 1.095,-0.049 1.285,0.309 1.528,0.762 1.686,1.258 1.825,1.602 1.769,2.189 1.579,2.51 1.185,2.689 0.791,2.871 0.422,2.832 0.095,2.541 -0.305,2.182 -0.577,1.734 -0.724,1.227 -0.874,0.711 -0.593,0.268 0,0"
       style="fill:#be9500;fill-opacity:1;fill-rule:nonzero;stroke:none"
       transform="matrix(0.35277776,0,0,-0.35277776,130.95692,97.645703)"
       clip-path="url(#clipPath467-5)" />
    <path
       id="path468-6"
       d="m 0,0 c -0.318,-0.027 -0.589,-0.166 -0.702,-0.492 -0.087,-0.246 -0.199,-0.496 -0.209,-0.748 -0.008,-0.194 0.075,-0.44 0.205,-0.578 0.314,-0.338 0.733,-0.496 1.183,-0.309 0.392,0.162 0.338,0.565 0.392,0.992 -0.02,0.127 -0.03,0.348 -0.088,0.553 C 0.688,-0.25 0.322,0.025 0,0"
       style="fill:#be9500;fill-opacity:1;fill-rule:nonzero;stroke:none"
       transform="matrix(0.35277776,0,0,-0.35277776,127.19264,105.70033)"
       clip-path="url(#clipPath469-4)" />
    <path
       id="path260"
       d="M 0,0 C 0.757,-0.033 1.734,-0.173 2.432,0.167 2.56,0.229 2.56,0.442 2.432,0.504 1.734,0.845 0.757,0.705 0,0.672 -0.433,0.653 -0.433,0.019 0,0"
       style="fill:#38180e;fill-opacity:1;fill-rule:nonzero;stroke:none"
       transform="matrix(0.14595595,0,0,-0.13524665,113.25796,80.170963)"
       clip-path="url(#clipPath261)" />
    <path
       id="path262"
       d="m 0,0 c -0.01,-1.586 -0.018,-3.171 -0.069,-4.757 -0.025,-0.744 -0.159,-1.489 -0.243,-2.234 0.059,-0.683 0.151,-1.363 0.168,-2.049 0.056,-2.18 0.108,-4.361 0.11,-6.545 0.001,-1.614 -0.045,-3.233 -0.152,-4.849 -0.021,-0.306 -0.362,-0.737 -0.657,-0.885 -2.478,-1.243 -5.045,-1.72 -7.693,-1.079 -0.695,0.168 -1.37,1.379 -1.37,2.369 -10e-4,4.429 -0.028,8.858 0.019,13.289 0.035,3.47 0.163,6.944 0.26,10.417 0.023,0.779 0.087,1.557 0.684,2.269 1.339,-0.055 2.713,-0.113 4.085,-0.17 0.066,0.001 0.133,0.001 0.202,0.002 C -3.725,5.691 -2.789,5.621 -1.86,5.512 -1.363,5.454 -1.136,5.083 -0.838,4.689 0.229,3.278 0.011,1.625 0,0 m -11.3,-19.644 c 0,-0.622 0.081,-1.238 0.133,-2 -0.885,-0.167 -1.779,-0.355 -2.678,-0.503 -2.14,-0.354 -13.858,-1.324 -17.346,-1.316 -2.573,0.005 -5.137,0.17 -7.698,0.327 -1.559,0.096 -3.111,0.275 -4.653,0.489 -1.441,0.199 -2.697,0.743 -3.845,1.707 -0.887,0.745 -1.791,1.387 -2.058,2.58 -0.212,0.952 -0.368,1.925 -0.459,2.902 -0.446,4.78 -0.612,9.583 -0.271,14.418 0.163,2.307 0.347,4.614 0.536,6.921 0.12,1.454 0.411,1.741 1.841,1.715 2.659,-0.049 5.315,-0.146 7.975,-0.201 1.65,-0.034 3.308,0.036 4.952,-0.054 2.678,-0.147 5.35,-0.368 8.021,-0.591 1.967,-0.166 3.919,-0.483 5.892,-0.557 2.91,-0.109 5.835,-0.053 8.752,-0.089 0.52,-0.006 1.037,-0.111 1.575,-0.173 -0.205,-1.4 -0.472,-2.727 -0.576,-4.058 -0.148,-1.885 -0.25,-3.776 -0.24,-5.657 0.019,-3.764 0.147,-14.336 0.147,-15.86 m -37.713,30.351 c 0.537,0.969 1.424,1.471 2.418,1.597 1.322,0.167 2.661,0.223 3.988,0.196 2.717,-0.054 5.434,-0.169 8.147,-0.303 5.307,-0.263 10.619,-0.487 15.915,-0.862 3.702,-0.262 7.376,-0.754 11.065,-1.13 C -5.958,10.049 -4.435,9.91 -2.908,9.798 -1.716,9.71 -0.848,8.8 -1.105,7.719 -1.828,7.532 -6.754,7.691 -8.068,7.77 c -1.983,0.119 -3.977,0.138 -5.966,0.205 -2.122,0.071 -4.243,0.147 -6.366,0.223 -4.651,0.165 -9.303,0.33 -13.954,0.495 -1.675,0.059 -3.351,0.134 -5.03,0.174 -2.926,0.069 -5.854,0.099 -8.778,0.183 -1.146,0.033 -1.421,0.628 -0.851,1.657 m 22.707,3.806 c -0.381,-0.118 -0.782,-0.345 -1.174,-0.349 -3.04,-0.031 -6.082,-0.023 -9.12,-0.01 -0.261,0 -0.517,0.123 -0.852,0.209 0.472,1.1 1.146,1.613 2.098,1.609 2.509,-0.012 5.016,-0.063 7.521,-0.105 0.79,-0.013 1.338,-0.351 1.527,-1.354 m -15.514,2.72 c 0.359,0.767 0.776,1.239 1.751,1.437 2.297,0.47 4.598,0.825 6.891,0.708 3.088,-0.156 6.16,-0.512 9.226,-0.859 0.419,-0.047 0.867,-0.457 1.124,-0.83 0.483,-0.701 0.838,-1.497 1.245,-2.254 l 0.056,0.022 -0.041,-0.031 c 0.115,-0.441 0.232,-0.88 0.35,-1.316 -0.873,-0.361 -1.872,-0.148 -2.428,0.497 -0.226,0.264 -0.524,0.484 -0.684,0.784 -0.762,1.425 -2.113,1.859 -3.571,1.933 -2.118,0.108 -4.252,0.114 -6.381,0.048 -1.563,-0.049 -2.98,-0.57 -3.901,-2.07 -0.433,-0.704 -1.019,-0.995 -1.892,-0.897 -0.914,0.103 -1.867,-0.059 -2.805,-0.099 -0.085,-0.003 -0.167,0.038 -0.288,0.068 0.455,0.964 0.902,1.912 1.348,2.859 m 31.484,-2.542 c -0.03,-0.652 -0.06,-1.318 -0.094,-2.106 -0.583,0.066 -1.144,0.129 -1.686,0.19 -0.186,1.638 0.304,2.165 1.78,1.916 m 2.771,0.099 c -0.107,-0.771 -0.207,-1.5 -0.329,-2.383 -0.346,-0.038 -0.71,-0.079 -1.121,-0.124 -0.054,0.959 -0.095,1.69 -0.141,2.501 0.541,0.002 1.014,0.004 1.591,0.006 m 1.163,0.002 c 0.292,0.017 0.595,0.035 0.914,0.054 -0.042,-0.945 -0.081,-1.79 -0.121,-2.707 -0.934,0.083 -1.027,0.443 -0.793,2.653 m 3.523,-3.127 c -0.364,0.049 -0.725,0.1 -1.14,0.158 -0.069,0.955 -0.13,1.863 -0.203,2.882 1.066,-0.407 1.588,-1.649 1.343,-3.04 m 4.174,-23.708 c 0.005,2.457 -0.011,4.913 -0.008,7.37 0.005,3.775 0.017,7.55 0.026,11.324 0.007,1.939 -0.416,3.65 -2.225,4.633 -0.189,1.108 -0.283,2.249 -0.595,3.317 -0.276,0.951 -0.729,1.895 -1.809,2.183 -0.669,0.177 -1.358,0.345 -2.046,0.363 -1.649,0.039 -3.303,0.019 -4.956,-0.047 -0.509,-0.02 -1.057,-0.184 -1.524,-0.424 -1.091,-0.561 -1.401,-1.655 -1.698,-2.73 -0.077,-0.276 -0.143,-0.554 -0.23,-0.891 -1.668,0.163 -3.243,0.297 -4.805,0.49 -0.222,0.028 -0.541,0.322 -0.567,0.536 -0.226,1.859 -1.223,3.354 -2.061,4.91 -0.477,0.88 -1.24,1.553 -2.345,1.622 -1.023,0.063 -2.051,0.123 -3.078,0.154 -2.238,0.066 -4.477,0.151 -6.719,0.154 -1.859,0.002 -3.723,-0.058 -5.586,-0.175 -1.389,-0.089 -2.621,-0.725 -3.374,-1.954 -0.885,-1.445 -1.763,-2.926 -1.942,-4.663 -0.128,-0.063 -0.23,-0.14 -0.341,-0.161 -0.234,-0.044 -0.474,-0.08 -0.711,-0.082 -2.131,-0.017 -3.755,-0.996 -4.968,-2.802 -0.166,-0.248 -0.382,-0.478 -0.616,-0.666 -0.62,-0.501 -0.789,-1.076 -0.614,-1.842 0.142,-0.623 0.19,-1.297 0.138,-1.943 -0.179,-2.182 -0.454,-4.362 -0.623,-6.545 -0.206,-2.619 -0.381,-5.242 -0.484,-7.862 -0.06,-1.456 0.028,-2.913 0.091,-4.366 0.069,-1.517 0.168,-3.032 0.298,-4.543 0.069,-0.798 0.639,-4.609 2.457,-6.143 1.817,-1.533 13.316,-1.998 15.533,-1.996 1.603,0.002 18.537,0.824 21.405,1.029 1.553,0.112 3.125,-0.018 4.668,-0.177 1.777,-0.183 3.541,-0.216 5.294,0.281 1.531,0.434 3.05,0.95 4.058,2.385 -0.027,0.339 -0.075,0.662 -0.075,0.988 0.006,2.757 0.026,5.515 0.032,8.273"
       style="fill:#38180e;fill-opacity:1;fill-rule:nonzero;stroke:none"
       transform="matrix(0.14595595,0,0,-0.13524665,120.17233,76.641413)"
       clip-path="url(#clipPath263)" />
    <path
       id="path264"
       d="M 0,0 V 0.002 C 0.001,0.007 -0.001,0.013 -0.001,0.018 Z"
       style="fill:#38180e;fill-opacity:1;fill-rule:nonzero;stroke:none"
       transform="matrix(0.14595595,0,0,-0.13524665,120.12686,77.587213)"
       clip-path="url(#clipPath265)" />
    <path
       id="path266"
       d="m 0,0 c 0.207,2.176 1.271,4.025 1.917,6.03 0.037,0.113 0.097,0.232 0.177,0.319 1.461,1.588 2.851,3.304 5.144,3.612 1.06,0.142 2.136,0.301 3.189,0.271 3.102,-0.085 5.657,-1.333 7.872,-3.437 1.787,-1.696 2.32,-3.965 2.998,-6.201 0.426,-1.402 0.251,-2.822 -0.031,-4.257 -0.408,-2.073 -1.851,-3.371 -3.406,-4.571 -2.329,-1.798 -5.014,-2.054 -7.729,-2.123 C 7.88,-10.436 5.747,-10.032 3.934,-8.759 0.983,-6.689 -0.359,-3.817 0,0 m 3.579,-11.533 c 2.014,-1.359 4.238,-1.684 6.62,-1.397 2.203,0.266 4.275,0.977 6.205,2.212 1.895,1.211 3.649,2.483 4.822,4.525 1.004,1.749 1.559,3.538 1.597,5.53 0.082,1.901 -0.206,3.743 -0.901,5.518 -1.075,2.75 -2.987,4.701 -5.598,5.882 -2.317,1.048 -4.822,1.266 -7.414,0.786 C 6.036,10.99 3.526,9.787 1.466,7.549 0.317,6.3 -0.435,4.864 -1.009,3.321 c -0.955,-2.569 -1.187,-5.227 -0.56,-7.783 0.744,-3.032 2.581,-5.339 5.148,-7.071"
       style="fill:#38180e;fill-opacity:1;fill-rule:nonzero;stroke:none"
       transform="matrix(0.14595595,0,0,-0.13524665,113.61857,77.395763)"
       clip-path="url(#clipPath267)" />
    <path
       id="path268"
       d="m 0,0 c -3.072,0.075 -6.137,0.232 -9.2,0.394 -1.23,0.065 -2.449,0.236 -3.688,0.36 -0.158,-0.269 -0.285,-0.484 -0.437,-0.744 0.447,-0.157 0.791,-0.343 1.159,-0.398 2.108,-0.318 4.208,-0.765 6.338,-0.866 3.413,-0.163 6.849,-0.1 10.275,-0.111 1.887,-0.007 3.778,0.038 5.665,0.039 0.42,0 0.706,0.075 0.701,0.571 -0.666,0.457 -1.876,0.75 -3.104,0.749 C 5.139,-0.008 2.565,-0.063 0,0"
       style="fill:#38180e;fill-opacity:1;fill-rule:nonzero;stroke:none"
       transform="matrix(0.14595595,0,0,-0.13524665,115.49148,79.435443)"
       clip-path="url(#clipPath269)" />
    <path
       id="path270"
       d="M 0,0 C -0.329,-0.521 -0.145,-0.853 0.225,-1.028 0.609,-1.212 1.043,-1.366 1.469,-1.388 3.492,-1.49 5.39,-0.798 7.271,-0.063 7.637,0.079 7.968,0.345 7.685,1.015 6.894,0.782 6.079,0.542 5.267,0.302 3.535,-0.21 1.801,-0.638 0,0"
       style="fill:#38180e;fill-opacity:1;fill-rule:nonzero;stroke:none"
       transform="matrix(0.14595595,0,0,-0.13524665,118.83507,79.296623)"
       clip-path="url(#clipPath271)" />
    <path
       id="path272"
       d="M 0,0 C 0.762,-0.535 0.956,0.083 1.137,0.465 2.101,2.489 3.033,4.526 3.948,6.569 4.096,6.896 4.1,7.281 4.171,7.639 4.053,7.671 3.937,7.705 3.819,7.737 2.327,5.259 1.133,2.642 0,0"
       style="fill:#38180e;fill-opacity:1;fill-rule:nonzero;stroke:none"
       transform="matrix(0.14595595,0,0,-0.13524665,119.49073,77.920243)"
       clip-path="url(#clipPath273)" />
    <path
       id="path274"
       d="M 0,0 C 0.941,0.349 2.868,4.592 2.753,6.163 1.912,5.491 -0.159,0.766 0,0"
       style="fill:#38180e;fill-opacity:1;fill-rule:nonzero;stroke:none"
       transform="matrix(0.14595595,0,0,-0.13524665,119.57297,77.103223)"
       clip-path="url(#clipPath275)" />
    <path
       id="path276"
       d="M 0,0 C 0.002,-0.004 0.001,0.013 0.001,0.013 -0.001,0.01 -0.003,0.006 -0.003,0.002 -0.003,0.001 -0.002,0.001 0,0"
       style="fill:#38180e;fill-opacity:1;fill-rule:nonzero;stroke:none"
       transform="matrix(0.14595595,0,0,-0.13524665,120.12657,77.586613)"
       clip-path="url(#clipPath277)" />
    <path
       id="path278"
       d="M 0,0 C 0.318,0.24 0.612,0.367 0.754,0.588 1.052,1.045 1.291,1.543 1.516,2.042 1.933,2.96 2.322,3.89 2.725,4.814 2.568,4.926 2.413,5.034 2.263,5.138 1.376,4.079 -0.041,0.988 0,0"
       style="fill:#38180e;fill-opacity:1;fill-rule:nonzero;stroke:none"
       transform="matrix(0.14595595,0,0,-0.13524665,119.72847,78.237443)"
       clip-path="url(#clipPath279)" />
    <path
       id="path280"
       d="M 0,0 C -0.781,-1.294 -1.57,-2.513 -2.051,-4.112 -0.833,-3.558 0.477,-0.838 0,0"
       style="fill:#38180e;fill-opacity:1;fill-rule:nonzero;stroke:none"
       transform="matrix(0.14595595,0,0,-0.13524665,119.68386,76.168193)"
       clip-path="url(#clipPath281)" />
    <path
       id="path282"
       d="m 0,0 c 2.803,-0.407 5.604,-0.236 8.294,1.042 1.793,0.853 2.582,2.493 3.21,4.24 0.021,0.058 0.067,0.139 0.045,0.172 -0.421,0.683 0.075,1.37 0.082,2.054 0.009,0.805 0.207,1.663 0.019,2.407 -0.372,1.478 -0.845,2.948 -1.469,4.325 C 9.256,16.28 7.46,17.332 5.32,17.596 4.041,17.754 2.677,17.476 1.358,17.303 0.88,17.24 0.397,16.952 -0.036,16.683 c -0.215,-0.134 -0.321,-0.457 -0.499,-0.724 0.223,-0.075 0.279,-0.116 0.331,-0.107 0.293,0.045 0.589,0.091 0.879,0.159 2.486,0.578 4.852,0.306 7.059,-0.786 C 8.328,14.93 8.953,14.433 9.237,13.854 9.841,12.627 10.348,11.32 10.673,9.979 10.967,8.762 11.036,7.462 11.076,6.188 11.107,5.148 9.539,3.251 8.474,2.857 7.57,2.524 6.682,2.109 5.756,1.893 3.657,1.402 1.541,1.242 -0.378,2.271 c -2.169,1.164 -3.69,2.716 -4.017,5.513 -0.339,2.928 0.528,5.225 2.534,7.484 -1.565,-0.495 -2.47,-1.534 -2.996,-2.932 C -5.242,11.313 -5.567,10.268 -5.882,9.221 -6.217,8.103 -6.429,6.982 -5.877,5.896 -5.496,5.148 -5.224,4.332 -4.778,3.63 -3.643,1.838 -2.218,0.322 0,0"
       style="fill:#38180e;fill-opacity:1;fill-rule:nonzero;stroke:none"
       transform="matrix(0.14595595,0,0,-0.13524665,114.71252,78.581623)"
       clip-path="url(#clipPath283)" />
    <path
       id="path284"
       d="M 0,0 C 0.024,0.761 0.849,1.643 1.549,1.657 2.168,1.669 2.565,1.144 2.527,0.357 2.488,-0.474 1.856,-1.197 1.172,-1.192 0.566,-1.186 -0.02,-0.592 0,0 M 3.135,0.126 C 3.166,1.452 2.361,2.5 1.329,2.469 -0.224,2.425 -1.318,1.187 -1.356,-0.564 c -0.024,-1.128 0.782,-1.789 2.127,-1.744 1.132,0.037 2.333,1.277 2.364,2.434"
       style="fill:#38180e;fill-opacity:1;fill-rule:nonzero;stroke:none"
       transform="matrix(0.14595595,0,0,-0.13524665,114.96068,77.282193)"
       clip-path="url(#clipPath285)" />
    <path
       id="path286"
       d="M 0,0 C -0.801,-0.321 -0.424,-0.868 -0.297,-1.202 0.528,-3.379 2.145,-4.486 4.459,-4.747 6.435,-4.969 8.114,-4.52 9.439,-2.843 5.526,-4.181 1.998,-4.363 0,0"
       style="fill:#38180e;fill-opacity:1;fill-rule:nonzero;stroke:none"
       transform="matrix(0.14595595,0,0,-0.13524665,114.37942,77.517753)"
       clip-path="url(#clipPath287)" />
    <path
       id="path288"
       d="m 0,0 c 0.026,-0.213 0.142,-0.529 0.289,-0.573 0.205,-0.06 0.529,0.027 0.718,0.17 C 1.569,0.024 1.532,0.765 0.923,1.482 0.307,1.073 -0.063,0.506 0,0"
       style="fill:#38180e;fill-opacity:1;fill-rule:nonzero;stroke:none"
       transform="matrix(0.14595595,0,0,-0.13524665,115.68619,77.047153)"
       clip-path="url(#clipPath289)" />
    <path
       id="path290"
       d="M 0,0 C 0.259,0.092 0.589,0.113 0.765,0.29 1.241,0.766 1.156,1.303 0.8,1.976 0.43,1.56 0.052,1.25 -0.153,0.854 -0.261,0.647 -0.062,0.29 0,0"
       style="fill:#38180e;fill-opacity:1;fill-rule:nonzero;stroke:none"
       transform="matrix(0.14595595,0,0,-0.13524665,115.89571,77.495353)"
       clip-path="url(#clipPath291)" />
    <path
       id="path292"
       d="m 0,0 c -2.774,0.646 -3.7,2.305 -4.28,4.926 -0.697,3.141 -1.216,6.211 -0.628,9.413 0.116,0.631 -0.864,0.888 -0.957,0.264 C -6.418,10.895 -5.787,7.108 -4.889,3.497 -4.277,1.042 -2.696,-0.915 0,-0.392 0.199,-0.353 0.19,-0.044 0,0"
       style="fill:#38180e;fill-opacity:1;fill-rule:nonzero;stroke:none"
       transform="matrix(0.14595595,0,0,-0.13524665,112.87653,80.053943)"
       clip-path="url(#clipPath293)" />
    <path
       id="path294"
       d="M 0,0 C 1.862,-0.091 3.772,0.027 5.151,-1.421 5.819,-2.124 6.222,-3.063 6.854,-3.803 6.997,-3.971 7.241,-3.789 7.199,-3.601 6.907,-2.286 6.294,-1.205 5.27,-0.296 3.878,0.939 1.73,0.768 0,0.687 -0.443,0.667 -0.442,0.021 0,0"
       style="fill:#38180e;fill-opacity:1;fill-rule:nonzero;stroke:none"
       transform="matrix(0.14595595,0,0,-0.13524665,116.37164,73.680193)"
       clip-path="url(#clipPath295)" />
    <path
       id="path296"
       d="M 0,0 C 0.245,-0.365 0.829,-0.034 0.594,0.347 0.334,0.77 0.277,1.267 -0.063,1.646 -0.349,1.962 -0.779,1.506 -0.522,1.188 -0.252,0.853 -0.243,0.362 0,0"
       style="fill:#38180e;fill-opacity:1;fill-rule:nonzero;stroke:none"
       transform="matrix(0.14595595,0,0,-0.13524665,117.58205,74.636823)"
       clip-path="url(#clipPath297)" />
    <path
       id="path298"
       d="m 0,0 c 0.86,5.281 0.239,11.048 0.092,16.38 -0.01,0.338 -0.514,0.338 -0.524,0 C -0.579,11.048 -1.2,5.281 -0.34,0 -0.312,-0.168 -0.028,-0.168 0,0"
       style="fill:#38180e;fill-opacity:1;fill-rule:nonzero;stroke:none"
       transform="matrix(0.14595595,0,0,-0.13524665,120.58055,78.689263)"
       clip-path="url(#clipPath299)" />
    <path
       id="path300"
       d="m 0,0 c -0.029,0.408 -0.604,0.408 -0.633,0 -0.044,-0.615 -0.1,-1.248 -0.044,-1.865 -0.011,-0.052 -0.008,-0.104 0.014,-0.159 0.003,-0.023 0.003,-0.047 0.006,-0.07 0.037,-0.255 0.187,-0.299 0.341,-0.251 0.153,-0.048 0.303,-0.004 0.34,0.251 0.003,0.023 0.003,0.047 0.006,0.07 0.022,0.055 0.026,0.107 0.014,0.159 0.057,0.617 0,1.25 -0.044,1.865"
       style="fill:#38180e;fill-opacity:1;fill-rule:nonzero;stroke:none"
       transform="matrix(0.14595595,0,0,-0.13524665,120.60194,78.953423)"
       clip-path="url(#clipPath301)" />
    <path
       id="path302"
       d="M 0,0 C 0.265,0.3 0.162,0.738 0.157,1.116 0.152,1.469 -0.385,1.469 -0.39,1.116 -0.395,0.738 -0.497,0.3 -0.232,0 -0.176,-0.064 -0.057,-0.064 0,0"
       style="fill:#38180e;fill-opacity:1;fill-rule:nonzero;stroke:none"
       transform="matrix(0.14595595,0,0,-0.13524665,120.57272,76.173993)"
       clip-path="url(#clipPath303)" />
    <path
       id="path304"
       d="m 0,0 c 0.736,0.628 1.404,1.33 2.146,1.952 0.929,0.776 2.045,0.88 3.041,1.465 0.104,0.061 0.12,0.24 0,0.297 C 4.27,4.149 3.018,3.56 2.244,3.021 1.227,2.313 0.336,1.406 -0.465,0.464 -0.739,0.141 -0.323,-0.275 0,0"
       style="fill:#38180e;fill-opacity:1;fill-rule:nonzero;stroke:none"
       transform="matrix(0.14595595,0,0,-0.13524665,112.6107,75.062623)"
       clip-path="url(#clipPath305)" />
    <text
       xml:space="preserve"
       style="font-size:5.64444px;font-family:'Great Vibes';-inkscape-font-specification:'Great Vibes';fill:#be9500;fill-opacity:1;stroke-width:0.264583"
       x="85.725464"
       y="113.01084"
       id="text1"><tspan
         sodipodi:role="line"
         id="tspan1"
         style="fill:#be9500;fill-opacity:1;stroke-width:0.264583"
         x="85.725464"
         y="113.01084">Sesin de fotos con damas</tspan></text>
  </g>
</svg>
