<?xml version="1.0" encoding="UTF-8" standalone="no"?>
<!-- Created with Inkscape (http://www.inkscape.org/) -->

<svg
   width="50.709976mm"
   height="47.396mm"
   viewBox="0 0 50.709976 47.396"
   version="1.1"
   id="svg1"
   inkscape:version="1.3 (0e150ed6c4, 2023-07-21)"
   sodipodi:docname="Recepcion.svg"
   xmlns:inkscape="http://www.inkscape.org/namespaces/inkscape"
   xmlns:sodipodi="http://sodipodi.sourceforge.net/DTD/sodipodi-0.dtd"
   xmlns="http://www.w3.org/2000/svg"
   xmlns:svg="http://www.w3.org/2000/svg">
  <sodipodi:namedview
     id="namedview1"
     pagecolor="#ffffff"
     bordercolor="#000000"
     borderopacity="0.25"
     inkscape:showpageshadow="2"
     inkscape:pageopacity="0.0"
     inkscape:pagecheckerboard="0"
     inkscape:deskcolor="#d1d1d1"
     inkscape:document-units="mm"
     inkscape:zoom="3.9660278"
     inkscape:cx="111.44652"
     inkscape:cy="80.559193"
     inkscape:window-width="1920"
     inkscape:window-height="1001"
     inkscape:window-x="-9"
     inkscape:window-y="-9"
     inkscape:window-maximized="1"
     inkscape:current-layer="layer1" />
  <defs
     id="defs1">
    <clipPath
       clipPathUnits="userSpaceOnUse"
       id="clipPath9492">
      <path
         d="M 0,500 H 750 V 0 H 0 Z"
         transform="translate(-170.1987,-107.94041)"
         id="path9492" />
    </clipPath>
    <clipPath
       clipPathUnits="userSpaceOnUse"
       id="clipPath9470">
      <path
         d="M 0,500 H 750 V 0 H 0 Z"
         transform="translate(-171.57861,-138.7187)"
         id="path9470" />
    </clipPath>
    <clipPath
       clipPathUnits="userSpaceOnUse"
       id="clipPath451">
      <path
         d="M 0,500 H 500 V 0 H 0 Z"
         transform="translate(-132.37701,-197.4209)"
         id="path451" />
    </clipPath>
    <clipPath
       clipPathUnits="userSpaceOnUse"
       id="clipPath455">
      <path
         d="M 0,500 H 500 V 0 H 0 Z"
         transform="translate(-134.3242,-224.06351)"
         id="path455" />
    </clipPath>
    <clipPath
       clipPathUnits="userSpaceOnUse"
       id="clipPath459">
      <path
         d="M 0,500 H 500 V 0 H 0 Z"
         transform="translate(-120.5308,-211.51071)"
         id="path459" />
    </clipPath>
    <clipPath
       clipPathUnits="userSpaceOnUse"
       id="clipPath463">
      <path
         d="M 0,500 H 500 V 0 H 0 Z"
         transform="translate(-124.6455,-191.5967)"
         id="path463" />
    </clipPath>
    <clipPath
       clipPathUnits="userSpaceOnUse"
       id="clipPath467">
      <path
         d="M 0,500 H 500 V 0 H 0 Z"
         transform="translate(-139.0786,-208.04591)"
         id="path467" />
    </clipPath>
    <clipPath
       clipPathUnits="userSpaceOnUse"
       id="clipPath469">
      <path
         d="M 0,500 H 500 V 0 H 0 Z"
         transform="translate(-128.4082,-185.2139)"
         id="path469" />
    </clipPath>
    <clipPath
       clipPathUnits="userSpaceOnUse"
       id="clipPath451-1">
      <path
         d="M 0,500 H 500 V 0 H 0 Z"
         transform="translate(-132.37701,-197.4209)"
         id="path451-1" />
    </clipPath>
    <clipPath
       clipPathUnits="userSpaceOnUse"
       id="clipPath455-1">
      <path
         d="M 0,500 H 500 V 0 H 0 Z"
         transform="translate(-134.3242,-224.06351)"
         id="path455-0" />
    </clipPath>
    <clipPath
       clipPathUnits="userSpaceOnUse"
       id="clipPath459-2">
      <path
         d="M 0,500 H 500 V 0 H 0 Z"
         transform="translate(-120.5308,-211.51071)"
         id="path459-1" />
    </clipPath>
    <clipPath
       clipPathUnits="userSpaceOnUse"
       id="clipPath463-6">
      <path
         d="M 0,500 H 500 V 0 H 0 Z"
         transform="translate(-124.6455,-191.5967)"
         id="path463-4" />
    </clipPath>
    <clipPath
       clipPathUnits="userSpaceOnUse"
       id="clipPath467-7">
      <path
         d="M 0,500 H 500 V 0 H 0 Z"
         transform="translate(-139.0786,-208.04591)"
         id="path467-3" />
    </clipPath>
    <clipPath
       clipPathUnits="userSpaceOnUse"
       id="clipPath469-5">
      <path
         d="M 0,500 H 500 V 0 H 0 Z"
         transform="translate(-128.4082,-185.2139)"
         id="path469-9" />
    </clipPath>
    <clipPath
       clipPathUnits="userSpaceOnUse"
       id="clipPath451-9">
      <path
         d="M 0,500 H 500 V 0 H 0 Z"
         transform="translate(-132.37701,-197.4209)"
         id="path451-6" />
    </clipPath>
    <clipPath
       clipPathUnits="userSpaceOnUse"
       id="clipPath455-7">
      <path
         d="M 0,500 H 500 V 0 H 0 Z"
         transform="translate(-134.3242,-224.06351)"
         id="path455-9" />
    </clipPath>
    <clipPath
       clipPathUnits="userSpaceOnUse"
       id="clipPath459-0">
      <path
         d="M 0,500 H 500 V 0 H 0 Z"
         transform="translate(-120.5308,-211.51071)"
         id="path459-5" />
    </clipPath>
    <clipPath
       clipPathUnits="userSpaceOnUse"
       id="clipPath463-3">
      <path
         d="M 0,500 H 500 V 0 H 0 Z"
         transform="translate(-124.6455,-191.5967)"
         id="path463-7" />
    </clipPath>
    <clipPath
       clipPathUnits="userSpaceOnUse"
       id="clipPath467-3">
      <path
         d="M 0,500 H 500 V 0 H 0 Z"
         transform="translate(-139.0786,-208.04591)"
         id="path467-1" />
    </clipPath>
    <clipPath
       clipPathUnits="userSpaceOnUse"
       id="clipPath469-7">
      <path
         d="M 0,500 H 500 V 0 H 0 Z"
         transform="translate(-128.4082,-185.2139)"
         id="path469-8" />
    </clipPath>
    <clipPath
       clipPathUnits="userSpaceOnUse"
       id="clipPath451-5">
      <path
         d="M 0,500 H 500 V 0 H 0 Z"
         transform="translate(-132.37701,-197.4209)"
         id="path451-0" />
    </clipPath>
    <clipPath
       clipPathUnits="userSpaceOnUse"
       id="clipPath455-4">
      <path
         d="M 0,500 H 500 V 0 H 0 Z"
         transform="translate(-134.3242,-224.06351)"
         id="path455-5" />
    </clipPath>
    <clipPath
       clipPathUnits="userSpaceOnUse"
       id="clipPath459-06">
      <path
         d="M 0,500 H 500 V 0 H 0 Z"
         transform="translate(-120.5308,-211.51071)"
         id="path459-10" />
    </clipPath>
    <clipPath
       clipPathUnits="userSpaceOnUse"
       id="clipPath463-7">
      <path
         d="M 0,500 H 500 V 0 H 0 Z"
         transform="translate(-124.6455,-191.5967)"
         id="path463-72" />
    </clipPath>
    <clipPath
       clipPathUnits="userSpaceOnUse"
       id="clipPath467-5">
      <path
         d="M 0,500 H 500 V 0 H 0 Z"
         transform="translate(-139.0786,-208.04591)"
         id="path467-4" />
    </clipPath>
    <clipPath
       clipPathUnits="userSpaceOnUse"
       id="clipPath469-4">
      <path
         d="M 0,500 H 500 V 0 H 0 Z"
         transform="translate(-128.4082,-185.2139)"
         id="path469-91" />
    </clipPath>
    <clipPath
       clipPathUnits="userSpaceOnUse"
       id="clipPath455-14">
      <path
         d="M 0,500 H 500 V 0 H 0 Z"
         transform="translate(-134.3242,-224.06351)"
         id="path455-8" />
    </clipPath>
    <clipPath
       clipPathUnits="userSpaceOnUse"
       id="clipPath451-53">
      <path
         d="M 0,500 H 500 V 0 H 0 Z"
         transform="translate(-132.37701,-197.4209)"
         id="path451-08" />
    </clipPath>
    <clipPath
       clipPathUnits="userSpaceOnUse"
       id="clipPath459-8">
      <path
         d="M 0,500 H 500 V 0 H 0 Z"
         transform="translate(-120.5308,-211.51071)"
         id="path459-6" />
    </clipPath>
    <clipPath
       clipPathUnits="userSpaceOnUse"
       id="clipPath463-5">
      <path
         d="M 0,500 H 500 V 0 H 0 Z"
         transform="translate(-124.6455,-191.5967)"
         id="path463-0" />
    </clipPath>
    <clipPath
       clipPathUnits="userSpaceOnUse"
       id="clipPath467-6">
      <path
         d="M 0,500 H 500 V 0 H 0 Z"
         transform="translate(-139.0786,-208.04591)"
         id="path467-46" />
    </clipPath>
    <clipPath
       clipPathUnits="userSpaceOnUse"
       id="clipPath469-0">
      <path
         d="M 0,500 H 500 V 0 H 0 Z"
         transform="translate(-128.4082,-185.2139)"
         id="path469-7" />
    </clipPath>
    <clipPath
       clipPathUnits="userSpaceOnUse"
       id="clipPath261">
      <path
         d="M 0,500 H 500 V 0 H 0 Z"
         transform="translate(-364.15921,-340.33111)"
         id="path261" />
    </clipPath>
    <clipPath
       clipPathUnits="userSpaceOnUse"
       id="clipPath263">
      <path
         d="M 0,500 H 500 V 0 H 0 Z"
         transform="translate(-411.53221,-366.42821)"
         id="path263" />
    </clipPath>
    <clipPath
       clipPathUnits="userSpaceOnUse"
       id="clipPath265">
      <path
         d="M 0,500 H 500 V 0 H 0 Z"
         transform="translate(-411.22071,-359.43511)"
         id="path265" />
    </clipPath>
    <clipPath
       clipPathUnits="userSpaceOnUse"
       id="clipPath267">
      <path
         d="M 0,500 H 500 V 0 H 0 Z"
         transform="translate(-366.62991,-360.85061)"
         id="path267" />
    </clipPath>
    <clipPath
       clipPathUnits="userSpaceOnUse"
       id="clipPath269">
      <path
         d="M 0,500 H 500 V 0 H 0 Z"
         transform="translate(-379.46191,-345.76951)"
         id="path269" />
    </clipPath>
    <clipPath
       clipPathUnits="userSpaceOnUse"
       id="clipPath271">
      <path
         d="M 0,500 H 500 V 0 H 0 Z"
         transform="translate(-402.37011,-346.79591)"
         id="path271" />
    </clipPath>
    <clipPath
       clipPathUnits="userSpaceOnUse"
       id="clipPath273">
      <path
         d="M 0,500 H 500 V 0 H 0 Z"
         transform="translate(-406.86231,-356.97271)"
         id="path273" />
    </clipPath>
    <clipPath
       clipPathUnits="userSpaceOnUse"
       id="clipPath275">
      <path
         d="M 0,500 H 500 V 0 H 0 Z"
         transform="translate(-407.42581,-363.01371)"
         id="path275" />
    </clipPath>
    <clipPath
       clipPathUnits="userSpaceOnUse"
       id="clipPath277">
      <path
         d="M 0,500 H 500 V 0 H 0 Z"
         transform="translate(-411.21871,-359.43951)"
         id="path277" />
    </clipPath>
    <clipPath
       clipPathUnits="userSpaceOnUse"
       id="clipPath279">
      <path
         d="M 0,500 H 500 V 0 H 0 Z"
         transform="translate(-408.49121,-354.62741)"
         id="path279" />
    </clipPath>
    <clipPath
       clipPathUnits="userSpaceOnUse"
       id="clipPath281">
      <path
         d="M 0,500 H 500 V 0 H 0 Z"
         transform="translate(-408.18551,-369.92721)"
         id="path281" />
    </clipPath>
    <clipPath
       clipPathUnits="userSpaceOnUse"
       id="clipPath283">
      <path
         d="M 0,500 H 500 V 0 H 0 Z"
         transform="translate(-374.12501,-352.08251)"
         id="path283" />
    </clipPath>
    <clipPath
       clipPathUnits="userSpaceOnUse"
       id="clipPath285">
      <path
         d="M 0,500 H 500 V 0 H 0 Z"
         transform="translate(-375.82521,-361.69041)"
         id="path285" />
    </clipPath>
    <clipPath
       clipPathUnits="userSpaceOnUse"
       id="clipPath287">
      <path
         d="M 0,500 H 500 V 0 H 0 Z"
         transform="translate(-371.84281,-359.94871)"
         id="path287" />
    </clipPath>
    <clipPath
       clipPathUnits="userSpaceOnUse"
       id="clipPath289">
      <path
         d="M 0,500 H 500 V 0 H 0 Z"
         transform="translate(-380.79591,-363.42821)"
         id="path289" />
    </clipPath>
    <clipPath
       clipPathUnits="userSpaceOnUse"
       id="clipPath291">
      <path
         d="M 0,500 H 500 V 0 H 0 Z"
         transform="translate(-382.23141,-360.11431)"
         id="path291" />
    </clipPath>
    <clipPath
       clipPathUnits="userSpaceOnUse"
       id="clipPath293">
      <path
         d="M 0,500 H 500 V 0 H 0 Z"
         transform="translate(-361.54591,-341.19631)"
         id="path293" />
    </clipPath>
    <clipPath
       clipPathUnits="userSpaceOnUse"
       id="clipPath295">
      <path
         d="M 0,500 H 500 V 0 H 0 Z"
         transform="translate(-385.49221,-388.32321)"
         id="path295" />
    </clipPath>
    <clipPath
       clipPathUnits="userSpaceOnUse"
       id="clipPath297">
      <path
         d="M 0,500 H 500 V 0 H 0 Z"
         transform="translate(-393.78521,-381.25001)"
         id="path297" />
    </clipPath>
    <clipPath
       clipPathUnits="userSpaceOnUse"
       id="clipPath299">
      <path
         d="M 0,500 H 500 V 0 H 0 Z"
         transform="translate(-414.32911,-351.28661)"
         id="path299" />
    </clipPath>
    <clipPath
       clipPathUnits="userSpaceOnUse"
       id="clipPath301">
      <path
         d="M 0,500 H 500 V 0 H 0 Z"
         transform="translate(-414.47561,-349.33351)"
         id="path301" />
    </clipPath>
    <clipPath
       clipPathUnits="userSpaceOnUse"
       id="clipPath303">
      <path
         d="M 0,500 H 500 V 0 H 0 Z"
         transform="translate(-414.27541,-369.88431)"
         id="path303" />
    </clipPath>
    <clipPath
       clipPathUnits="userSpaceOnUse"
       id="clipPath305">
      <path
         d="M 0,500 H 500 V 0 H 0 Z"
         transform="translate(-359.72461,-378.10161)"
         id="path305" />
    </clipPath>
    <clipPath
       clipPathUnits="userSpaceOnUse"
       id="clipPath451-9-1">
      <path
         d="M 0,500 H 500 V 0 H 0 Z"
         transform="translate(-132.37701,-197.4209)"
         id="path451-6-1" />
    </clipPath>
    <clipPath
       clipPathUnits="userSpaceOnUse"
       id="clipPath455-7-5">
      <path
         d="M 0,500 H 500 V 0 H 0 Z"
         transform="translate(-134.3242,-224.06351)"
         id="path455-9-6" />
    </clipPath>
    <clipPath
       clipPathUnits="userSpaceOnUse"
       id="clipPath459-0-7">
      <path
         d="M 0,500 H 500 V 0 H 0 Z"
         transform="translate(-120.5308,-211.51071)"
         id="path459-5-3" />
    </clipPath>
    <clipPath
       clipPathUnits="userSpaceOnUse"
       id="clipPath463-3-6">
      <path
         d="M 0,500 H 500 V 0 H 0 Z"
         transform="translate(-124.6455,-191.5967)"
         id="path463-7-0" />
    </clipPath>
    <clipPath
       clipPathUnits="userSpaceOnUse"
       id="clipPath467-3-1">
      <path
         d="M 0,500 H 500 V 0 H 0 Z"
         transform="translate(-139.0786,-208.04591)"
         id="path467-1-3" />
    </clipPath>
    <clipPath
       clipPathUnits="userSpaceOnUse"
       id="clipPath469-7-8">
      <path
         d="M 0,500 H 500 V 0 H 0 Z"
         transform="translate(-128.4082,-185.2139)"
         id="path469-8-5" />
    </clipPath>
    <clipPath
       clipPathUnits="userSpaceOnUse"
       id="clipPath169">
      <path
         d="M 0,500 H 500 V 0 H 0 Z"
         transform="translate(-289.22271,-394.23001)"
         id="path169" />
    </clipPath>
    <clipPath
       clipPathUnits="userSpaceOnUse"
       id="clipPath171">
      <path
         d="M 0,500 H 500 V 0 H 0 Z"
         transform="translate(-270.26461,-415.48731)"
         id="path171" />
    </clipPath>
    <clipPath
       clipPathUnits="userSpaceOnUse"
       id="clipPath175">
      <path
         d="M 0,500 H 500 V 0 H 0 Z"
         transform="translate(-275.9053,-397.17241)"
         id="path175" />
    </clipPath>
    <clipPath
       clipPathUnits="userSpaceOnUse"
       id="clipPath177">
      <path
         d="M 0,500 H 500 V 0 H 0 Z"
         transform="translate(-262.09671,-419.63331)"
         id="path177" />
    </clipPath>
    <clipPath
       clipPathUnits="userSpaceOnUse"
       id="clipPath181">
      <path
         d="M 0,500 H 500 V 0 H 0 Z"
         transform="translate(-281.6074,-388.07031)"
         id="path181" />
    </clipPath>
    <clipPath
       clipPathUnits="userSpaceOnUse"
       id="clipPath183">
      <path
         d="M 0,500 H 500 V 0 H 0 Z"
         transform="translate(-294.7471,-397.62651)"
         id="path183" />
    </clipPath>
    <clipPath
       clipPathUnits="userSpaceOnUse"
       id="clipPath187">
      <path
         d="M 0,500 H 500 V 0 H 0 Z"
         transform="translate(-281.6377,-404.52981)"
         id="path187" />
    </clipPath>
    <clipPath
       clipPathUnits="userSpaceOnUse"
       id="clipPath189">
      <path
         d="M 0,500 H 500 V 0 H 0 Z"
         transform="translate(-255.9883,-395.75731)"
         id="path189" />
    </clipPath>
    <clipPath
       clipPathUnits="userSpaceOnUse"
       id="clipPath199">
      <path
         d="M 0,500 H 500 V 0 H 0 Z"
         transform="translate(-257.22951,-400.86621)"
         id="path199" />
    </clipPath>
    <clipPath
       clipPathUnits="userSpaceOnUse"
       id="clipPath203">
      <path
         d="M 0,500 H 500 V 0 H 0 Z"
         transform="translate(-261.457,-395.69871)"
         id="path203" />
    </clipPath>
    <clipPath
       clipPathUnits="userSpaceOnUse"
       id="clipPath205">
      <path
         d="M 0,500 H 500 V 0 H 0 Z"
         transform="translate(-256.8232,-399.21001)"
         id="path205" />
    </clipPath>
    <clipPath
       clipPathUnits="userSpaceOnUse"
       id="clipPath207">
      <path
         d="M 0,500 H 500 V 0 H 0 Z"
         transform="translate(-265.65141,-398.76511)"
         id="path207" />
    </clipPath>
    <clipPath
       clipPathUnits="userSpaceOnUse"
       id="clipPath9769">
      <path
         d="M 0,500 H 750 V 0 H 0 Z"
         transform="translate(-664.25392,-109.68071)"
         id="path9769" />
    </clipPath>
    <clipPath
       clipPathUnits="userSpaceOnUse"
       id="clipPath9771">
      <path
         d="M 0,500 H 750 V 0 H 0 Z"
         transform="translate(-649.07032,-118.54391)"
         id="path9771" />
    </clipPath>
    <clipPath
       clipPathUnits="userSpaceOnUse"
       id="clipPath9773">
      <path
         d="M 0,500 H 750 V 0 H 0 Z"
         transform="translate(-620.48051,-123.9102)"
         id="path9773" />
    </clipPath>
    <clipPath
       clipPathUnits="userSpaceOnUse"
       id="clipPath9775">
      <path
         d="M 0,500 H 750 V 0 H 0 Z"
         transform="translate(-679.33792,-137.01071)"
         id="path9775" />
    </clipPath>
    <clipPath
       clipPathUnits="userSpaceOnUse"
       id="clipPath9777">
      <path
         d="M 0,500 H 750 V 0 H 0 Z"
         transform="translate(-652.36132,-142.583)"
         id="path9777" />
    </clipPath>
    <clipPath
       clipPathUnits="userSpaceOnUse"
       id="clipPath9801">
      <path
         d="M 0,500 H 750 V 0 H 0 Z"
         transform="translate(-628.40141,-160.58591)"
         id="path9801" />
    </clipPath>
    <clipPath
       clipPathUnits="userSpaceOnUse"
       id="clipPath9801-3">
      <path
         d="M 0,500 H 750 V 0 H 0 Z"
         transform="translate(-628.40141,-160.58591)"
         id="path9801-6" />
    </clipPath>
    <clipPath
       clipPathUnits="userSpaceOnUse"
       id="clipPath9781">
      <path
         d="M 0,500 H 750 V 0 H 0 Z"
         transform="translate(-690.85451,-141.17771)"
         id="path9781" />
    </clipPath>
    <clipPath
       clipPathUnits="userSpaceOnUse"
       id="clipPath9781-4">
      <path
         d="M 0,500 H 750 V 0 H 0 Z"
         transform="translate(-690.85451,-141.17771)"
         id="path9781-2" />
    </clipPath>
    <clipPath
       clipPathUnits="userSpaceOnUse"
       id="clipPath9781-6">
      <path
         d="M 0,500 H 750 V 0 H 0 Z"
         transform="translate(-690.85451,-141.17771)"
         id="path9781-8" />
    </clipPath>
    <clipPath
       clipPathUnits="userSpaceOnUse"
       id="clipPath9789">
      <path
         d="M 0,500 H 750 V 0 H 0 Z"
         transform="translate(-672.73342,-107.3105)"
         id="path9789" />
    </clipPath>
    <clipPath
       clipPathUnits="userSpaceOnUse"
       id="clipPath9789-9">
      <path
         d="M 0,500 H 750 V 0 H 0 Z"
         transform="translate(-672.73342,-107.3105)"
         id="path9789-2" />
    </clipPath>
    <clipPath
       clipPathUnits="userSpaceOnUse"
       id="clipPath9805">
      <path
         d="M 0,500 H 750 V 0 H 0 Z"
         transform="translate(-620.24222,-111.5381)"
         id="path9805" />
    </clipPath>
    <clipPath
       clipPathUnits="userSpaceOnUse"
       id="clipPath9803">
      <path
         d="M 0,500 H 750 V 0 H 0 Z"
         transform="translate(-618.98932,-113.8301)"
         id="path9803" />
    </clipPath>
    <clipPath
       clipPathUnits="userSpaceOnUse"
       id="clipPath9797">
      <path
         d="M 0,500 H 750 V 0 H 0 Z"
         transform="translate(-596.87992,-142.9385)"
         id="path9797" />
    </clipPath>
    <clipPath
       clipPathUnits="userSpaceOnUse"
       id="clipPath9793">
      <path
         d="M 0,500 H 750 V 0 H 0 Z"
         transform="translate(-601.00882,-137.7627)"
         id="path9793" />
    </clipPath>
    <clipPath
       clipPathUnits="userSpaceOnUse"
       id="clipPath9793-4">
      <path
         d="M 0,500 H 750 V 0 H 0 Z"
         transform="translate(-601.00882,-137.7627)"
         id="path9793-7" />
    </clipPath>
    <clipPath
       clipPathUnits="userSpaceOnUse"
       id="clipPath9795">
      <path
         d="M 0,500 H 750 V 0 H 0 Z"
         transform="translate(-603.33112,-135.75)"
         id="path9795" />
    </clipPath>
  </defs>
  <g
     inkscape:label="Capa 1"
     inkscape:groupmode="layer"
     id="layer1"
     transform="translate(-80.890763,-73.579595)">
    <path
       id="path450"
       d="m 0,0 c -0.886,0.166 -1.312,0.775 -1.829,1.197 -0.622,0.508 -1.339,0.953 -1.781,1.739 0.589,0.195 1.021,-0.065 1.476,-0.17 0.598,-0.137 0.922,0.17 0.836,0.795 C -1.333,3.818 -1.449,4.064 -1.489,4.322 -1.688,5.607 -1.59,6.838 -0.756,8.037 -0.625,7.846 -0.485,7.73 -0.454,7.59 -0.331,7.037 -0.212,6.48 -0.146,5.918 0.086,4.004 0.068,2.082 0,0 M 1.448,-2.574 C 1.447,-2.23 1.368,-1.885 1.313,-1.543 1.273,-1.287 1.137,-1.023 1.18,-0.787 1.512,1.088 1.391,2.979 1.412,4.865 1.424,5.973 1.266,7.057 1.021,8.131 0.934,8.512 0.819,8.896 0.659,9.254 0.328,9.998 -0.462,10.164 -1.067,9.631 -1.262,9.459 -1.458,9.254 -1.568,9.025 -1.906,8.316 -2.274,7.609 -2.499,6.861 -2.709,6.158 -2.75,5.406 -2.892,4.508 -3.276,4.629 -3.562,4.721 -3.848,4.807 -4.183,4.906 -4.516,5.031 -4.859,5.092 -5.284,5.166 -5.627,5.012 -5.862,4.625 -6.377,3.773 -6.332,3.158 -5.671,2.346 c 0.138,-0.17 0.274,-0.344 0.428,-0.5 1.204,-1.219 2.488,-2.348 3.851,-3.389 0.522,-0.396 1.045,-0.793 1.569,-1.187 0.138,-0.106 0.273,-0.223 0.425,-0.303 0.402,-0.213 0.847,0.017 0.846,0.459"
       style="fill:#bd9500;fill-opacity:0.854902;fill-rule:nonzero;stroke:none"
       transform="matrix(0.42076362,0,0,-0.35687265,86.645542,98.623606)"
       clip-path="url(#clipPath451)" />
    <path
       id="path454"
       d="m 0,0 c 0.301,-0.18 0.576,-0.4 0.88,-0.574 0.369,-0.207 0.844,0.025 0.903,0.447 0.096,0.689 0.164,1.383 0.244,2.074 0.03,0.262 0.049,0.524 0.094,0.783 0.045,0.266 0.136,0.518 0.44,0.584 C 2.748,3.354 2.957,3.078 2.981,2.74 3.055,1.73 3.075,0.721 2.792,-0.266 2.54,-1.148 2.281,-2.031 1.991,-3.031 0.883,-2.279 -0.106,-1.002 -0.468,0.057 -0.292,0.219 -0.137,0.084 0,0 m -2.337,-0.543 c 0.661,-1.248 1.479,-2.387 2.52,-3.342 0.513,-0.474 1.083,-0.892 1.662,-1.283 0.474,-0.322 0.859,-0.146 1.009,0.377 0.155,0.545 0.271,1.107 0.48,1.629 0.543,1.351 0.893,2.756 1.101,4.185 C 4.542,1.754 4.514,2.512 4.49,3.252 4.474,3.736 4.321,4.199 3.979,4.576 3.554,5.045 3.125,5.152 2.567,4.865 1.696,4.42 1.154,3.701 0.938,2.748 0.853,2.369 0.813,1.979 0.738,1.5 0.46,1.67 0.243,1.801 0.031,1.934 -0.263,2.121 -0.539,2.348 -0.851,2.494 -1.226,2.668 -1.633,2.658 -1.978,2.396 -2.71,1.84 -2.937,1.066 -2.64,0.186 c 0.083,-0.25 0.18,-0.498 0.303,-0.729"
       style="fill:#bd9500;fill-opacity:0.854902;fill-rule:nonzero;stroke:none"
       transform="matrix(0.42076362,0,0,-0.35687265,87.464851,89.115593)"
       clip-path="url(#clipPath455)" />
    <path
       id="path454-6"
       d="m 0,0 c 0.301,-0.18 0.576,-0.4 0.88,-0.574 0.369,-0.207 0.844,0.025 0.903,0.447 0.096,0.689 0.164,1.383 0.244,2.074 0.03,0.262 0.049,0.524 0.094,0.783 0.045,0.266 0.136,0.518 0.44,0.584 C 2.748,3.354 2.957,3.078 2.981,2.74 3.055,1.73 3.075,0.721 2.792,-0.266 2.54,-1.148 2.281,-2.031 1.991,-3.031 0.883,-2.279 -0.106,-1.002 -0.468,0.057 -0.292,0.219 -0.137,0.084 0,0 m -2.337,-0.543 c 0.661,-1.248 1.479,-2.387 2.52,-3.342 0.513,-0.474 1.083,-0.892 1.662,-1.283 0.474,-0.322 0.859,-0.146 1.009,0.377 0.155,0.545 0.271,1.107 0.48,1.629 0.543,1.351 0.893,2.756 1.101,4.185 C 4.542,1.754 4.514,2.512 4.49,3.252 4.474,3.736 4.321,4.199 3.979,4.576 3.554,5.045 3.125,5.152 2.567,4.865 1.696,4.42 1.154,3.701 0.938,2.748 0.853,2.369 0.813,1.979 0.738,1.5 0.46,1.67 0.243,1.801 0.031,1.934 -0.263,2.121 -0.539,2.348 -0.851,2.494 -1.226,2.668 -1.633,2.658 -1.978,2.396 -2.71,1.84 -2.937,1.066 -2.64,0.186 c 0.083,-0.25 0.18,-0.498 0.303,-0.729"
       style="fill:#be9500;fill-opacity:1;fill-rule:nonzero;stroke:none"
       transform="matrix(0.42076362,0,0,-0.35687265,95.093281,81.39746)"
       clip-path="url(#clipPath455-14)" />
    <path
       id="path458"
       d="M 0,0 C -0.362,0.037 -0.588,0.387 -0.582,0.896 -0.577,1.227 -0.325,1.418 0.052,1.379 0.428,1.34 0.677,1.049 0.659,0.67 0.642,0.285 0.329,-0.033 0,0 M -0.136,2.287 C -0.288,2.203 -0.458,2.154 -0.613,2.072 c -0.889,-0.459 -1.349,-1.394 -1.185,-2.4 0.127,-0.785 0.761,-1.305 1.651,-1.276 0.08,0.018 0.256,0.036 0.419,0.09 0.85,0.289 1.716,1.567 1.673,2.465 -0.052,1.07 -1.006,1.934 -2.081,1.336"
       style="fill:#bd9500;fill-opacity:0.854902;fill-rule:nonzero;stroke:none"
       transform="matrix(0.42076362,0,0,-0.35687265,81.66109,93.595349)"
       clip-path="url(#clipPath459)" />
    <path
       id="path462"
       d="m 0,0 c -0.399,0.215 -0.851,0.305 -1.241,0.02 -0.628,-0.457 -1.01,-1.081 -0.967,-1.889 0.039,-0.77 0.61,-1.268 1.411,-1.246 0.333,0.027 0.724,0.088 0.877,0.427 0.227,0.508 0.431,1.051 0.506,1.598 C 0.646,-0.658 0.421,-0.227 0,0"
       style="fill:#bd9500;fill-opacity:0.854902;fill-rule:nonzero;stroke:none"
       transform="matrix(0.42076362,0,0,-0.35687265,83.392407,100.70211)"
       clip-path="url(#clipPath463)" />
    <path
       id="path466"
       d="M 0,0 C 0.391,-0.178 1.095,-0.049 1.285,0.309 1.528,0.762 1.686,1.258 1.825,1.602 1.769,2.189 1.579,2.51 1.185,2.689 0.791,2.871 0.422,2.832 0.095,2.541 -0.305,2.182 -0.577,1.734 -0.724,1.227 -0.874,0.711 -0.593,0.268 0,0"
       style="fill:#bd9500;fill-opacity:0.854902;fill-rule:nonzero;stroke:none"
       transform="matrix(0.42076362,0,0,-0.35687265,89.46533,94.831837)"
       clip-path="url(#clipPath467)" />
    <path
       id="path468"
       d="m 0,0 c -0.318,-0.027 -0.589,-0.166 -0.702,-0.492 -0.087,-0.246 -0.199,-0.496 -0.209,-0.748 -0.008,-0.194 0.075,-0.44 0.205,-0.578 0.314,-0.338 0.733,-0.496 1.183,-0.309 0.392,0.162 0.338,0.565 0.392,0.992 -0.02,0.127 -0.03,0.348 -0.088,0.553 C 0.688,-0.25 0.322,0.025 0,0"
       style="fill:#bd9500;fill-opacity:0.854902;fill-rule:nonzero;stroke:none"
       transform="matrix(0.42076362,0,0,-0.35687265,84.975613,102.97995)"
       clip-path="url(#clipPath469)" />
    <path
       id="path450-72"
       d="m 0,0 c -0.886,0.166 -1.312,0.775 -1.829,1.197 -0.622,0.508 -1.339,0.953 -1.781,1.739 0.589,0.195 1.021,-0.065 1.476,-0.17 0.598,-0.137 0.922,0.17 0.836,0.795 C -1.333,3.818 -1.449,4.064 -1.489,4.322 -1.688,5.607 -1.59,6.838 -0.756,8.037 -0.625,7.846 -0.485,7.73 -0.454,7.59 -0.331,7.037 -0.212,6.48 -0.146,5.918 0.086,4.004 0.068,2.082 0,0 M 1.448,-2.574 C 1.447,-2.23 1.368,-1.885 1.313,-1.543 1.273,-1.287 1.137,-1.023 1.18,-0.787 1.512,1.088 1.391,2.979 1.412,4.865 1.424,5.973 1.266,7.057 1.021,8.131 0.934,8.512 0.819,8.896 0.659,9.254 0.328,9.998 -0.462,10.164 -1.067,9.631 -1.262,9.459 -1.458,9.254 -1.568,9.025 -1.906,8.316 -2.274,7.609 -2.499,6.861 -2.709,6.158 -2.75,5.406 -2.892,4.508 -3.276,4.629 -3.562,4.721 -3.848,4.807 -4.183,4.906 -4.516,5.031 -4.859,5.092 -5.284,5.166 -5.627,5.012 -5.862,4.625 -6.377,3.773 -6.332,3.158 -5.671,2.346 c 0.138,-0.17 0.274,-0.344 0.428,-0.5 1.204,-1.219 2.488,-2.348 3.851,-3.389 0.522,-0.396 1.045,-0.793 1.569,-1.187 0.138,-0.106 0.273,-0.223 0.425,-0.303 0.402,-0.213 0.847,0.017 0.846,0.459"
       style="fill:#be9500;fill-opacity:1;fill-rule:nonzero;stroke:none"
       transform="matrix(0.42076362,0,0,-0.35687265,107.7379,80.404153)"
       clip-path="url(#clipPath451-53)" />
    <path
       id="path458-3"
       d="M 0,0 C -0.362,0.037 -0.588,0.387 -0.582,0.896 -0.577,1.227 -0.325,1.418 0.052,1.379 0.428,1.34 0.677,1.049 0.659,0.67 0.642,0.285 0.329,-0.033 0,0 M -0.136,2.287 C -0.288,2.203 -0.458,2.154 -0.613,2.072 c -0.889,-0.459 -1.349,-1.394 -1.185,-2.4 0.127,-0.785 0.761,-1.305 1.651,-1.276 0.08,0.018 0.256,0.036 0.419,0.09 0.85,0.289 1.716,1.567 1.673,2.465 -0.052,1.07 -1.006,1.934 -2.081,1.336"
       style="fill:#be9500;fill-opacity:1;fill-rule:nonzero;stroke:none"
       transform="matrix(0.42076362,0,0,-0.35687265,102.75344,75.375896)"
       clip-path="url(#clipPath459-8)" />
    <path
       id="path462-4"
       d="m 0,0 c -0.399,0.215 -0.851,0.305 -1.241,0.02 -0.628,-0.457 -1.01,-1.081 -0.967,-1.889 0.039,-0.77 0.61,-1.268 1.411,-1.246 0.333,0.027 0.724,0.088 0.877,0.427 0.227,0.508 0.431,1.051 0.506,1.598 C 0.646,-0.658 0.421,-0.227 0,0"
       style="fill:#be9500;fill-opacity:1;fill-rule:nonzero;stroke:none"
       transform="matrix(0.42076362,0,0,-0.35687265,101.27701,79.274901)"
       clip-path="url(#clipPath463-5)" />
    <path
       id="path450-7"
       d="m 0,0 c -0.886,0.166 -1.312,0.775 -1.829,1.197 -0.622,0.508 -1.339,0.953 -1.781,1.739 0.589,0.195 1.021,-0.065 1.476,-0.17 0.598,-0.137 0.922,0.17 0.836,0.795 C -1.333,3.818 -1.449,4.064 -1.489,4.322 -1.688,5.607 -1.59,6.838 -0.756,8.037 -0.625,7.846 -0.485,7.73 -0.454,7.59 -0.331,7.037 -0.212,6.48 -0.146,5.918 0.086,4.004 0.068,2.082 0,0 M 1.448,-2.574 C 1.447,-2.23 1.368,-1.885 1.313,-1.543 1.273,-1.287 1.137,-1.023 1.18,-0.787 1.512,1.088 1.391,2.979 1.412,4.865 1.424,5.973 1.266,7.057 1.021,8.131 0.934,8.512 0.819,8.896 0.659,9.254 0.328,9.998 -0.462,10.164 -1.067,9.631 -1.262,9.459 -1.458,9.254 -1.568,9.025 -1.906,8.316 -2.274,7.609 -2.499,6.861 -2.709,6.158 -2.75,5.406 -2.892,4.508 -3.276,4.629 -3.562,4.721 -3.848,4.807 -4.183,4.906 -4.516,5.031 -4.859,5.092 -5.284,5.166 -5.627,5.012 -5.862,4.625 -6.377,3.773 -6.332,3.158 -5.671,2.346 c 0.138,-0.17 0.274,-0.344 0.428,-0.5 1.204,-1.219 2.488,-2.348 3.851,-3.389 0.522,-0.396 1.045,-0.793 1.569,-1.187 0.138,-0.106 0.273,-0.223 0.425,-0.303 0.402,-0.213 0.847,0.017 0.846,0.459"
       style="fill:#bd9500;fill-opacity:0.854902;fill-rule:nonzero;stroke:none"
       transform="matrix(0.35277776,0,0,-0.35277776,89.917795,104.02235)"
       clip-path="url(#clipPath451-1)" />
    <path
       id="path458-8"
       d="M 0,0 C -0.362,0.037 -0.588,0.387 -0.582,0.896 -0.577,1.227 -0.325,1.418 0.052,1.379 0.428,1.34 0.677,1.049 0.659,0.67 0.642,0.285 0.329,-0.033 0,0 M -0.136,2.287 C -0.288,2.203 -0.458,2.154 -0.613,2.072 c -0.889,-0.459 -1.349,-1.394 -1.185,-2.4 0.127,-0.785 0.761,-1.305 1.651,-1.276 0.08,0.018 0.256,0.036 0.419,0.09 0.85,0.289 1.716,1.567 1.673,2.465 -0.052,1.07 -1.006,1.934 -2.081,1.336"
       style="fill:#bd9500;fill-opacity:0.854902;fill-rule:nonzero;stroke:none"
       transform="matrix(0.35277776,0,0,-0.35277776,90.075025,97.984383)"
       clip-path="url(#clipPath459-2)" />
    <path
       id="path466-5"
       d="M 0,0 C 0.391,-0.178 1.095,-0.049 1.285,0.309 1.528,0.762 1.686,1.258 1.825,1.602 1.769,2.189 1.579,2.51 1.185,2.689 0.791,2.871 0.422,2.832 0.095,2.541 -0.305,2.182 -0.577,1.734 -0.724,1.227 -0.874,0.711 -0.593,0.268 0,0"
       style="fill:#be9500;fill-opacity:1;fill-rule:nonzero;stroke:none"
       transform="matrix(0.35277776,0,0,-0.35277776,84.076341,106.2782)"
       clip-path="url(#clipPath467-7)" />
    <path
       id="path170"
       d="m 0,0 c -0.506,-0.151 -0.776,-0.232 -1.069,-0.319 -0.125,0.928 -0.24,1.786 -0.357,2.644 h -0.38 c -0.921,-0.819 -0.275,-2.134 -0.771,-3.11 -0.294,0.251 -0.535,0.457 -0.967,0.827 v -1.834 c -0.906,0.004 -1.397,-0.355 -1.317,-1.357 0.513,-0.113 1.036,-0.227 1.544,-0.337 -0.064,-0.711 -0.916,-1.164 -0.381,-2.104 0.4,0.376 0.735,0.692 1.199,1.128 0.074,-1.035 0.136,-1.972 0.214,-2.908 0.051,-0.602 0.245,-1.041 1.111,-0.744 v 2.583 c 0.434,0.061 0.741,0.104 1.183,0.165 -0.363,0.701 -0.668,1.287 -0.962,1.853 0.663,0.625 2.065,-0.06 2.14,1.5 -0.609,0.156 -1.202,0.308 -1.804,0.462 C -0.414,-1.042 -0.241,-0.609 0,0"
       style="fill:#be9500;fill-opacity:1;fill-rule:nonzero;stroke:none"
       transform="matrix(0.35277776,0,0,-0.35277776,86.456291,77.688044)"
       clip-path="url(#clipPath171)" />
    <path
       id="path174"
       d="m 0,0 c -0.47,0 -0.85,-0.38 -0.85,-0.85 0,-0.469 0.38,-0.85 0.85,-0.85 0.47,0 0.85,0.381 0.85,0.85 C 0.85,-0.38 0.47,0 0,0"
       style="fill:#be9500;fill-opacity:1;fill-rule:nonzero;stroke:none"
       transform="matrix(0.35277776,0,0,-0.35277776,88.446204,84.149135)"
       clip-path="url(#clipPath175)" />
    <path
       id="path176"
       d="m 0,0 c -0.588,0 -1.062,-0.475 -1.062,-1.062 0,-0.586 0.474,-1.062 1.062,-1.062 0.585,0 1.062,0.476 1.062,1.062 C 1.062,-0.475 0.585,0 0,0"
       style="fill:#be9500;fill-opacity:1;fill-rule:nonzero;stroke:none"
       transform="matrix(0.35277776,0,0,-0.35277776,83.574838,76.225427)"
       clip-path="url(#clipPath177)" />
    <path
       id="path186"
       d="m 0,0 c -0.057,-0.559 -0.434,-1.073 -0.917,-1.351 -0.353,-0.202 -0.744,-0.162 -0.876,0.251 -0.092,0.29 -0.08,0.634 -0.072,0.94 0.016,0.005 0.029,0.008 0.061,0.019 0.153,0.048 0.295,0.106 0.452,0.146 0.222,0.056 0.223,0.392 0,0.447 -0.094,0.024 -0.191,0.051 -0.289,0.076 0.352,0.168 0.708,0.336 1.097,0.388 C 0.092,1 0.043,0.435 0,0 M -0.073,1.523 C -0.728,1.654 -1.452,1.196 -2.003,0.908 -2.149,0.831 -2.153,0.685 -2.084,0.579 -2.257,0.572 -2.423,0.529 -2.567,0.379 -2.895,0.038 -2.87,-0.696 -2.805,-1.119 c 0.162,-1.059 1.109,-1.599 2.112,-1.235 1.014,0.37 1.573,1.481 1.552,2.509 -0.013,0.662 -0.208,1.224 -0.932,1.368"
       style="fill:#be9500;fill-opacity:1;fill-rule:nonzero;stroke:none"
       transform="matrix(0.35277776,0,0,-0.35277776,90.468467,81.553607)"
       clip-path="url(#clipPath187)" />
    <path
       id="path188"
       d="M 0,0 C 0.018,0.009 0.032,0.014 0.049,0.022 0.057,0.043 0.063,0.063 0.063,0.063 Z"
       style="fill:#514527 icc-color(Adobe-RGB-1998, 0.30999756, 0.27799988, 0.17599487);fill-opacity:1;fill-rule:evenodd;stroke:none"
       transform="matrix(0.35277776,0,0,-0.35277776,81.419929,84.64835)"
       clip-path="url(#clipPath189)" />
    <path
       id="path468-0"
       d="m 0,0 c -0.318,-0.027 -0.589,-0.166 -0.702,-0.492 -0.087,-0.246 -0.199,-0.496 -0.209,-0.748 -0.008,-0.194 0.075,-0.44 0.205,-0.578 0.314,-0.338 0.733,-0.496 1.183,-0.309 0.392,0.162 0.338,0.565 0.392,0.992 -0.02,0.127 -0.03,0.348 -0.088,0.553 C 0.688,-0.25 0.322,0.025 0,0"
       style="fill:#bd9500;fill-opacity:0.854902;fill-rule:nonzero;stroke:none"
       transform="matrix(0.35277776,0,0,-0.35277776,92.853997,107.26131)"
       clip-path="url(#clipPath469-5)" />
    <path
       id="path450-3"
       d="m 0,0 c -0.886,0.166 -1.312,0.775 -1.829,1.197 -0.622,0.508 -1.339,0.953 -1.781,1.739 0.589,0.195 1.021,-0.065 1.476,-0.17 0.598,-0.137 0.922,0.17 0.836,0.795 C -1.333,3.818 -1.449,4.064 -1.489,4.322 -1.688,5.607 -1.59,6.838 -0.756,8.037 -0.625,7.846 -0.485,7.73 -0.454,7.59 -0.331,7.037 -0.212,6.48 -0.146,5.918 0.086,4.004 0.068,2.082 0,0 M 1.448,-2.574 C 1.447,-2.23 1.368,-1.885 1.313,-1.543 1.273,-1.287 1.137,-1.023 1.18,-0.787 1.512,1.088 1.391,2.979 1.412,4.865 1.424,5.973 1.266,7.057 1.021,8.131 0.934,8.512 0.819,8.896 0.659,9.254 0.328,9.998 -0.462,10.164 -1.067,9.631 -1.262,9.459 -1.458,9.254 -1.568,9.025 -1.906,8.316 -2.274,7.609 -2.499,6.861 -2.709,6.158 -2.75,5.406 -2.892,4.508 -3.276,4.629 -3.562,4.721 -3.848,4.807 -4.183,4.906 -4.516,5.031 -4.859,5.092 -5.284,5.166 -5.627,5.012 -5.862,4.625 -6.377,3.773 -6.332,3.158 -5.671,2.346 c 0.138,-0.17 0.274,-0.344 0.428,-0.5 1.204,-1.219 2.488,-2.348 3.851,-3.389 0.522,-0.396 1.045,-0.793 1.569,-1.187 0.138,-0.106 0.273,-0.223 0.425,-0.303 0.402,-0.213 0.847,0.017 0.846,0.459"
       style="fill:#be9500;fill-opacity:1;fill-rule:nonzero;stroke:none;stroke-width:1.00063;stroke-dasharray:none"
       transform="matrix(0.35277776,0,0,-0.35277776,114.70427,81.735963)"
       clip-path="url(#clipPath451-9)" />
    <path
       id="path454-4"
       d="m 0,0 c 0.301,-0.18 0.576,-0.4 0.88,-0.574 0.369,-0.207 0.844,0.025 0.903,0.447 0.096,0.689 0.164,1.383 0.244,2.074 0.03,0.262 0.049,0.524 0.094,0.783 0.045,0.266 0.136,0.518 0.44,0.584 C 2.748,3.354 2.957,3.078 2.981,2.74 3.055,1.73 3.075,0.721 2.792,-0.266 2.54,-1.148 2.281,-2.031 1.991,-3.031 0.883,-2.279 -0.106,-1.002 -0.468,0.057 -0.292,0.219 -0.137,0.084 0,0 m -2.337,-0.543 c 0.661,-1.248 1.479,-2.387 2.52,-3.342 0.513,-0.474 1.083,-0.892 1.662,-1.283 0.474,-0.322 0.859,-0.146 1.009,0.377 0.155,0.545 0.271,1.107 0.48,1.629 0.543,1.351 0.893,2.756 1.101,4.185 C 4.542,1.754 4.514,2.512 4.49,3.252 4.474,3.736 4.321,4.199 3.979,4.576 3.554,5.045 3.125,5.152 2.567,4.865 1.696,4.42 1.154,3.701 0.938,2.748 0.853,2.369 0.813,1.979 0.738,1.5 0.46,1.67 0.243,1.801 0.031,1.934 -0.263,2.121 -0.539,2.348 -0.851,2.494 -1.226,2.668 -1.633,2.658 -1.978,2.396 -2.71,1.84 -2.937,1.066 -2.64,0.186 c 0.083,-0.25 0.18,-0.498 0.303,-0.729"
       style="fill:#be9500;fill-opacity:1;fill-rule:nonzero;stroke:none"
       transform="matrix(0.35277776,0,0,-0.35277776,116.90073,77.809091)"
       clip-path="url(#clipPath455-7)" />
    <path
       id="path458-2"
       d="M 0,0 C -0.362,0.037 -0.588,0.387 -0.582,0.896 -0.577,1.227 -0.325,1.418 0.052,1.379 0.428,1.34 0.677,1.049 0.659,0.67 0.642,0.285 0.329,-0.033 0,0 M -0.136,2.287 C -0.288,2.203 -0.458,2.154 -0.613,2.072 c -0.889,-0.459 -1.349,-1.394 -1.185,-2.4 0.127,-0.785 0.761,-1.305 1.651,-1.276 0.08,0.018 0.256,0.036 0.419,0.09 0.85,0.289 1.716,1.567 1.673,2.465 -0.052,1.07 -1.006,1.934 -2.081,1.336"
       style="fill:#be9500;fill-opacity:0.631373;fill-rule:nonzero;stroke:none"
       transform="matrix(0.35277776,0,0,-0.35277776,112.97818,78.274925)"
       clip-path="url(#clipPath459-0)" />
    <path
       id="path462-9"
       d="m 0,0 c -0.399,0.215 -0.851,0.305 -1.241,0.02 -0.628,-0.457 -1.01,-1.081 -0.967,-1.889 0.039,-0.77 0.61,-1.268 1.411,-1.246 0.333,0.027 0.724,0.088 0.877,0.427 0.227,0.508 0.431,1.051 0.506,1.598 C 0.646,-0.658 0.421,-0.227 0,0"
       style="fill:#be9500;fill-opacity:1;fill-rule:nonzero;stroke:none"
       transform="matrix(0.35277776,0,0,-0.35277776,122.49248,77.654695)"
       clip-path="url(#clipPath463-3)" />
    <path
       id="path468-8"
       d="m 0,0 c -0.318,-0.027 -0.589,-0.166 -0.702,-0.492 -0.087,-0.246 -0.199,-0.496 -0.209,-0.748 -0.008,-0.194 0.075,-0.44 0.205,-0.578 0.314,-0.338 0.733,-0.496 1.183,-0.309 0.392,0.162 0.338,0.565 0.392,0.992 -0.02,0.127 -0.03,0.348 -0.088,0.553 C 0.688,-0.25 0.322,0.025 0,0"
       style="fill:#be9500;fill-opacity:1;fill-rule:nonzero;stroke:none"
       transform="matrix(0.35277776,0,0,-0.35277776,120.28412,80.907091)"
       clip-path="url(#clipPath469-7)" />
    <path
       id="path454-4-9"
       d="m 0,0 c 0.301,-0.18 0.576,-0.4 0.88,-0.574 0.369,-0.207 0.844,0.025 0.903,0.447 0.096,0.689 0.164,1.383 0.244,2.074 0.03,0.262 0.049,0.524 0.094,0.783 0.045,0.266 0.136,0.518 0.44,0.584 C 2.748,3.354 2.957,3.078 2.981,2.74 3.055,1.73 3.075,0.721 2.792,-0.266 2.54,-1.148 2.281,-2.031 1.991,-3.031 0.883,-2.279 -0.106,-1.002 -0.468,0.057 -0.292,0.219 -0.137,0.084 0,0 m -2.337,-0.543 c 0.661,-1.248 1.479,-2.387 2.52,-3.342 0.513,-0.474 1.083,-0.892 1.662,-1.283 0.474,-0.322 0.859,-0.146 1.009,0.377 0.155,0.545 0.271,1.107 0.48,1.629 0.543,1.351 0.893,2.756 1.101,4.185 C 4.542,1.754 4.514,2.512 4.49,3.252 4.474,3.736 4.321,4.199 3.979,4.576 3.554,5.045 3.125,5.152 2.567,4.865 1.696,4.42 1.154,3.701 0.938,2.748 0.853,2.369 0.813,1.979 0.738,1.5 0.46,1.67 0.243,1.801 0.031,1.934 -0.263,2.121 -0.539,2.348 -0.851,2.494 -1.226,2.668 -1.633,2.658 -1.978,2.396 -2.71,1.84 -2.937,1.066 -2.64,0.186 c 0.083,-0.25 0.18,-0.498 0.303,-0.729"
       style="fill:#be9500;fill-opacity:1;fill-rule:nonzero;stroke:none"
       transform="matrix(0.35277776,0,0,-0.35277776,125.04172,83.672653)"
       clip-path="url(#clipPath455-7-5)" />
    <path
       id="path466-57-8"
       d="M 0,0 C 0.391,-0.178 1.095,-0.049 1.285,0.309 1.528,0.762 1.686,1.258 1.825,1.602 1.769,2.189 1.579,2.51 1.185,2.689 0.791,2.871 0.422,2.832 0.095,2.541 -0.305,2.182 -0.577,1.734 -0.724,1.227 -0.874,0.711 -0.593,0.268 0,0"
       style="fill:#be9500;fill-opacity:1;fill-rule:nonzero;stroke:none"
       transform="matrix(0.35277776,0,0,-0.35277776,126.71897,89.323306)"
       clip-path="url(#clipPath467-3-1)" />
    <path
       id="path468-8-6"
       d="m 0,0 c -0.318,-0.027 -0.589,-0.166 -0.702,-0.492 -0.087,-0.246 -0.199,-0.496 -0.209,-0.748 -0.008,-0.194 0.075,-0.44 0.205,-0.578 0.314,-0.338 0.733,-0.496 1.183,-0.309 0.392,0.162 0.338,0.565 0.392,0.992 -0.02,0.127 -0.03,0.348 -0.088,0.553 C 0.688,-0.25 0.322,0.025 0,0"
       style="fill:#be9500;fill-opacity:1;fill-rule:nonzero;stroke:none"
       transform="matrix(0.35277776,0,0,-0.35277776,128.42511,86.770653)"
       clip-path="url(#clipPath469-7-8)" />
    <path
       id="path450-0"
       d="m 0,0 c -0.886,0.166 -1.312,0.775 -1.829,1.197 -0.622,0.508 -1.339,0.953 -1.781,1.739 0.589,0.195 1.021,-0.065 1.476,-0.17 0.598,-0.137 0.922,0.17 0.836,0.795 C -1.333,3.818 -1.449,4.064 -1.489,4.322 -1.688,5.607 -1.59,6.838 -0.756,8.037 -0.625,7.846 -0.485,7.73 -0.454,7.59 -0.331,7.037 -0.212,6.48 -0.146,5.918 0.086,4.004 0.068,2.082 0,0 M 1.448,-2.574 C 1.447,-2.23 1.368,-1.885 1.313,-1.543 1.273,-1.287 1.137,-1.023 1.18,-0.787 1.512,1.088 1.391,2.979 1.412,4.865 1.424,5.973 1.266,7.057 1.021,8.131 0.934,8.512 0.819,8.896 0.659,9.254 0.328,9.998 -0.462,10.164 -1.067,9.631 -1.262,9.459 -1.458,9.254 -1.568,9.025 -1.906,8.316 -2.274,7.609 -2.499,6.861 -2.709,6.158 -2.75,5.406 -2.892,4.508 -3.276,4.629 -3.562,4.721 -3.848,4.807 -4.183,4.906 -4.516,5.031 -4.859,5.092 -5.284,5.166 -5.627,5.012 -5.862,4.625 -6.377,3.773 -6.332,3.158 -5.671,2.346 c 0.138,-0.17 0.274,-0.344 0.428,-0.5 1.204,-1.219 2.488,-2.348 3.851,-3.389 0.522,-0.396 1.045,-0.793 1.569,-1.187 0.138,-0.106 0.273,-0.223 0.425,-0.303 0.402,-0.213 0.847,0.017 0.846,0.459"
       style="fill:#be9500;fill-opacity:1;fill-rule:nonzero;stroke:none"
       transform="matrix(0.35277776,0,0,-0.35277776,128.59274,101.39397)"
       clip-path="url(#clipPath451-5)" />
    <path
       id="path454-41"
       d="m 0,0 c 0.301,-0.18 0.576,-0.4 0.88,-0.574 0.369,-0.207 0.844,0.025 0.903,0.447 0.096,0.689 0.164,1.383 0.244,2.074 0.03,0.262 0.049,0.524 0.094,0.783 0.045,0.266 0.136,0.518 0.44,0.584 C 2.748,3.354 2.957,3.078 2.981,2.74 3.055,1.73 3.075,0.721 2.792,-0.266 2.54,-1.148 2.281,-2.031 1.991,-3.031 0.883,-2.279 -0.106,-1.002 -0.468,0.057 -0.292,0.219 -0.137,0.084 0,0 m -2.337,-0.543 c 0.661,-1.248 1.479,-2.387 2.52,-3.342 0.513,-0.474 1.083,-0.892 1.662,-1.283 0.474,-0.322 0.859,-0.146 1.009,0.377 0.155,0.545 0.271,1.107 0.48,1.629 0.543,1.351 0.893,2.756 1.101,4.185 C 4.542,1.754 4.514,2.512 4.49,3.252 4.474,3.736 4.321,4.199 3.979,4.576 3.554,5.045 3.125,5.152 2.567,4.865 1.696,4.42 1.154,3.701 0.938,2.748 0.853,2.369 0.813,1.979 0.738,1.5 0.46,1.67 0.243,1.801 0.031,1.934 -0.263,2.121 -0.539,2.348 -0.851,2.494 -1.226,2.668 -1.633,2.658 -1.978,2.396 -2.71,1.84 -2.937,1.066 -2.64,0.186 c 0.083,-0.25 0.18,-0.498 0.303,-0.729"
       style="fill:#be9500;fill-opacity:1;fill-rule:nonzero;stroke:none"
       transform="matrix(0.35277776,0,0,-0.35277776,129.27967,91.99505)"
       clip-path="url(#clipPath455-4)" />
    <path
       id="path462-7"
       d="m 0,0 c -0.399,0.215 -0.851,0.305 -1.241,0.02 -0.628,-0.457 -1.01,-1.081 -0.967,-1.889 0.039,-0.77 0.61,-1.268 1.411,-1.246 0.333,0.027 0.724,0.088 0.877,0.427 0.227,0.508 0.431,1.051 0.506,1.598 C 0.646,-0.658 0.421,-0.227 0,0"
       style="fill:#be9500;fill-opacity:1;fill-rule:nonzero;stroke:none"
       transform="matrix(0.35277776,0,0,-0.35277776,125.86524,103.44862)"
       clip-path="url(#clipPath463-7)" />
    <path
       id="path466-1"
       d="M 0,0 C 0.391,-0.178 1.095,-0.049 1.285,0.309 1.528,0.762 1.686,1.258 1.825,1.602 1.769,2.189 1.579,2.51 1.185,2.689 0.791,2.871 0.422,2.832 0.095,2.541 -0.305,2.182 -0.577,1.734 -0.724,1.227 -0.874,0.711 -0.593,0.268 0,0"
       style="fill:#be9500;fill-opacity:1;fill-rule:nonzero;stroke:none"
       transform="matrix(0.35277776,0,0,-0.35277776,130.95692,97.645703)"
       clip-path="url(#clipPath467-5)" />
    <path
       id="path468-6"
       d="m 0,0 c -0.318,-0.027 -0.589,-0.166 -0.702,-0.492 -0.087,-0.246 -0.199,-0.496 -0.209,-0.748 -0.008,-0.194 0.075,-0.44 0.205,-0.578 0.314,-0.338 0.733,-0.496 1.183,-0.309 0.392,0.162 0.338,0.565 0.392,0.992 -0.02,0.127 -0.03,0.348 -0.088,0.553 C 0.688,-0.25 0.322,0.025 0,0"
       style="fill:#be9500;fill-opacity:1;fill-rule:nonzero;stroke:none"
       transform="matrix(0.35277776,0,0,-0.35277776,127.19264,105.70033)"
       clip-path="url(#clipPath469-4)" />
    <text
       xml:space="preserve"
       style="font-size:5.64444px;font-family:'Great Vibes';-inkscape-font-specification:'Great Vibes';fill:#be9500;fill-opacity:1;stroke-width:0.264583"
       x="98.467537"
       y="113.14426"
       id="text1"><tspan
         sodipodi:role="line"
         style="fill:#be9500;fill-opacity:1;stroke-width:0.264583"
         x="98.467537"
         y="113.14426"
         id="tspan2">Recepción</tspan></text>
    <path
       id="path9768"
       d="m 0,0 c -6.93,-5.559 -13.118,-11.679 -20.8,-16.211 -2.377,6.274 -3.698,13.15 -5.673,19.57 -2.441,7.936 -4.5,16.107 -3.451,24.368 0.13,-0.158 0.305,-0.284 0.565,-0.325 1.238,-0.2 1.548,1.722 0.311,1.922 -0.27,0.043 -0.487,-0.023 -0.663,-0.143 0.086,0.493 0.176,0.988 0.285,1.481 1.657,7.52 7.884,13.361 15.264,8.696 5.284,-3.342 7.948,-10.084 7.527,-16.125 -0.035,-0.527 0.516,-0.776 0.875,-0.617 0.197,-0.109 0.455,-0.113 0.659,0.098 6.017,6.289 28.186,11.551 22.247,-3.819 C 14.02,10.799 6.531,5.237 0,0 m -37.013,-0.306 c -4.185,5.246 -7.551,11.385 -11.399,16.889 -5.318,7.612 -10.283,15.644 -11.18,25.087 -0.727,7.663 3.409,15.134 11.864,12.954 6.055,-1.561 10.658,-7.163 12.107,-13.041 0.129,-0.515 0.73,-0.582 1.023,-0.319 0.22,-0.044 0.469,0.032 0.596,0.295 3.801,7.831 23.291,19.632 22.35,3.184 -0.102,-1.749 -0.413,-3.452 -0.869,-5.116 -3.785,3.321 -8.627,4.383 -13.36,0.189 -6.518,-5.779 -6.13,-16.877 -4.881,-24.601 0.297,-1.844 0.699,-3.668 1.161,-5.484 -2.243,-3.483 -4.61,-6.88 -7.412,-10.037 m 49.525,9.815 c 4.053,4.434 7.735,10.162 6.71,15.771 -1.886,10.354 -19.773,3.667 -24.632,-1.325 0.112,4.799 -2.367,10.831 -6.109,14.703 1.42,4.391 1.905,9.029 -0.115,12.799 -4.97,9.277 -19.945,-2.569 -23.044,-8.811 -2.787,9.413 -17.47,20.444 -24.344,8.822 -4.435,-7.496 -0.663,-17.942 2.893,-24.912 2.455,-4.813 5.681,-9.247 8.779,-13.653 3.253,-4.626 5.972,-9.763 9.524,-14.165 -0.367,-0.541 0.509,-1.15 0.995,-0.62 2.775,3.022 5.32,6.319 7.726,9.747 0.771,-2.803 1.657,-5.581 2.512,-8.337 1.679,-5.402 2.694,-11.123 4.724,-16.402 -0.514,-0.401 0.135,-1.251 0.76,-0.895 10.718,6.086 20.272,15.036 29.471,23.205 0.913,0.812 1.896,1.733 2.879,2.735 0.126,-0.151 0.294,-0.272 0.543,-0.313 1.013,-0.164 1.368,1.135 0.728,1.651"
       style="fill:#39180e icc-color(Adobe-RGB-1998, 0.20799255, 0.11799622, 0.08599854);fill-opacity:1;fill-rule:evenodd;stroke:none"
       transform="matrix(0.35277776,0,0,-0.35277776,116.21477,102.35624)"
       clip-path="url(#clipPath9769)" />
    <path
       id="path9770"
       d="M 0,0 C 0.921,0.606 1.552,1.59 2.216,2.459 2.899,3.355 3.582,4.254 4.28,5.138 4.293,5.069 4.304,5.001 4.313,4.935 2.981,3.128 1.528,1.333 0.353,-0.563 0.189,-0.829 0.568,-1.072 0.793,-0.923 2.417,0.173 3.458,2.048 4.518,3.737 4.551,3.539 4.585,3.342 4.617,3.144 3.702,1.979 2.805,0.798 1.924,-0.394 1.575,-0.863 0.95,-1.474 0.397,-2.12 0.261,-1.423 0.123,-0.717 0,0 M -0.498,3.997 C 0.924,5.372 1.965,7.189 3.266,8.683 3.558,9.018 3.041,9.426 2.739,9.117 1.622,7.964 0.285,6.696 -0.537,5.235 c 0,0.099 -0.007,0.202 -0.007,0.299 0.439,0.55 0.801,1.188 1.191,1.739 0.726,1.025 1.443,2.055 2.15,3.094 0.014,0.022 0.018,0.045 0.028,0.069 C 3.288,9.275 3.664,8.021 3.723,7.8 3.846,7.322 3.956,6.842 4.05,6.36 3.115,5.327 2.218,4.265 1.351,3.173 1.179,2.953 0.999,2.735 0.821,2.515 1.961,4.107 2.797,6.14 3.659,7.598 3.846,7.912 3.325,8.234 3.117,7.937 2.336,6.81 1.583,5.66 0.832,4.511 0.464,3.951 0.032,3.405 -0.38,2.849 -0.419,3.231 -0.475,3.615 -0.498,3.997 m 0.315,3.961 c -0.072,-0.102 -0.15,-0.206 -0.228,-0.311 0.016,0.137 0.019,0.277 0.04,0.411 0.102,0.164 0.202,0.326 0.304,0.48 0.546,0.82 1.069,1.622 1.759,2.327 0.282,0.291 -0.176,0.781 -0.481,0.517 C 0.87,11.085 0.552,10.773 0.248,10.444 0.498,11.101 0.81,11.732 1.204,12.324 1.562,12.867 2.08,12.116 2.551,11.079 2.407,11.126 2.239,11.096 2.113,10.93 1.349,9.938 0.554,8.973 -0.183,7.958 M 5.715,2.035 C 5.805,1.922 5.936,1.848 6.071,1.831 5.393,0.911 4.697,0.005 3.994,-0.896 2.965,-2.217 1.747,-3.495 0.989,-5.001 c -0.023,0.105 -0.046,0.207 -0.064,0.313 0.681,0.788 1.242,1.721 1.84,2.546 0.999,1.384 1.978,2.776 2.95,4.177 m 0.628,-4.376 c 2.173,1.684 4.204,4.198 5.722,6.481 0.337,0.508 -0.383,1.119 -0.738,0.608 C 10.55,3.63 9.513,2.626 8.531,1.589 8.618,1.843 8.259,2.157 8.013,1.953 7.559,1.583 7.079,1.171 6.601,0.728 7.087,1.518 7.543,2.308 7.968,3.067 9.483,4.059 11.137,4.871 12.795,5.535 13.486,5.813 15.92,6.806 15.38,5.228 15.005,4.127 14.203,3.178 13.396,2.369 11.269,0.238 8.592,-1.44 6.059,-3.041 4.736,-3.876 3.229,-4.515 1.828,-5.256 2.339,-4.818 2.823,-4.324 3.292,-3.804 3.251,-3.918 3.2,-4.029 3.167,-4.144 3.11,-4.336 3.364,-4.45 3.503,-4.354 c 0.994,0.69 1.62,1.804 2.328,2.763 0.7,0.952 1.434,1.869 2.264,2.705 C 7.219,0.15 6.426,-0.861 5.978,-2.041 5.895,-2.256 6.139,-2.501 6.343,-2.341 M 0.14,-6.862 c 0.127,-0.681 1.097,-0.643 1.193,-0.077 2.038,0.282 5.223,2.823 6.383,3.56 2.722,1.732 6.32,3.847 7.968,6.747 1.112,1.958 1.401,4.261 -1.556,3.721 C 11.27,6.566 7.923,4.692 5.804,2.694 5.8,2.865 5.791,3.063 5.774,3.276 5.892,3.438 6.002,3.6 6.12,3.758 6.376,4.103 6.001,4.501 5.682,4.391 5.327,7.853 4.176,13.701 1.409,13.776 -0.372,13.823 -1.066,10.015 -1.316,8.46 -1.643,7.976 -1.93,7.459 -2.027,6.943 -2.075,6.685 -1.788,6.561 -1.59,6.673 -1.565,6.687 -1.546,6.711 -1.523,6.726 -1.549,6.416 -1.549,6.102 -1.562,5.789 -1.666,5.519 -1.737,5.244 -1.759,4.96 -1.766,4.83 -1.687,4.732 -1.581,4.7 -1.566,3.595 -1.469,2.48 -1.332,1.366 -1.422,1.194 -1.527,1.031 -1.602,0.853 -1.707,0.598 -1.439,0.417 -1.221,0.53 c 0.194,-1.34 0.444,-2.675 0.702,-3.992 -0.094,-0.208 -0.167,-0.412 -0.184,-0.608 -0.012,-0.117 0.057,-0.235 0.182,-0.252 0.056,-0.009 0.113,0.011 0.169,0.013 0.03,-0.146 0.056,-0.289 0.084,-0.436 -0.062,-0.156 -0.121,-0.316 -0.169,-0.477 -0.058,-0.206 0.144,-0.365 0.332,-0.363 0.083,-0.427 0.169,-0.857 0.245,-1.277"
       style="fill:#39180e icc-color(Adobe-RGB-1998, 0.20799255, 0.11799622, 0.08599854);fill-opacity:1;fill-rule:evenodd;stroke:none"
       transform="matrix(0.51863563,0,0,-0.4632044,109.87434,99.276466)"
       clip-path="url(#clipPath9771)" />
    <path
       id="path9772"
       d="m 0,0 c -2.829,4.982 -6.691,9.185 -9.302,14.352 -3.384,6.699 -6.364,18.942 0.147,24.518 0.454,0.391 -0.034,1.081 -0.546,0.756 -6.84,-4.331 -4.348,-15.052 -2.437,-21.381 1.627,-5.384 4.756,-10.016 8.006,-14.545 3.236,-4.509 5.476,-10.75 9.92,-14.183 0.557,-0.431 1.156,0.343 0.681,0.826 C 3.664,-6.806 1.954,-3.442 0,0"
       style="fill:#39180e icc-color(Adobe-RGB-1998, 0.20799255, 0.11799622, 0.08599854);fill-opacity:1;fill-rule:evenodd;stroke:none"
       transform="matrix(0.35277776,0,0,-0.35277776,100.77493,96.963009)"
       clip-path="url(#clipPath9773)" />
    <path
       id="path9774"
       d="m 0,0 c -0.37,0.393 -1.019,-0.229 -0.683,-0.64 5.739,-7.046 -9.313,-19.24 -13.683,-23.191 -3.741,-3.38 -7.668,-6.553 -11.65,-9.643 -2.227,-1.729 -5.061,-3.271 -6.886,-5.45 -0.245,-0.291 0.075,-0.735 0.428,-0.597 3.448,1.369 6.615,4.587 9.484,6.852 4.744,3.741 9.329,7.687 13.656,11.903 C -5.332,-16.868 5.958,-6.25 0,0"
       style="fill:#39180e icc-color(Adobe-RGB-1998, 0.20799255, 0.11799622, 0.08599854);fill-opacity:1;fill-rule:evenodd;stroke:none"
       transform="matrix(0.35277776,0,0,-0.35277776,121.09645,92.993687)"
       clip-path="url(#clipPath9775)" />
    <path
       id="path9776"
       d="M 0,0 C 1.241,-2.101 1.613,-4.535 2.734,-6.66 2.913,-6.997 3.365,-6.887 3.368,-6.507 3.409,-1.813 -0.062,2.984 -3.624,5.704 -4.056,6.033 -4.561,5.416 -4.156,5.058 -2.506,3.591 -1.123,1.9 0,0"
       style="fill:#39180e icc-color(Adobe-RGB-1998, 0.20799255, 0.11799622, 0.08599854);fill-opacity:1;fill-rule:evenodd;stroke:none"
       transform="matrix(0.35277776,0,0,-0.35277776,112.25415,90.772792)"
       clip-path="url(#clipPath9777)" />
    <path
       id="path9800"
       d="M 0,0 C 0.729,0.601 1.433,1.228 2.129,1.868 2.733,2.425 3.634,2.966 3.965,3.732 4.075,3.986 3.874,4.278 3.594,4.248 2.767,4.158 2.135,3.448 1.556,2.901 0.796,2.185 0.127,1.387 -0.604,0.645 -0.96,0.283 -0.389,-0.321 0,0"
       style="fill:#39180e icc-color(Adobe-RGB-1998, 0.20799255, 0.11799622, 0.08599854);fill-opacity:1;fill-rule:evenodd;stroke:none"
       transform="matrix(0.35277776,0,0,-0.35277776,100.72683,82.366175)"
       clip-path="url(#clipPath9801)" />
    <path
       id="path9800-2"
       d="M 0,0 C 0.729,0.601 1.433,1.228 2.129,1.868 2.733,2.425 3.634,2.966 3.965,3.732 4.075,3.986 3.874,4.278 3.594,4.248 2.767,4.158 2.135,3.448 1.556,2.901 0.796,2.185 0.127,1.387 -0.604,0.645 -0.96,0.283 -0.389,-0.321 0,0"
       style="fill:#39180e icc-color(Adobe-RGB-1998, 0.20799255, 0.11799622, 0.08599854);fill-opacity:1;fill-rule:evenodd;stroke:none"
       transform="matrix(0.35277776,0,0,-0.35277776,101.52087,82.825377)"
       clip-path="url(#clipPath9801-3)" />
    <path
       id="path9780"
       d="m 0,0 c 0.492,0.166 0.447,1.03 -0.109,1.057 -2.119,0.091 -4.318,-1.223 -6.179,-2.093 -0.68,-0.316 -0.272,-1.405 0.423,-1.094 0.895,0.402 1.79,0.81 2.702,1.178 C -2.128,-0.536 -1.048,-0.354 0,0"
       style="fill:#39180e icc-color(Adobe-RGB-1998, 0.20799255, 0.11799622, 0.08599854);fill-opacity:1;fill-rule:evenodd;stroke:none"
       transform="matrix(0.35277776,0,0,-0.35277776,125.7542,92.33467)"
       clip-path="url(#clipPath9781)" />
    <path
       id="path9780-7"
       d="m 0,0 c 0.492,0.166 0.447,1.03 -0.109,1.057 -2.119,0.091 -4.318,-1.223 -6.179,-2.093 -0.68,-0.316 -0.272,-1.405 0.423,-1.094 0.895,0.402 1.79,0.81 2.702,1.178 C -2.128,-0.536 -1.048,-0.354 0,0"
       style="fill:#39180e icc-color(Adobe-RGB-1998, 0.20799255, 0.11799622, 0.08599854);fill-opacity:1;fill-rule:evenodd;stroke:none"
       transform="matrix(0.49619645,0,0,-0.27058788,127.04413,93.36794)"
       clip-path="url(#clipPath9781-4)" />
    <path
       id="path9788"
       d="m 0,0 c -0.309,0.516 -1.21,0.03 -0.929,-0.504 0.435,-0.82 0.86,-1.639 1.246,-2.481 0.37,-0.802 0.587,-1.828 1.302,-2.39 0.222,-0.174 0.489,-0.037 0.56,0.21 0.252,0.908 -0.327,1.823 -0.719,2.62 C 1.033,-1.669 0.504,-0.835 0,0"
       style="fill:#39180e icc-color(Adobe-RGB-1998, 0.20799255, 0.11799622, 0.08599854);fill-opacity:1;fill-rule:evenodd;stroke:none"
       transform="matrix(0.35277776,0,0,-0.35277776,118.39209,102.77484)"
       clip-path="url(#clipPath9789)" />
    <path
       id="path9788-3"
       d="m 0,0 c -0.309,0.516 -1.21,0.03 -0.929,-0.504 0.435,-0.82 0.86,-1.639 1.246,-2.481 0.37,-0.802 0.587,-1.828 1.302,-2.39 0.222,-0.174 0.489,-0.037 0.56,0.21 0.252,0.908 -0.327,1.823 -0.719,2.62 C 1.033,-1.669 0.504,-0.835 0,0"
       style="fill:#39180e icc-color(Adobe-RGB-1998, 0.20799255, 0.11799622, 0.08599854);fill-opacity:1;fill-rule:evenodd;stroke:none"
       transform="matrix(0.35277776,0,0,-0.35277776,119.48668,102.3519)"
       clip-path="url(#clipPath9789-9)" />
    <path
       id="path9804"
       d="m 0,0 c -1.021,-1.423 -2.014,-3.149 -2.437,-4.857 -0.11,-0.443 0.507,-0.666 0.772,-0.351 1.101,1.3 1.52,3.124 2.469,4.545 C 1.169,-0.114 0.396,0.55 0,0"
       style="fill:#39180e icc-color(Adobe-RGB-1998, 0.20799255, 0.11799622, 0.08599854);fill-opacity:1;fill-rule:evenodd;stroke:none"
       transform="matrix(0.35277776,0,0,-0.35277776,100.30083,101.82481)"
       clip-path="url(#clipPath9805)" />
    <path
       id="path9802"
       d="M 0,0 C -0.581,-0.527 -1.119,-1.085 -1.641,-1.672 -2.192,-2.289 -2.79,-2.894 -3.09,-3.68 c -0.16,-0.415 0.27,-0.75 0.642,-0.528 0.647,0.385 1.088,0.971 1.575,1.53 0.539,0.624 1.099,1.235 1.665,1.833 C 1.243,-0.366 0.491,0.443 0,0"
       style="fill:#39180e icc-color(Adobe-RGB-1998, 0.20799255, 0.11799622, 0.08599854);fill-opacity:1;fill-rule:evenodd;stroke:none"
       transform="matrix(0.35277776,0,0,-0.35277776,100.02996,100.23699)"
       clip-path="url(#clipPath9803)" />
    <path
       id="path9796"
       d="m 0,0 c 0.554,-0.338 1.202,-0.236 1.828,-0.213 0.856,0.028 1.71,0.083 2.568,0.132 C 5.142,-0.04 5.001,1.073 4.271,1.061 3.52,1.047 2.769,1.035 2.017,1.016 1.306,0.995 0.534,1.067 -0.062,0.634 -0.306,0.456 -0.229,0.142 0,0"
       style="fill:#39180e icc-color(Adobe-RGB-1998, 0.20799255, 0.11799622, 0.08599854);fill-opacity:1;fill-rule:evenodd;stroke:none"
       transform="matrix(0.53578047,0,0,-0.35277776,90.918361,89.299759)"
       clip-path="url(#clipPath9797)" />
    <path
       id="path9792"
       d="m 0,0 c -1.136,-0.787 -2.88,-2.013 -3.093,-3.494 -0.053,-0.368 0.361,-0.624 0.666,-0.411 0.526,0.363 0.875,0.937 1.295,1.411 0.529,0.596 1.148,1.114 1.777,1.6 C 1.204,-0.458 0.584,0.404 0,0"
       style="fill:#39180e icc-color(Adobe-RGB-1998, 0.20799255, 0.11799622, 0.08599854);fill-opacity:1;fill-rule:evenodd;stroke:none"
       transform="matrix(0.80745319,0,0,-0.33645617,93.584064,90.08806)"
       clip-path="url(#clipPath9793)" />
    <path
       id="path9792-4"
       d="m 0,0 c -1.136,-0.787 -2.88,-2.013 -3.093,-3.494 -0.053,-0.368 0.361,-0.624 0.666,-0.411 0.526,0.363 0.875,0.937 1.295,1.411 0.529,0.596 1.148,1.114 1.777,1.6 C 1.204,-0.458 0.584,0.404 0,0"
       style="fill:#39180e icc-color(Adobe-RGB-1998, 0.20799255, 0.11799622, 0.08599854);fill-opacity:1;fill-rule:evenodd;stroke:none"
       transform="matrix(0.79061336,0,0,-0.30381298,93.053584,89.579117)"
       clip-path="url(#clipPath9793-4)" />
    <path
       id="path9794"
       d="m 0,0 c -0.377,-0.803 -0.831,-1.567 -1.351,-2.286 -0.319,-0.441 -0.809,-1.135 -0.011,-1.36 0.191,-0.054 0.386,0.061 0.51,0.191 0.808,0.839 1.371,1.947 1.814,3.014 C 1.223,0.188 0.289,0.619 0,0"
       style="fill:#39180e icc-color(Adobe-RGB-1998, 0.20799255, 0.11799622, 0.08599854);fill-opacity:1;fill-rule:evenodd;stroke:none"
       transform="matrix(0.35277776,0,0,-0.35277776,94.083679,90.838278)"
       clip-path="url(#clipPath9795)" />
  </g>
</svg>
